<svg xmlns="http://www.w3.org/2000/svg" width="123.657" height="85" viewBox="0 0 123.657 85">
  <g id="noun_Add_Video_3541175" data-name="noun_Add Video_3541175" transform="translate(-13.07 -26)">
    <path id="Path_49614" data-name="Path 49614" d="M133.611,30.958,113.583,54.333a1.771,1.771,0,0,1-3.117-1.151V34.854A8.854,8.854,0,0,0,101.612,26H21.924a8.854,8.854,0,0,0-8.854,8.854v67.292A8.854,8.854,0,0,0,21.924,111h79.688a8.854,8.854,0,0,0,8.854-8.854V83.906a1.771,1.771,0,0,1,3.117-1.24l20.028,23.375a1.771,1.771,0,0,0,3.117-1.151V32.109a1.771,1.771,0,0,0-3.117-1.151ZM83.018,72.042H65.31V89.75a3.542,3.542,0,0,1-7.083,0V72.042H40.518a3.542,3.542,0,1,1,0-7.083H58.226V47.25a3.542,3.542,0,1,1,7.083,0V64.958H83.018a3.542,3.542,0,0,1,0,7.083Z" transform="translate(0 0)" fill="#afafaf"/>
  </g>
</svg>
