<svg xmlns="http://www.w3.org/2000/svg" width="16.631" height="17.214" viewBox="0 0 16.631 17.214">
  <g id="noun_auction_3256543" transform="translate(-3.85 -2.85)">
    <g id="Group_23135" data-name="Group 23135" transform="translate(4 3)">
      <path id="Path_48720" data-name="Path 48720" d="M20.246,16.209,13.89,9.853l.608-.608.377.377a.291.291,0,0,0,.412,0l1.75-1.75a.291.291,0,0,0,0-.412L12.663,3.085a.291.291,0,0,0-.412,0L10.5,4.835a.291.291,0,0,0,0,.412l.669.669L8.083,9l-.669-.669a.291.291,0,0,0-.412,0l-1.75,1.75a.291.291,0,0,0,0,.412l4.374,4.374a.291.291,0,0,0,.412,0l1.75-1.75a.291.291,0,0,0,0-.412l-.377-.377.608-.608,6.355,6.355a.291.291,0,0,0,.412,0l1.458-1.458A.291.291,0,0,0,20.246,16.209ZM12.457,3.7l3.962,3.962L15.082,9,14.7,8.626,11.788,5.71l-.669-.669ZM9.833,14.253,5.871,10.291,7.208,8.953l.669.669,2.916,2.916.377.377ZM8.5,9.416l3.087-3.087,2.5,2.5L11,11.92Zm10.086,8.045-6.149-6.149,1.046-1.046,6.149,6.149Zm-7.874.121h-.583v-.875a.876.876,0,0,0-.875-.875H5.75a.876.876,0,0,0-.875.875v.875H4.292A.292.292,0,0,0,4,17.873v1.75a.292.292,0,0,0,.292.292h6.416A.292.292,0,0,0,11,19.623v-1.75A.292.292,0,0,0,10.707,17.581Zm-5.249-.875a.292.292,0,0,1,.292-.292h3.5a.292.292,0,0,1,.292.292v.875H5.458Zm4.958,2.625H4.583V18.165h5.833Z" transform="translate(-4 -3)" stroke="#000" stroke-width="0.3"/>
    </g>
  </g>
</svg>
