<svg xmlns="http://www.w3.org/2000/svg" xmlns:xlink="http://www.w3.org/1999/xlink" width="20" height="22.963" viewBox="0 0 20 22.963">
  <defs>
    <clipPath id="clip-path">
      <path id="Path_49515" data-name="Path 49515" d="M130.037-54.767a.477.477,0,0,0,.44.3H135.7v11.956a.478.478,0,0,0,.477.478H143.8a.478.478,0,0,0,.477-.478V-54.471h5.243a.478.478,0,0,0,.441-.295.48.48,0,0,0-.1-.521l-9.509-9.572a.476.476,0,0,0-.337-.141.479.479,0,0,0-.337.14l-9.537,9.572A.478.478,0,0,0,130.037-54.767Z" fill="red"/>
    </clipPath>
    <clipPath id="clip-path-2">
      <path id="Path_49514" data-name="Path 49514" d="M-16,333H359V-334H-16Z" fill="red"/>
    </clipPath>
  </defs>
  <g id="Group_24107" data-name="Group 24107" transform="translate(150 -42.037) rotate(180)" clip-path="url(#clip-path)">
    <g id="Group_24106" data-name="Group 24106" clip-path="url(#clip-path-2)">
      <path id="Path_49513" data-name="Path 49513" d="M155-37.037H125V-70h30Z" fill="red"/>
    </g>
  </g>
</svg>
