<svg xmlns="http://www.w3.org/2000/svg" width="90.544" height="100.991" viewBox="0 0 90.544 100.991">
  <g id="carpenter" transform="translate(-48 -23.998)">
    <path id="Path_49131" data-name="Path 49131" d="M188.614,213.564v27.9H112V213.566a10.44,10.44,0,0,1,8.517-10.267c6.791-1.273,15.612-2.927,18.433-3.458l.91-.17V184h20.895v15.671l.91.17,18.429,3.456A10.446,10.446,0,0,1,188.614,213.564Z" transform="translate(-50.07 -125.177)" fill="#fec9a3"/>
    <path id="Path_49132" data-name="Path 49132" d="M258.532,199.841a6.96,6.96,0,0,1-5.929,3.313H241.746a6.96,6.96,0,0,1-5.93-3.314l.91-.169V184h20.895v15.671Z" transform="translate(-146.938 -125.177)" fill="#fec093"/>
    <path id="Path_49133" data-name="Path 49133" d="M188.614,269.893v27.9H112v-27.9a10.434,10.434,0,0,1,8.517-10.267c1.717-.322,3.565-.668,5.413-1.016,2.418-.453,4.838-.906,6.965-1.306L139.86,256l6.965,6.965,2.786,6.965.7,1.741.7-1.741,2.786-6.964L160.754,256l13.93,2.612,5.409,1.014a10.445,10.445,0,0,1,8.521,10.269Z" transform="translate(-50.07 -181.505)" fill="#f35244"/>
    <path id="Path_49134" data-name="Path 49134" d="M240,288h6.965v6.965H240Z" transform="translate(-150.211 -206.54)" fill="#d93e30"/>
    <path id="Path_49135" data-name="Path 49135" d="M118.965,288v6.965H112v-.035a10.418,10.418,0,0,1,2.629-6.93Z" transform="translate(-50.07 -206.541)" fill="#d93e30"/>
    <path id="Path_49136" data-name="Path 49136" d="M176,288h6.965v6.965H176Z" transform="translate(-100.14 -206.54)" fill="#d93e30"/>
    <path id="Path_49137" data-name="Path 49137" d="M368,288h6.965v6.965H368Z" transform="translate(-250.351 -206.54)" fill="#d93e30"/>
    <path id="Path_49138" data-name="Path 49138" d="M304,288h6.965v6.965H304Z" transform="translate(-200.281 -206.54)" fill="#d93e30"/>
    <path id="Path_49139" data-name="Path 49139" d="M438.965,294.929v.035H432V288h4.336A10.425,10.425,0,0,1,438.965,294.929Z" transform="translate(-300.421 -206.541)" fill="#d93e30"/>
    <path id="Path_49140" data-name="Path 49140" d="M246.965,262.963H240V256Z" transform="translate(-150.211 -181.505)" fill="#ea4a3b"/>
    <path id="Path_49141" data-name="Path 49141" d="M128.416,274.578V277.5H124.08A10.4,10.4,0,0,1,128.416,274.578Z" transform="translate(-59.521 -196.041)" fill="#ea4a3b"/>
    <path id="Path_49142" data-name="Path 49142" d="M310.965,256v6.965H304Z" transform="translate(-200.281 -181.505)" fill="#ea4a3b"/>
    <path id="Path_49143" data-name="Path 49143" d="M436.336,277.5H432V274.58A10.4,10.4,0,0,1,436.336,277.5Z" transform="translate(-300.421 -196.042)" fill="#ea4a3b"/>
    <path id="Path_49144" data-name="Path 49144" d="M182.965,262v5.659H176v-4.353C178.418,262.853,180.838,262.4,182.965,262Z" transform="translate(-100.14 -186.2)" fill="#ea4a3b"/>
    <path id="Path_49145" data-name="Path 49145" d="M374.965,263.3v4.353H368V262Z" transform="translate(-250.351 -186.199)" fill="#ea4a3b"/>
    <path id="Path_49146" data-name="Path 49146" d="M368,352h6.965v6.965H368Z" transform="translate(-250.351 -256.61)" fill="#d93e30"/>
    <path id="Path_49147" data-name="Path 49147" d="M176,352h6.965v6.965H176Z" transform="translate(-100.14 -256.61)" fill="#d93e30"/>
    <path id="Path_49148" data-name="Path 49148" d="M432,352h6.965v6.965H432Z" transform="translate(-300.421 -256.61)" fill="#d93e30"/>
    <path id="Path_49149" data-name="Path 49149" d="M240,352h6.965v6.965H240Z" transform="translate(-150.211 -256.61)" fill="#d93e30"/>
    <path id="Path_49150" data-name="Path 49150" d="M112,352h6.965v6.965H112Z" transform="translate(-50.07 -256.61)" fill="#d93e30"/>
    <path id="Path_49151" data-name="Path 49151" d="M304,352h6.965v6.965H304Z" transform="translate(-200.281 -256.61)" fill="#d93e30"/>
    <path id="Path_49152" data-name="Path 49152" d="M368,320h6.965v6.965H368Z" transform="translate(-250.351 -231.575)" fill="#ea4a3b"/>
    <path id="Path_49153" data-name="Path 49153" d="M304,320h6.965v6.965H304Z" transform="translate(-200.281 -231.575)" fill="#ea4a3b"/>
    <path id="Path_49154" data-name="Path 49154" d="M240,320h6.965v6.965H240Z" transform="translate(-150.211 -231.575)" fill="#ea4a3b"/>
    <path id="Path_49155" data-name="Path 49155" d="M176,320h6.965v6.965H176Z" transform="translate(-100.14 -231.575)" fill="#ea4a3b"/>
    <path id="Path_49156" data-name="Path 49156" d="M112,320h6.965v6.965H112Z" transform="translate(-50.07 -231.575)" fill="#ea4a3b"/>
    <path id="Path_49157" data-name="Path 49157" d="M432,320h6.965v6.965H432Z" transform="translate(-300.421 -231.575)" fill="#ea4a3b"/>
    <path id="Path_49158" data-name="Path 49158" d="M368,416h6.965v6.965H368Z" transform="translate(-250.351 -306.68)" fill="#d93e30"/>
    <path id="Path_49159" data-name="Path 49159" d="M240,416h6.965v6.965H240Z" transform="translate(-150.211 -306.68)" fill="#d93e30"/>
    <path id="Path_49160" data-name="Path 49160" d="M112,416h6.965v6.965H112Z" transform="translate(-50.07 -306.68)" fill="#d93e30"/>
    <path id="Path_49161" data-name="Path 49161" d="M176,416h6.965v6.965H176Z" transform="translate(-100.14 -306.68)" fill="#d93e30"/>
    <path id="Path_49162" data-name="Path 49162" d="M432,416h6.965v6.965H432Z" transform="translate(-300.421 -306.68)" fill="#d93e30"/>
    <path id="Path_49163" data-name="Path 49163" d="M304,416h6.965v6.965H304Z" transform="translate(-200.281 -306.68)" fill="#d93e30"/>
    <g id="Group_23620" data-name="Group 23620" transform="translate(61.93 81.458)">
      <path id="Path_49164" data-name="Path 49164" d="M304,384h6.965v6.965H304Z" transform="translate(-262.211 -363.103)" fill="#ea4a3b"/>
      <path id="Path_49165" data-name="Path 49165" d="M368,384h6.965v6.965H368Z" transform="translate(-312.281 -363.103)" fill="#ea4a3b"/>
      <path id="Path_49166" data-name="Path 49166" d="M112,384h6.965v6.965H112Z" transform="translate(-112 -363.103)" fill="#ea4a3b"/>
      <path id="Path_49167" data-name="Path 49167" d="M240,384h6.965v6.965H240Z" transform="translate(-212.14 -363.103)" fill="#ea4a3b"/>
      <path id="Path_49168" data-name="Path 49168" d="M176,384h6.965v6.965H176Z" transform="translate(-162.07 -363.103)" fill="#ea4a3b"/>
      <path id="Path_49169" data-name="Path 49169" d="M432,384h6.965v6.965H432Z" transform="translate(-362.351 -363.103)" fill="#ea4a3b"/>
      <path id="Path_49170" data-name="Path 49170" d="M208,288h6.965v6.965H208Z" transform="translate(-187.105 -287.998)" fill="#ea4a3b"/>
    </g>
    <path id="Path_49171" data-name="Path 49171" d="M214.965,256v6.965H208v-5.659Z" transform="translate(-125.176 -181.506)" fill="#fc685b"/>
    <path id="Path_49172" data-name="Path 49172" d="M208,352h6.965v6.965H208Z" transform="translate(-125.176 -256.61)" fill="#ea4a3b"/>
    <path id="Path_49173" data-name="Path 49173" d="M208,320h6.965v6.965H208Z" transform="translate(-125.176 -231.575)" fill="#fc685b"/>
    <path id="Path_49174" data-name="Path 49174" d="M208,416h6.965v6.965H208Z" transform="translate(-125.176 -306.68)" fill="#ea4a3b"/>
    <path id="Path_49175" data-name="Path 49175" d="M208,384h6.965v6.965H208Z" transform="translate(-125.176 -281.645)" fill="#fc685b"/>
    <path id="Path_49176" data-name="Path 49176" d="M272,288l2.786,6.965H272Z" transform="translate(-175.246 -206.54)" fill="#ea4a3b"/>
    <path id="Path_49177" data-name="Path 49177" d="M293.986,288v6.965H291.2Z" transform="translate(-190.267 -206.54)" fill="#ea4a3b"/>
    <path id="Path_49178" data-name="Path 49178" d="M272,352h6.965v6.965H272Z" transform="translate(-175.246 -256.61)" fill="#ea4a3b"/>
    <path id="Path_49179" data-name="Path 49179" d="M278.965,320v6.965H272V320h2.786l.7,1.741.7-1.741Z" transform="translate(-175.246 -231.575)" fill="#fc685b"/>
    <path id="Path_49180" data-name="Path 49180" d="M272,416h6.965v6.965H272Z" transform="translate(-175.246 -306.68)" fill="#ea4a3b"/>
    <path id="Path_49181" data-name="Path 49181" d="M272,384h6.965v6.965H272Z" transform="translate(-175.246 -281.645)" fill="#fc685b"/>
    <path id="Path_49182" data-name="Path 49182" d="M336,288h6.965v6.965H336Z" transform="translate(-225.316 -206.54)" fill="#ea4a3b"/>
    <path id="Path_49183" data-name="Path 49183" d="M342.965,257.3v5.659H336V256Z" transform="translate(-225.316 -181.505)" fill="#fc685b"/>
    <path id="Path_49184" data-name="Path 49184" d="M336,352h6.965v6.965H336Z" transform="translate(-225.316 -256.61)" fill="#ea4a3b"/>
    <path id="Path_49185" data-name="Path 49185" d="M336,320h6.965v6.965H336Z" transform="translate(-225.316 -231.575)" fill="#fc685b"/>
    <path id="Path_49186" data-name="Path 49186" d="M336,416h6.965v6.965H336Z" transform="translate(-225.316 -306.68)" fill="#ea4a3b"/>
    <path id="Path_49187" data-name="Path 49187" d="M336,384h6.965v6.965H336Z" transform="translate(-225.316 -281.645)" fill="#fc685b"/>
    <path id="Path_49188" data-name="Path 49188" d="M400,288h6.965v6.965H400Z" transform="translate(-275.386 -206.54)" fill="#ea4a3b"/>
    <path id="Path_49189" data-name="Path 49189" d="M406.965,269.432v2.921H400V268l5.409,1.014A10.527,10.527,0,0,1,406.965,269.432Z" transform="translate(-275.386 -190.894)" fill="#fc685b"/>
    <path id="Path_49190" data-name="Path 49190" d="M400,352h6.965v6.965H400Z" transform="translate(-275.386 -256.61)" fill="#ea4a3b"/>
    <path id="Path_49191" data-name="Path 49191" d="M400,320h6.965v6.965H400Z" transform="translate(-275.386 -231.575)" fill="#fc685b"/>
    <path id="Path_49192" data-name="Path 49192" d="M400,416h6.965v6.965H400Z" transform="translate(-275.386 -306.68)" fill="#ea4a3b"/>
    <path id="Path_49193" data-name="Path 49193" d="M400,384h6.965v6.965H400Z" transform="translate(-275.386 -281.645)" fill="#fc685b"/>
    <path id="Path_49194" data-name="Path 49194" d="M144,288h6.965v6.965H144Z" transform="translate(-75.105 -206.54)" fill="#ea4a3b"/>
    <path id="Path_49195" data-name="Path 49195" d="M150.965,268v4.353H144v-2.921a10.434,10.434,0,0,1,1.552-.416C147.269,268.694,149.117,268.348,150.965,268Z" transform="translate(-75.105 -190.894)" fill="#fc685b"/>
    <path id="Path_49196" data-name="Path 49196" d="M144,352h6.965v6.965H144Z" transform="translate(-75.105 -256.61)" fill="#ea4a3b"/>
    <path id="Path_49197" data-name="Path 49197" d="M144,320h6.965v6.965H144Z" transform="translate(-75.105 -231.575)" fill="#fc685b"/>
    <path id="Path_49198" data-name="Path 49198" d="M144,416h6.965v6.965H144Z" transform="translate(-75.105 -306.68)" fill="#ea4a3b"/>
    <path id="Path_49199" data-name="Path 49199" d="M144,384h6.965v6.965H144Z" transform="translate(-75.105 -281.645)" fill="#fc685b"/>
    <path id="Path_49200" data-name="Path 49200" d="M224.048,276.895V257.306L217.083,256v20.895H196.189V256l-6.965,1.306v19.589L184,297.789V306.5h45.272v-8.706Z" transform="translate(-106.399 -181.506)" fill="#3d4d63"/>
    <path id="Path_49201" data-name="Path 49201" d="M224.048,322.142A92.486,92.486,0,0,1,184,356.45v1.791h45.272v-8.706l-5.224-20.895Z" transform="translate(-106.399 -233.252)" fill="#374559"/>
    <path id="Path_49202" data-name="Path 49202" d="M246.965,262.963,240,256v12.189Z" transform="translate(-150.211 -181.505)" fill="#fc685b"/>
    <path id="Path_49203" data-name="Path 49203" d="M304,262.963,310.965,256v12.189Z" transform="translate(-200.281 -181.505)" fill="#fc685b"/>
    <path id="Path_49204" data-name="Path 49204" d="M360,104h1.741a5.224,5.224,0,1,1,0,10.447H360Z" transform="translate(-244.092 -62.589)" fill="#fec093"/>
    <path id="Path_49205" data-name="Path 49205" d="M190.965,104h-1.741a5.224,5.224,0,1,0,0,10.447h1.846" transform="translate(-106.399 -62.589)" fill="#fec093"/>
    <path id="Path_49206" data-name="Path 49206" d="M247.342,39.671V51.86a15.671,15.671,0,1,1-31.342,0V39.671a15.671,15.671,0,1,1,31.342,0Z" transform="translate(-131.434 -0.002)" fill="#fec9a3"/>
    <path id="Path_49207" data-name="Path 49207" d="M291.153,39.671V51.86a15.671,15.671,0,0,1-8.635,14.005,15.594,15.594,0,0,0,1.67-7.04V39.671A15.684,15.684,0,0,0,272,24.387a15.688,15.688,0,0,1,19.153,15.284Z" transform="translate(-175.246 -0.002)" fill="#fec093"/>
    <ellipse id="Ellipse_129" data-name="Ellipse 129" cx="2.5" cy="2" rx="2.5" ry="2" transform="translate(90 41.987)" fill="#7a432a"/>
    <circle id="Ellipse_130" data-name="Ellipse 130" cx="2" cy="2" r="2" transform="translate(106 41.987)" fill="#7a432a"/>
    <path id="Path_49208" data-name="Path 49208" d="M272.705,114.208H265.74a1.741,1.741,0,0,1-1.652-2.292l3.482-10.447,3.3,1.1-2.718,8.155h4.549Z" transform="translate(-168.986 -60.608)" fill="#feb784"/>
    <path id="Path_49209" data-name="Path 49209" d="M248.73,32.706H224.353a4.353,4.353,0,1,1,0-8.706H238.11a10.83,10.83,0,0,1,10.62,8.706Z" transform="translate(-134.564 -0.002)" fill="#7a432a"/>
    <path id="Path_49210" data-name="Path 49210" d="M176,352h3.482v20.895H176Z" transform="translate(-100.14 -256.61)" fill="#d93e30"/>
    <path id="Path_49211" data-name="Path 49211" d="M384,352h3.482v20.895H384Z" transform="translate(-262.869 -256.61)" fill="#d93e30"/>
    <path id="Path_49212" data-name="Path 49212" d="M282.387,24H278.3l5.358,8.706h4.089Z" transform="translate(-180.173)" fill="#61311b"/>
    <path id="Path_49213" data-name="Path 49213" d="M238.716,24c-.122,0-.237.026-.357.036l5.295,8.67h4.081L242.418,24Z" transform="translate(-148.927 -0.002)" fill="#61311b"/>
    <path id="Path_49214" data-name="Path 49214" d="M167.719,373.224,112,374.965v13.93a5.224,5.224,0,0,0,5.224,5.224h10.447l40.048-11.635,12.189-2.3,8.706,3.482v-13.93L178.166,368Z" transform="translate(-50.07 -269.129)" fill="#feb784"/>
    <path id="Path_49215" data-name="Path 49215" d="M96,232h8.706v55.719H96Z" transform="translate(-37.553 -162.73)" fill="#95573a"/>
    <path id="Path_49216" data-name="Path 49216" d="M77.6,194.447H48V184H65.412l5.224,3.482H77.6Z" transform="translate(0 -125.177)" fill="#e0e0de"/>
    <path id="Path_49217" data-name="Path 49217" d="M87.992,190.857,74,199.812H97.942v-6.965H90.977Z" transform="translate(-20.341 -130.542)" fill="#d6d6d4"/>
    <path id="Path_49218" data-name="Path 49218" d="M96,232h8.706v5.224H96Z" transform="translate(-37.553 -162.73)" fill="#82462a"/>
    <path id="Path_49219" data-name="Path 49219" d="M101.6,373.224l55.719,3.482v12.189a5.224,5.224,0,0,1-5.224,5.224H141.649L101.6,385.412l-12.189-1.741H72V368H91.153Z" transform="translate(-18.776 -269.129)" fill="#fec9a3"/>
    <path id="Path_49220" data-name="Path 49220" d="M237.1,137.083H226.244a6.965,6.965,0,0,1-6.608-4.762l-2.564-7.692A20.893,20.893,0,0,1,216,118.021V104l3.008,9.5a4.373,4.373,0,0,0,6.337,1.683,4.375,4.375,0,0,1,2.426-.734h7.8a4.375,4.375,0,0,1,2.426.734l.3.2A4.373,4.373,0,0,0,244.477,114l2.865-10v14.021a20.89,20.89,0,0,1-1.073,6.608l-2.564,7.691a6.965,6.965,0,0,1-6.607,4.762Z" transform="translate(-131.434 -62.589)" fill="#7a432a"/>
    <path id="Path_49221" data-name="Path 49221" d="M267.241,174.079H264V170.6h3.241a12.958,12.958,0,0,0,6.329-1.5l1.755,3.006A16.27,16.27,0,0,1,267.241,174.079Z" transform="translate(-168.987 -113.515)" fill="#fec9a3"/>
  </g>
</svg>
