<svg id="Group_23937" data-name="Group 23937" xmlns="http://www.w3.org/2000/svg" width="16.063" height="16.063" viewBox="0 0 16.063 16.063">
  <path id="Path_70" data-name="Path 70" d="M228.343,279.761c-1,0-2,0-2.993,0a2.065,2.065,0,0,1-2.366-1.694c-.63-2.286-1.276-4.569-1.873-6.863-.127-.49-.313-.741-.879-.657a.766.766,0,0,1-.463-.017c-.253-.171-.633-.394-.639-.605s.359-.572.606-.609a6.831,6.831,0,0,1,1.8,0c.215.026.434.3.574.5a2.122,2.122,0,0,1,.189.629c.465,1.643.465,1.642,2.328,1.642q4.686,0,9.371,0c1.049,0,1.379.393,1.1,1.324q-.717,2.39-1.458,4.773a2.026,2.026,0,0,1-2.227,1.572c-.525.005-1.05,0-1.575,0Zm5.012-6.226H223.148c.435,1.549.84,3.057,1.3,4.551a.8.8,0,0,0,.616.386q3.189.044,6.379,0a.747.747,0,0,0,.576-.342C232.487,276.621,232.909,275.094,233.354,273.535Z" transform="translate(-219.13 -269.258)"/>
  <path id="Path_71" data-name="Path 71" d="M287.165,347.678a2.372,2.372,0,0,1,4.744-.079,2.389,2.389,0,0,1-2.4,2.434A2.263,2.263,0,0,1,287.165,347.678Z" transform="translate(-277.431 -333.97)"/>
  <path id="Path_72" data-name="Path 72" d="M245.7,345.268a2.391,2.391,0,0,1,2.441,2.3,2.533,2.533,0,0,1-2.323,2.468,2.383,2.383,0,0,1-.118-4.764Z" transform="translate(-239.804 -333.971)"/>
</svg>
