<svg xmlns="http://www.w3.org/2000/svg" width="50.624" height="48.833" viewBox="0 0 50.624 48.833">
  <g id="clinic" transform="translate(0 -6.309)">
    <rect id="Rectangle_4513" data-name="Rectangle 4513" width="50.624" height="48.833" transform="translate(0 6.309)" fill="#6ebeff"/>
    <rect id="Rectangle_4514" data-name="Rectangle 4514" width="19.797" height="32.348" transform="translate(1.542 22.794)" fill="#fff"/>
    <g id="Group_23859" data-name="Group 23859" transform="translate(2.535 23.788)">
      <rect id="Rectangle_4515" data-name="Rectangle 4515" width="8.435" height="31.354" transform="translate(0 0)" fill="#2d4151"/>
      <rect id="Rectangle_4516" data-name="Rectangle 4516" width="8.435" height="31.354" transform="translate(9.429 0)" fill="#2d4151"/>
    </g>
    <rect id="Rectangle_4517" data-name="Rectangle 4517" width="26.821" height="29.944" transform="translate(22.403 22.794)" fill="#fff"/>
    <g id="Group_23860" data-name="Group 23860" transform="translate(23.255 23.788)">
      <rect id="Rectangle_4518" data-name="Rectangle 4518" width="12.063" height="28.028" transform="translate(0 0)" fill="#2d4151"/>
    </g>
    <g id="Group_23861" data-name="Group 23861" transform="translate(36.311 23.788)">
      <rect id="Rectangle_4519" data-name="Rectangle 4519" width="12.063" height="28.028" transform="translate(0 0)" fill="#2d4151"/>
    </g>
    <path id="Path_49254" data-name="Path 49254" d="M180.532,190.676V209.69H169.655S179.2,206.636,180.532,190.676Z" transform="translate(-145.579 -158.203)" fill="#fcfafa" opacity="0.2"/>
    <path id="Path_49255" data-name="Path 49255" d="M93.838,253.363V266.6H86.264S92.91,264.477,93.838,253.363Z" transform="translate(-74.022 -211.994)" fill="#fcfafa" opacity="0.2"/>
    <path id="Path_49256" data-name="Path 49256" d="M27.838,253.363V266.6H20.264S26.91,264.477,27.838,253.363Z" transform="translate(-17.388 -211.994)" fill="#fcfafa" opacity="0.2"/>
    <path id="Path_49257" data-name="Path 49257" d="M272.532,190.676V209.69H261.655S271.2,206.636,272.532,190.676Z" transform="translate(-224.523 -158.203)" fill="#fcfafa" opacity="0.2"/>
    <g id="Group_23862" data-name="Group 23862" transform="translate(9.126 39.753)">
      <rect id="Rectangle_4520" data-name="Rectangle 4520" width="0.71" height="2.554" fill="#fff"/>
      <rect id="Rectangle_4521" data-name="Rectangle 4521" width="0.71" height="2.554" transform="translate(3.974)" fill="#fff"/>
    </g>
    <rect id="Rectangle_4522" data-name="Rectangle 4522" width="12.063" height="20.293" transform="translate(23.255 23.788)" fill="#839baa"/>
    <g id="Group_23883" data-name="Group 23883" transform="translate(23.255 23.788)">
      <rect id="Rectangle_4523" data-name="Rectangle 4523" width="12.063" height="20.293" transform="translate(13.056 0)" fill="#839baa"/>
      <g id="Group_23863" data-name="Group 23863" transform="translate(0 0)">
        <rect id="Rectangle_4524" data-name="Rectangle 4524" width="12.063" height="0.426" fill="#678391"/>
        <rect id="Rectangle_4525" data-name="Rectangle 4525" width="12.063" height="0.426" transform="translate(13.056)" fill="#678391"/>
      </g>
      <g id="Group_23864" data-name="Group 23864" transform="translate(0 1.008)">
        <rect id="Rectangle_4526" data-name="Rectangle 4526" width="12.063" height="0.426" fill="#678391"/>
        <rect id="Rectangle_4527" data-name="Rectangle 4527" width="12.063" height="0.426" transform="translate(13.056)" fill="#678391"/>
      </g>
      <g id="Group_23865" data-name="Group 23865" transform="translate(0 2.017)">
        <rect id="Rectangle_4528" data-name="Rectangle 4528" width="12.063" height="0.426" fill="#678391"/>
        <rect id="Rectangle_4529" data-name="Rectangle 4529" width="12.063" height="0.426" transform="translate(13.056)" fill="#678391"/>
      </g>
      <g id="Group_23866" data-name="Group 23866" transform="translate(0 3.025)">
        <rect id="Rectangle_4530" data-name="Rectangle 4530" width="12.063" height="0.426" fill="#678391"/>
        <rect id="Rectangle_4531" data-name="Rectangle 4531" width="12.063" height="0.426" transform="translate(13.056)" fill="#678391"/>
      </g>
      <g id="Group_23867" data-name="Group 23867" transform="translate(0 4.033)">
        <rect id="Rectangle_4532" data-name="Rectangle 4532" width="12.063" height="0.426" fill="#678391"/>
        <rect id="Rectangle_4533" data-name="Rectangle 4533" width="12.063" height="0.426" transform="translate(13.056)" fill="#678391"/>
      </g>
      <g id="Group_23868" data-name="Group 23868" transform="translate(0 5.042)">
        <rect id="Rectangle_4534" data-name="Rectangle 4534" width="12.063" height="0.426" fill="#678391"/>
        <rect id="Rectangle_4535" data-name="Rectangle 4535" width="12.063" height="0.426" transform="translate(13.056)" fill="#678391"/>
      </g>
      <g id="Group_23869" data-name="Group 23869" transform="translate(0 6.05)">
        <rect id="Rectangle_4536" data-name="Rectangle 4536" width="12.063" height="0.426" fill="#678391"/>
        <rect id="Rectangle_4537" data-name="Rectangle 4537" width="12.063" height="0.426" transform="translate(13.056)" fill="#678391"/>
      </g>
      <g id="Group_23870" data-name="Group 23870" transform="translate(0 7.058)">
        <rect id="Rectangle_4538" data-name="Rectangle 4538" width="12.063" height="0.426" fill="#678391"/>
        <rect id="Rectangle_4539" data-name="Rectangle 4539" width="12.063" height="0.426" transform="translate(13.056)" fill="#678391"/>
      </g>
      <g id="Group_23871" data-name="Group 23871" transform="translate(0 8.067)">
        <rect id="Rectangle_4540" data-name="Rectangle 4540" width="12.063" height="0.426" fill="#678391"/>
        <rect id="Rectangle_4541" data-name="Rectangle 4541" width="12.063" height="0.426" transform="translate(13.056)" fill="#678391"/>
      </g>
      <g id="Group_23872" data-name="Group 23872" transform="translate(0 9.075)">
        <rect id="Rectangle_4542" data-name="Rectangle 4542" width="12.063" height="0.426" fill="#678391"/>
        <rect id="Rectangle_4543" data-name="Rectangle 4543" width="12.063" height="0.426" transform="translate(13.056)" fill="#678391"/>
      </g>
      <g id="Group_23873" data-name="Group 23873" transform="translate(0 11.092)">
        <rect id="Rectangle_4544" data-name="Rectangle 4544" width="12.063" height="0.426" fill="#678391"/>
        <rect id="Rectangle_4545" data-name="Rectangle 4545" width="12.063" height="0.426" transform="translate(13.056)" fill="#678391"/>
      </g>
      <g id="Group_23874" data-name="Group 23874" transform="translate(0 13.108)">
        <rect id="Rectangle_4546" data-name="Rectangle 4546" width="12.063" height="0.426" fill="#678391"/>
        <rect id="Rectangle_4547" data-name="Rectangle 4547" width="12.063" height="0.426" transform="translate(13.056)" fill="#678391"/>
      </g>
      <g id="Group_23875" data-name="Group 23875" transform="translate(0 15.125)">
        <rect id="Rectangle_4548" data-name="Rectangle 4548" width="12.063" height="0.426" fill="#678391"/>
        <rect id="Rectangle_4549" data-name="Rectangle 4549" width="12.063" height="0.426" transform="translate(13.056)" fill="#678391"/>
      </g>
      <g id="Group_23876" data-name="Group 23876" transform="translate(0 10.083)">
        <rect id="Rectangle_4550" data-name="Rectangle 4550" width="12.063" height="0.426" fill="#678391"/>
        <rect id="Rectangle_4551" data-name="Rectangle 4551" width="12.063" height="0.426" transform="translate(13.056)" fill="#678391"/>
      </g>
      <g id="Group_23877" data-name="Group 23877" transform="translate(0 12.1)">
        <rect id="Rectangle_4552" data-name="Rectangle 4552" width="12.063" height="0.426" fill="#678391"/>
        <rect id="Rectangle_4553" data-name="Rectangle 4553" width="12.063" height="0.426" transform="translate(13.056)" fill="#678391"/>
      </g>
      <g id="Group_23878" data-name="Group 23878" transform="translate(0 14.116)">
        <rect id="Rectangle_4554" data-name="Rectangle 4554" width="12.063" height="0.426" fill="#678391"/>
        <rect id="Rectangle_4555" data-name="Rectangle 4555" width="12.063" height="0.426" transform="translate(13.056)" fill="#678391"/>
      </g>
      <g id="Group_23879" data-name="Group 23879" transform="translate(0 16.133)">
        <rect id="Rectangle_4556" data-name="Rectangle 4556" width="12.063" height="0.426" fill="#678391"/>
        <rect id="Rectangle_4557" data-name="Rectangle 4557" width="12.063" height="0.426" transform="translate(13.056)" fill="#678391"/>
      </g>
      <g id="Group_23880" data-name="Group 23880" transform="translate(0 17.141)">
        <rect id="Rectangle_4558" data-name="Rectangle 4558" width="12.063" height="0.426" fill="#678391"/>
        <rect id="Rectangle_4559" data-name="Rectangle 4559" width="12.063" height="0.426" transform="translate(13.056)" fill="#678391"/>
      </g>
      <g id="Group_23881" data-name="Group 23881" transform="translate(0 18.15)">
        <rect id="Rectangle_4560" data-name="Rectangle 4560" width="12.063" height="0.426" fill="#678391"/>
        <rect id="Rectangle_4561" data-name="Rectangle 4561" width="12.063" height="0.426" transform="translate(13.056)" fill="#678391"/>
      </g>
      <g id="Group_23882" data-name="Group 23882" transform="translate(0 19.158)">
        <rect id="Rectangle_4562" data-name="Rectangle 4562" width="12.063" height="0.426" fill="#678391"/>
        <rect id="Rectangle_4563" data-name="Rectangle 4563" width="12.063" height="0.426" transform="translate(13.056)" fill="#678391"/>
      </g>
    </g>
    <rect id="Rectangle_4564" data-name="Rectangle 4564" width="47.683" height="13.647" transform="translate(1.542 8.012)" fill="#fff"/>
    <path id="Path_49258" data-name="Path 49258" d="M264.425,28.976a5.393,5.393,0,1,0,5.393,5.393A5.393,5.393,0,0,0,264.425,28.976Zm1.277,6.67v3.027h-2.554V35.646H260.12V33.091h3.027V30.064H265.7v3.027h3.027v2.554Z" transform="translate(-222.272 -19.45)" fill="#f93030"/>
    <g id="Group_23884" data-name="Group 23884" transform="translate(3.856 11.089)">
      <path id="Path_49259" data-name="Path 49259" d="M32.869,40.822v.349q0,.4-.2.4a.494.494,0,0,1-.2-.069,6.29,6.29,0,0,0-.864-.4,2.252,2.252,0,0,0-.669-.085,2.493,2.493,0,0,0-2.062.989,2.748,2.748,0,0,0-.6,1.755,2.645,2.645,0,0,0,2.638,2.7,2.5,2.5,0,0,0,.8-.119,3.392,3.392,0,0,0,.793-.415.344.344,0,0,1,.169-.069q.2,0,.2.407v.386a.49.49,0,0,1-.074.333,2.091,2.091,0,0,1-.5.243,3.749,3.749,0,0,1-1.39.259,3.717,3.717,0,0,1-3.733-3.712A3.814,3.814,0,0,1,29.056,40.5,3.8,3.8,0,0,1,30.992,40a3.329,3.329,0,0,1,1.676.412.448.448,0,0,1,.174.14A.818.818,0,0,1,32.869,40.822Z" transform="translate(-27.174 -39.997)" fill="#2d4151"/>
      <path id="Path_49260" data-name="Path 49260" d="M78.042,47.155h1.724a.306.306,0,0,1,.4.4v.233a.306.306,0,0,1-.4.4H77.35a.306.306,0,0,1-.4-.4V41.361a.306.306,0,0,1,.4-.4h.3a.306.306,0,0,1,.4.4v5.795Z" transform="translate(-69.889 -40.826)" fill="#2d4151"/>
      <path id="Path_49261" data-name="Path 49261" d="M107.959,41.361v6.424a.306.306,0,0,1-.4.4h-.3a.306.306,0,0,1-.4-.4V41.361a.306.306,0,0,1,.4-.4h.3a.306.306,0,0,1,.4.4Z" transform="translate(-95.56 -40.826)" fill="#2d4151"/>
      <path id="Path_49262" data-name="Path 49262" d="M132.027,45.145V40.529a.306.306,0,0,1,.4-.4h.3a.306.306,0,0,1,.4.4v6.514a.645.645,0,0,1-.053.309.2.2,0,0,1-.185.087q-.1,0-.28-.185l-4.743-4.96v4.658a.306.306,0,0,1-.4.4h-.3a.306.306,0,0,1-.4-.4V40.4a.659.659,0,0,1,.053-.315.2.2,0,0,1,.185-.087q.1,0,.28.19Z" transform="translate(-112.633 -39.995)" fill="#2d4151"/>
      <path id="Path_49263" data-name="Path 49263" d="M184.823,41.361v6.424a.306.306,0,0,1-.4.4h-.3a.306.306,0,0,1-.4-.4V41.361a.306.306,0,0,1,.4-.4h.3a.306.306,0,0,1,.4.4Z" transform="translate(-161.516 -40.826)" fill="#2d4151"/>
      <path id="Path_49264" data-name="Path 49264" d="M206.792,40.822v.349q0,.4-.2.4a.494.494,0,0,1-.2-.069,6.288,6.288,0,0,0-.864-.4,2.252,2.252,0,0,0-.669-.085,2.493,2.493,0,0,0-2.062.989,2.748,2.748,0,0,0-.6,1.755,2.645,2.645,0,0,0,2.638,2.7,2.5,2.5,0,0,0,.8-.119,3.392,3.392,0,0,0,.793-.415.344.344,0,0,1,.169-.069q.2,0,.2.407v.386a.49.49,0,0,1-.074.333,2.091,2.091,0,0,1-.5.243,3.749,3.749,0,0,1-1.39.259,3.717,3.717,0,0,1-3.733-3.712,3.814,3.814,0,0,1,1.882-3.273A3.8,3.8,0,0,1,204.915,40a3.329,3.329,0,0,1,1.676.412.447.447,0,0,1,.174.14A.818.818,0,0,1,206.792,40.822Z" transform="translate(-176.415 -39.997)" fill="#2d4151"/>
    </g>
  </g>
</svg>
