<svg xmlns="http://www.w3.org/2000/svg" width="22.382" height="27.557" viewBox="0 0 22.382 27.557">
  <g id="delete" transform="translate(0.003 0.001)">
    <path id="Path_48710" data-name="Path 48710" d="M223.044,154.7a.645.645,0,0,0-.645.645v12.2a.645.645,0,0,0,1.291,0v-12.2A.645.645,0,0,0,223.044,154.7Zm0,0" transform="translate(-208.048 -144.72)" fill="#fff"/>
    <path id="Path_48711" data-name="Path 48711" d="M105.044,154.7a.645.645,0,0,0-.645.645v12.2a.645.645,0,0,0,1.291,0v-12.2A.645.645,0,0,0,105.044,154.7Zm0,0" transform="translate(-97.664 -144.72)" fill="#fff"/>
    <path id="Path_48712" data-name="Path 48712" d="M1.83,8.2V24.1a3.561,3.561,0,0,0,.947,2.456,3.178,3.178,0,0,0,2.306,1H17.293a3.177,3.177,0,0,0,2.306-1,3.561,3.561,0,0,0,.947-2.456V8.2a2.465,2.465,0,0,0-.633-4.848h-3.3V2.548A2.535,2.535,0,0,0,14.053,0H8.322A2.535,2.535,0,0,0,5.767,2.548v.807h-3.3A2.465,2.465,0,0,0,1.83,8.2ZM17.293,26.265H5.082A2.044,2.044,0,0,1,3.121,24.1V8.26H19.255V24.1A2.044,2.044,0,0,1,17.293,26.265ZM7.057,2.548A1.243,1.243,0,0,1,8.322,1.29h5.731a1.243,1.243,0,0,1,1.265,1.258v.807H7.057Zm-4.595,2.1H19.913a1.162,1.162,0,1,1,0,2.323H2.462a1.162,1.162,0,1,1,0-2.323Zm0,0" transform="translate(0 0)" fill="#fff"/>
    <path id="Path_48713" data-name="Path 48713" d="M164.044,154.7a.645.645,0,0,0-.645.645v12.2a.645.645,0,0,0,1.291,0v-12.2A.645.645,0,0,0,164.044,154.7Zm0,0" transform="translate(-152.856 -144.72)" fill="#fff"/>
  </g>
</svg>
