<svg xmlns="http://www.w3.org/2000/svg" width="92.318" height="104.491" viewBox="0 0 92.318 104.491">
  <g id="doctor" transform="translate(-29.824)">
    <path id="Path_49086" data-name="Path 49086" d="M191.632,259.164l11.1-10.425-4.407-.819c-2.127-.427-3.657-2.895-3.657-5.064v-9.667H174.057v9.667c0,2.169-1.53,4.637-3.657,5.064l-4.407.819,11.1,10.425A10.619,10.619,0,0,0,191.632,259.164Z" transform="translate(-108.379 -185.599)" fill="#ffe7cf"/>
    <path id="Path_49087" data-name="Path 49087" d="M282.038,233.189v14.659c0,2.169,1.53,4.637,3.657,5.064l3.8,1.087,5.6-5.26-4.407-.819c-2.127-.427-3.657-2.895-3.657-5.064v-9.667Z" transform="translate(-200.741 -185.599)" fill="#f4d5ba"/>
    <path id="Path_49088" data-name="Path 49088" d="M249.173,469.222Z" transform="translate(-174.583 -373.461)" fill="#fff" stroke="#000" stroke-linecap="round" stroke-linejoin="round" stroke-miterlimit="10" stroke-width="15"/>
    <path id="Path_49089" data-name="Path 49089" d="M88.849,300.669l-12.866,9.616-12.866-9.616a2.713,2.713,0,0,0-2.408-.424l-21.615,6.522a6.4,6.4,0,0,0-4.463,5.053L29.87,339.7a3.141,3.141,0,0,0,3.1,3.67H119a3.141,3.141,0,0,0,3.1-3.67l-4.762-27.879a6.4,6.4,0,0,0-4.463-5.053l-21.615-6.522A2.714,2.714,0,0,0,88.849,300.669Z" transform="translate(0 -238.878)" fill="#24d9de"/>
    <g id="Group_23609" data-name="Group 23609" transform="translate(56.991 61.252)">
      <path id="Path_49090" data-name="Path 49090" d="M166.658,300.246l-3.718,1.122,8.206,11.483a2.371,2.371,0,0,0,2.856.8l7.93-3.368h0l-12.866-9.616A2.713,2.713,0,0,0,166.658,300.246Z" transform="translate(-162.94 -300.13)" fill="#d0d1d2"/>
      <path id="Path_49091" data-name="Path 49091" d="M263.93,313.655a2.37,2.37,0,0,0,2.856-.8l8.206-11.483-.02-.006-3.7-1.116a2.713,2.713,0,0,0-2.408.424L256,310.286h0Z" transform="translate(-237.008 -300.13)" fill="#d0d1d2"/>
    </g>
    <g id="Group_23610" data-name="Group 23610" transform="translate(68.608 71.408)">
      <path id="Path_49092" data-name="Path 49092" d="M231.68,349.894l-6.236,2.649,3.646,4.238h5.181l3.646-4.238Z" transform="translate(-224.305 -349.894)" fill="#f9644b"/>
      <path id="Path_49093" data-name="Path 49093" d="M229.829,383.639h-5.181l-4.784,26.2h14.75Z" transform="translate(-219.864 -376.752)" fill="#f9644b"/>
    </g>
    <path id="Path_49094" data-name="Path 49094" d="M75.983,338.952s-14.449-38.509-15.274-38.26l-21.615,6.522a6.4,6.4,0,0,0-4.463,5.053L29.87,340.145a3.141,3.141,0,0,0,3.1,3.67H119a3.141,3.141,0,0,0,3.1-3.67l-4.762-27.879a6.4,6.4,0,0,0-4.463-5.053l-21.615-6.522C90.432,300.443,75.983,338.952,75.983,338.952Z" transform="translate(0 -239.324)" fill="#e1effb"/>
    <path id="Path_49095" data-name="Path 49095" d="M349.477,340.145l-4.762-27.879a6.4,6.4,0,0,0-4.463-5.053l-21.615-6.522c-.224-.068-1.455,2.729-3.129,6.837l15.676,4.73a3.263,3.263,0,0,1,2.274,2.575l4.95,28.982h7.971A3.141,3.141,0,0,0,349.477,340.145Z" transform="translate(-227.381 -239.324)" fill="#caddea"/>
    <g id="Group_23611" data-name="Group 23611" transform="translate(51.43 48.933)">
      <path id="Path_49096" data-name="Path 49096" d="M315.08,273.555a1.576,1.576,0,0,1-1.576-1.576V254.087a11.159,11.159,0,0,0-10.641-11.166,1.576,1.576,0,0,1,.149-3.149,14.307,14.307,0,0,1,13.645,14.315v17.892A1.576,1.576,0,0,1,315.08,273.555Z" transform="translate(-267.55 -239.77)" fill="#44798c"/>
      <path id="Path_49097" data-name="Path 49097" d="M137.266,261.9a1.576,1.576,0,0,1-1.576-1.576v-6.227A14.316,14.316,0,0,1,149.3,239.779a1.576,1.576,0,1,1,.158,3.148,11.166,11.166,0,0,0-10.611,11.165v6.227A1.576,1.576,0,0,1,137.266,261.9Z" transform="translate(-135.69 -239.775)" fill="#44798c"/>
    </g>
    <circle id="Ellipse_127" data-name="Ellipse 127" cx="6.58" cy="6.58" r="6.58" transform="translate(92.363 75.599)" fill="#1785b8"/>
    <circle id="Ellipse_128" data-name="Ellipse 128" cx="2.899" cy="2.899" r="2.899" transform="translate(96.044 79.28)" fill="#e1effb"/>
    <path id="Path_49098" data-name="Path 49098" d="M112.753,363.376h-1.965a1.576,1.576,0,1,1,0-3.153h1.965a.854.854,0,0,0,.852-.92l-1.149-14.737a4.838,4.838,0,0,0-.369-1.513,4.723,4.723,0,0,0-4.4-2.823h-.036l-.26,0a4.767,4.767,0,0,0-4.462,3.038,4.85,4.85,0,0,0-.283,1.3L101.5,359.3a.854.854,0,0,0,.851.92h1.965a1.576,1.576,0,1,1,0,3.153h-1.965a4.007,4.007,0,0,1-3.994-4.318L99.5,344.321a7.827,7.827,0,0,1,7.866-7.242l.26,0h.059a7.866,7.866,0,0,1,7.3,4.746,7.981,7.981,0,0,1,.609,2.5l1.148,14.737a4.007,4.007,0,0,1-3.995,4.318Z" transform="translate(-54.533 -268.285)" fill="#2c5871"/>
    <g id="Group_23612" data-name="Group 23612" transform="translate(51.101 27.471)">
      <path id="Path_49099" data-name="Path 49099" d="M140.773,140.506v-5.9h-3.6a3.1,3.1,0,0,0-3.1,3.1v2.4a3.1,3.1,0,0,0,3.1,3.1h3.6Z" transform="translate(-134.078 -134.608)" fill="#f4d5ba"/>
      <path id="Path_49100" data-name="Path 49100" d="M348.714,134.608h-3.6V143.2h3.6a3.1,3.1,0,0,0,3.1-3.1v-2.4A3.1,3.1,0,0,0,348.714,134.608Z" transform="translate(-302.046 -134.608)" fill="#f4d5ba"/>
    </g>
    <path id="Path_49101" data-name="Path 49101" d="M193.854,26.187c-3.1-2.671-7.464-2.5-13.225-2.562-5.761.064-10.122-.109-13.225,2.562a18.017,18.017,0,0,0-6.1,13.69v15.18c0,5.222,6.564,19.074,19.326,19.074s19.326-13.852,19.326-19.074V39.877A18.016,18.016,0,0,0,193.854,26.187Z" transform="translate(-104.646 -18.804)" fill="#ffe7cf"/>
    <path id="Path_49102" data-name="Path 49102" d="M248.939,28.267a9.46,9.46,0,0,0-4.3-2.029c0,.008,0,.015,0,.023V57.137c0,4.458-4.784,15.2-14.124,18.253a16.665,16.665,0,0,0,5.2.821c12.762,0,19.326-13.852,19.326-19.074V41.957A18.017,18.017,0,0,0,248.939,28.267Z" transform="translate(-159.731 -20.883)" fill="#f4d5ba"/>
    <path id="Path_49103" data-name="Path 49103" d="M180.034,0H156.781a10.833,10.833,0,0,0-10.833,10.833V28.618a7.479,7.479,0,0,1,4.9,1.83.634.634,0,0,0,1.078-.455V15.44a4.788,4.788,0,0,1,4.788-4.788h4.351a4.946,4.946,0,0,1,3.131,1.117l.427.349a5.981,5.981,0,0,0,7.57,0l.427-.349a4.946,4.946,0,0,1,3.131-1.117H180.1a4.789,4.789,0,0,1,4.788,4.788V29.992a.634.634,0,0,0,1.078.455,7.48,7.48,0,0,1,4.9-1.83V10.833A10.833,10.833,0,0,0,180.034,0Z" transform="translate(-92.425)" fill="#ffb125"/>
    <path id="Path_49104" data-name="Path 49104" d="M272.4,0h-10.4a10.831,10.831,0,0,1,10.829,10.667,4.788,4.788,0,0,1,4.43,4.774V29.992a.634.634,0,0,0,1.078.455,7.479,7.479,0,0,1,4.9-1.83V10.833A10.833,10.833,0,0,0,272.4,0Z" transform="translate(-184.787)" fill="#ff901d"/>
  </g>
</svg>
