<svg xmlns="http://www.w3.org/2000/svg" width="100.408" height="100.408" viewBox="0 0 100.408 100.408">
  <g id="driver" transform="translate(-24 -24)">
    <path id="Path_49222" data-name="Path 49222" d="M283.7,222.505v6.925H256v-6.925l5.194-1.731V200h17.312v20.774Z" transform="translate(-181.796 -137.914)" fill="#fec9a3"/>
    <path id="Path_49223" data-name="Path 49223" d="M297.312,211.222V200H280v11.221a15.573,15.573,0,0,0,17.312,0Z" transform="translate(-200.602 -137.914)" fill="#feb784"/>
    <path id="Path_49224" data-name="Path 49224" d="M224.709,314.889v22H152v-22a8.655,8.655,0,0,1,7.34-8.556L174.505,304l13.849,29.43L202.2,304l15.165,2.333a8.839,8.839,0,0,1,.963.2,8.656,8.656,0,0,1,6.377,8.353Z" transform="translate(-100.301 -219.409)" fill="#3d4d63"/>
    <path id="Path_49225" data-name="Path 49225" d="M366.158,324.073v22H332.51a80.978,80.978,0,0,0,27.27-30.356A8.656,8.656,0,0,1,366.158,324.073Z" transform="translate(-241.749 -228.593)" fill="#374559"/>
    <path id="Path_49226" data-name="Path 49226" d="M237.194,304,232,317.849h5.194l-1.731,6.925,15.581,8.656Z" transform="translate(-162.989 -219.409)" fill="#4c5d72"/>
    <path id="Path_49227" data-name="Path 49227" d="M333.849,304l5.194,13.849h-5.194l1.731,6.925L320,333.43Z" transform="translate(-231.947 -219.409)" fill="#4c5d72"/>
    <path id="Path_49228" data-name="Path 49228" d="M283.7,285.194l-6.479,13.767-3.908,8.305-3.462,7.358-3.462-7.358-3.93-8.351L256,285.194,261.194,280l8.656,10.387L278.505,280Z" transform="translate(-181.796 -200.602)" fill="#bfbfbd"/>
    <path id="Path_49229" data-name="Path 49229" d="M269.849,290.387l-7.392,8.528L256,285.194,261.194,280Z" transform="translate(-181.796 -200.602)" fill="#e0e0de"/>
    <path id="Path_49230" data-name="Path 49230" d="M333.849,285.194l-6.479,13.767L320,290.387,328.656,280Z" transform="translate(-231.947 -200.602)" fill="#e0e0de"/>
    <path id="Path_49231" data-name="Path 49231" d="M310.925,332.04v12.839l-3.462,7.358L304,344.879V332.04l3.462-4.04Z" transform="translate(-219.409 -238.215)" fill="#3d4d63"/>
    <path id="Path_49232" data-name="Path 49232" d="M192.473,429.849l-32.892,1.731H149.194A5.194,5.194,0,0,1,144,426.387V416h48.473Z" transform="translate(-94.032 -307.172)" fill="#2e3e51"/>
    <path id="Path_49233" data-name="Path 49233" d="M400,403.043l19.043-3.462V384h-8.656L400,390.925Z" transform="translate(-294.635 -282.097)" fill="#fec9a3"/>
    <path id="Path_49234" data-name="Path 49234" d="M393.731,120H392v10.387h1.731a5.194,5.194,0,0,0,0-10.387Z" transform="translate(-288.366 -75.226)" fill="#feb784"/>
    <path id="Path_49235" data-name="Path 49235" d="M221.28,120h-.087a5.194,5.194,0,1,0,0,10.387h1.731V120Z" transform="translate(-150.452 -75.226)" fill="#feb784"/>
    <path id="Path_49236" data-name="Path 49236" d="M279.161,55.581V69.43A15.58,15.58,0,0,1,263.8,85.008c-.074,0-.15,0-.223,0A15.582,15.582,0,0,1,248,69.431V55.581a15.581,15.581,0,1,1,31.161,0Z" transform="translate(-175.527 -12.538)" fill="#fec9a3"/>
    <path id="Path_49237" data-name="Path 49237" d="M336.39,56.834V70.684a15.58,15.58,0,0,1-15.357,15.578,15.576,15.576,0,0,0,8.432-13.847V53.372A15.532,15.532,0,0,0,324.9,42.355c-.262-.262-.53-.513-.809-.755A15.591,15.591,0,0,1,336.39,56.834Z" transform="translate(-232.756 -13.791)" fill="#fec093"/>
    <circle id="Ellipse_131" data-name="Ellipse 131" cx="2.5" cy="2.5" r="2.5" transform="translate(78 46.408)" fill="#7a432a"/>
    <circle id="Ellipse_132" data-name="Ellipse 132" cx="2.5" cy="2.5" r="2.5" transform="translate(93 46.408)" fill="#7a432a"/>
    <path id="Path_49238" data-name="Path 49238" d="M256.18,48.906a37.731,37.731,0,0,0,14.8,0l1.255-.25,6.925,8.656V55.581a15.581,15.581,0,1,0-31.161,0v1.731l6.925-8.656Z" transform="translate(-175.527 -12.538)" fill="#95573a"/>
    <path id="Path_49239" data-name="Path 49239" d="M299.664,184.159H296V180.7h3.664a21.437,21.437,0,0,0,6.221-.912l1,3.314A24.893,24.893,0,0,1,299.664,184.159Z" transform="translate(-213.14 -122.073)" fill="#7a432a"/>
    <path id="Path_49240" data-name="Path 49240" d="M267.833,94.151a71.929,71.929,0,0,1-21.043,0C242.842,93.565,240,90.99,240,88h34.624C274.624,90.99,271.782,93.565,267.833,94.151Z" transform="translate(-169.258 -50.151)" fill="#29384a"/>
    <path id="Path_49241" data-name="Path 49241" d="M261.932,26.05l-6.892-1.379a35.016,35.016,0,0,0-13.643,0l-6.892,1.378a7.968,7.968,0,0,0-5.258,3.374,5.315,5.315,0,0,0,0,5.771l1.66,2.655H265.53l1.659-2.654a5.315,5.315,0,0,0,0-5.771A7.964,7.964,0,0,0,261.932,26.05Z" transform="translate(-160.165)" fill="#3d4d63"/>
    <path id="Path_49242" data-name="Path 49242" d="M85.676,358.925H74.423l-1.562,13.369-.385,3.294a11.979,11.979,0,0,1-3.03.433,15.637,15.637,0,0,1-3.462-.5l-.379-3.222-1.569-13.369H53A15.5,15.5,0,0,1,54.638,352h29.4A15.5,15.5,0,0,1,85.676,358.925Z" transform="translate(-22.724 -257.022)" fill="#b0b0ae"/>
    <path id="Path_49243" data-name="Path 49243" d="M53,358.925h3.99A13.771,13.771,0,0,1,58.843,352h-4.2A15.5,15.5,0,0,0,53,358.925Z" transform="translate(-22.724 -257.022)" fill="#a3a3a1"/>
    <path id="Path_49244" data-name="Path 49244" d="M63.553,287.814A22.5,22.5,0,1,0,68.946,304.2,22.5,22.5,0,0,0,63.553,287.814Zm-7.325,26.864a15.579,15.579,0,1,1,2.381-21.9,15.579,15.579,0,0,1-2.381,21.9Z" transform="translate(0 -200.602)" fill="#c7c7c5"/>
    <g id="Group_23621" data-name="Group 23621" transform="translate(28.711 84.769)">
      <path id="Path_49245" data-name="Path 49245" d="M53.764,312.664a15.687,15.687,0,0,0-2.452,2.489L45.77,311a22.172,22.172,0,0,1,2.337-2.577Z" transform="translate(-45.77 -307.641)" fill="#b0b0ae"/>
      <path id="Path_49246" data-name="Path 49246" d="M180.239,307.263l-4.88,4.962a15.5,15.5,0,0,0-2.45-2.447l4.871-4.958A22.4,22.4,0,0,1,180.239,307.263Z" transform="translate(-145.397 -304.82)" fill="#b0b0ae"/>
      <path id="Path_49247" data-name="Path 49247" d="M56.233,431.36l-4.962,4.88a22.337,22.337,0,0,1-2.441-2.454l4.955-4.875A15.5,15.5,0,0,0,56.233,431.36Z" transform="translate(-48.168 -402.057)" fill="#b0b0ae"/>
      <path id="Path_49248" data-name="Path 49248" d="M180.3,433.849a22.188,22.188,0,0,1-2.45,2.45l-4.919-4.919a15.426,15.426,0,0,0,2.45-2.45Z" transform="translate(-145.413 -402.073)" fill="#b0b0ae"/>
    </g>
    <path id="Path_49249" data-name="Path 49249" d="M264,431.581h43.279a5.194,5.194,0,0,0,5.194-5.194V416H264Z" transform="translate(-188.065 -307.172)" fill="#3d4d63"/>
    <path id="Path_49250" data-name="Path 49250" d="M232,416h6.925v15.581H232Z" transform="translate(-162.989 -307.172)" fill="#e0e0de"/>
    <path id="Path_49251" data-name="Path 49251" d="M288,448h3.462v3.462H288Z" transform="translate(-206.871 -332.248)" fill="#2a3845"/>
    <path id="Path_49252" data-name="Path 49252" d="M320,448h3.462v3.462H320Z" transform="translate(-231.947 -332.248)" fill="#2a3845"/>
    <path id="Path_49253" data-name="Path 49253" d="M163.043,403.043h-8.656l-5.194-5.194H144V384h8.656l10.387,6.925Z" transform="translate(-94.032 -282.097)" fill="#fec9a3"/>
  </g>
</svg>
