<svg xmlns="http://www.w3.org/2000/svg" width="121.672" height="121.672" viewBox="0 0 121.672 121.672">
  <path id="Path_48996" data-name="Path 48996" d="M60.836,0a60.836,60.836,0,1,0,60.836,60.836A60.838,60.838,0,0,0,60.836,0Zm0,18.191A20.123,20.123,0,1,1,40.717,38.314,20.124,20.124,0,0,1,60.836,18.192Zm-.013,87.575A44.646,44.646,0,0,1,31.749,95.045a8.575,8.575,0,0,1-3.009-6.518A20.293,20.293,0,0,1,49.131,68.239H72.546a20.264,20.264,0,0,1,20.36,20.288A8.554,8.554,0,0,1,89.9,95.043,44.631,44.631,0,0,1,60.822,105.767Z" transform="translate(0 -0.001)" fill="#bebebe"/>
</svg>
