<svg xmlns="http://www.w3.org/2000/svg" id="first-aid-kit" width="95.829" height="89.84" viewBox="0 0 95.829 89.84">
    <defs>
        <style>
            .cls-1{fill:#e2dff4}.cls-3{fill:#f3f5f9}.cls-4{fill:#ff6b6b}.cls-5{fill:#e62e77}
        </style>
    </defs>
    <path id="Path_48814" d="M171.535 24.422v11.23a2.807 2.807 0 1 1-5.615 0v-11.23a2.78 2.78 0 0 0-2.807-2.807h-33.69a2.78 2.78 0 0 0-2.808 2.807v11.23a2.807 2.807 0 1 1-5.615 0v-11.23A8.411 8.411 0 0 1 129.423 16h33.69a8.411 8.411 0 0 1 8.422 8.422z" class="cls-1" transform="translate(-98.353 -16)"/>
    <path id="Path_48815" fill="#bebcdd" d="M281.268 24.422v11.23a2.808 2.808 0 0 1-5.615 0v-11.23a2.78 2.78 0 0 0-2.807-2.807H256V16h16.845a8.411 8.411 0 0 1 8.423 8.422z" transform="translate(-208.085 -16)"/>
    <path id="Path_48816" d="M123.984 111.615v61.765l-2.807 5.62H47.808L45 173.38v-61.765L47.808 106h73.369z" class="cls-3" transform="translate(-36.577 -89.155)"/>
    <path id="Path_48817" d="M295.492 111.615v61.765l-2.807 5.62H256v-73h36.685z" class="cls-1" transform="translate(-208.085 -89.155)"/>
    <path id="Path_48818" d="M170.653 196a19.653 19.653 0 1 0 19.652 19.652A19.674 19.674 0 0 0 170.653 196z" class="cls-4" transform="translate(-122.738 -162.31)"/>
    <path id="Path_48819" d="M275.653 215.653A19.674 19.674 0 0 1 256 235.305V196a19.674 19.674 0 0 1 19.653 19.653z" class="cls-5" transform="translate(-208.085 -162.31)"/>
    <path id="Path_48820" d="M454.808 106H452v73h2.808a8.432 8.432 0 0 0 8.422-8.423v-56.15a8.432 8.432 0 0 0-8.422-8.427z" class="cls-5" transform="translate(-367.401 -89.155)"/>
    <path id="Path_48821" d="M8.422 106A8.432 8.432 0 0 0 0 114.423v56.15A8.432 8.432 0 0 0 8.422 179h2.808v-73z" class="cls-4" transform="translate(0 -89.155)"/>
    <path id="Path_48822" d="M227.845 264.422a2.78 2.78 0 0 1-2.807 2.808h-2.808v2.808a2.808 2.808 0 0 1-5.615 0v-2.808h-2.807a2.807 2.807 0 1 1 0-5.615h2.807v-2.807a2.808 2.808 0 1 1 5.615 0v2.807h2.808a2.78 2.78 0 0 1 2.807 2.807z" class="cls-3" transform="translate(-171.508 -211.08)"/>
    <path id="Path_48823" d="M264.422 264.422a2.78 2.78 0 0 1-2.807 2.808h-2.807v2.808a2.78 2.78 0 0 1-2.808 2.807V256a2.78 2.78 0 0 1 2.808 2.808v2.807h2.807a2.78 2.78 0 0 1 2.807 2.807z" class="cls-1" transform="translate(-208.085 -211.08)"/>
</svg>
