<svg id="Group_22727" data-name="Group 22727" xmlns="http://www.w3.org/2000/svg" width="18.328" height="18.494" viewBox="0 0 18.328 18.494">
  <path id="Path_5922" data-name="Path 5922" d="M224.457,806.819a3.023,3.023,0,0,0-.212.265,3.383,3.383,0,0,0-.795,3.136A14.35,14.35,0,0,0,236.2,821.757c.136.012.271.019.405.019a3.756,3.756,0,0,0,1.955-.513,2.9,2.9,0,0,0,.7-.563l.542-.6a2.864,2.864,0,0,0-.2-4.039l-.915-.827a2.858,2.858,0,0,0-4.039.2l-.542.6a2.836,2.836,0,0,0-.5.785,10.122,10.122,0,0,1-5.031-4.605,2.865,2.865,0,0,0,1.045-.732l.542-.6a2.861,2.861,0,0,0-.2-4.04l-.915-.827a2.859,2.859,0,0,0-4.039.2Zm1.087-.107a2.126,2.126,0,0,1,3-.15l.915.827a2.126,2.126,0,0,1,.15,3l-.542.6h0a2.116,2.116,0,0,1-.962.609l-.165.05a.367.367,0,0,0-.223.516l.077.155a10.863,10.863,0,0,0,5.743,5.27l.142.056a.371.371,0,0,0,.29-.009.367.367,0,0,0,.193-.217l.048-.144a2.1,2.1,0,0,1,.438-.747l.542-.6a2.123,2.123,0,0,1,3-.151l.915.827a2.127,2.127,0,0,1,.15,3l-.542.6a2.16,2.16,0,0,1-.528.423,3.138,3.138,0,0,1-1.918.395,13.612,13.612,0,0,1-12.1-10.944,2.689,2.689,0,0,1,.573-2.457.388.388,0,0,0,.033-.033l.025-.028a.375.375,0,0,0,.03-.038,2.08,2.08,0,0,1,.17-.214Z" transform="translate(-223.368 -803.282)" fill="#ffd400"/>
  <path id="Path_5923" data-name="Path 5923" d="M248.535,810.468a8.741,8.741,0,0,0-8.731-8.732.765.765,0,1,0,0,1.53,7.21,7.21,0,0,1,7.2,7.2.765.765,0,1,0,1.529,0Zm-.764.4a.4.4,0,0,1-.4-.4A7.578,7.578,0,0,0,239.8,802.9a.4.4,0,1,1,0-.794,8.373,8.373,0,0,1,8.363,8.364A.4.4,0,0,1,247.77,810.865Z" transform="translate(-230.207 -801.736)" fill="#ffd400"/>
  <path id="Path_5924" data-name="Path 5924" d="M239.637,806.781a.765.765,0,0,0,0,1.529,4.458,4.458,0,0,1,4.453,4.453.765.765,0,1,0,1.53,0A5.989,5.989,0,0,0,239.637,806.781Zm5.217,6.379a.4.4,0,0,1-.4-.4,4.826,4.826,0,0,0-4.82-4.821.4.4,0,1,1,0-.794,5.621,5.621,0,0,1,5.615,5.614A.4.4,0,0,1,244.855,813.16Z" transform="translate(-230.134 -803.938)" fill="#ffd400"/>
</svg>
