<svg id="Group_22725" data-name="Group 22725" xmlns="http://www.w3.org/2000/svg" width="20.177" height="12.999" viewBox="0 0 20.177 12.999">
  <g id="Group_3188" data-name="Group 3188" transform="translate(0 0)">
    <g id="Group_3184" data-name="Group 3184" transform="translate(0)">
      <path id="Path_6530" data-name="Path 6530" d="M668.99,572.131h-19.4a.388.388,0,0,1-.388-.388V559.52a.388.388,0,0,1,.388-.388h19.4a.388.388,0,0,1,.388.388v12.223A.388.388,0,0,1,668.99,572.131Zm-19.013-.776H668.6V559.908H649.977Z" transform="translate(-649.201 -559.132)" fill="#ffd400"/>
    </g>
    <g id="Group_3185" data-name="Group 3185" transform="translate(0.028)">
      <path id="Path_6531" data-name="Path 6531" d="M659.366,567.329a.388.388,0,0,1-.236-.08l-9.687-7.421a.388.388,0,0,1,.236-.7h19.373a.388.388,0,0,1,.236.7l-9.686,7.421A.389.389,0,0,1,659.366,567.329Zm-8.542-7.421,8.542,6.544,8.542-6.544Z" transform="translate(-649.291 -559.132)" fill="#ffd400"/>
    </g>
    <g id="Group_3186" data-name="Group 3186" transform="translate(0 5.277)">
      <path id="Path_6532" data-name="Path 6532" d="M649.589,584.017a.388.388,0,0,1-.275-.662l6.946-6.946a.388.388,0,0,1,.549.549l-6.946,6.945A.387.387,0,0,1,649.589,584.017Z" transform="translate(-649.2 -576.295)" fill="#ffd400"/>
    </g>
    <g id="Group_3187" data-name="Group 3187" transform="translate(12.484 5.306)">
      <path id="Path_6533" data-name="Path 6533" d="M697.109,584.081a.387.387,0,0,1-.274-.113l-6.917-6.917a.388.388,0,0,1,.549-.549l6.917,6.917a.388.388,0,0,1-.275.662Z" transform="translate(-689.804 -576.388)" fill="#ffd400"/>
    </g>
  </g>
</svg>
