<svg id="Group_22726" data-name="Group 22726" xmlns="http://www.w3.org/2000/svg" width="13.216" height="18.492" viewBox="0 0 13.216 18.492">
  <g id="Group_3215" data-name="Group 3215" transform="translate(0 0)">
    <g id="Group_3213" data-name="Group 3213">
      <path id="Path_6552" data-name="Path 6552" d="M554.269,569.848a1.88,1.88,0,0,1-1.609-.9c-2.281-3.69-5-8.59-5-10.986a6.608,6.608,0,1,1,13.216,0c0,2.4-2.719,7.3-5,10.986A1.88,1.88,0,0,1,554.269,569.848Zm0-17.686a5.808,5.808,0,0,0-5.8,5.8c0,1.7,1.778,5.546,4.878,10.561a1.083,1.083,0,0,0,1.845,0c3.1-5.016,4.879-8.865,4.879-10.561A5.808,5.808,0,0,0,554.269,552.163Z" transform="translate(-547.661 -551.356)" fill="#ffd400"/>
    </g>
    <g id="Group_3214" data-name="Group 3214" transform="translate(3.145 2.724)">
      <path id="Path_6553" data-name="Path 6553" d="M560.96,566.8a3.463,3.463,0,1,1,3.463-3.463A3.467,3.467,0,0,1,560.96,566.8Zm0-6.118a2.656,2.656,0,1,0,2.656,2.655A2.659,2.659,0,0,0,560.96,560.681Z" transform="translate(-557.497 -559.874)" fill="#ffd400"/>
    </g>
  </g>
</svg>
