<svg xmlns="http://www.w3.org/2000/svg" width="130.23" height="76.379" viewBox="0 0 130.23 76.379">
  <g id="Group_22691" data-name="Group 22691" transform="translate(-76.314 -31.983)" opacity="0.653">
    <path id="Path_3423" data-name="Path 3423" d="M184.684,271.022c0,.033,0,.066,0,.1h-1.5a.8.8,0,0,0,0-.1Z" transform="translate(-77.464 -163.259)" fill="#f9f9f9" stroke="#323334" stroke-width="1"/>
    <g id="Group_18035" data-name="Group 18035" transform="translate(137.734 80.666)">
      <path id="Path_3447" data-name="Path 3447" d="M73.09,285.963V289.9H69.061l.07,16.84H64.975q0-.27,0-.949t.007-1.651v-2.172q0-1.2.006-2.506T65,296.812V289.9h-4V286Z" transform="translate(-60.993 -285.518)" fill="#f9f9f9"/>
      <path id="Path_3448" data-name="Path 3448" d="M119.845,299.5a6.091,6.091,0,0,1-.55,2.412A5.417,5.417,0,0,1,118,303.643a6.827,6.827,0,0,1-1.833,1.153,11.7,11.7,0,0,1-2.166.691,16.106,16.106,0,0,1-2.307.328q-1.172.081-2.243.07t-1.985-.076q-.914-.064-1.534-.123l-.047-20.505q1.687-.269,3.349-.41a22.3,22.3,0,0,1,3.174-.053,13.494,13.494,0,0,1,2.8.445,6.423,6.423,0,0,1,2.226,1.072,4.745,4.745,0,0,1,1.441,1.844,6.252,6.252,0,0,1,.462,2.758,5.286,5.286,0,0,1-.644,2.5,5.534,5.534,0,0,1-1.546,1.726,9.506,9.506,0,0,1,1.054.808,5.33,5.33,0,0,1,.878,1,4.684,4.684,0,0,1,.585,1.206A4.045,4.045,0,0,1,119.845,299.5Zm-10.269-6.242a8.352,8.352,0,0,0,1.1.053,12.716,12.716,0,0,0,1.311-.083,8.935,8.935,0,0,0,1.335-.252,4.644,4.644,0,0,0,1.164-.474,2.513,2.513,0,0,0,.809-.727,1.574,1.574,0,0,0,.263-1.024,1.946,1.946,0,0,0-.328-1,2.6,2.6,0,0,0-.761-.727,4.175,4.175,0,0,0-1.066-.474,7.892,7.892,0,0,0-1.253-.257,8.666,8.666,0,0,0-1.317-.064,11.218,11.218,0,0,0-1.258.1Zm0,8.971a6.65,6.65,0,0,0,.836.064,11.1,11.1,0,0,0,1.265-.041,10.093,10.093,0,0,0,1.429-.228,5.012,5.012,0,0,0,1.318-.5,2.7,2.7,0,0,0,.931-.838,1.937,1.937,0,0,0,.287-1.27,2.011,2.011,0,0,0-.363-1.048,2.643,2.643,0,0,0-.808-.733,4.33,4.33,0,0,0-1.113-.456,7.6,7.6,0,0,0-1.276-.223,9.111,9.111,0,0,0-1.305-.023q-.651.034-1.2.117Z" transform="translate(-91.717 -284.643)" fill="#f9f9f9"/>
      <path id="Path_3449" data-name="Path 3449" d="M171.505,295.27a10.37,10.37,0,0,1-.409,3.279,9.261,9.261,0,0,1-1.347,2.764,9.375,9.375,0,0,1-2.183,2.167,11.737,11.737,0,0,1-2.9,1.5,14.758,14.758,0,0,1-3.513.762,18.841,18.841,0,0,1-4.023-.059V284.871a22.739,22.739,0,0,1,3.812-.051,15.379,15.379,0,0,1,3.4.62,11.535,11.535,0,0,1,2.868,1.324,8.846,8.846,0,0,1,2.231,2.061,9.573,9.573,0,0,1,1.469,2.827A12.886,12.886,0,0,1,171.505,295.27Zm-3.63.843a9.524,9.524,0,0,0-.346-2.746,6.252,6.252,0,0,0-3.4-4.058,8.85,8.85,0,0,0-3.3-.808l.081,13.97a8.834,8.834,0,0,0,2.834-.638,7.16,7.16,0,0,0,2.184-1.387,6.206,6.206,0,0,0,1.411-1.962A5.918,5.918,0,0,0,167.875,296.114Z" transform="translate(-126.783 -284.696)" fill="#f9f9f9"/>
      <path id="Path_3450" data-name="Path 3450" d="M211.913,284.552c.023.093.055.213.1.358s.109.355.2.632.216.645.381,1.106.37,1.026.621,1.692.556,1.47.918,2.406.789,2.023,1.278,3.256,1.052,2.639,1.691,4.215q1.3-3.185,2.184-5.439t1.464-3.77q.578-1.517.89-2.4t.456-1.34c.1-.3.167-.543.205-.714h3.911q.036.222.117.872t.193,1.61q.11.96.257,2.166t.3,2.548q.151,1.341.322,2.757t.334,2.793q.163,1.376.31,2.651t.275,2.343q.13,1.065.229,1.862t.158,1.195l-4.1.738-1.346-13.1q-.434,1.1-.873,2.3t-.872,2.4q-.434,1.2-.832,2.324t-.737,2.078c-.226.638-.429,1.192-.6,1.664s-.314.83-.416,1.072h-3.642q-.152-.363-.415-1.072t-.6-1.664q-.34-.953-.738-2.078t-.832-2.324q-.433-1.2-.878-2.4t-.867-2.3l-1.346,13.1-4.1-.738q.058-.4.158-1.195t.228-1.862q.129-1.066.275-2.343t.311-2.651q.164-1.377.334-2.793t.322-2.757q.151-1.342.3-2.548t.258-2.166q.112-.96.194-1.61t.117-.872Z" transform="translate(-159.895 -284.552)" fill="#f9f9f9"/>
    </g>
    <g id="Group_18061" data-name="Group 18061" transform="translate(76.814 32.471)">
      <path id="Path_3420" data-name="Path 3420" d="M100.173,80.311c-.395-1.715-.7-3.448-1.078-5.167-.578-2.656-.987-5.348-1.578-8-.632-2.835-1.124-5.7-1.772-8.527-.238-1.043-.416-2.1-.628-3.151-.47-2.341-.946-4.681-1.414-7.023-.274-1.365-.519-2.74-.811-4.1-.315-1.47-.495-2.975-.956-4.414-.142-.446.02-.965-.317-1.366v-.694a15.142,15.142,0,0,1,2.917.007,7.432,7.432,0,0,1,5.519,3.5c.49.787.685,1.684,1.136,2.472.27.175.25.457.259.724.087,2.479.168,4.959.116,7.439-.073,3.52.056,7.039.152,10.554.107,3.924.015,7.844.087,11.767a4.667,4.667,0,0,0-.072,1.09c.081,1.339-.109,2.671-.121,4.009-.007.806.138,1.6.135,2.41a21.244,21.244,0,0,0-.124,2.35c.028.265-.127.32-.326.51-.238.229-.271-.277-.293-.476" transform="translate(-91.62 -36.116)" fill="#f9f9f9" stroke="#16135a" stroke-width="1"/>
      <path id="Path_3421" data-name="Path 3421" d="M122.3,70.835c-.017-2.962-.144-5.925-.177-8.888q-.105-9.291-.236-18.585c-.014-1.021-.063-2.038-.1-3.057.077-1.807.005-3.613-.048-5.419-.016-.574,0-1.152-.025-1.726-.019-.393.1-.565.526-.53a8.339,8.339,0,0,1,6.332,3.269A8.979,8.979,0,0,1,130,39.857c.021.125-.039.278.115.361a7.328,7.328,0,0,1-.335,2.2c-.474,2.821-.988,5.636-1.488,8.452q-.991,5.589-1.985,11.176-1.128,6.294-2.273,12.584-.654,3.628-1.3,7.256a2.986,2.986,0,0,1-.293.988c-.332-.157-.3-.471-.293-.747q.042-1.606.117-3.21c.051-1.075-.1-2.144-.105-3.216-.014-1.435.043-3.436.008-4.87C122.169,70.645,122.371,71.02,122.3,70.835Z" transform="translate(-112.214 -32.577)" fill="#f9f9f9" stroke="#16135a" stroke-width="1"/>
      <path id="Path_3422" data-name="Path 3422" d="M121.633,163.906c.128-.021.179-.131.184-.259a41.2,41.2,0,0,0-.085-5.745c-.037-.427.193-.747.173-1.16-.051-1.017,0-2.037,0-3.057a1.086,1.086,0,0,1,.092.672q.072,5.283.135,10.566c0,.269.029.539.045.806a1.9,1.9,0,0,1-.189.749,9.679,9.679,0,0,1-.666-3.054" transform="translate(-111.95 -115.427)" fill="#f9f9f9"/>
      <path id="Path_3424" data-name="Path 3424" d="M198.271,201.894c.5.678.969,1.374,1.482,2.043a3.162,3.162,0,0,1,.727,1.763,1.416,1.416,0,0,1-1.111-.918c-.084-.229-.341-.394-.52-.59.093-.532-.269-.878-.519-1.268-.172-.271-.345-.54-.518-.81C197.771,201.635,198.017,201.757,198.271,201.894Z" transform="translate(-164.292 -148.336)" fill="#f9f9f9" stroke="#323334" stroke-width="1"/>
      <path id="Path_3425" data-name="Path 3425" d="M182.406,180.331c.045-.1.134-.118.23-.124.462-.146.266.372.48.476.562-.133.589-.613.68-1.052.361-.169.353.2.5.341.245.146.569.146.043.5a2.428,2.428,0,0,1-1.67.418c-.2-.15.084-.413-.133-.557Z" transform="translate(-153.752 -133.154)" fill="#f9f9f9" stroke="#323334" stroke-width="1"/>
      <path id="Path_3426" data-name="Path 3426" d="M193.474,187.928c.3-.065.7-.393.649.323-.012.181.32.234.5.329.141.075.3.106.279.306-.022.27-.251.189-.4.211a.818.818,0,0,1-.4-.022,1.391,1.391,0,0,0-1.223.058.342.342,0,0,1-.471-.055.355.355,0,0,1-.048-.472c.189-.256.118-.764.654-.689C193.161,188.061,193.313,188.194,193.474,187.928Z" transform="translate(-160.515 -138.772)" fill="#f9f9f9" stroke="#323334" stroke-width="1"/>
      <g id="Group_18034" data-name="Group 18034" transform="translate(17.44 40.347)">
        <path id="Path_3427" data-name="Path 3427" d="M230.8,201.053c.245-.14.419-.162.547.175a2.637,2.637,0,0,1,.275,1.309A3.365,3.365,0,0,0,230.8,201.053Z" transform="translate(-204.311 -188.126)" fill="#f9f9f9"/>
        <g id="Group_18033" data-name="Group 18033">
          <path id="Path_3428" data-name="Path 3428" d="M167.6,196.924c0,.925.2,1.052,1.05.657.384-.181.886-.585,1.167-.352.329.275-.044.817-.142,1.232-.353,1.455-1.456,2.415-2.39,3.467-.738.833-1.411,1.613-1.066,2.848a5.124,5.124,0,0,1,.05,1.226.923.923,0,0,1-.629.96,7.932,7.932,0,0,0-1.254.76c-.49.263-.288.734-.1,1.135a15.66,15.66,0,0,1-6.449,1.192,8.274,8.274,0,0,1-1.561-2.19,1.11,1.11,0,0,1-.043-1.04,2.775,2.775,0,0,0-.65-3.031,2.478,2.478,0,0,1-.673-2.095c.094-.466-.247-.609-.615-.879-1.32-.968-2.826-.545-4.239-.738a2.524,2.524,0,0,1-1.878-1.026c-.961-1.381-1.642-2.783-1.1-4.595.285-.958.25-2.005,1.005-2.792.058-.059.09-.145.154-.192a34.353,34.353,0,0,0,2.648-2.668,1.708,1.708,0,0,1,1.187-.4c1.08-.047,2.131-.4,3.229-.43.956-.025,1.138.059,1.309,1.019.034.194.032.415.248.475a8.868,8.868,0,0,1,1.563.73c.337.168.568,0,.793-.23a.934.934,0,0,1,1.128-.232,7.514,7.514,0,0,0,2.242.489c.294.065.618.081.751.426.142.431-.087.714-.359,1.014a8.625,8.625,0,0,0-1.2,1.637c.477-.183.658-.63.993-.933.294-.269.6-.561,1.005-.29s.238.663.063,1.026a.913.913,0,0,0,.768,1.174,1.7,1.7,0,0,1,.843.264c.77.7,1.174,1.738,2.119,2.275C167.573,196.853,167.584,196.889,167.6,196.924Z" transform="translate(-146.877 -179.238)" fill="#f9f9f9"/>
          <path id="Path_3429" data-name="Path 3429" d="M173.2,173.411a2.43,2.43,0,0,0,.347-1.156c0-.686-.214-.816-.81-.492a2.909,2.909,0,0,1-2.039-.82c-.2-.365-.331-.851-.935-.628-.424.036-.215.712-.7.687-.286-.01-.368-.261-.406-.448-.17-.873-1.008-1.152-1.5-1.738a.327.327,0,0,0-.444-.069c-.161.111-.139.286-.058.441s.191.329.291.492c.147.371,0,.432-.323.309-.2,0-.255-.168-.359-.29a1.815,1.815,0,0,0-2.428-.031,7.168,7.168,0,0,0-1.422,1.351c-.359.462-.906.272-1.381.258-.172-.007-.319-.191-.388-.386-.186-.512.681-1.737,1.217-1.72.218.007.438.03.656.023.672-.026.929-.393.645-1.01-.148-.327-.1-.5.179-.662.386-.319.9-.286,1.328-.476.45-.015.684-.5,1.137-.518.247-.124.513-.2.76-.322a3.014,3.014,0,0,0,1.9-.468c.2-.173.494-.274.341-.63-.2-.046.181-.528-.282-.368-.2.648-.3,1.388-1.231,1.377-.281-.124-.236-.6-.64-.587-.128-.023-.253-.105-.381,0-.581-.62.057-.893.405-1.033a5.19,5.19,0,0,0,1.414-.788c.89-.738,1.882-.334,2.724-.03a2.508,2.508,0,0,0,1.374.028,7.1,7.1,0,0,1,3.062-.329,5.345,5.345,0,0,1,1.8.938,1.982,1.982,0,0,0,1.07.739,15.47,15.47,0,0,1,4.946,7.734,11.187,11.187,0,0,0,1.353,2.5c-.3,1.1.164,2.2-.117,3.362q-.358-.944-.719-1.887c-.121-.58-.128-1.222-.822-1.484a2.017,2.017,0,0,1-.4-.4.81.81,0,0,0-1.174-.38c-.378.155-.777.314-1.089-.138a.3.3,0,0,0-.371-.091c-.734.4-1.083-.142-1.465-.582-.207-.239-.451-.369-.715-.19-.342.229-.118.49.074.684.358.363.585.845,1.059,1.114a.717.717,0,0,0,.681.085c.205-.08.258-.672.6-.245.308.39,1.008.512.81,1.276a5.856,5.856,0,0,1-2.454,3.047,1.94,1.94,0,0,1-1.322.576l.019.015a1.336,1.336,0,0,1-.372-.537,16,16,0,0,0-2.545-3.968,3.321,3.321,0,0,1-.463-.768c-.064-.138-.135-.336-.313-.207-.091.069.091.207.155.314.384.564.783,1.114,1.147,1.688.262.415.517.864.065,1.33-.039-.038-.081-.108-.119-.107-.67.047-1.112-.385-1.635-.7-.494-.3-.47-.506-.117-.85a1.565,1.565,0,0,0,.313-.359.389.389,0,0,0-.048-.527.333.333,0,0,0-.505.086c-.248.361-.661.583-.828,1.008-.1.259-.181.553-.543.492a.5.5,0,0,1-.436-.431.725.725,0,0,1,.322-.771,6.689,6.689,0,0,0,1.472-1.809C172.737,173.7,173.026,173.626,173.2,173.411Z" transform="translate(-156.284 -162.346)" fill="#f9f9f9"/>
          <path id="Path_3430" data-name="Path 3430" d="M211.06,245.1a4.616,4.616,0,0,1,1.733-1.886c.2-.033.229.215.383.269A8.21,8.21,0,0,1,211.06,245.1Z" transform="translate(-190.802 -217.042)" fill="#f9f9f9"/>
          <path id="Path_3431" data-name="Path 3431" d="M205.766,163.2a10.912,10.912,0,0,0-1.806-.9c-.44-.211-1.143.143-1.325-.621.2-.168.522.15.68-.176a9.781,9.781,0,0,1,2.609,1.522C205.95,163.162,205.894,163.219,205.766,163.2Z" transform="translate(-185.036 -161.131)" fill="#f9f9f9"/>
          <path id="Path_3432" data-name="Path 3432" d="M212.555,166.506c.05-.056.1-.114.157-.17a2.922,2.922,0,0,1,.96.8C213.186,167.129,212.653,167.2,212.555,166.506Z" transform="translate(-191.825 -164.432)" fill="#f9f9f9"/>
          <path id="Path_3433" data-name="Path 3433" d="M197.666,195.359c-.082.329-.238.567-.631.519-.078-.41-.408-.28-.664-.316C196.748,195.145,197.255,195.554,197.666,195.359Z" transform="translate(-180.75 -184.295)" fill="#f9f9f9"/>
          <path id="Path_3434" data-name="Path 3434" d="M166.9,160.3c-1.967.912-3.843,1.337-5.622,1.988C161.9,161.524,164.436,160.6,166.9,160.3Z" transform="translate(-156.736 -160.303)" fill="#f9f9f9"/>
          <path id="Path_3435" data-name="Path 3435" d="M198.984,162.011q.662.309,1.325.621c-.98.444-2.02-.1-3.009.18C197.938,162.706,198.206,161.82,198.984,162.011Z" transform="translate(-181.385 -161.453)" fill="#f9f9f9"/>
          <path id="Path_3436" data-name="Path 3436" d="M169.366,171.951a.318.318,0,0,1-.034-.5.833.833,0,0,1,.26-.191c.346-.184-.061-.939.387-.791.379.128.373.808.393,1.286C170.119,172.246,169.765,172.21,169.366,171.951Z" transform="translate(-162.174 -167.25)" fill="#f9f9f9"/>
          <path id="Path_3437" data-name="Path 3437" d="M169.38,174.782a1.791,1.791,0,0,0,1.005-.192c.066.063.13.127.192.19-.3.556-.825.491-1.328.479Z" transform="translate(-162.188 -170.081)" fill="#f9f9f9"/>
          <path id="Path_3438" data-name="Path 3438" d="M179.644,183.85c.181-.026.309-.106.323-.309a.835.835,0,0,1,.7,1.105C180.309,184.371,179.976,184.11,179.644,183.85Z" transform="translate(-169.302 -176.207)" fill="#f9f9f9"/>
          <path id="Path_3439" data-name="Path 3439" d="M187.318,186.2c.182-.281.127-.8.7-.686-.227.222-.15.493-.144.764a.344.344,0,0,1-.313.329C187.3,186.6,187.262,186.414,187.318,186.2Z" transform="translate(-174.539 -177.543)" fill="#f9f9f9"/>
          <path id="Path_3440" data-name="Path 3440" d="M167,172.709c-.049.272-.3.318-.527.367-.149.036-.289-.027-.231-.2.064-.2.157-.41.417-.435C166.83,172.426,166.975,172.468,167,172.709Z" transform="translate(-160.118 -168.607)" fill="#f9f9f9"/>
          <path id="Path_3441" data-name="Path 3441" d="M177.707,170.4c.6.137.045.55.19.794-.287.036-.528.269-.839.2C177.362,171.125,177.835,170.961,177.707,170.4Z" transform="translate(-167.532 -167.216)" fill="#f9f9f9"/>
          <path id="Path_3442" data-name="Path 3442" d="M179.582,187.771c.148.032.327.061.361.25a.184.184,0,0,1-.207.2c-.187-.013-.391-.066-.409-.294C179.317,187.806,179.456,187.772,179.582,187.771Z" transform="translate(-169.085 -179.102)" fill="#f9f9f9"/>
          <path id="Path_3443" data-name="Path 3443" d="M200.342,198.19c-.267,0-.629-.194-.655.313-.119-.253-.547-.382-.323-.779C199.679,197.9,200.278,197.482,200.342,198.19Z" transform="translate(-182.754 -185.912)" fill="#f9f9f9"/>
          <path id="Path_3444" data-name="Path 3444" d="M185.536,166.425c-.271-.109-.361-.485-.706-.489.3-.159.491-.493.917-.589C185.775,165.755,185.392,166.052,185.536,166.425Z" transform="translate(-172.851 -163.755)" fill="#f9f9f9"/>
          <path id="Path_3445" data-name="Path 3445" d="M180.273,169.945c-.463.007-.236-.675-.685-.679.159-.235.344-.415.517-.033A3.993,3.993,0,0,1,180.273,169.945Z" transform="translate(-169.264 -166.263)" fill="#f9f9f9"/>
          <path id="Path_3446" data-name="Path 3446" d="M196.566,179.279c-.054.156.172.416-.12.471-.351.068-.424-.251-.538-.489C196.127,179.285,196.342,179.411,196.566,179.279Z" transform="translate(-180.433 -173.278)" fill="#f9f9f9"/>
        </g>
      </g>
      <path id="Path_3451" data-name="Path 3451" d="M159.664,88.63c-1.875-.35-1.951,1.66-1.984,1.811a11,11,0,0,1-.611,2.322l0,.005a15.682,15.682,0,1,1-.13-10.108,16.071,16.071,0,0,1,.745,3.049c.033.151.109,2.161,1.984,1.811,1.791-.185,2.08-.9,2.08-2.659l-.583-2.668a19,19,0,0,0-4.92-8.487c-6.3-6.093-13.616-7.57-21.866-4.709-.168.06-.317.222-.535.074a5.275,5.275,0,0,1,.091-.683c.566-3.474,1.163-6.946,1.755-10.417.826-4.839,1.619-9.68,2.452-14.519a13.164,13.164,0,0,0,.277-4.582,7.945,7.945,0,0,0-6.043-6.3c-.916-.233-1.053-.076-1.229.85-.427,2.243-.727,4.508-1.257,6.731-.091,1.057-.393,2.076-.555,3.119-.591,3.783-1.354,7.534-2,11.306-.891,5.231-1.873,10.447-2.782,15.676q-.859,4.944-1.768,9.884l-.719,3.323a19.754,19.754,0,0,0-.4,4.759,18.635,18.635,0,0,0,4.006,11.662c3.9,5.038,8.964,7.88,15.481,7.88h1.337a16.32,16.32,0,0,0,3.952-.315,20,20,0,0,0,10.475-6.245,21.856,21.856,0,0,0,4.45-8.274h0l.008-.054c0-.012.007-.032.01-.044.008-.03.012-.064.018-.093l.337-1.439C161.743,89.536,161.454,88.815,159.664,88.63Z" transform="translate(-112.183 -32.471)" fill="#f9f9f9" stroke="#16135a" stroke-width="1"/>
    </g>
  </g>
</svg>
