<svg xmlns="http://www.w3.org/2000/svg" width="23.738" height="25.027" viewBox="0 0 23.738 25.027">
  <path id="Path_15" data-name="Path 15" d="M648.282,388.24c-6.489,0-11.748,5.521-11.748,12.334a12.718,12.718,0,0,0,1.513,6.054l-1.758,6.639,6.327-1.888a11.256,11.256,0,0,0,5.666,1.527c6.487,0,11.746-5.521,11.746-12.332S654.769,388.24,648.282,388.24Zm0,22.559a9.358,9.358,0,0,1-5.474-1.768l-3.584,1.1,1.007-3.8a10.512,10.512,0,0,1-1.691-5.756,9.752,9.752,0,1,1,9.742,10.226Z" transform="translate(-636.289 -388.24)" fill="#ffd506"/>
</svg>
