<svg id="language" xmlns="http://www.w3.org/2000/svg" width="19.521" height="19.52" viewBox="0 0 19.521 19.52">
  <g id="Group_23014" data-name="Group 23014" transform="translate(4.586 5.223)">
    <g id="Group_23013" data-name="Group 23013">
      <path id="Path_48704" data-name="Path 48704" d="M121,137h-.245l-.457,2.288h1.16Z" transform="translate(-120.293 -137)" fill="#16135a"/>
    </g>
  </g>
  <g id="Group_23016" data-name="Group 23016" transform="translate(14.54 9.798)">
    <g id="Group_23015" data-name="Group 23015">
      <path id="Path_48705" data-name="Path 48705" d="M381.374,257a5.978,5.978,0,0,0,.939,1.657A6.036,6.036,0,0,0,383.29,257Z" transform="translate(-381.374 -257)" fill="#16135a"/>
    </g>
  </g>
  <g id="Group_23018" data-name="Group 23018" transform="translate(9.252 3.469)">
    <g id="Group_23017" data-name="Group 23017">
      <path id="Path_48706" data-name="Path 48706" d="M251.216,91h-7.1l1.481,11.883a1.775,1.775,0,0,1-.424,1.3l-2.508,2.866h8.553a1.718,1.718,0,0,0,1.716-1.716V92.754A1.751,1.751,0,0,0,251.216,91Zm0,6.329h-.153a7.257,7.257,0,0,1-1.378,2.5c.42.384.869.7,1.316,1.052a.572.572,0,1,1-.715.892c-.485-.383-.941-.7-1.4-1.122-.456.418-.873.739-1.358,1.122a.572.572,0,0,1-.715-.892c.447-.353.858-.668,1.278-1.052a7.218,7.218,0,0,1-1.34-2.5H246.6a.572.572,0,1,1,0-1.144h1.716v-.572a.572.572,0,0,1,1.144,0v.572h1.754a.572.572,0,0,1,0,1.144Z" transform="translate(-242.663 -91)" fill="#16135a"/>
    </g>
  </g>
  <g id="Group_23020" data-name="Group 23020">
    <g id="Group_23019" data-name="Group 23019">
      <path id="Path_48707" data-name="Path 48707" d="M9.309,1.5A1.718,1.718,0,0,0,7.607,0H1.716A1.718,1.718,0,0,0,0,1.716V14.373a1.718,1.718,0,0,0,1.716,1.716h9.019c.167-.191.307-.31.313-.559C11.048,15.468,9.317,1.565,9.309,1.5Zm-2.3,9.428a.572.572,0,0,1-.673-.448L5.975,8.655H4.358l-.366,1.828a.572.572,0,1,1-1.121-.224L4.014,4.539a.572.572,0,0,1,.561-.46H5.757a.572.572,0,0,1,.561.46l1.144,5.719A.572.572,0,0,1,7.013,10.931Z" fill="#16135a"/>
    </g>
  </g>
  <g id="Group_23022" data-name="Group 23022" transform="translate(6.682 17.233)">
    <g id="Group_23021" data-name="Group 23021">
      <path id="Path_48708" data-name="Path 48708" d="M175.261,452l.1.785a1.729,1.729,0,0,0,.989,1.329l1.92-2.114Z" transform="translate(-175.261 -452)" fill="#16135a"/>
    </g>
  </g>
</svg>
