<svg id="Group_23026" data-name="Group 23026" xmlns="http://www.w3.org/2000/svg" width="23.722" height="23.632" viewBox="0 0 23.722 23.632">
  <path id="Path_70" data-name="Path 70" d="M232.735,285.967c-1.473,0-2.946.007-4.419,0-2.045-.013-3-.75-3.495-2.7-.931-3.637-1.884-7.268-2.766-10.917-.188-.78-.463-1.179-1.3-1.045a1.055,1.055,0,0,1-.683-.027c-.374-.272-.934-.627-.943-.963a1.348,1.348,0,0,1,.894-.969,9.369,9.369,0,0,1,2.661.007c.317.041.641.471.848.8a3.572,3.572,0,0,1,.278,1c.686,2.613.687,2.613,3.438,2.612q6.92,0,13.84,0c1.549,0,2.036.625,1.624,2.106q-1.059,3.8-2.154,7.594a3.022,3.022,0,0,1-3.288,2.5c-.775.008-1.551,0-2.326,0Zm7.4-9.9H225.063c.642,2.464,1.241,4.864,1.919,7.24a1.184,1.184,0,0,0,.91.614q4.71.071,9.421.007a1.1,1.1,0,0,0,.851-.544C238.856,280.971,239.479,278.543,240.136,276.062Z" transform="translate(-219.13 -269.258)" fill="#16135a"/>
  <path id="Path_71" data-name="Path 71" d="M287.165,348.269a2.954,2.954,0,0,1,5.907-.1,2.974,2.974,0,0,1-2.992,3.031A2.817,2.817,0,0,1,287.165,348.269Z" transform="translate(-271.324 -327.569)" fill="#16135a"/>
  <path id="Path_72" data-name="Path 72" d="M246.264,345.268a2.976,2.976,0,0,1,3.039,2.858,3.154,3.154,0,0,1-2.892,3.073,2.967,2.967,0,0,1-.147-5.931Z" transform="translate(-237.744 -327.57)" fill="#16135a"/>
</svg>
