<svg xmlns="http://www.w3.org/2000/svg" width="10.177" height="19.642" viewBox="0 0 10.177 19.642">
  <g id="dollar-symbol" transform="translate(-116.652 0)">
    <path id="Path_48709" data-name="Path 48709" d="M124.472,8.922a23.648,23.648,0,0,0-2.4-1.087,5.392,5.392,0,0,1-1.318-.738,1.147,1.147,0,0,1,.284-2.041,2.314,2.314,0,0,1,.807-.166,6.127,6.127,0,0,1,3.034.6c.479.231.637.158.8-.341.17-.527.312-1.063.471-1.594a.557.557,0,0,0-.361-.742,7.714,7.714,0,0,0-1.915-.572C123,2.107,123,2.1,123,1.231,123,0,123,0,121.762,0c-.178,0-.357,0-.535,0-.576.016-.673.118-.69.7-.008.26,0,.519,0,.783,0,.771-.008.759-.746,1.026a4.115,4.115,0,0,0-3.006,3.813,3.908,3.908,0,0,0,2.211,3.736,24.441,24.441,0,0,0,2.763,1.241,4.1,4.1,0,0,1,1.006.592,1.379,1.379,0,0,1-.329,2.418,3.309,3.309,0,0,1-1.773.231,7.913,7.913,0,0,1-2.7-.807c-.5-.26-.645-.191-.815.349-.146.467-.276.937-.406,1.408-.174.633-.11.783.495,1.079a8.627,8.627,0,0,0,2.434.7c.657.105.677.134.686.815,0,.308,0,.621.008.929a.552.552,0,0,0,.592.625c.454.008.913.008,1.367,0a.52.52,0,0,0,.564-.588c0-.422.02-.848,0-1.27a.671.671,0,0,1,.58-.763,4.585,4.585,0,0,0,2.389-1.533A4.311,4.311,0,0,0,124.472,8.922Z" transform="translate(0 0)" fill="#16135a"/>
  </g>
</svg>
