<svg xmlns="http://www.w3.org/2000/svg" width="24" height="24" viewBox="0 0 24 24">
  <path id="Path_48641" data-name="Path 48641" d="M930.838,1169.868a9.877,9.877,0,0,1-1.358,4.858.839.839,0,0,0,.171,1.177c1.66,1.64,3.3,3.3,4.959,4.941a1.844,1.844,0,1,1-2.553,2.657c-1.622-1.587-3.216-3.2-4.822-4.808-.708-.707-.708-.707-1.563-.234a9.779,9.779,0,1,1,4.87-10.724C930.7,1168.432,930.742,1169.157,930.838,1169.868Zm-9.784,6.522a6.52,6.52,0,1,0-6.57-6.475A6.559,6.559,0,0,0,921.054,1176.39Z" transform="translate(-911.243 -1160.084)" fill="#fff"/>
</svg>
