<svg xmlns="http://www.w3.org/2000/svg" width="19.614" height="21.011" viewBox="0 0 19.614 21.011">
  <g id="user" transform="translate(-17.19 0.25)">
    <g id="Group_23003" data-name="Group 23003" transform="translate(17.44 11.553)">
      <g id="Group_23002" data-name="Group 23002" transform="translate(0)">
        <path id="Path_48700" data-name="Path 48700" d="M27,288.389c-6.163,0-9.557,2.915-9.557,8.21a.749.749,0,0,0,.749.749H35.805a.749.749,0,0,0,.749-.749C36.554,291.3,33.16,288.389,27,288.389Zm-8.033,7.461c.294-3.958,2.993-5.964,8.033-5.964s7.738,2.005,8.033,5.964Z" transform="translate(-17.44 -288.389)" fill="#16135a" stroke="#16135a" stroke-width="0.5"/>
      </g>
    </g>
    <g id="Group_23005" data-name="Group 23005" transform="translate(22.031)">
      <g id="Group_23004" data-name="Group 23004">
        <path id="Path_48701" data-name="Path 48701" d="M137.015,0a4.906,4.906,0,0,0-4.966,5.065,4.982,4.982,0,1,0,9.931,0A4.906,4.906,0,0,0,137.015,0Zm0,8.958a3.7,3.7,0,0,1-3.468-3.893A3.4,3.4,0,0,1,137.015,1.5a3.442,3.442,0,0,1,3.468,3.568A3.7,3.7,0,0,1,137.015,8.958Z" transform="translate(-132.049)" fill="#16135a" stroke="#16135a" stroke-width="0.5"/>
      </g>
    </g>
  </g>
</svg>
