<svg xmlns="http://www.w3.org/2000/svg" width="116.537" height="69.195" viewBox="0 0 116.537 69.195">
  <g id="Group_18036" data-name="Group 18036" transform="translate(-5.156)">
    <path id="Path_3423" data-name="Path 3423" d="M184.56,271.022c0,.03,0,.06,0,.091h-1.379a.734.734,0,0,0,0-.091Z" transform="translate(-151.496 -201.918)" fill="#d5d5e2"/>
    <g id="Group_18061" data-name="Group 18061" transform="translate(5.156)">
      <path id="Path_3420" data-name="Path 3420" d="M99.47,76.817c-.362-1.574-.647-3.164-.99-4.742-.53-2.438-.906-4.909-1.448-7.342-.58-2.6-1.032-5.228-1.627-7.826-.218-.957-.382-1.928-.576-2.892-.431-2.149-.868-4.3-1.3-6.446-.251-1.253-.477-2.515-.744-3.764-.289-1.35-.454-2.73-.877-4.051-.13-.41.019-.886-.291-1.254v-.637a13.9,13.9,0,0,1,2.678.006,6.821,6.821,0,0,1,5.066,3.209c.449.722.629,1.545,1.043,2.269.248.161.229.419.238.664.08,2.275.154,4.551.107,6.827-.067,3.231.051,6.46.14,9.687.1,3.6.013,7.2.079,10.8a4.282,4.282,0,0,0-.066,1c.075,1.229-.1,2.451-.111,3.679-.006.74.126,1.47.124,2.212a19.5,19.5,0,0,0-.114,2.157c.026.243-.116.293-.3.468-.219.21-.249-.255-.269-.437" transform="translate(-91.62 -36.255)" fill="#ffd506"/>
      <path id="Path_3421" data-name="Path 3421" d="M122.248,67.694c-.016-2.719-.132-5.438-.162-8.157q-.1-8.527-.217-17.057c-.013-.937-.058-1.87-.088-2.806.07-1.658,0-3.316-.044-4.973-.015-.527,0-1.058-.023-1.584-.017-.361.093-.519.483-.486a7.654,7.654,0,0,1,5.812,3,8.241,8.241,0,0,1,1.313,3.633c.019.115-.036.255.105.331a6.726,6.726,0,0,1-.308,2.023c-.435,2.589-.907,5.173-1.365,7.758q-.909,5.13-1.822,10.257-1.035,5.777-2.087,11.549-.6,3.33-1.191,6.66a2.74,2.74,0,0,1-.269.906c-.3-.145-.275-.432-.269-.686q.038-1.474.108-2.946c.047-.986-.087-1.968-.1-2.951-.013-1.317.039-3.153.008-4.47C122.131,67.52,122.316,67.864,122.248,67.694Z" transform="translate(-112.995 -32.581)" fill="#1fae93"/>
      <path id="Path_3422" data-name="Path 3422" d="M121.608,163.066c.118-.019.164-.12.169-.238a37.811,37.811,0,0,0-.078-5.272c-.034-.392.177-.686.159-1.065-.047-.934,0-1.869,0-2.806a1,1,0,0,1,.085.616q.066,4.849.124,9.7c0,.247.026.495.041.74a1.745,1.745,0,0,1-.174.687,8.883,8.883,0,0,1-.612-2.8" transform="translate(-112.721 -118.572)" fill="#ffd506"/>
      <path id="Path_3424" data-name="Path 3424" d="M198.233,201.884c.457.622.889,1.261,1.36,1.875a2.9,2.9,0,0,1,.667,1.618,1.3,1.3,0,0,1-1.02-.843c-.077-.21-.313-.362-.477-.541.085-.488-.247-.806-.476-1.164-.158-.249-.317-.5-.475-.743C197.774,201.647,198,201.758,198.233,201.884Z" transform="translate(-167.047 -152.728)" fill="#fcfefd"/>
      <path id="Path_3425" data-name="Path 3425" d="M182.406,180.269c.041-.094.123-.108.211-.114.424-.134.244.342.441.437.516-.122.541-.563.624-.965.331-.155.324.18.454.313.225.134.522.134.039.461a2.229,2.229,0,0,1-1.533.384c-.18-.138.077-.379-.122-.511Z" transform="translate(-156.107 -136.97)" fill="#edf9f8"/>
      <path id="Path_3426" data-name="Path 3426" d="M193.376,187.917c.273-.06.643-.361.6.3-.011.166.294.215.458.3.13.069.273.1.256.281-.021.247-.23.173-.369.193a.751.751,0,0,1-.365-.02,1.277,1.277,0,0,0-1.123.053.314.314,0,0,1-.432-.051.326.326,0,0,1-.044-.433c.173-.235.108-.7.6-.633C193.09,188.04,193.228,188.161,193.376,187.917Z" transform="translate(-163.127 -142.802)" fill="#fafdfd"/>
      <g id="Group_18034" data-name="Group 18034" transform="translate(16.007 37.031)">
        <path id="Path_3427" data-name="Path 3427" d="M230.8,201.045c.225-.128.384-.149.5.161a2.42,2.42,0,0,1,.252,1.2A3.089,3.089,0,0,0,230.8,201.045Z" transform="translate(-206.488 -189.18)" fill="#6ae3cc"/>
        <g id="Group_18033" data-name="Group 18033">
          <path id="Path_3428" data-name="Path 3428" d="M165.892,196.188c0,.849.183.965.964.6.353-.166.813-.537,1.071-.323.3.253-.04.75-.13,1.131a7.8,7.8,0,0,1-2.193,3.182c-.678.764-1.295,1.481-.979,2.614a4.7,4.7,0,0,1,.046,1.125.847.847,0,0,1-.577.881,7.277,7.277,0,0,0-1.151.7c-.45.242-.264.674-.095,1.042a14.372,14.372,0,0,1-5.919,1.094,7.6,7.6,0,0,1-1.433-2.01,1.019,1.019,0,0,1-.039-.954,2.547,2.547,0,0,0-.6-2.782,2.274,2.274,0,0,1-.618-1.923c.086-.427-.227-.559-.564-.807-1.211-.888-2.594-.5-3.89-.677a2.316,2.316,0,0,1-1.724-.942,4.655,4.655,0,0,1-1.014-4.217c.261-.88.23-1.841.923-2.563.053-.054.082-.133.141-.176a31.529,31.529,0,0,0,2.43-2.449,1.567,1.567,0,0,1,1.09-.368c.992-.043,1.956-.365,2.964-.394.877-.023,1.044.054,1.2.935.031.178.03.381.228.436a8.133,8.133,0,0,1,1.434.67c.309.154.521,0,.728-.211a.857.857,0,0,1,1.036-.213,6.9,6.9,0,0,0,2.058.449c.27.06.567.074.689.391.131.4-.08.655-.329.93a7.919,7.919,0,0,0-1.1,1.5c.438-.168.6-.578.911-.857.269-.247.555-.515.923-.266s.218.609.058.942a.838.838,0,0,0,.7,1.078,1.561,1.561,0,0,1,.774.242c.707.644,1.078,1.6,1.945,2.088C165.872,196.123,165.882,196.156,165.892,196.188Z" transform="translate(-146.877 -179.955)" fill="#1fae93"/>
          <path id="Path_3429" data-name="Path 3429" d="M172.167,172.579a2.231,2.231,0,0,0,.318-1.061c0-.629-.2-.749-.744-.452a2.67,2.67,0,0,1-1.871-.753c-.188-.335-.3-.781-.858-.576-.389.033-.2.653-.642.631-.263-.01-.338-.24-.373-.411-.156-.8-.925-1.057-1.375-1.6a.3.3,0,0,0-.407-.063c-.148.1-.127.262-.053.4s.176.3.267.452c.135.341,0,.4-.3.283-.183,0-.234-.154-.329-.266a1.666,1.666,0,0,0-2.229-.028,6.581,6.581,0,0,0-1.305,1.24c-.33.424-.831.25-1.268.237-.158-.006-.293-.176-.356-.355-.17-.47.625-1.594,1.117-1.579.2.006.4.028.6.021.616-.023.852-.36.592-.927-.136-.3-.094-.458.164-.607.354-.293.824-.262,1.219-.437.413-.014.628-.463,1.043-.476.226-.114.471-.185.7-.3a2.766,2.766,0,0,0,1.748-.429c.182-.159.454-.252.313-.578-.185-.043.166-.485-.259-.337-.186.595-.274,1.274-1.129,1.264-.258-.114-.216-.55-.588-.539-.117-.021-.232-.1-.35,0-.534-.569.052-.82.372-.948a4.762,4.762,0,0,0,1.3-.723c.817-.677,1.727-.306,2.5-.027a2.3,2.3,0,0,0,1.261.026,6.516,6.516,0,0,1,2.81-.3,4.906,4.906,0,0,1,1.653.861,1.819,1.819,0,0,0,.982.678,14.2,14.2,0,0,1,4.54,7.1,10.267,10.267,0,0,0,1.242,2.291c-.273,1.01.151,2.023-.107,3.086q-.328-.867-.66-1.732c-.111-.533-.118-1.121-.754-1.362a1.851,1.851,0,0,1-.37-.365.744.744,0,0,0-1.078-.349c-.347.142-.713.288-1-.127a.272.272,0,0,0-.34-.083c-.674.371-.994-.131-1.345-.534-.19-.219-.414-.339-.656-.174-.314.21-.109.45.068.627.329.333.537.776.972,1.023a.658.658,0,0,0,.625.078c.188-.073.237-.617.549-.225.283.358.925.47.744,1.171a5.374,5.374,0,0,1-2.252,2.8,1.781,1.781,0,0,1-1.213.528l.017.013a1.226,1.226,0,0,1-.342-.492A14.684,14.684,0,0,0,173,174.535a3.049,3.049,0,0,1-.425-.705c-.059-.126-.124-.309-.287-.19-.084.064.084.19.142.288.352.518.718,1.022,1.053,1.549.241.381.474.793.06,1.22-.036-.035-.074-.1-.109-.1-.615.043-1.021-.354-1.5-.642-.453-.274-.431-.465-.108-.78a1.436,1.436,0,0,0,.287-.33.357.357,0,0,0-.044-.484.306.306,0,0,0-.463.079c-.228.332-.607.535-.76.926-.09.238-.166.508-.5.452a.462.462,0,0,1-.4-.4.665.665,0,0,1,.3-.708,6.139,6.139,0,0,0,1.351-1.661C171.741,172.847,172.007,172.777,172.167,172.579Z" transform="translate(-156.641 -162.424)" fill="#1fae93"/>
          <path id="Path_3430" data-name="Path 3430" d="M211.06,244.944a4.237,4.237,0,0,1,1.59-1.731c.185-.03.211.2.352.247A7.536,7.536,0,0,1,211.06,244.944Z" transform="translate(-192.467 -219.193)" fill="#1fae93"/>
          <path id="Path_3431" data-name="Path 3431" d="M205.509,163.066a10.016,10.016,0,0,0-1.658-.822c-.4-.194-1.049.131-1.216-.57.183-.154.479.137.624-.161a8.979,8.979,0,0,1,2.394,1.4C205.677,163.027,205.626,163.079,205.509,163.066Z" transform="translate(-186.483 -161.162)" fill="#1fae93"/>
          <path id="Path_3432" data-name="Path 3432" d="M212.555,166.492c.046-.051.1-.1.144-.156a2.682,2.682,0,0,1,.881.736C213.134,167.063,212.645,167.129,212.555,166.492Z" transform="translate(-193.529 -164.588)" fill="#1fae93"/>
          <path id="Path_3433" data-name="Path 3433" d="M197.56,195.359c-.075.3-.218.521-.579.477-.072-.377-.374-.257-.609-.29C196.717,195.163,197.183,195.538,197.56,195.359Z" transform="translate(-182.034 -185.204)" fill="#1fae93"/>
          <path id="Path_3434" data-name="Path 3434" d="M166.443,160.3c-1.805.837-3.527,1.227-5.16,1.824C161.851,161.424,164.177,160.574,166.443,160.3Z" transform="translate(-157.11 -160.303)" fill="#1fae93"/>
          <path id="Path_3435" data-name="Path 3435" d="M198.845,162.009q.607.284,1.216.57c-.9.408-1.854-.092-2.761.165C197.886,162.647,198.131,161.833,198.845,162.009Z" transform="translate(-182.693 -161.497)" fill="#1fae93"/>
          <path id="Path_3436" data-name="Path 3436" d="M169.354,171.828a.292.292,0,0,1-.032-.456.765.765,0,0,1,.239-.175c.318-.169-.056-.862.355-.726.348.117.342.742.36,1.18C170.046,172.1,169.72,172.066,169.354,171.828Z" transform="translate(-162.754 -167.514)" fill="#1fae93"/>
          <path id="Path_3437" data-name="Path 3437" d="M169.369,174.766a1.644,1.644,0,0,0,.923-.176c.061.058.119.117.176.174-.278.51-.758.45-1.219.44Z" transform="translate(-162.768 -170.451)" fill="#1fae93"/>
          <path id="Path_3438" data-name="Path 3438" d="M179.644,183.824c.166-.024.284-.1.3-.283a.767.767,0,0,1,.638,1.014Z" transform="translate(-170.152 -176.809)" fill="#1fae93"/>
          <path id="Path_3439" data-name="Path 3439" d="M187.317,186.138c.167-.258.116-.738.642-.629-.209.2-.138.452-.132.7a.316.316,0,0,1-.287.3C187.3,186.513,187.264,186.338,187.317,186.138Z" transform="translate(-175.587 -178.196)" fill="#1fae93"/>
          <path id="Path_3440" data-name="Path 3440" d="M166.933,172.686c-.045.249-.273.291-.484.337-.137.033-.265-.025-.212-.185.059-.182.144-.377.383-.4C166.78,172.427,166.914,172.465,166.933,172.686Z" transform="translate(-160.62 -168.922)" fill="#1fae93"/>
          <path id="Path_3441" data-name="Path 3441" d="M177.654,170.4c.55.125.041.505.174.729-.264.033-.485.247-.77.183C177.337,171.066,177.771,170.915,177.654,170.4Z" transform="translate(-168.315 -167.478)" fill="#1fae93"/>
          <path id="Path_3442" data-name="Path 3442" d="M179.561,187.771c.136.029.3.056.331.229a.169.169,0,0,1-.19.184c-.171-.012-.359-.061-.375-.27C179.318,187.8,179.445,187.772,179.561,187.771Z" transform="translate(-169.926 -179.814)" fill="#1fae93"/>
          <path id="Path_3443" data-name="Path 3443" d="M200.257,198.151c-.245,0-.577-.178-.6.287-.109-.233-.5-.35-.3-.715C199.648,197.887,200.2,197.5,200.257,198.151Z" transform="translate(-184.114 -186.883)" fill="#1fae93"/>
          <path id="Path_3444" data-name="Path 3444" d="M185.478,166.336c-.248-.1-.331-.445-.648-.448.278-.146.451-.453.841-.54C185.7,165.722,185.345,165.994,185.478,166.336Z" transform="translate(-173.836 -163.886)" fill="#1fae93"/>
          <path id="Path_3445" data-name="Path 3445" d="M180.217,169.868c-.425.006-.216-.619-.629-.623.146-.216.316-.381.474-.03A3.665,3.665,0,0,1,180.217,169.868Z" transform="translate(-170.112 -166.489)" fill="#1fae93"/>
          <path id="Path_3446" data-name="Path 3446" d="M196.512,179.278c-.05.143.158.382-.11.432-.322.062-.389-.23-.494-.448C196.109,179.283,196.306,179.4,196.512,179.278Z" transform="translate(-181.705 -173.77)" fill="#1fae93"/>
        </g>
      </g>
      <path id="Path_3451" data-name="Path 3451" d="M156.54,84.014c-1.721-.322-1.791,1.524-1.821,1.662a10.089,10.089,0,0,1-.561,2.131l0,0a14.393,14.393,0,1,1-.12-9.277,14.747,14.747,0,0,1,.684,2.8c.03.138.1,1.984,1.821,1.662,1.644-.17,1.909-.83,1.909-2.441l-.535-2.449a17.437,17.437,0,0,0-4.515-7.79c-5.781-5.593-12.5-6.947-20.069-4.322-.154.055-.291.2-.491.068a4.832,4.832,0,0,1,.083-.627c.519-3.189,1.068-6.375,1.61-9.561.758-4.441,1.486-8.885,2.251-13.326a12.082,12.082,0,0,0,.254-4.206,7.292,7.292,0,0,0-5.546-5.783c-.84-.214-.966-.07-1.128.78-.392,2.059-.667,4.138-1.154,6.178-.084.97-.361,1.906-.51,2.863-.543,3.472-1.243,6.915-1.833,10.376-.818,4.8-1.719,9.588-2.553,14.388q-.789,4.538-1.623,9.071l-.66,3.049a18.129,18.129,0,0,0-.366,4.368,17.1,17.1,0,0,0,3.677,10.7c3.581,4.624,8.227,7.233,14.208,7.233h1.227a14.979,14.979,0,0,0,3.627-.289,18.356,18.356,0,0,0,9.614-5.732,20.06,20.06,0,0,0,4.084-7.594h0l.008-.05c0-.011.006-.03.01-.04.007-.028.011-.059.017-.086l.309-1.321C158.449,84.846,158.184,84.184,156.54,84.014Z" transform="translate(-112.962 -32.471)" fill="#16135a"/>
      <path id="Path_48645" data-name="Path 48645" d="M72.1,285.963v3.611H68.4l.065,15.456H64.648q0-.248,0-.871t.006-1.516v-1.994q0-1.1.006-2.3t0-2.429v-6.347H60.993v-3.579Z" transform="translate(-7.61 -243.32)" fill="#16135a"/>
      <path id="Path_48646" data-name="Path 48646" d="M118.7,298.285a5.591,5.591,0,0,1-.5,2.213,4.972,4.972,0,0,1-1.188,1.586,6.268,6.268,0,0,1-1.682,1.058,10.743,10.743,0,0,1-1.988.634,14.785,14.785,0,0,1-2.118.3q-1.075.075-2.058.064t-1.821-.07q-.839-.059-1.408-.112l-.043-18.82q1.548-.247,3.074-.376a20.465,20.465,0,0,1,2.913-.049,12.393,12.393,0,0,1,2.573.409,5.894,5.894,0,0,1,2.043.984,4.355,4.355,0,0,1,1.322,1.693,5.738,5.738,0,0,1,.424,2.531,4.852,4.852,0,0,1-.591,2.3,5.079,5.079,0,0,1-1.419,1.585,8.726,8.726,0,0,1,.967.742,4.888,4.888,0,0,1,.806.914,4.3,4.3,0,0,1,.537,1.107A3.713,3.713,0,0,1,118.7,298.285Zm-9.425-5.729a7.688,7.688,0,0,0,1.01.049,11.676,11.676,0,0,0,1.2-.076,8.208,8.208,0,0,0,1.225-.231,4.259,4.259,0,0,0,1.069-.435,2.306,2.306,0,0,0,.743-.667,1.445,1.445,0,0,0,.241-.94,1.786,1.786,0,0,0-.3-.919,2.385,2.385,0,0,0-.7-.667,3.834,3.834,0,0,0-.978-.435,7.238,7.238,0,0,0-1.15-.236,7.941,7.941,0,0,0-1.209-.059,10.291,10.291,0,0,0-1.155.091Zm0,8.233a6.1,6.1,0,0,0,.768.058,10.176,10.176,0,0,0,1.161-.037,9.26,9.26,0,0,0,1.311-.209,4.6,4.6,0,0,0,1.21-.457,2.474,2.474,0,0,0,.854-.769,1.778,1.778,0,0,0,.263-1.166,1.846,1.846,0,0,0-.333-.962,2.426,2.426,0,0,0-.741-.673,3.973,3.973,0,0,0-1.021-.418,6.975,6.975,0,0,0-1.171-.2,8.36,8.36,0,0,0-1.2-.021q-.6.032-1.1.107Z" transform="translate(-39.499 -242.412)" fill="#16135a"/>
      <path id="Path_48647" data-name="Path 48647" d="M170.323,294.407a9.518,9.518,0,0,1-.376,3.009,8.5,8.5,0,0,1-1.237,2.537,8.6,8.6,0,0,1-2,1.989,10.771,10.771,0,0,1-2.666,1.375,13.55,13.55,0,0,1-3.224.7,17.3,17.3,0,0,1-3.693-.054v-19.1a20.861,20.861,0,0,1,3.5-.047,14.11,14.11,0,0,1,3.117.569,10.585,10.585,0,0,1,2.633,1.215,8.121,8.121,0,0,1,2.048,1.892,8.786,8.786,0,0,1,1.348,2.595A11.828,11.828,0,0,1,170.323,294.407Zm-3.332.774a8.742,8.742,0,0,0-.318-2.52,5.738,5.738,0,0,0-3.116-3.724,8.121,8.121,0,0,0-3.025-.742l.075,12.822a8.106,8.106,0,0,0,2.6-.586,6.571,6.571,0,0,0,2-1.273,5.7,5.7,0,0,0,1.295-1.8A5.433,5.433,0,0,0,166.992,295.181Z" transform="translate(-75.894 -242.467)" fill="#16135a"/>
      <path id="Path_48648" data-name="Path 48648" d="M211.386,284.552c.021.086.051.2.091.328s.1.326.183.58.2.592.35,1.015.34.941.57,1.553.51,1.349.843,2.208.724,1.857,1.173,2.989.965,2.422,1.552,3.869q1.193-2.923,2-4.992t1.344-3.46q.531-1.393.817-2.2t.418-1.23c.09-.28.153-.5.189-.656h3.59q.033.2.108.8t.177,1.478q.1.881.236,1.988t.275,2.339q.139,1.231.3,2.531t.306,2.564q.15,1.263.285,2.434t.252,2.15q.119.978.21,1.709t.145,1.1l-3.762.677L221.8,292.29q-.4,1.01-.8,2.112t-.8,2.2q-.4,1.1-.764,2.133t-.676,1.907c-.208.585-.394,1.094-.553,1.527s-.289.762-.382.983h-3.343q-.14-.333-.381-.983t-.554-1.527q-.312-.875-.677-1.907t-.764-2.133q-.4-1.1-.806-2.2t-.8-2.112l-1.236,12.027-3.762-.677q.053-.366.145-1.1t.209-1.709q.118-.978.252-2.15t.285-2.434q.15-1.264.307-2.564t.3-2.531q.139-1.232.273-2.339t.237-1.988q.1-.881.178-1.478t.107-.8Z" transform="translate(-110.261 -242.318)" fill="#16135a"/>
    </g>
  </g>
</svg>
