<svg xmlns="http://www.w3.org/2000/svg" xmlns:xlink="http://www.w3.org/1999/xlink" width="93.171" height="91.515" viewBox="0 0 93.171 91.515">
  <defs>
    <linearGradient id="linear-gradient" x1="0.586" y1="0.586" x2="1.026" y2="0.908" gradientUnits="objectBoundingBox">
      <stop offset="0" stop-color="#edf5ff"/>
      <stop offset="1" stop-color="#d5e8fe"/>
    </linearGradient>
    <linearGradient id="linear-gradient-2" x1="0.787" y1="0.5" x2="-0.655" y2="0.5" gradientUnits="objectBoundingBox">
      <stop offset="0" stop-color="#07485e" stop-opacity="0"/>
      <stop offset="0.271" stop-color="#074459" stop-opacity="0.271"/>
      <stop offset="0.597" stop-color="#05394a" stop-opacity="0.596"/>
      <stop offset="0.951" stop-color="#032632" stop-opacity="0.953"/>
      <stop offset="1" stop-color="#03232e"/>
    </linearGradient>
    <linearGradient id="linear-gradient-3" x1="0.256" y1="0.303" x2="0.898" y2="0.909" xlink:href="#linear-gradient"/>
    <linearGradient id="linear-gradient-4" x1="0.5" y1="0.482" x2="0.5" y2="1.287" xlink:href="#linear-gradient-2"/>
    <linearGradient id="linear-gradient-5" x1="0.445" y1="-0.204" x2="0.572" y2="1.426" gradientUnits="objectBoundingBox">
      <stop offset="0" stop-color="#7faef4"/>
      <stop offset="1" stop-color="#4c8df1"/>
    </linearGradient>
    <linearGradient id="linear-gradient-6" x1="0.426" y1="-0.111" x2="0.597" y2="1.303" xlink:href="#linear-gradient-5"/>
    <linearGradient id="linear-gradient-7" x1="0.481" y1="0.447" x2="-0.145" y2="-0.134" xlink:href="#linear-gradient-2"/>
    <linearGradient id="linear-gradient-8" x1="-1.72" y1="-121.341" x2="-1.327" y2="-121.341" gradientUnits="objectBoundingBox">
      <stop offset="0" stop-color="#ff637b"/>
      <stop offset="1" stop-color="#e63950"/>
    </linearGradient>
    <linearGradient id="linear-gradient-9" x1="-3.558" y1="-39.69" x2="-3.164" y2="-39.295" gradientUnits="objectBoundingBox">
      <stop offset="0" stop-color="#ff9690"/>
      <stop offset="1" stop-color="#f9545b"/>
    </linearGradient>
    <linearGradient id="linear-gradient-10" x1="5.07" y1="-16.342" x2="5.578" y2="-16.342" xlink:href="#linear-gradient-8"/>
    <linearGradient id="linear-gradient-11" x1="5.091" y1="-18.873" x2="5.485" y2="-18.479" xlink:href="#linear-gradient-9"/>
    <linearGradient id="linear-gradient-12" x1="-17.668" y1="-42.766" x2="-17.16" y2="-42.766" xlink:href="#linear-gradient-8"/>
    <linearGradient id="linear-gradient-13" x1="-20.521" y1="-49.897" x2="-20.127" y2="-49.503" xlink:href="#linear-gradient-9"/>
    <linearGradient id="linear-gradient-14" x1="-0.167" y1="0.5" x2="1.615" y2="0.5" xlink:href="#linear-gradient-8"/>
    <linearGradient id="linear-gradient-15" x1="0.359" y1="0.359" x2="0.753" y2="0.753" xlink:href="#linear-gradient-9"/>
    <linearGradient id="linear-gradient-16" x1="-112.871" y1="-22.227" x2="-111.089" y2="-22.227" xlink:href="#linear-gradient-8"/>
    <linearGradient id="linear-gradient-17" x1="-35.862" y1="-34.601" x2="-35.468" y2="-34.206" xlink:href="#linear-gradient-9"/>
    <linearGradient id="linear-gradient-18" x1="-22.385" y1="19.106" x2="-21.993" y2="19.106" xlink:href="#linear-gradient-8"/>
    <linearGradient id="linear-gradient-19" x1="-31.946" y1="5.448" x2="-31.552" y2="5.842" xlink:href="#linear-gradient-9"/>
    <linearGradient id="linear-gradient-20" x1="-36.607" y1="-12.113" x2="-36.098" y2="-12.113" xlink:href="#linear-gradient-8"/>
    <linearGradient id="linear-gradient-21" x1="-40.595" y1="-15.369" x2="-40.201" y2="-14.975" xlink:href="#linear-gradient-9"/>
    <linearGradient id="linear-gradient-22" x1="-13.868" y1="14.312" x2="-13.36" y2="14.312" xlink:href="#linear-gradient-8"/>
    <linearGradient id="linear-gradient-23" x1="-14.982" y1="15.656" x2="-14.588" y2="16.05" xlink:href="#linear-gradient-9"/>
    <linearGradient id="linear-gradient-24" x1="0.164" y1="0.164" x2="0.869" y2="0.869" xlink:href="#linear-gradient-9"/>
    <linearGradient id="linear-gradient-25" x1="0.556" y1="0.652" x2="-0.217" y2="-0.124" gradientUnits="objectBoundingBox">
      <stop offset="0" stop-color="#e63950" stop-opacity="0"/>
      <stop offset="0.047" stop-color="#e4354b" stop-opacity="0.047"/>
      <stop offset="0.467" stop-color="#d31822" stop-opacity="0.467"/>
      <stop offset="0.799" stop-color="#c90709" stop-opacity="0.8"/>
      <stop offset="1" stop-color="#c50000"/>
    </linearGradient>
    <linearGradient id="linear-gradient-26" x1="0.545" y1="0.461" x2="0.418" y2="0.109" xlink:href="#linear-gradient-25"/>
    <linearGradient id="linear-gradient-27" x1="7.804" y1="-6.999" x2="8.569" y2="-6.999" xlink:href="#linear-gradient-8"/>
    <linearGradient id="linear-gradient-28" x1="5.705" y1="-10.032" x2="6.099" y2="-9.637" xlink:href="#linear-gradient-9"/>
    <linearGradient id="linear-gradient-29" x1="-9.044" y1="-74.335" x2="-8.629" y2="-74.335" xlink:href="#linear-gradient-8"/>
    <linearGradient id="linear-gradient-30" x1="-13.394" y1="-56.866" x2="-13" y2="-56.472" xlink:href="#linear-gradient-9"/>
    <linearGradient id="linear-gradient-31" x1="3.431" y1="-46.934" x2="3.849" y2="-46.934" xlink:href="#linear-gradient-8"/>
    <linearGradient id="linear-gradient-32" x1="3.767" y1="-36.519" x2="4.161" y2="-36.125" xlink:href="#linear-gradient-9"/>
    <linearGradient id="linear-gradient-33" x1="-46.432" y1="-41.705" x2="-45.684" y2="-41.705" xlink:href="#linear-gradient-8"/>
    <linearGradient id="linear-gradient-34" x1="-35.726" y1="-59.155" x2="-35.332" y2="-58.76" xlink:href="#linear-gradient-9"/>
    <linearGradient id="linear-gradient-35" x1="-67.725" y1="-20.974" x2="-66.96" y2="-20.974" xlink:href="#linear-gradient-8"/>
    <linearGradient id="linear-gradient-36" x1="-50.147" y1="-30.927" x2="-49.753" y2="-30.532" xlink:href="#linear-gradient-9"/>
    <linearGradient id="linear-gradient-37" x1="0.554" y1="0.614" x2="0.363" y2="-0.542" xlink:href="#linear-gradient-25"/>
    <linearGradient id="linear-gradient-38" x1="-23.064" y1="22.023" x2="-22.649" y2="22.023" xlink:href="#linear-gradient-8"/>
    <linearGradient id="linear-gradient-39" x1="-31.048" y1="15.908" x2="-30.654" y2="16.302" xlink:href="#linear-gradient-9"/>
    <linearGradient id="linear-gradient-40" x1="-35.718" y1="-4.147" x2="-35.3" y2="-4.147" xlink:href="#linear-gradient-8"/>
    <linearGradient id="linear-gradient-41" x1="-48.209" y1="-4.439" x2="-47.815" y2="-4.045" xlink:href="#linear-gradient-9"/>
    <linearGradient id="linear-gradient-42" x1="0.68" y1="0.85" x2="-0.526" y2="-0.249" xlink:href="#linear-gradient-25"/>
    <linearGradient id="linear-gradient-43" x1="-12.081" y1="13.576" x2="-11.333" y2="13.576" xlink:href="#linear-gradient-8"/>
    <linearGradient id="linear-gradient-44" x1="-8.716" y1="18.196" x2="-8.322" y2="18.591" xlink:href="#linear-gradient-9"/>
    <linearGradient id="linear-gradient-45" x1="0.359" y1="0.359" x2="0.753" y2="0.753" xlink:href="#linear-gradient-8"/>
  </defs>
  <g id="covid" transform="translate(0 -4.533)">
    <g id="Group_18162" data-name="Group 18162" transform="translate(0 4.533)">
      <path id="Path_48888" data-name="Path 48888" d="M69.814,75.916v73.852h73.663a6.754,6.754,0,0,0,6.753-6.753v-67.1a3.791,3.791,0,0,0-5.916-3.14,3.791,3.791,0,0,1-4.249,0l-1.9-1.284a7.174,7.174,0,0,0-8.039,0l0,0a7.174,7.174,0,0,1-8.04,0,7.174,7.174,0,0,0-8.041,0,7.174,7.174,0,0,1-8.04,0h0a7.174,7.174,0,0,0-8.04,0h0a7.174,7.174,0,0,1-8.04,0l0,0a7.174,7.174,0,0,0-8.039,0l-1.9,1.284a3.791,3.791,0,0,1-4.249,0l0,0a3.792,3.792,0,0,0-5.916,3.14Z" transform="translate(-57.06 -58.253)" fill="url(#linear-gradient)"/>
      <path id="Path_48889" data-name="Path 48889" d="M432.177,71.84a7.157,7.157,0,0,0-1.8-.663v79.339h7.794a6.753,6.753,0,0,0,6.753-6.753V84.583Z" transform="translate(-351.749 -59.002)" fill="url(#linear-gradient-2)"/>
      <path id="Path_48890" data-name="Path 48890" d="M80.417,10.188V90.046a6,6,0,0,0,6,6H6.753A6.753,6.753,0,0,1,0,89.294V10.189a3.791,3.791,0,0,1,5.916-3.14,3.791,3.791,0,0,0,4.249,0l1.9-1.284a7.174,7.174,0,0,1,8.039,0l0,0a7.174,7.174,0,0,0,8.04,0,7.174,7.174,0,0,1,8.041,0,7.174,7.174,0,0,0,8.04,0h0a7.174,7.174,0,0,1,8.04,0h0a7.174,7.174,0,0,0,8.04,0l0,0a7.174,7.174,0,0,1,8.039,0l1.9,1.284a3.791,3.791,0,0,0,4.249,0l0,0a3.792,3.792,0,0,1,5.916,3.14Z" transform="translate(0 -4.533)" fill="url(#linear-gradient-3)"/>
      <path id="Path_48891" data-name="Path 48891" d="M0,402.6v12.038a6.753,6.753,0,0,0,6.753,6.753H86.417a6,6,0,0,1-6-6V402.6Z" transform="translate(0 -329.88)" fill="url(#linear-gradient-4)"/>
      <g id="Group_18161" data-name="Group 18161" transform="translate(8.783 12.008)">
        <g id="Group_18160" data-name="Group 18160" transform="translate(0 34.254)">
          <g id="Group_18159" data-name="Group 18159">
            <g id="Group_18156" data-name="Group 18156">
              <path id="Path_48892" data-name="Path 48892" d="M75.622,266.543H50.271a2.2,2.2,0,0,1-2.2-2.2v-4.392a2.2,2.2,0,0,1,2.2-2.2H75.622a2.2,2.2,0,0,1,2.2,2.2v4.392A2.2,2.2,0,0,1,75.622,266.543Z" transform="translate(-48.075 -257.759)" fill="#9ae1d3"/>
              <path id="Path_48893" data-name="Path 48893" d="M263.93,266.543H240.162a2.2,2.2,0,0,1-2.2-2.2v-4.392a2.2,2.2,0,0,1,2.2-2.2H263.93a2.2,2.2,0,0,1,2.2,2.2v4.392A2.2,2.2,0,0,1,263.93,266.543Z" transform="translate(-203.275 -257.759)" fill="#9ae1d3"/>
            </g>
            <g id="Group_18157" data-name="Group 18157" transform="translate(0 13.231)">
              <path id="Path_48894" data-name="Path 48894" d="M279.264,338.965h16.625a2.2,2.2,0,0,0,2.2-2.2v-4.392a2.2,2.2,0,0,0-2.2-2.2H279.264a2.2,2.2,0,0,0-2.2,2.2v4.392A2.2,2.2,0,0,0,279.264,338.965Z" transform="translate(-235.234 -330.181)" fill="#9ae1d3"/>
              <path id="Path_48895" data-name="Path 48895" d="M50.271,338.965H82.766a2.2,2.2,0,0,0,2.2-2.2v-4.392a2.2,2.2,0,0,0-2.2-2.2H50.271a2.2,2.2,0,0,0-2.2,2.2v4.392A2.2,2.2,0,0,0,50.271,338.965Z" transform="translate(-48.075 -330.181)" fill="#9ae1d3"/>
            </g>
            <g id="Group_18158" data-name="Group 18158" transform="translate(0 26.461)">
              <path id="Path_48896" data-name="Path 48896" d="M75.622,411.386H50.271a2.2,2.2,0,0,1-2.2-2.2V404.8a2.2,2.2,0,0,1,2.2-2.2H75.622a2.2,2.2,0,0,1,2.2,2.2v4.392A2.2,2.2,0,0,1,75.622,411.386Z" transform="translate(-48.075 -402.602)" fill="#9ae1d3"/>
              <path id="Path_48897" data-name="Path 48897" d="M263.93,411.386H240.162a2.2,2.2,0,0,1-2.2-2.2V404.8a2.2,2.2,0,0,1,2.2-2.2H263.93a2.2,2.2,0,0,1,2.2,2.2v4.392A2.2,2.2,0,0,1,263.93,411.386Z" transform="translate(-203.275 -402.602)" fill="#9ae1d3"/>
            </g>
          </g>
        </g>
        <path id="Path_48898" data-name="Path 48898" d="M267.664,80.161H241.942a.942.942,0,0,1-.942-.942V71.2a.942.942,0,0,1,.942-.942h25.721a.942.942,0,0,1,.942.942v8.015A.942.942,0,0,1,267.664,80.161Z" transform="translate(-205.755 -70.261)" fill="url(#linear-gradient-5)"/>
        <path id="Path_48899" data-name="Path 48899" d="M257.987,154.338H241.755a.755.755,0,0,1-.755-.755v-8.389a.755.755,0,0,1,.755-.755h16.232a.755.755,0,0,1,.755.755v8.389A.755.755,0,0,1,257.987,154.338Z" transform="translate(-205.755 -130.887)" fill="url(#linear-gradient-6)"/>
      </g>
    </g>
    <path id="Path_48900" data-name="Path 48900" d="M68.907,42.044a2.1,2.1,0,0,0-2.955.183,1.783,1.783,0,0,0-.213,2.218l-.459.642s-7.511-7.4-7.511-7.4a2.008,2.008,0,0,0-1.781-.9,1.855,1.855,0,0,0-1.9,1.994,1.938,1.938,0,0,0,.806,1.78,3.051,3.051,0,0,0,.517.59v1.058a12.823,12.823,0,0,0-2.538.388,2.764,2.764,0,0,0-.475-.372,1.638,1.638,0,0,0-2.132-.658,1.531,1.531,0,0,0-.793,2.1c.029.068.063.228.1.29q-.529.311-1.023.67c-.019-.012-2.526-2.585-2.526-2.585a1.986,1.986,0,0,0-2.86.191,1.869,1.869,0,0,0-.1,2.764s2.668,2.507,2.681,2.525a15.37,15.37,0,0,0-.873,1.307c-.063-.035-.223-.164-.292-.192a1.53,1.53,0,0,0-2.086.83,1.637,1.637,0,0,0,.67,2.107,2.684,2.684,0,0,0,.4.5,12.83,12.83,0,0,0-.235,2.31l-1.153.1a3.6,3.6,0,0,0-.59-.612,2.007,2.007,0,0,0-1.78-.9,1.93,1.93,0,0,0-1.994,1.994,2.008,2.008,0,0,0,.9,1.781l7.308,7.6-.553.371a2.089,2.089,0,0,0-2.4.4,1.876,1.876,0,0,0,0,2.772L97.595,122.41h19.727a6,6,0,0,1-6-6V84.51Z" transform="translate(-30.904 -26.363)" fill="url(#linear-gradient-7)"/>
    <g id="Group_18179" data-name="Group 18179" transform="translate(6.812 10.33)">
      <g id="Group_18163" data-name="Group 18163" transform="translate(27.68 16.181)">
        <path id="Path_48901" data-name="Path 48901" d="M188.8,133.271a.672.672,0,0,1,.672-.672h4.758a.672.672,0,0,1,0,1.343h-4.758A.671.671,0,0,1,188.8,133.271Z" transform="translate(-188.801 -131.182)" fill="url(#linear-gradient-8)"/>
        <circle id="Ellipse_95" data-name="Ellipse 95" cx="2.09" cy="2.09" r="2.09" transform="translate(4.683)" fill="url(#linear-gradient-9)"/>
      </g>
      <g id="Group_18164" data-name="Group 18164" transform="translate(24.727 4.739)">
        <path id="Path_48902" data-name="Path 48902" d="M172.836,79.679a.672.672,0,0,1,0-.95l3.364-3.364a.672.672,0,0,1,.95.95l-3.364,3.364A.672.672,0,0,1,172.836,79.679Z" transform="translate(-172.639 -72.8)" fill="url(#linear-gradient-10)"/>
        <circle id="Ellipse_96" data-name="Ellipse 96" cx="2.09" cy="2.09" r="2.09" transform="translate(2.896)" fill="url(#linear-gradient-11)"/>
      </g>
      <g id="Group_18165" data-name="Group 18165" transform="translate(24.727 24.727)">
        <path id="Path_48903" data-name="Path 48903" d="M172.836,171.813a.672.672,0,0,1,.95,0l3.364,3.364a.672.672,0,0,1-.95.95l-3.364-3.364A.672.672,0,0,1,172.836,171.813Z" transform="translate(-172.64 -171.616)" fill="url(#linear-gradient-12)"/>
        <circle id="Ellipse_97" data-name="Ellipse 97" cx="2.09" cy="2.09" r="2.09" transform="translate(2.896 2.896)" fill="url(#linear-gradient-13)"/>
      </g>
      <g id="Group_18166" data-name="Group 18166" transform="translate(16.181)">
        <path id="Path_48904" data-name="Path 48904" d="M134.3,57.481a.672.672,0,0,1-.672-.672V52.052a.672.672,0,1,1,1.343,0v4.758A.672.672,0,0,1,134.3,57.481Z" transform="translate(-132.206 -48.619)" fill="url(#linear-gradient-14)"/>
        <circle id="Ellipse_98" data-name="Ellipse 98" cx="2.09" cy="2.09" r="2.09" fill="url(#linear-gradient-15)"/>
      </g>
      <g id="Group_18167" data-name="Group 18167" transform="translate(16.181 27.679)">
        <path id="Path_48905" data-name="Path 48905" d="M134.3,187.777a.672.672,0,0,1,.672.672v4.758a.672.672,0,1,1-1.343,0v-4.758A.671.671,0,0,1,134.3,187.777Z" transform="translate(-132.206 -187.777)" fill="url(#linear-gradient-16)"/>
        <circle id="Ellipse_99" data-name="Ellipse 99" cx="2.09" cy="2.09" r="2.09" transform="translate(0 4.683)" fill="url(#linear-gradient-17)"/>
      </g>
      <g id="Group_18168" data-name="Group 18168" transform="translate(0 16.181)">
        <path id="Path_48906" data-name="Path 48906" d="M58.5,133.271a.672.672,0,0,1-.672.672H53.075a.672.672,0,1,1,0-1.343h4.758A.672.672,0,0,1,58.5,133.271Z" transform="translate(-49.642 -131.182)" fill="url(#linear-gradient-18)"/>
        <circle id="Ellipse_100" data-name="Ellipse 100" cx="2.09" cy="2.09" r="2.09" fill="url(#linear-gradient-19)"/>
      </g>
      <g id="Group_18169" data-name="Group 18169" transform="translate(4.739 24.727)">
        <path id="Path_48907" data-name="Path 48907" d="M80.7,171.813a.672.672,0,0,1,0,.95l-3.364,3.364a.672.672,0,0,1-.95-.95l3.364-3.364A.671.671,0,0,1,80.7,171.813Z" transform="translate(-73.824 -171.616)" fill="url(#linear-gradient-20)"/>
        <circle id="Ellipse_101" data-name="Ellipse 101" cx="2.09" cy="2.09" r="2.09" transform="translate(0 2.896)" fill="url(#linear-gradient-21)"/>
      </g>
      <g id="Group_18170" data-name="Group 18170" transform="translate(4.739 4.739)">
        <path id="Path_48908" data-name="Path 48908" d="M80.7,79.679a.671.671,0,0,1-.95,0l-3.364-3.364a.672.672,0,0,1,.95-.95L80.7,78.729A.671.671,0,0,1,80.7,79.679Z" transform="translate(-73.823 -72.8)" fill="url(#linear-gradient-22)"/>
        <circle id="Ellipse_102" data-name="Ellipse 102" cx="2.09" cy="2.09" r="2.09" fill="url(#linear-gradient-23)"/>
      </g>
      <circle id="Ellipse_103" data-name="Ellipse 103" cx="12.867" cy="12.867" r="12.867" transform="translate(5.404 5.404)" fill="url(#linear-gradient-24)"/>
      <path id="Path_48909" data-name="Path 48909" d="M156.7,71.68l-1.943,4.82s2.06.528,4,3.791l4.649-1.859A12.912,12.912,0,0,0,156.7,71.68Z" transform="translate(-133.297 -65.21)" fill="url(#linear-gradient-25)"/>
      <path id="Path_48910" data-name="Path 48910" d="M84.861,128.08a12.874,12.874,0,0,0,11.978-17.575l-23.7,10.022A12.869,12.869,0,0,0,84.861,128.08Z" transform="translate(-66.59 -96.942)" fill="url(#linear-gradient-26)"/>
      <g id="Group_18171" data-name="Group 18171" transform="translate(20.763 4.563)">
        <path id="Path_48911" data-name="Path 48911" d="M151.279,77.51a.539.539,0,0,1-.3-.7l1.431-3.538a.539.539,0,1,1,1,.4l-1.431,3.538A.539.539,0,0,1,151.279,77.51Z" transform="translate(-150.942 -70.798)" fill="url(#linear-gradient-27)"/>
        <circle id="Ellipse_104" data-name="Ellipse 104" cx="1.676" cy="1.676" r="1.676" transform="translate(0.697)" fill="url(#linear-gradient-28)"/>
      </g>
      <g id="Group_18172" data-name="Group 18172" transform="translate(25.227 20.763)">
        <path id="Path_48912" data-name="Path 48912" d="M175.418,150.255a.539.539,0,0,1,.7-.3l3.538,1.431a.539.539,0,1,1-.4,1l-3.538-1.431A.539.539,0,0,1,175.418,150.255Z" transform="translate(-175.378 -149.918)" fill="url(#linear-gradient-29)"/>
        <circle id="Ellipse_105" data-name="Ellipse 105" cx="1.676" cy="1.676" r="1.676" transform="translate(3.399 0.697)" fill="url(#linear-gradient-30)"/>
      </g>
      <g id="Group_18173" data-name="Group 18173" transform="translate(25.175 11.528)">
        <path id="Path_48913" data-name="Path 48913" d="M175.136,110.13a.539.539,0,0,1,.285-.706l3.513-1.49a.539.539,0,1,1,.421.992l-3.513,1.49A.539.539,0,0,1,175.136,110.13Z" transform="translate(-175.093 -106.333)" fill="url(#linear-gradient-31)"/>
        <circle id="Ellipse_106" data-name="Ellipse 106" cx="1.676" cy="1.676" r="1.676" transform="translate(3.368)" fill="url(#linear-gradient-32)"/>
      </g>
      <g id="Group_18174" data-name="Group 18174" transform="translate(20.889 25.175)">
        <path id="Path_48914" data-name="Path 48914" d="M151.958,174.113a.539.539,0,0,1,.706.285l1.49,3.513a.539.539,0,0,1-.992.421l-1.49-3.513A.538.538,0,0,1,151.958,174.113Z" transform="translate(-151.63 -174.07)" fill="url(#linear-gradient-33)"/>
        <circle id="Ellipse_107" data-name="Ellipse 107" cx="1.676" cy="1.676" r="1.676" transform="translate(0.773 3.368)" fill="url(#linear-gradient-34)"/>
      </g>
      <g id="Group_18175" data-name="Group 18175" transform="translate(11.729 25.227)">
        <path id="Path_48915" data-name="Path 48915" d="M112.1,174.394a.539.539,0,0,1,.3.7l-1.431,3.538a.539.539,0,1,1-1-.4l1.431-3.538A.539.539,0,0,1,112.1,174.394Z" transform="translate(-108.387 -174.355)" fill="url(#linear-gradient-35)"/>
        <circle id="Ellipse_108" data-name="Ellipse 108" cx="1.676" cy="1.676" r="1.676" transform="translate(0 3.399)" fill="url(#linear-gradient-36)"/>
      </g>
      <path id="Path_48916" data-name="Path 48916" d="M69.1,111.263,73.838,116s-.448-3.194.727-4.32l-4.918-2.036Z" transform="translate(-63.289 -96.238)" fill="url(#linear-gradient-37)"/>
      <g id="Group_18176" data-name="Group 18176" transform="translate(4.563 11.729)">
        <path id="Path_48917" data-name="Path 48917" d="M78.533,111.075a.539.539,0,0,1-.7.3l-3.538-1.431a.539.539,0,0,1,.4-1l3.538,1.431A.539.539,0,0,1,78.533,111.075Z" transform="translate(-71.821 -107.363)" fill="url(#linear-gradient-38)"/>
        <circle id="Ellipse_109" data-name="Ellipse 109" cx="1.676" cy="1.676" r="1.676" fill="url(#linear-gradient-39)"/>
      </g>
      <g id="Group_18177" data-name="Group 18177" transform="translate(4.647 20.889)">
        <path id="Path_48918" data-name="Path 48918" d="M78.925,150.935a.539.539,0,0,1-.286.706l-3.513,1.49a.539.539,0,0,1-.421-.992l3.513-1.49A.539.539,0,0,1,78.925,150.935Z" transform="translate(-72.248 -150.606)" fill="url(#linear-gradient-40)"/>
        <circle id="Ellipse_110" data-name="Ellipse 110" cx="1.676" cy="1.676" r="1.676" transform="translate(0 0.773)" fill="url(#linear-gradient-41)"/>
      </g>
      <path id="Path_48919" data-name="Path 48919" d="M109.943,68.953l2.05,4.658a8.85,8.85,0,0,1,4.015-.676l-4.52-4.52A12.75,12.75,0,0,0,109.943,68.953Z" transform="translate(-96.67 -62.542)" fill="url(#linear-gradient-42)"/>
      <g id="Group_18178" data-name="Group 18178" transform="translate(11.528 4.646)">
        <path id="Path_48920" data-name="Path 48920" d="M111.154,77.9a.539.539,0,0,1-.706-.286l-1.49-3.513a.539.539,0,0,1,.992-.421l1.49,3.513A.539.539,0,0,1,111.154,77.9Z" transform="translate(-107.357 -71.225)" fill="url(#linear-gradient-43)"/>
        <circle id="Ellipse_111" data-name="Ellipse 111" cx="1.676" cy="1.676" r="1.676" fill="url(#linear-gradient-44)"/>
      </g>
      <circle id="Ellipse_112" data-name="Ellipse 112" cx="8.196" cy="8.196" r="8.196" transform="translate(10.075 10.075)" fill="url(#linear-gradient-45)"/>
    </g>
  </g>
</svg>
