<svg xmlns="http://www.w3.org/2000/svg" width="26" height="17.727" viewBox="0 0 26 17.727">
  <path id="path" d="M708.282,632.382a13.872,13.872,0,0,1,15.836,0,14.114,14.114,0,0,1,5.082,6.382,13.523,13.523,0,0,1-5.082,6.382,14.278,14.278,0,0,1-7.918,2.482,13.4,13.4,0,0,1-7.918-2.482,14.114,14.114,0,0,1-5.082-6.382A14.115,14.115,0,0,1,708.282,632.382Zm3.782,10.636a5.734,5.734,0,0,0,4.136,1.773,5.544,5.544,0,0,0,4.136-1.773,6.25,6.25,0,0,0,1.773-4.136,5.544,5.544,0,0,0-1.773-4.136,6.25,6.25,0,0,0-4.136-1.773,5.544,5.544,0,0,0-4.136,1.773,6.25,6.25,0,0,0-1.773,4.136A5.734,5.734,0,0,0,712.064,643.018Zm1.654-6.736a3.427,3.427,0,1,1-1.064,2.482A3.4,3.4,0,0,1,713.718,636.282Z" transform="translate(-703.2 -629.9)" fill="#1fae93"/>
</svg>
