<svg xmlns="http://www.w3.org/2000/svg" width="82.996" height="82.996" viewBox="0 0 82.996 82.996">
  <g id="jumping-rope" transform="translate(0 0)">
    <g id="Group_24544" data-name="Group 24544" transform="translate(0 0)">
      <path id="Path_49687" data-name="Path 49687" d="M154.9,41.5A41.5,41.5,0,0,0,113.406,0,40.679,40.679,0,0,0,87.573,9.022c-.616,2.845-1.688,6.973-1.688,10,0,22.919,19.327,41.493,42.246,41.493,9.767,0,18.741-4.548,25.83-10.194A40.628,40.628,0,0,0,154.9,41.5Z" transform="translate(-71.908)" fill="#9dc63d"/>
      <path id="Path_49688" data-name="Path 49688" d="M56.219,105.765A41.522,41.522,0,0,1,15.665,55.44l0,0A41.5,41.5,0,0,0,11.79,116.89L24.317,125.7A41.527,41.527,0,0,0,82.052,96.743a41.321,41.321,0,0,1-25.833,9.022Z" transform="translate(0 -46.418)" fill="#7dbe3b"/>
    </g>
    <g id="Group_24559" data-name="Group 24559" transform="translate(11.792 0)">
      <g id="Group_24545" data-name="Group 24545" transform="translate(14.624)">
        <path id="Path_49689" data-name="Path 49689" d="M177.876,32.246c-.142.005-.283.011-.426.011a11.815,11.815,0,0,1-11.8-11.8,22.624,22.624,0,0,1,3.677-11.281c2.4-3.715,5.364-5.846,8.124-5.846.141,0,.283.007.426.018V.011C177.735,0,177.593,0,177.451,0c-8.633,0-15.13,12.409-15.13,20.455a15.147,15.147,0,0,0,15.13,15.13c.142,0,.284,0,.426-.006Z" transform="translate(-162.321 0)" fill="#fff"/>
      </g>
      <g id="Group_24546" data-name="Group 24546" transform="translate(28.09 0)">
        <path id="Path_49690" data-name="Path 49690" d="M270.051,47.321a1.664,1.664,0,0,1-1.664-1.664V24.985A21.681,21.681,0,0,0,246.73,3.328a1.664,1.664,0,1,1,0-3.328,25.013,25.013,0,0,1,24.985,24.985V45.657a1.664,1.664,0,0,1-1.664,1.664Z" transform="translate(-245.066 0)" fill="#fff"/>
      </g>
      <g id="Group_24547" data-name="Group 24547" transform="translate(4.769 0)">
        <path id="Path_49691" data-name="Path 49691" d="M103.425,47.321a1.664,1.664,0,0,1-1.664-1.664V24.985A25.014,25.014,0,0,1,126.746,0a1.664,1.664,0,0,1,0,3.328,21.681,21.681,0,0,0-21.657,21.657V45.657A1.664,1.664,0,0,1,103.425,47.321Z" transform="translate(-101.761 0)" fill="#ffebb4"/>
      </g>
      <g id="Group_24551" data-name="Group 24551" transform="translate(0 40.051)">
        <path id="Path_49692" data-name="Path 49692" d="M105.481,324.208h-2.207c-.111,0-.221,0-.331.011v22.038a41.433,41.433,0,0,0,7.564,4.472,5.285,5.285,0,0,0,.265-1.653V329.5A5.292,5.292,0,0,0,105.481,324.208Z" transform="translate(-97.982 -311.498)" fill="#df751c"/>
        <path id="Path_49693" data-name="Path 49693" d="M77.752,324.207A5.292,5.292,0,0,0,72.46,329.5v12.418a41.734,41.734,0,0,0,5.135,4.469V329.5a5.293,5.293,0,0,1,3.828-5.085,5.287,5.287,0,0,0-1.464-.207H77.752Z" transform="translate(-72.46 -311.497)" fill="#dd542e"/>
        <g id="Group_24548" data-name="Group 24548">
          <path id="Path_49694" data-name="Path 49694" d="M81.314,246.107H76.47a4.011,4.011,0,0,0-4.01,4.01v3.191a4.011,4.011,0,0,0,4.01,4.011h4.844a4.011,4.011,0,0,0,4.01-4.011v-3.192A4.01,4.01,0,0,0,81.314,246.107Z" transform="translate(-72.459 -246.107)" fill="#dd542e"/>
        </g>
        <g id="Group_24549" data-name="Group 24549" transform="translate(4.961 10.292)">
          <path id="Path_49695" data-name="Path 49695" d="M102.943,309.348h6.569v3.994h-6.569Z" transform="translate(-102.943 -309.348)" fill="#ffc305"/>
        </g>
        <g id="Group_24550" data-name="Group 24550" transform="translate(1.526 10.292)">
          <path id="Path_49696" data-name="Path 49696" d="M81.835,309.348h3.994v3.994H81.835Z" transform="translate(-81.835 -309.348)" fill="#ffa50a"/>
        </g>
      </g>
      <g id="Group_24557" data-name="Group 24557" transform="translate(46.547 40.051)">
        <g id="Group_24552" data-name="Group 24552" transform="translate(4.852 12.71)">
          <path id="Path_49697" data-name="Path 49697" d="M390.946,324.208H388.74c-.148,0-.295.008-.44.02v30.12c.145.012.291.02.44.02h2.207a5.292,5.292,0,0,0,5.292-5.292V329.5A5.292,5.292,0,0,0,390.946,324.208Z" transform="translate(-388.3 -324.208)" fill="#df751c"/>
        </g>
        <g id="Group_24553" data-name="Group 24553" transform="translate(0 12.71)">
          <path id="Path_49698" data-name="Path 49698" d="M363.619,349.076V329.5a5.293,5.293,0,0,1,3.828-5.085,5.289,5.289,0,0,0-1.464-.207h-2.207a5.292,5.292,0,0,0-5.292,5.292v19.576a5.292,5.292,0,0,0,5.292,5.292h2.207a5.29,5.29,0,0,0,1.464-.207A5.293,5.293,0,0,1,363.619,349.076Z" transform="translate(-358.484 -324.208)" fill="#dd542e"/>
        </g>
        <g id="Group_24554" data-name="Group 24554" transform="translate(0)">
          <path id="Path_49699" data-name="Path 49699" d="M367.34,246.107H362.5a4.011,4.011,0,0,0-4.011,4.01v3.191a4.011,4.011,0,0,0,4.011,4.011h4.844a4.011,4.011,0,0,0,4.011-4.011v-3.192A4.011,4.011,0,0,0,367.34,246.107Z" transform="translate(-358.485 -246.107)" fill="#dd542e"/>
        </g>
        <g id="Group_24555" data-name="Group 24555" transform="translate(4.481 10.292)">
          <path id="Path_49700" data-name="Path 49700" d="M386.021,309.348h7.049v3.994h-7.049Z" transform="translate(-386.021 -309.348)" fill="#ffc305"/>
        </g>
        <g id="Group_24556" data-name="Group 24556" transform="translate(1.526 10.292)">
          <path id="Path_49701" data-name="Path 49701" d="M367.86,309.348h3.994v3.994H367.86Z" transform="translate(-367.86 -309.348)" fill="#ffa50a"/>
        </g>
      </g>
      <g id="Group_24558" data-name="Group 24558" transform="translate(28.09 0)">
        <path id="Path_49702" data-name="Path 49702" d="M246.73,35.585a1.664,1.664,0,1,1,0-3.328,11.815,11.815,0,0,0,11.8-11.8,22.624,22.624,0,0,0-3.677-11.281c-2.4-3.715-5.364-5.846-8.124-5.846a1.664,1.664,0,1,1,0-3.328c8.633,0,15.13,12.409,15.13,20.455a15.147,15.147,0,0,1-15.13,15.13Z" transform="translate(-245.066 0)" fill="#ffebb4"/>
      </g>
    </g>
  </g>
</svg>
