<svg xmlns="http://www.w3.org/2000/svg" width="92.748" height="103.283" viewBox="0 0 92.748 103.283">
  <g id="shop-bag" transform="translate(0)">
    <path id="Path_48921" data-name="Path 48921" d="M6.212,103.416.066,159.76a11.022,11.022,0,0,0,10.957,12.218H64.261A11.022,11.022,0,0,0,75.218,159.76l-6.146-56.343a4.507,4.507,0,0,0-4.48-4.018h-53.9A4.507,4.507,0,0,0,6.212,103.416Zm0,0" transform="translate(0 -79.347)" fill="#ed5176"/>
    <path id="Path_48922" data-name="Path 48922" d="M308.848,159.76,302.7,103.416a4.506,4.506,0,0,0-4.48-4.018H293a4.507,4.507,0,0,1,4.48,4.018l6.146,56.343a11.022,11.022,0,0,1-10.957,12.218h5.223A11.022,11.022,0,0,0,308.848,159.76Zm0,0" transform="translate(-233.63 -79.347)" fill="#ba365f"/>
    <path id="Path_48923" data-name="Path 48923" d="M.012,405.023a11.022,11.022,0,0,0,11.021,10.927H64.27a11.024,11.024,0,0,0,11.022-10.927Zm0,0" transform="translate(-0.01 -323.32)" fill="#ff76a4"/>
    <path id="Path_48924" data-name="Path 48924" d="M303.69,405.023a11.024,11.024,0,0,1-11.022,10.927H297.9c.2,0,.391-.006.585-.016.066,0,.132-.01.2-.015.129-.01.258-.018.385-.031.078-.009.154-.02.232-.03.114-.014.229-.028.341-.047.082-.013.162-.028.244-.043.107-.02.214-.038.319-.061.083-.017.166-.037.247-.057.1-.025.2-.049.3-.076.083-.022.165-.047.247-.071.1-.028.2-.058.293-.089s.165-.055.247-.083.188-.067.281-.1l.244-.1c.091-.037.18-.075.27-.114s.161-.072.241-.11.173-.083.259-.127.159-.08.238-.122.165-.091.247-.137.157-.088.234-.135.157-.1.234-.146.155-.1.232-.149.145-.1.217-.152.156-.108.232-.165.129-.1.195-.152.159-.122.236-.186c.043-.036.083-.073.125-.109.211-.18.417-.365.614-.561l.047-.045c.087-.087.17-.177.254-.267.04-.042.08-.083.119-.126.079-.087.154-.176.23-.265.041-.049.084-.1.124-.145.073-.09.143-.181.214-.273.039-.051.08-.1.118-.154.069-.093.135-.187.2-.282.037-.054.074-.106.11-.161.065-.1.127-.194.188-.292.034-.054.068-.109.1-.164.061-.1.119-.2.177-.305.03-.054.061-.109.09-.165.057-.1.111-.211.165-.318.027-.054.053-.109.079-.163.052-.11.1-.221.151-.333.023-.052.045-.106.067-.158.048-.116.1-.233.139-.351.019-.049.036-.1.054-.148.045-.124.088-.247.128-.373.014-.042.026-.087.039-.13.041-.133.08-.266.117-.4.008-.031.015-.062.023-.093.038-.149.074-.3.105-.448v0a11.006,11.006,0,0,0,.234-2.181Zm0,0" transform="translate(-233.63 -323.32)" fill="#ed5176"/>
    <path id="Path_48925" data-name="Path 48925" d="M246.913,268.332l-.715-17.654a4.8,4.8,0,0,0-4.6-4.6l-17.654-.715a4.8,4.8,0,0,0-3.589,1.4l-25.692,25.692a5.229,5.229,0,0,0,0,7.394l17.764,17.764a5.227,5.227,0,0,0,7.394,0l25.693-25.692A4.8,4.8,0,0,0,246.913,268.332ZM234.122,258.15a3.288,3.288,0,1,1,4.65,0A3.288,3.288,0,0,1,234.122,258.15Zm0,0" transform="translate(-154.17 -195.861)" fill="#ffcd34"/>
    <path id="Path_48926" data-name="Path 48926" d="M311.346,273.508l-.715-17.654a4.8,4.8,0,0,0-2.489-4.014,4,4,0,0,1,.4,1.924l-.574,16.364a5.191,5.191,0,0,1-1.555,3.436l-25.692,25.692c-2.042,2.042-5.12,2.275-6.875.519l3.014,3.014a5.229,5.229,0,0,0,7.395,0L309.945,277.1A4.8,4.8,0,0,0,311.346,273.508Zm0,0" transform="translate(-218.603 -201.038)" fill="#e69012"/>
    <g id="Group_18180" data-name="Group 18180" transform="translate(21.409)">
      <path id="Path_48927" data-name="Path 48927" d="M137.107,28.227a1.491,1.491,0,0,1-1.491-1.491v-10.5a13.251,13.251,0,0,0-26.5,0v10.5a1.491,1.491,0,0,1-2.982,0v-10.5a16.233,16.233,0,0,1,32.465,0v10.5A1.491,1.491,0,0,1,137.107,28.227Zm0,0" transform="translate(-106.133)" fill="#252d4c"/>
      <path id="Path_48928" data-name="Path 48928" d="M281.889,325.989a5.291,5.291,0,1,1,5.291-5.291A5.3,5.3,0,0,1,281.889,325.989Zm0-7.6A2.309,2.309,0,1,0,284.2,320.7,2.312,2.312,0,0,0,281.889,318.389Zm0,0" transform="translate(-242.211 -251.781)" fill="#252d4c"/>
      <path id="Path_48929" data-name="Path 48929" d="M329.132,400.067a5.291,5.291,0,1,1,5.291-5.291A5.3,5.3,0,0,1,329.132,400.067Zm0-7.6a2.309,2.309,0,1,0,2.309,2.31A2.312,2.312,0,0,0,329.132,392.467Zm0,0" transform="translate(-279.923 -310.916)" fill="#252d4c"/>
      <path id="Path_48930" data-name="Path 48930" d="M281.721,351.1a1.492,1.492,0,0,1-1.054-2.546l15.665-15.665A1.491,1.491,0,1,1,298.44,335l-15.665,15.665A1.485,1.485,0,0,1,281.721,351.1Zm0,0" transform="translate(-245.11 -265.391)" fill="#252d4c"/>
    </g>
  </g>
</svg>
