<svg xmlns="http://www.w3.org/2000/svg" width="104.034" height="71.998" viewBox="0 0 104.034 71.998">
  <g id="mortarboard" transform="translate(-0.001 -78.834)">
    <path id="Path_49817" data-name="Path 49817" d="M109.005,247.932l.981,2.026s15.559,12.634,28.887,12.634,28.957-12.634,28.957-12.634l.91-2.026h0a143.314,143.314,0,0,1-4.621-17.09l-2.848-1.6H116.057l-2.43,1.6A143.321,143.321,0,0,1,109,247.932Z" transform="translate(-86.856 -119.845)" fill="#365e7d"/>
    <path id="Path_49818" data-name="Path 49818" d="M122.22,229.929l1.044-.688h-7.207l-2.43,1.6A143.321,143.321,0,0,1,109,247.932h0l.981,2.026a71.787,71.787,0,0,0,6.109,4.307C118.273,246.994,120.493,238.617,122.22,229.929Z" transform="translate(-86.856 -119.845)" fill="#294b64"/>
    <path id="Path_49819" data-name="Path 49819" d="M103.031,95.624,54.617,79.262a8.121,8.121,0,0,0-5.2,0L1,95.624A1.476,1.476,0,0,0,.83,98.35l47.63,23.221a8.12,8.12,0,0,0,7.116,0l47.63-23.221a1.476,1.476,0,0,0-.174-2.725Z" transform="translate(0 -0.001)" fill="#477b9e"/>
    <path id="Path_49820" data-name="Path 49820" d="M15.483,98.349a1.476,1.476,0,0,1,.174-2.725L59.344,80.859l-4.727-1.6a8.118,8.118,0,0,0-5.2,0L1,95.624A1.476,1.476,0,0,0,.83,98.349L48.46,121.57a8.12,8.12,0,0,0,7.116,0l3.768-1.837Z" transform="translate(0)" fill="#3f6d8e"/>
    <g id="Group_24657" data-name="Group 24657" transform="translate(52.907 92.126)">
      <path id="Path_49821" data-name="Path 49821" d="M299.774,188.869a1.57,1.57,0,0,1-1.57-1.57V158.264a1.639,1.639,0,0,0-1.225-1.586l-35.432-9.342a1.57,1.57,0,0,1,.8-3.036l35.429,9.341a4.779,4.779,0,0,1,3.567,4.623V187.3a1.57,1.57,0,0,1-1.57,1.57Z" transform="translate(-260.378 -144.248)" fill="#ecf4ff"/>
    </g>
    <path id="Path_49822" data-name="Path 49822" d="M443.66,373.295h-5.5l-.654,10.166a1.443,1.443,0,0,0,1.416,1.556H442.9a1.443,1.443,0,0,0,1.416-1.556Z" transform="translate(-348.608 -234.628)" fill="#ffd064"/>
    <path id="Path_49823" data-name="Path 49823" d="M441.087,383.461l.654-10.166h-3.577l-.654,10.166a1.443,1.443,0,0,0,1.416,1.556H442.5A1.443,1.443,0,0,1,441.087,383.461Z" transform="translate(-348.608 -234.628)" fill="#ebb044"/>
    <path id="Path_49824" data-name="Path 49824" d="M441.51,337.336h-2.545a2.312,2.312,0,0,0-2.3,2.305v4.575a.754.754,0,0,0,.754.754h5.647a.754.754,0,0,0,.754-.754v-4.575A2.312,2.312,0,0,0,441.51,337.336Z" transform="translate(-347.934 -205.976)" fill="#ffe07d"/>
    <path id="Path_49825" data-name="Path 49825" d="M440.707,344.215V339.64a2.312,2.312,0,0,1,1.554-2.176,2.28,2.28,0,0,0-.751-.129h-2.545a2.312,2.312,0,0,0-2.305,2.305v4.575a.754.754,0,0,0,.754.754h4.047A.753.753,0,0,1,440.707,344.215Z" transform="translate(-347.933 -205.975)" fill="#ffd064"/>
    <path id="Path_49826" data-name="Path 49826" d="M235.933,130.441a5.2,5.2,0,0,0-5.524,5.19v.026a2.452,2.452,0,0,0,2.469,2.408h5.462a2.455,2.455,0,0,0,2.462-2.689A5.226,5.226,0,0,0,235.933,130.441Z" transform="translate(-183.591 -41.113)" fill="#3f6d8e"/>
    <path id="Path_49827" data-name="Path 49827" d="M235.12,135.658v-.026A5.2,5.2,0,0,1,237.955,131a5.106,5.106,0,0,0-2.022-.559,5.2,5.2,0,0,0-5.524,5.19v.026a2.452,2.452,0,0,0,2.469,2.408h4.71a2.452,2.452,0,0,1-2.469-2.408Z" transform="translate(-183.592 -41.113)" fill="#365e7d"/>
    <path id="Path_49828" data-name="Path 49828" d="M162.1,321.231a77.149,77.149,0,0,1-23.914,12.593,19.516,19.516,0,0,1-11.906,0,77.151,77.151,0,0,1-23.914-12.593c-.524,1.567-1.007,2.93-1.409,4.03a4.653,4.653,0,0,0,1.486,5.257,77.9,77.9,0,0,0,23.837,12.528,19.519,19.519,0,0,0,11.906,0,77.9,77.9,0,0,0,23.837-12.528,4.653,4.653,0,0,0,1.486-5.257c-.4-1.1-.884-2.463-1.409-4.03Z" transform="translate(-80.216 -193.144)" fill="#ffe07d"/>
    <path id="Path_49829" data-name="Path 49829" d="M109.809,326.375a60.73,60.73,0,0,1-7.444-5.145c-.524,1.567-1.007,2.93-1.409,4.03a4.653,4.653,0,0,0,1.486,5.257c1.653,1.3,3.323,2.487,4.984,3.572C108.2,331.69,109,329.1,109.809,326.375Z" transform="translate(-80.215 -193.143)" fill="#ffd064"/>
  </g>
</svg>
