<svg xmlns="http://www.w3.org/2000/svg" width="90.514" height="94.578" viewBox="0 0 90.514 94.578">
  <g id="delivery-truck" transform="translate(-11)">
    <path id="Path_49788" data-name="Path 49788" d="M56.257,22A45.274,45.274,0,0,0,14.735,85.281h.185V65.594a.74.74,0,0,1,.739-.739H43.736a.74.74,0,0,1,.739.739V94.371H91.906l.724-.185A45.258,45.258,0,0,0,56.257,22Z" transform="translate(0 -17.936)" fill="#d8ecfe"/>
    <g id="Group_24639" data-name="Group 24639" transform="translate(17.479 17.179)">
      <g id="Group_24638" data-name="Group 24638">
        <g id="Group_24633" data-name="Group 24633" transform="translate(48.384 45.05)">
          <g id="Group_24632" data-name="Group 24632">
            <path id="Path_49789" data-name="Path 49789" d="M308,336.88V342.5h8.306a8.394,8.394,0,0,1,4.922-5.623Z" transform="translate(-308 -336.88)" fill="#fe646f"/>
          </g>
          <path id="Path_49790" data-name="Path 49790" d="M427.687,336.88h-13.8a8.393,8.393,0,0,1,4.922,5.623h7.475a1.847,1.847,0,0,0,1.847-1.847v-3.591Z" transform="translate(-394.329 -336.88)" fill="#fe646f"/>
        </g>
        <path id="Path_49791" data-name="Path 49791" d="M353.4,201.52h3.37l.14-.185v-2.827a4.61,4.61,0,0,0-.2-1.33l-.259-.185h-24.1a.74.74,0,0,1-.739-.739V185.726a.74.74,0,0,1,.739-.739h16.683l.1-.185-1.476-2.352a1.847,1.847,0,0,0-1.564-.865h-19.57v28.871h9.387a8.344,8.344,0,0,1,7.169,0H356.91V207.8l-.1-.185H353.4a.74.74,0,0,1-.739-.739v-4.618A.74.74,0,0,1,353.4,201.52Z" transform="translate(-274.722 -165.222)" fill="#fd4755"/>
        <path id="Path_49792" data-name="Path 49792" d="M357.685,199.265,357.5,199h-3.51a.924.924,0,0,0-.924.924v10.529a.924.924,0,0,0,.924.924h3.51l.185-.326Z" transform="translate(-296.358 -179.419)" fill="#c41926"/>
        <path id="Path_49793" data-name="Path 49793" d="M87.961,93H47.919a1.847,1.847,0,0,0-1.847,1.847V122.74H72.33a.74.74,0,0,1,.739.739v7.8H93.717a.74.74,0,0,1,.739.739v6.218h3.607V103.452A13.993,13.993,0,0,1,87.961,93Z" transform="translate(-46.072 -93)" fill="#fed402"/>
        <path id="Path_49794" data-name="Path 49794" d="M53.817,122.555V94.847A1.847,1.847,0,0,1,55.664,93H47.919a1.847,1.847,0,0,0-1.847,1.847v27.708Z" transform="translate(-46.072 -93)" fill="#fac600"/>
        <g id="Group_24635" data-name="Group 24635" transform="translate(9.703 10.714)">
          <g id="Group_24634" data-name="Group 24634">
            <path id="Path_49795" data-name="Path 49795" d="M129.339,163.354h-28.89a1.847,1.847,0,0,1-1.847-1.847v-8.66A1.847,1.847,0,0,1,100.448,151h28.89a1.847,1.847,0,0,1,1.847,1.847v8.66A1.847,1.847,0,0,1,129.339,163.354Z" transform="translate(-98.601 -151)" fill="#fff"/>
          </g>
        </g>
        <path id="Path_49796" data-name="Path 49796" d="M104.4,161.507v-8.66A1.847,1.847,0,0,1,106.248,151h-5.8a1.847,1.847,0,0,0-1.847,1.847v8.66a1.847,1.847,0,0,0,1.847,1.847h5.8A1.847,1.847,0,0,1,104.4,161.507Z" transform="translate(-88.898 -140.286)" fill="#f3f0ff"/>
        <path id="Path_49797" data-name="Path 49797" d="M353.469,347.515h11.148a8.543,8.543,0,1,0-11.148,0Z" transform="translate(-294.266 -288.259)" fill="#9182b0"/>
        <path id="Path_49798" data-name="Path 49798" d="M353.26,347.329h3.049a8.541,8.541,0,0,1,4.258-14.692,8.542,8.542,0,0,0-7.307,14.692Z" transform="translate(-294.266 -288.258)" fill="#7a6d98"/>
        <g id="Group_24636" data-name="Group 24636" transform="translate(60.206 48.212)">
          <circle id="Ellipse_202" data-name="Ellipse 202" cx="4.572" cy="4.572" r="4.572" fill="#cfcae4"/>
        </g>
        <g id="Group_24637" data-name="Group 24637" transform="translate(62.33 50.337)">
          <circle id="Ellipse_203" data-name="Ellipse 203" cx="2.448" cy="2.448" r="2.448" fill="#fff"/>
        </g>
        <path id="Path_49799" data-name="Path 49799" d="M385.44,367.948a2.45,2.45,0,0,1,1.478-2.246,2.448,2.448,0,1,0,0,4.492A2.451,2.451,0,0,1,385.44,367.948Z" transform="translate(-321.17 -315.163)" fill="#f3f0ff"/>
      </g>
    </g>
    <g id="Group_24645" data-name="Group 24645" transform="translate(58.614 0)">
      <g id="Group_24642" data-name="Group 24642" transform="translate(0)">
        <g id="Group_24640" data-name="Group 24640" transform="translate(0 0.199)">
          <circle id="Ellipse_204" data-name="Ellipse 204" cx="14" cy="14" r="14" transform="translate(0.385 0.035)" fill="#9182b0"/>
        </g>
        <path id="Path_49800" data-name="Path 49800" d="M277.51,21.324a9.774,9.774,0,0,1,0-14.386A14.147,14.147,0,0,1,286.9.273a14.131,14.131,0,1,0,0,27.716A14.147,14.147,0,0,1,277.51,21.324Z" transform="translate(-269.771 0)" fill="#7a6d98"/>
        <g id="Group_24641" data-name="Group 24641" transform="translate(4.582 4.354)">
          <circle id="Ellipse_205" data-name="Ellipse 205" cx="9.778" cy="9.778" r="9.778" fill="#fff"/>
        </g>
        <path id="Path_49801" data-name="Path 49801" d="M297.367,33.346a9.78,9.78,0,0,1,7.878-9.592,9.778,9.778,0,1,0,0,19.183A9.78,9.78,0,0,1,297.367,33.346Z" transform="translate(-288.986 -19.214)" fill="#f3f0ff"/>
      </g>
      <g id="Group_24643" data-name="Group 24643" transform="translate(8.109 7.768)">
        <path id="Path_49802" data-name="Path 49802" d="M323.99,49.855h-5.137a1.385,1.385,0,0,1-1-.428l-4.81-5.034a1.385,1.385,0,1,1,2-1.914l4.4,4.606h4.545a1.385,1.385,0,0,1,0,2.771Z" transform="translate(-312.658 -42.05)" fill="#a79bc6"/>
      </g>
      <g id="Group_24644" data-name="Group 24644" transform="translate(11.978 11.75)">
        <circle id="Ellipse_206" data-name="Ellipse 206" cx="2.382" cy="2.382" r="2.382" fill="#9182b0"/>
      </g>
    </g>
    <g id="Group_24647" data-name="Group 24647" transform="translate(44.475 55.272)">
      <path id="Path_49803" data-name="Path 49803" d="M212.868,299.22H192.22v21.162h21.572V300.144A.924.924,0,0,0,212.868,299.22Z" transform="translate(-192.22 -299.22)" fill="#d88a55"/>
      <path id="Path_49804" data-name="Path 49804" d="M193.22,299.22h4.064V320.2H193.22Z" transform="translate(-193.035 -299.22)" fill="#c57a44"/>
      <g id="Group_24646" data-name="Group 24646" transform="translate(7.923 0)">
        <path id="Path_49805" data-name="Path 49805" d="M240.1,306.481h-4.064a.924.924,0,0,1-.924-.924V299.22h5.911v6.337A.924.924,0,0,1,240.1,306.481Z" transform="translate(-235.11 -299.22)" fill="#fe646f"/>
      </g>
      <path id="Path_49806" data-name="Path 49806" d="M237.491,305.557V299.22H235.11v6.337a.924.924,0,0,0,.924.924h2.381A.924.924,0,0,1,237.491,305.557Z" transform="translate(-227.187 -299.22)" fill="#fd4755"/>
    </g>
    <g id="Group_24648" data-name="Group 24648" transform="translate(74.187 50.983)">
      <path id="Path_49807" data-name="Path 49807" d="M359.269,278.956h-5.647a.554.554,0,0,1-.554-.554v-1.847a.554.554,0,0,1,.554-.554h5.647a.554.554,0,0,1,.554.554V278.4a.554.554,0,0,1-.554.554Z" transform="translate(-353.068 -276)" fill="#c41926"/>
    </g>
    <g id="Group_24649" data-name="Group 24649" transform="translate(78.621 36.76)">
      <path id="Path_49808" data-name="Path 49808" d="M397.406,210.25,390.342,199H377.067v12.376h20.849A4.619,4.619,0,0,0,397.406,210.25Z" transform="translate(-377.067 -199)" fill="#fff"/>
    </g>
    <path id="Path_49809" data-name="Path 49809" d="M377.068,199h4.076v12.376h-4.076Z" transform="translate(-298.447 -162.24)" fill="#f3f0ff"/>
    <g id="Group_24653" data-name="Group 24653" transform="translate(14.735 46.735)">
      <g id="Group_24650" data-name="Group 24650">
        <path id="Path_49810" data-name="Path 49810" d="M61.145,253.924a.924.924,0,0,0-.924-.924H32.144a.924.924,0,0,0-.924.924v19.687a45.226,45.226,0,0,0,5.148,8.905l.724.185H61.145Z" transform="translate(-31.22 -253)" fill="#f6a96c"/>
      </g>
      <g id="Group_24651" data-name="Group 24651">
        <path id="Path_49811" data-name="Path 49811" d="M36.906,253.924a.924.924,0,0,1,.924-.924H32.144a.924.924,0,0,0-.924.924v19.687a45.226,45.226,0,0,0,5.148,8.905l.538.137Z" transform="translate(-31.22 -253)" fill="#ea9b58"/>
      </g>
      <g id="Group_24652" data-name="Group 24652" transform="translate(11.268)">
        <path id="Path_49812" data-name="Path 49812" d="M98.685,263.16H93.144a.924.924,0,0,1-.924-.924V253h7.389v9.236A.924.924,0,0,1,98.685,263.16Z" transform="translate(-92.22 -253)" fill="#fe646f"/>
      </g>
      <path id="Path_49813" data-name="Path 49813" d="M94.95,262.236V253H92.22v9.236a.924.924,0,0,0,.924.924h2.73A.924.924,0,0,1,94.95,262.236Z" transform="translate(-80.952 -253)" fill="#fd4755"/>
    </g>
    <g id="Group_24654" data-name="Group 24654" transform="translate(26.379 83.125)">
      <path id="Path_49814" data-name="Path 49814" d="M95.249,450l-1,.185a45.246,45.246,0,0,0,59.756,0l-1-.185Z" transform="translate(-94.253 -450)" fill="#b5add5"/>
    </g>
    <g id="Group_24655" data-name="Group 24655" transform="translate(19.883 76.25)">
      <path id="Path_49815" data-name="Path 49815" d="M59.087,412.784a45.52,45.52,0,0,0,6.5,7.059H125.34a45.519,45.519,0,0,0,6.5-7.059Z" transform="translate(-59.087 -412.784)" fill="#cfcae4"/>
    </g>
    <g id="Group_24656" data-name="Group 24656" transform="translate(95.233 53.292)">
      <path id="Path_49816" data-name="Path 49816" d="M471.433,288.5h-3.51a.924.924,0,0,0-.924.924v4.618a.924.924,0,0,0,.924.924h3.51Z" transform="translate(-467 -288.5)" fill="#fff"/>
    </g>
  </g>
</svg>
