<svg xmlns="http://www.w3.org/2000/svg" width="95.007" height="100.602" viewBox="0 0 95.007 100.602">
  <g id="travel" transform="translate(-26.274 -12.999)">
    <path id="Path_49857" data-name="Path 49857" d="M316.457,27.714l4.56,3.522,7.086.947a.877.877,0,0,1,.8,1.406l-6.079,3.873-2.2,6.845a.878.878,0,0,1-1.565-.424l-2.717-6.6-4.562-3.524-5.314,6.88a.762.762,0,0,1-1.071.139l-1.429-1.1a1.532,1.532,0,0,1-.434-1.888l3.728-7.519-9.6-7.417a3.82,3.82,0,1,1,4.669-6.046l9.6,7.417,6.334-5.507a1.528,1.528,0,0,1,1.938-.056l1.427,1.1a.764.764,0,0,1,.137,1.071Z" transform="translate(-214.091 -2.386)" fill="#e5f5fd"/>
    <path id="Path_49858" data-name="Path 49858" d="M148.013,138.594a3.066,3.066,0,0,1-1.346,3.062l-4.793,3.139a3.067,3.067,0,0,0-1.332,3.141l.645,3.373a3.07,3.07,0,0,0,1.681,2.188l3.366,1.621a3.065,3.065,0,0,1,1.687,3.306l-1.226,6.811a3.067,3.067,0,0,1-5.8.751l-1.232-2.657a3.07,3.07,0,0,0-2.781-1.774h-4.99a3.066,3.066,0,0,0-1.762.556l-3.356,2.355a3.062,3.062,0,0,1-2.469.474l-5.786-1.373h0a28.557,28.557,0,0,1,28.05-33.757Z" transform="translate(-72.789 -92.657)" fill="#d8ff33"/>
    <path id="Path_49859" data-name="Path 49859" d="M124.723,163.567h0a28.567,28.567,0,0,1,21.954-33.1l-.108-.655a28.557,28.557,0,0,0-28.05,33.757h0l5.786,1.373a3.062,3.062,0,0,0,2.469-.474l.439-.309Z" transform="translate(-72.79 -92.657)" fill="#c6e02d"/>
    <path id="Path_49860" data-name="Path 49860" d="M171.208,141.2l-3.18,2.264a5.035,5.035,0,0,0-1.958,2.858l-.67,2.616a5.031,5.031,0,0,0,1.778,5.223,5.04,5.04,0,0,1,1.816,5.077l-1.352,6.038a5.046,5.046,0,0,1-1.373,2.479l-1.181,1.17a5.046,5.046,0,0,0-1.464,4.129l.957,8.774,0,0a28.536,28.536,0,0,1-44.233-18.267h0l5.786,1.373a3.062,3.062,0,0,0,2.469-.474l3.356-2.355a3.066,3.066,0,0,1,1.762-.556h4.99a3.07,3.07,0,0,1,2.781,1.774l1.232,2.657a3.067,3.067,0,0,0,5.8-.751l1.226-6.811a3.065,3.065,0,0,0-1.687-3.306L144.7,153.5a3.07,3.07,0,0,1-1.681-2.188l-.645-3.373a3.067,3.067,0,0,1,1.332-3.141l4.793-3.139a3.066,3.066,0,0,0,1.346-3.062L148.4,129.81A28.477,28.477,0,0,1,171.208,141.2Z" transform="translate(-74.622 -92.657)" fill="#50a6ea"/>
    <path id="Path_49861" data-name="Path 49861" d="M126.864,294.513a3.055,3.055,0,0,1-.726-.08l-5.786-1.373h0a28.539,28.539,0,0,0,28.05,23.3,28.868,28.868,0,0,0,3.09-.169A28.553,28.553,0,0,1,126.864,294.513Z" transform="translate(-74.622 -222.149)" fill="#72bcef"/>
    <path id="Path_49862" data-name="Path 49862" d="M337.091,184.91a28.53,28.53,0,0,1-6.625,40.631l0,0-.957-8.774a5.045,5.045,0,0,1,1.464-4.129l1.181-1.17a5.045,5.045,0,0,0,1.373-2.479l1.352-6.038a5.04,5.04,0,0,0-1.816-5.077,5.031,5.031,0,0,1-1.778-5.223l.67-2.616a5.035,5.035,0,0,1,1.958-2.858Z" transform="translate(-240.505 -136.363)" fill="#d8ff33"/>
    <g id="Group_24685" data-name="Group 24685" transform="translate(26.274 12.999)">
      <path id="Path_49863" data-name="Path 49863" d="M472.027,261.4a1.319,1.319,0,0,1,1.317,1.317,47.92,47.92,0,0,1-.477,6.74,1.316,1.316,0,0,1-1.3,1.136,1.437,1.437,0,0,1-.188-.012,1.32,1.32,0,0,1-1.119-1.491,45.126,45.126,0,0,0,.451-6.373,1.318,1.318,0,0,1,1.317-1.317Z" transform="translate(-378.44 -210.035)" fill="#284268"/>
      <path id="Path_49864" data-name="Path 49864" d="M467.532,206.174a1.316,1.316,0,0,1-1.117,1.489,1.461,1.461,0,0,1-.188.012,1.315,1.315,0,0,1-1.3-1.131,44.491,44.491,0,0,0-1.352-6.241,1.317,1.317,0,1,1,2.527-.742A47.021,47.021,0,0,1,467.532,206.174Z" transform="translate(-373.105 -160.233)" fill="#284268"/>
      <path id="Path_49865" data-name="Path 49865" d="M452.1,334.381a1.316,1.316,0,0,1,.815,1.675,47.4,47.4,0,0,1-2.667,6.22,1.318,1.318,0,0,1-1.17.713,1.291,1.291,0,0,1-.6-.149,1.316,1.316,0,0,1-.565-1.774,44.568,44.568,0,0,0,2.517-5.873A1.317,1.317,0,0,1,452.1,334.381Z" transform="translate(-360.601 -267.867)" fill="#284268"/>
      <path id="Path_49866" data-name="Path 49866" d="M437.117,138.483a1.316,1.316,0,1,1-2.339,1.208,45.029,45.029,0,0,0-3.327-5.449,1.316,1.316,0,1,1,2.142-1.528A47.166,47.166,0,0,1,437.117,138.483Z" transform="translate(-347.473 -107.521)" fill="#284268"/>
      <path id="Path_49867" data-name="Path 49867" d="M409.966,399.465a1.316,1.316,0,0,1,.219,1.849,47.808,47.808,0,0,1-4.551,5,1.316,1.316,0,1,1-1.818-1.9,45.41,45.41,0,0,0,4.3-4.727,1.316,1.316,0,0,1,1.849-.219Z" transform="translate(-325.424 -319.326)" fill="#284268"/>
      <path id="Path_49868" data-name="Path 49868" d="M350.417,449.524a1.316,1.316,0,0,1-.393,1.82,47.153,47.153,0,0,1-5.933,3.244A1.316,1.316,0,1,1,343,452.193a44.711,44.711,0,0,0,5.6-3.064A1.318,1.318,0,0,1,350.417,449.524Z" transform="translate(-276.894 -358.779)" fill="#284268"/>
      <path id="Path_49869" data-name="Path 49869" d="M279.9,479.038a1.317,1.317,0,0,1-.97,1.59,47.418,47.418,0,0,1-6.671,1.112c-.043,0-.085.006-.126.006a1.316,1.316,0,0,1-.122-2.626,44.907,44.907,0,0,0,6.3-1.053A1.317,1.317,0,0,1,279.9,479.038Z" transform="translate(-220.254 -381.871)" fill="#284268"/>
      <path id="Path_49870" data-name="Path 49870" d="M247.047,38.761a1.317,1.317,0,0,1-.122,2.628c-.041,0-.083,0-.126-.006a45.782,45.782,0,0,0-6.388-.151,1.317,1.317,0,1,1-.124-2.63,48.575,48.575,0,0,1,6.76.159Z" transform="translate(-195.038 -33.267)" fill="#284268"/>
      <path id="Path_49871" data-name="Path 49871" d="M205.012,479.12a1.316,1.316,0,0,1-.122,2.626c-.041,0-.085,0-.126,0a47.724,47.724,0,0,1-6.671-1.115,1.317,1.317,0,0,1,.618-2.56,44.912,44.912,0,0,0,6.3,1.053Z" transform="translate(-161.765 -381.87)" fill="#284268"/>
      <path id="Path_49872" data-name="Path 49872" d="M175.651,45.787a1.314,1.314,0,0,1-.97,1.588,44.86,44.86,0,0,0-6.084,1.944,1.317,1.317,0,1,1-.98-2.444,47.007,47.007,0,0,1,6.445-2.057,1.313,1.313,0,0,1,1.588.97Z" transform="translate(-137.734 -38.208)" fill="#284268"/>
      <path id="Path_49873" data-name="Path 49873" d="M136.762,452.183a1.317,1.317,0,0,1-.548,2.515,1.291,1.291,0,0,1-.546-.12,47.341,47.341,0,0,1-5.937-3.247,1.317,1.317,0,1,1,1.425-2.215,45.073,45.073,0,0,0,5.606,3.067Z" transform="translate(-107.859 -358.768)" fill="#284268"/>
      <path id="Path_49874" data-name="Path 49874" d="M111.389,74.5a1.317,1.317,0,0,1-.395,1.82,45.365,45.365,0,0,0-5.112,3.832,1.316,1.316,0,0,1-1.725-1.989A47.557,47.557,0,0,1,109.57,74.1,1.317,1.317,0,0,1,111.389,74.5Z" transform="translate(-87.693 -61.302)" fill="#284268"/>
      <path id="Path_49875" data-name="Path 49875" d="M81.086,404.389a1.316,1.316,0,1,1-1.818,1.9,48.046,48.046,0,0,1-4.551-5,1.317,1.317,0,1,1,2.07-1.63A45.392,45.392,0,0,0,81.086,404.389Z" transform="translate(-64.476 -319.308)" fill="#284268"/>
      <path id="Path_49876" data-name="Path 49876" d="M62.425,123.91a1.318,1.318,0,0,1,.219,1.851,44.983,44.983,0,0,0-3.586,5.287,1.317,1.317,0,0,1-1.141.658,1.29,1.29,0,0,1-.658-.178,1.317,1.317,0,0,1-.48-1.8,47.376,47.376,0,0,1,3.8-5.6A1.316,1.316,0,0,1,62.425,123.91Z" transform="translate(-50.332 -100.752)" fill="#284268"/>
      <path id="Path_49877" data-name="Path 49877" d="M44.046,341.061a1.316,1.316,0,0,1-2.339,1.208,47.355,47.355,0,0,1-2.665-6.218,1.316,1.316,0,0,1,2.488-.86,45.057,45.057,0,0,0,2.517,5.871Z" transform="translate(-36.344 -267.863)" fill="#284268"/>
      <path id="Path_49878" data-name="Path 49878" d="M34.209,188.563a1.316,1.316,0,0,1,.815,1.675,44.8,44.8,0,0,0-1.65,6.17,1.315,1.315,0,0,1-1.29,1.069,1.482,1.482,0,0,1-.25-.023,1.315,1.315,0,0,1-1.044-1.541,47.431,47.431,0,0,1,1.745-6.536A1.318,1.318,0,0,1,34.209,188.563Z" transform="translate(-29.837 -152.202)" fill="#284268"/>
      <path id="Path_49879" data-name="Path 49879" d="M29.853,269.086a1.316,1.316,0,0,1-1.117,1.489,1.459,1.459,0,0,1-.188.012,1.315,1.315,0,0,1-1.3-1.131,47.908,47.908,0,0,1-.478-6.743,1.317,1.317,0,0,1,2.634,0,45.48,45.48,0,0,0,.449,6.378Z" transform="translate(-26.668 -210.031)" fill="#284268"/>
      <path id="Path_49880" data-name="Path 49880" d="M239,43.578a1.387,1.387,0,0,0,1.016.359,45.419,45.419,0,0,1,6.374.15q.068.006.135.006a1.42,1.42,0,0,0,.132-2.833,48.2,48.2,0,0,0-6.774-.159A1.423,1.423,0,0,0,239,43.579Z" transform="translate(-194.641 -35.248)" fill="#284268"/>
      <path id="Path_49881" data-name="Path 49881" d="M167.715,52.11a1.412,1.412,0,0,0,.528-.1,44.46,44.46,0,0,1,6.07-1.938,1.42,1.42,0,0,0-.667-2.761,47.268,47.268,0,0,0-6.459,2.063,1.42,1.42,0,0,0,.529,2.738Z" transform="translate(-137.341 -40.181)" fill="#284268"/>
      <path id="Path_49882" data-name="Path 49882" d="M110.655,79a1.42,1.42,0,1,0-1.538-2.388,47.858,47.858,0,0,0-5.422,4.064,1.42,1.42,0,0,0,1.861,2.146,45.023,45.023,0,0,1,5.1-3.822Z" transform="translate(-87.298 -63.28)" fill="#284268"/>
      <path id="Path_49883" data-name="Path 49883" d="M328.845,44.156a1.469,1.469,0,1,0,.265,2.062,1.469,1.469,0,0,0-.265-2.062Z" transform="translate(-264.401 -37.47)" fill="#284268"/>
      <path id="Path_49884" data-name="Path 49884" d="M346.382,57.706a1.47,1.47,0,1,0,.56.977,1.47,1.47,0,0,0-.56-.977Z" transform="translate(-278.31 -48.218)" fill="#284268"/>
      <path id="Path_49885" data-name="Path 49885" d="M363.93,71.259a1.47,1.47,0,1,0,.56.976,1.47,1.47,0,0,0-.56-.976Z" transform="translate(-292.231 -58.969)" fill="#284268"/>
      <path id="Path_49886" data-name="Path 49886" d="M381.477,84.813a1.47,1.47,0,1,0,.265,2.062,1.47,1.47,0,0,0-.265-2.062Z" transform="translate(-306.148 -69.72)" fill="#284268"/>
      <path id="Path_49887" data-name="Path 49887" d="M277.894,480.563a44.634,44.634,0,0,1-6.286,1.05,1.42,1.42,0,0,0,.132,2.834q.067,0,.135-.006a47.654,47.654,0,0,0,6.686-1.117,1.42,1.42,0,0,0-.667-2.761Z" transform="translate(-219.858 -383.847)" fill="#284268"/>
      <path id="Path_49888" data-name="Path 49888" d="M204.622,481.621a44.71,44.71,0,0,1-6.286-1.049,1.42,1.42,0,1,0-.667,2.761,47.6,47.6,0,0,0,6.686,1.117c.045,0,.09.006.134.006a1.42,1.42,0,0,0,.132-2.833Z" transform="translate(-161.365 -383.853)" fill="#284268"/>
      <path id="Path_49889" data-name="Path 49889" d="M432.354,134.669a1.42,1.42,0,0,0-1.391,2.225,44.848,44.848,0,0,1,3.321,5.437,1.42,1.42,0,1,0,2.523-1.3,47.657,47.657,0,0,0-3.531-5.783A1.411,1.411,0,0,0,432.354,134.669Z" transform="translate(-347.071 -109.494)" fill="#284268"/>
      <path id="Path_49890" data-name="Path 49890" d="M348.143,451.642a44.608,44.608,0,0,1-5.588,3.056,1.42,1.42,0,1,0,1.181,2.583,47.549,47.549,0,0,0,5.945-3.252,1.42,1.42,0,1,0-1.537-2.388Z" transform="translate(-276.495 -360.758)" fill="#284268"/>
      <path id="Path_49891" data-name="Path 49891" d="M409.633,401.981a1.42,1.42,0,0,0-1.994.237,45.074,45.074,0,0,1-4.29,4.715,1.42,1.42,0,1,0,1.96,2.056,47.9,47.9,0,0,0,4.561-5.014A1.421,1.421,0,0,0,409.633,401.981Z" transform="translate(-325.027 -321.305)" fill="#284268"/>
      <path id="Path_49892" data-name="Path 49892" d="M464.428,209.159a1.427,1.427,0,0,0,1.4,1.22,1.485,1.485,0,0,0,.2-.014,1.422,1.422,0,0,0,1.206-1.606,47.4,47.4,0,0,0-1.434-6.626,1.42,1.42,0,1,0-2.725.8,44.569,44.569,0,0,1,1.348,6.227Z" transform="translate(-372.71 -162.213)" fill="#284268"/>
      <path id="Path_49893" data-name="Path 49893" d="M451.661,336.88a1.421,1.421,0,0,0-1.806.878,44.5,44.5,0,0,1-2.512,5.86,1.42,1.42,0,1,0,2.523,1.3,47.371,47.371,0,0,0,2.673-6.235,1.42,1.42,0,0,0-.878-1.806Z" transform="translate(-360.132 -269.844)" fill="#284268"/>
      <path id="Path_49894" data-name="Path 49894" d="M31.415,200.154a1.42,1.42,0,0,0,1.662-1.128,44.518,44.518,0,0,1,1.645-6.156,1.42,1.42,0,1,0-2.684-.928,47.351,47.351,0,0,0-1.751,6.55,1.42,1.42,0,0,0,1.128,1.662Z" transform="translate(-29.437 -154.181)" fill="#284268"/>
      <path id="Path_49895" data-name="Path 49895" d="M136.411,454.686a44.745,44.745,0,0,1-5.593-3.06,1.42,1.42,0,1,0-1.538,2.388,47.589,47.589,0,0,0,5.949,3.255,1.4,1.4,0,0,0,.59.129,1.42,1.42,0,0,0,.592-2.712Z" transform="translate(-107.463 -360.745)" fill="#284268"/>
      <path id="Path_49896" data-name="Path 49896" d="M29.563,271.674a45.22,45.22,0,0,1-.449-6.359,1.42,1.42,0,1,0-2.84,0,48.063,48.063,0,0,0,.478,6.759,1.427,1.427,0,0,0,1.4,1.219,1.487,1.487,0,0,0,.2-.014,1.422,1.422,0,0,0,1.206-1.607Z" transform="translate(-26.274 -212.015)" fill="#284268"/>
      <path id="Path_49897" data-name="Path 49897" d="M471.634,263.9a1.422,1.422,0,0,0-1.42,1.42,45.26,45.26,0,0,1-.449,6.36,1.42,1.42,0,0,0,1.206,1.605,1.483,1.483,0,0,0,.2.014,1.427,1.427,0,0,0,1.4-1.22,48.112,48.112,0,0,0,.477-6.759,1.422,1.422,0,0,0-1.42-1.42Z" transform="translate(-378.047 -212.018)" fill="#284268"/>
      <path id="Path_49898" data-name="Path 49898" d="M41.23,337.751a1.42,1.42,0,1,0-2.684.929,47.389,47.389,0,0,0,2.671,6.231,1.42,1.42,0,1,0,2.523-1.3,44.553,44.553,0,0,1-2.51-5.857Z" transform="translate(-35.946 -269.839)" fill="#284268"/>
      <path id="Path_49899" data-name="Path 49899" d="M76.472,402.2a1.42,1.42,0,1,0-2.231,1.758,47.914,47.914,0,0,0,4.56,5.013,1.42,1.42,0,1,0,1.96-2.055,45.063,45.063,0,0,1-4.289-4.716Z" transform="translate(-64.08 -321.29)" fill="#284268"/>
      <path id="Path_49900" data-name="Path 49900" d="M62.095,126.435a1.422,1.422,0,0,0-1.994.237,47.758,47.758,0,0,0-3.8,5.612,1.42,1.42,0,1,0,2.458,1.422,44.839,44.839,0,0,1,3.577-5.276A1.422,1.422,0,0,0,62.095,126.435Z" transform="translate(-49.936 -102.738)" fill="#284268"/>
      <path id="Path_49901" data-name="Path 49901" d="M314.622,44.048a2.112,2.112,0,0,0,2.23-.749,1.24,1.24,0,0,0,.2-.379l2.061-6.419,5.7-3.632a1.235,1.235,0,0,0,.316-.288,2.118,2.118,0,0,0-1.749-3.41l-6.628-.886-3.317-2.561,4.555-5.9a2,2,0,0,0-.361-2.812l-1.427-1.1a2.776,2.776,0,0,0-3.51.1l-5.565,4.839-8.8-6.8a5.061,5.061,0,0,0-6.187,8.01l8.8,6.8-3.275,6.607a2.776,2.776,0,0,0,.788,3.421l1.427,1.1a1.99,1.99,0,0,0,1.221.418,2.034,2.034,0,0,0,.259-.017,1.992,1.992,0,0,0,1.331-.763l4.556-5.9,3.317,2.562,2.543,6.175a2.111,2.111,0,0,0,1.512,1.578Zm-1.888-9.006a1.241,1.241,0,0,0-.389-.509l-6.375-4.924a1.241,1.241,0,1,0-1.517,1.964l.832.643-4.264,5.521-1.05-.811a.288.288,0,0,1-.083-.355l3.729-7.52a1.241,1.241,0,0,0-.353-1.533l-9.6-7.418a2.58,2.58,0,0,1,3.154-4.083l9.6,7.417a1.241,1.241,0,0,0,1.573-.046l6.332-5.506a.288.288,0,0,1,.365-.011l1.05.811-4.264,5.521-.832-.643a1.241,1.241,0,0,0-1.517,1.964l6.375,4.925a1.241,1.241,0,0,0,.594.248l6.207.829-4.9,3.12a1.241,1.241,0,0,0-.515.667l-1.77,5.512Z" transform="translate(-235.606 -12.999)" fill="#284268"/>
      <path id="Path_49902" data-name="Path 49902" d="M141.809,126.809a29.768,29.768,0,1,0,29.769,29.768A29.8,29.8,0,0,0,141.809,126.809Zm-27.287,29.768a27.319,27.319,0,0,1,26.238-27.265l1.27,7.721a1.828,1.828,0,0,1-.8,1.824L136.435,142a4.294,4.294,0,0,0-1.871,4.412l.644,3.373a4.325,4.325,0,0,0,2.362,3.073l3.367,1.621a1.831,1.831,0,0,1,1,1.969l-1.227,6.812a1.826,1.826,0,0,1-3.453.446l-1.234-2.656a4.322,4.322,0,0,0-3.906-2.492h-4.989a4.286,4.286,0,0,0-2.475.782l-3.355,2.355a1.824,1.824,0,0,1-1.471.282l-4.985-1.183a27.369,27.369,0,0,1-.325-4.213ZM155.8,171.432l.875,8.016A27.273,27.273,0,0,1,115.4,163.473l3.854.915a4.311,4.311,0,0,0,3.47-.665l3.355-2.355a1.817,1.817,0,0,1,1.049-.331h4.989a1.832,1.832,0,0,1,1.656,1.057l1.234,2.656a4.272,4.272,0,0,0,3.461,2.469,4.437,4.437,0,0,0,.458.024,4.268,4.268,0,0,0,3.437-1.728,4.328,4.328,0,0,0,.79-1.817l1.227-6.812a4.32,4.32,0,0,0-2.371-4.644l-3.367-1.621a1.834,1.834,0,0,1-1-1.3L137,145.943a1.82,1.82,0,0,1,.793-1.87l4.792-3.138a4.311,4.311,0,0,0,1.891-4.3l-1.2-7.3a27.253,27.253,0,0,1,19.55,9.864l-2.109,1.5a6.291,6.291,0,0,0-2.442,3.56l-.67,2.617a6.283,6.283,0,0,0,2.218,6.508,3.819,3.819,0,0,1,1.369,3.827l-1.354,6.038a3.8,3.8,0,0,1-1.034,1.869l-1.181,1.169a6.25,6.25,0,0,0-1.825,5.147Zm13.3-14.855a27.247,27.247,0,0,1-10.112,21.187l-.718-6.6a3.782,3.782,0,0,1,1.1-3.113l1.18-1.169a6.272,6.272,0,0,0,1.709-3.09l1.354-6.038a6.311,6.311,0,0,0-2.262-6.325,3.8,3.8,0,0,1-1.342-3.938l.67-2.617a3.8,3.8,0,0,1,1.478-2.154l2.165-1.542a27.132,27.132,0,0,1,4.774,15.4Z" transform="translate(-94.305 -103.275)" fill="#284268"/>
    </g>
  </g>
</svg>
