<svg xmlns="http://www.w3.org/2000/svg" width="90.514" height="90.514" viewBox="0 0 90.514 90.514">
  <g id="music" transform="translate(0 0)">
    <g id="Group_24574" data-name="Group 24574" transform="translate(0.002 37.705)">
      <path id="Path_49703" data-name="Path 49703" d="M200.36,248.8v28.667a6.167,6.167,0,1,1-2.652-5.063V255.891l-14.85,4.5V282.77a6.167,6.167,0,1,1-2.652-5.063V254.1a1.327,1.327,0,0,1,.942-1.27l16.224-4.918,1.278-.387a1.327,1.327,0,0,1,1.71,1.27Z" transform="translate(-140.393 -241.427)" fill="#997ab8"/>
      <path id="Path_49704" data-name="Path 49704" d="M304.365,248.8v28.667a6.164,6.164,0,0,1-7.485,6.018,6.171,6.171,0,0,0,4.833-6.018V248.8a1.324,1.324,0,0,0-.336-.882l1.278-.387a1.327,1.327,0,0,1,1.71,1.27Z" transform="translate(-244.398 -241.428)" fill="#6957a1"/>
      <g id="Group_24561" data-name="Group 24561" transform="translate(56.069 46.476)">
        <g id="Group_24560" data-name="Group 24560">
          <path id="Path_49705" data-name="Path 49705" d="M318.5,476.18a1.326,1.326,0,1,0,1.325,1.326A1.325,1.325,0,0,0,318.5,476.18Z" transform="translate(-317.171 -476.18)" fill="#f77a49"/>
        </g>
      </g>
      <g id="Group_24567" data-name="Group 24567" transform="translate(64.119)">
        <path id="Path_49706" data-name="Path 49706" d="M389.1,217.4v38.881l-3.536.948-9.659,2.589-13.2-3.537V217.4a4.117,4.117,0,0,1,4.112-4.113h18.166A4.116,4.116,0,0,1,389.1,217.4Z" transform="translate(-362.706 -213.284)" fill="#6f7f8f"/>
        <path id="Path_49707" data-name="Path 49707" d="M476.374,217.4v38.881l-3.536.948V217.4a4.112,4.112,0,0,0-4.112-4.113h3.536A4.116,4.116,0,0,1,476.374,217.4Z" transform="translate(-449.983 -213.284)" fill="#57616c"/>
        <path id="Path_49708" data-name="Path 49708" d="M389.1,456.484v8.488a1.325,1.325,0,0,1-1.326,1.326H364.032a1.327,1.327,0,0,1-1.326-1.326v-8.488Z" transform="translate(-362.706 -413.49)" fill="#a6dff5"/>
        <path id="Path_49709" data-name="Path 49709" d="M489.348,456.484v8.488a1.325,1.325,0,0,1-1.326,1.326h-3.536a1.325,1.325,0,0,0,1.326-1.326v-8.488Z" transform="translate(-462.957 -413.49)" fill="#54c9eb"/>
        <g id="Group_24566" data-name="Group 24566" transform="translate(5.409 5.295)">
          <g id="Group_24563" data-name="Group 24563" transform="translate(0)">
            <path id="Path_49710" data-name="Path 49710" d="M408.879,251.024a7.786,7.786,0,1,1-7.787-7.789A7.8,7.8,0,0,1,408.879,251.024Z" transform="translate(-393.306 -243.235)" fill="#3a4b56"/>
            <g id="Group_24562" data-name="Group 24562" transform="translate(6.02)">
              <path id="Path_49711" data-name="Path 49711" d="M436.909,251.024a7.786,7.786,0,0,1-9.553,7.585,7.789,7.789,0,0,0,0-15.171,7.786,7.786,0,0,1,9.553,7.586Z" transform="translate(-427.356 -243.235)" fill="#253235"/>
              <path id="Path_49712" data-name="Path 49712" d="M432.5,281.124a1.325,1.325,0,1,0-1.325,1.326A1.325,1.325,0,0,0,432.5,281.124Z" transform="translate(-429.412 -273.334)" fill="#253235"/>
            </g>
          </g>
          <g id="Group_24565" data-name="Group 24565" transform="translate(0 18.231)">
            <path id="Path_49713" data-name="Path 49713" d="M408.877,354.151a7.786,7.786,0,1,1-7.787-7.789A7.8,7.8,0,0,1,408.877,354.151Z" transform="translate(-393.304 -346.362)" fill="#3a4b56"/>
            <g id="Group_24564" data-name="Group 24564" transform="translate(6.02)">
              <path id="Path_49714" data-name="Path 49714" d="M436.908,354.151a7.786,7.786,0,0,1-9.553,7.585,7.789,7.789,0,0,0,0-15.171,7.786,7.786,0,0,1,9.553,7.586Z" transform="translate(-427.354 -346.362)" fill="#253235"/>
              <path id="Path_49715" data-name="Path 49715" d="M432.5,384.251a1.325,1.325,0,1,0-1.325,1.326A1.325,1.325,0,0,0,432.5,384.251Z" transform="translate(-429.41 -376.461)" fill="#253235"/>
            </g>
          </g>
        </g>
      </g>
      <g id="Group_24573" data-name="Group 24573">
        <path id="Path_49716" data-name="Path 49716" d="M26.4,217.4v38.881l-3.536.948-9.66,2.589L.01,256.278V217.4a4.117,4.117,0,0,1,4.112-4.113H22.288A4.116,4.116,0,0,1,26.4,217.4Z" transform="translate(-0.01 -213.284)" fill="#6f7f8f"/>
        <path id="Path_49717" data-name="Path 49717" d="M113.678,217.4v38.881l-3.536.948V217.4a4.112,4.112,0,0,0-4.112-4.113h3.536A4.117,4.117,0,0,1,113.678,217.4Z" transform="translate(-87.287 -213.284)" fill="#57616c"/>
        <path id="Path_49718" data-name="Path 49718" d="M26.4,456.484v8.488a1.325,1.325,0,0,1-1.326,1.326H1.337a1.327,1.327,0,0,1-1.326-1.326v-8.488Z" transform="translate(-0.011 -413.49)" fill="#a6dff5"/>
        <path id="Path_49719" data-name="Path 49719" d="M126.652,456.484v8.488a1.325,1.325,0,0,1-1.326,1.326H121.79a1.325,1.325,0,0,0,1.326-1.326v-8.488Z" transform="translate(-100.261 -413.49)" fill="#54c9eb"/>
        <g id="Group_24572" data-name="Group 24572" transform="translate(5.409 5.295)">
          <g id="Group_24569" data-name="Group 24569" transform="translate(0)">
            <path id="Path_49720" data-name="Path 49720" d="M46.183,251.024a7.786,7.786,0,1,1-7.787-7.789A7.8,7.8,0,0,1,46.183,251.024Z" transform="translate(-30.61 -243.235)" fill="#3a4b56"/>
            <g id="Group_24568" data-name="Group 24568" transform="translate(6.02)">
              <path id="Path_49721" data-name="Path 49721" d="M74.213,251.024a7.786,7.786,0,0,1-9.553,7.585,7.789,7.789,0,0,0,0-15.171,7.786,7.786,0,0,1,9.553,7.586Z" transform="translate(-64.66 -243.235)" fill="#253235"/>
              <path id="Path_49722" data-name="Path 49722" d="M69.808,281.124a1.325,1.325,0,1,0-1.325,1.326A1.325,1.325,0,0,0,69.808,281.124Z" transform="translate(-66.716 -273.334)" fill="#253235"/>
            </g>
          </g>
          <g id="Group_24571" data-name="Group 24571" transform="translate(0 18.231)">
            <path id="Path_49723" data-name="Path 49723" d="M46.182,354.151a7.786,7.786,0,1,1-7.787-7.789A7.8,7.8,0,0,1,46.182,354.151Z" transform="translate(-30.609 -346.362)" fill="#3a4b56"/>
            <g id="Group_24570" data-name="Group 24570" transform="translate(6.02)">
              <path id="Path_49724" data-name="Path 49724" d="M74.212,354.151a7.786,7.786,0,0,1-9.553,7.585,7.789,7.789,0,0,0,0-15.171,7.786,7.786,0,0,1,9.553,7.586Z" transform="translate(-64.659 -346.362)" fill="#253235"/>
              <path id="Path_49725" data-name="Path 49725" d="M69.807,384.251a1.325,1.325,0,1,0-1.325,1.326A1.325,1.325,0,0,0,69.807,384.251Z" transform="translate(-66.715 -376.461)" fill="#253235"/>
            </g>
          </g>
        </g>
      </g>
    </g>
    <g id="Group_24577" data-name="Group 24577" transform="translate(0 0)">
      <g id="Group_24575" data-name="Group 24575" transform="translate(4.946 4.159)">
        <path id="Path_49726" data-name="Path 49726" d="M229.012,41.4v14.53a1.326,1.326,0,0,1-1.994,1.146l-1.612-.942-3.774-2.205-5.387,3.148a1.325,1.325,0,0,1-1.994-1.146V41.362l11.155.027Z" transform="translate(-181.32 -38.209)" fill="#f77a49"/>
        <path id="Path_49727" data-name="Path 49727" d="M39.738,25.462V40.747A1.325,1.325,0,0,1,38.843,42a1.3,1.3,0,0,1-.431.072,1.326,1.326,0,0,1-1.047-.511l-1.207-1.551-2.836-3.645L30.068,38.65a1.327,1.327,0,0,1-2.088-1.086V23.527l8.178,1.346Z" transform="translate(-27.98 -23.527)" fill="#ffba4c"/>
        <path id="Path_49728" data-name="Path 49728" d="M130.047,40.433l-5.489,17.873a1.327,1.327,0,0,1-1.268.937h-.005a1.324,1.324,0,0,1-1.266-.946L116.53,39.911l7.906.306Z" transform="translate(-100.876 -37.015)" fill="#a6dff5"/>
      </g>
      <path id="Path_49729" data-name="Path 49729" d="M280.956,41.521v14.53a1.326,1.326,0,0,1-1.994,1.146l-1.612-.942V41.512Z" transform="translate(-228.319 -34.173)" fill="#de4f42"/>
      <path id="Path_49730" data-name="Path 49730" d="M161.527,41.858,156.038,59.73a1.327,1.327,0,0,1-1.268.937l1.146-19.026Z" transform="translate(-127.409 -34.28)" fill="#54c9eb"/>
      <path id="Path_49731" data-name="Path 49731" d="M77.82,31.728V47.014a1.325,1.325,0,0,1-.895,1.254,1.3,1.3,0,0,1-.431.072,1.326,1.326,0,0,1-1.047-.511L74.24,46.278V31.139Z" transform="translate(-61.115 -25.634)" fill="#fb963f"/>
      <g id="Group_24576" data-name="Group 24576" transform="translate(56.396 4.159)">
        <path id="Path_49732" data-name="Path 49732" d="M429.267,23.527V37.564a1.327,1.327,0,0,1-2.088,1.086L426,37.823l-2.074-1.455-4.043,5.2a1.326,1.326,0,0,1-1.047.511A1.3,1.3,0,0,1,418.4,42a1.325,1.325,0,0,1-.895-1.254V25.462l8.489-1.4Z" transform="translate(-400.096 -23.527)" fill="#ffba4c"/>
        <path id="Path_49733" data-name="Path 49733" d="M332.527,39.911,327.038,58.3a1.325,1.325,0,0,1-1.266.946h-.005a1.327,1.327,0,0,1-1.268-.937L319.01,40.433l7.794-.3Z" transform="translate(-319.01 -37.015)" fill="#a6dff5"/>
      </g>
      <path id="Path_49734" data-name="Path 49734" d="M468.8,23.527V37.564a1.327,1.327,0,0,1-2.088,1.086l-1.181-.828V24.065Z" transform="translate(-383.231 -19.368)" fill="#fb963f"/>
      <path id="Path_49735" data-name="Path 49735" d="M363.99,39.911,358.5,58.3a1.325,1.325,0,0,1-1.266.946h-.005l1.038-19.111Z" transform="translate(-294.077 -32.855)" fill="#54c9eb"/>
      <path id="Path_49736" data-name="Path 49736" d="M90.5,1.493a1.326,1.326,0,1,0-2.631-.333c0,.014-.366,1.456-7.011,2.743C73.6,5.308,61.624,6.02,45.257,6.02S16.91,5.308,9.652,3.9C3.007,2.616,2.643,1.174,2.641,1.16a1.326,1.326,0,1,0-2.631.333c.39,3.082,5.5,7.18,45.246,7.18s44.856-4.1,45.246-7.18" transform="translate(0 0)" fill="#98654c"/>
    </g>
    <g id="Group_24579" data-name="Group 24579" transform="translate(3.27 22.838)">
      <path id="Path_49737" data-name="Path 49737" d="M446.673,145.606l-2.175-4.546a1.326,1.326,0,1,0-2.392,1.145l2.175,4.545a1.326,1.326,0,1,0,2.392-1.145Z" transform="translate(-367.112 -138.341)" fill="#a6dff5"/>
      <path id="Path_49738" data-name="Path 49738" d="M252.112,166.764l-4.361-2.52a1.326,1.326,0,0,0-1.326,2.3l4.361,2.52a1.326,1.326,0,0,0,1.326-2.3Z" transform="translate(-205.585 -157.9)" fill="#ffc54b"/>
      <path id="Path_49739" data-name="Path 49739" d="M23.243,129.4a1.325,1.325,0,0,0-1.83.406l-2.706,4.25a1.326,1.326,0,1,0,2.237,1.425l2.706-4.25A1.326,1.326,0,0,0,23.243,129.4Z" transform="translate(-18.499 -129.189)" fill="#ffc54b"/>
      <path id="Path_49740" data-name="Path 49740" d="M187.594,207.026a1.326,1.326,0,0,0-1.859.242l-2.293,2.98a1.326,1.326,0,1,0,2.1,1.618l2.293-2.98A1.327,1.327,0,0,0,187.594,207.026Z" transform="translate(-154.056 -193.039)" fill="#a6dff5"/>
      <g id="Group_24578" data-name="Group 24578" transform="translate(15.247 4.409)">
        <path id="Path_49741" data-name="Path 49741" d="M106.073,154.126a1.326,1.326,0,1,0,1.325,1.326A1.325,1.325,0,0,0,106.073,154.126Z" transform="translate(-104.748 -154.126)" fill="#f77a49"/>
        <path id="Path_49742" data-name="Path 49742" d="M249.833,227.317a1.326,1.326,0,1,0,1.325,1.326A1.325,1.325,0,0,0,249.833,227.317Z" transform="translate(-223.093 -214.378)" fill="#f77a49"/>
        <path id="Path_49743" data-name="Path 49743" d="M369.056,169.174a1.326,1.326,0,1,0,1.325,1.326A1.325,1.325,0,0,0,369.056,169.174Z" transform="translate(-321.24 -166.514)" fill="#f77a49"/>
      </g>
    </g>
  </g>
</svg>
