<svg xmlns="http://www.w3.org/2000/svg" xmlns:xlink="http://www.w3.org/1999/xlink" width="76.574" height="92.594" viewBox="0 0 76.574 92.594">
  <defs>
    <radialGradient id="radial-gradient" cx="0.333" cy="0.26" r="0.66" gradientTransform="translate(-0.099) scale(1.198 1)" gradientUnits="objectBoundingBox">
      <stop offset="0" stop-color="#ffda45"/>
      <stop offset="0.304" stop-color="#ffce3e"/>
      <stop offset="0.856" stop-color="#ffae2b"/>
      <stop offset="1" stop-color="#ffa425"/>
    </radialGradient>
    <linearGradient id="linear-gradient" x1="0.56" y1="0.56" x2="0.018" y2="0.018" gradientUnits="objectBoundingBox">
      <stop offset="0" stop-color="#ffda45" stop-opacity="0"/>
      <stop offset="1" stop-color="#fcee21"/>
    </linearGradient>
    <linearGradient id="linear-gradient-2" x1="0.554" y1="0.897" x2="0.405" y2="-0.195" gradientUnits="objectBoundingBox">
      <stop offset="0" stop-color="#ffda45" stop-opacity="0"/>
      <stop offset="1" stop-color="#fff"/>
    </linearGradient>
    <linearGradient id="linear-gradient-3" x1="0.49" y1="0.674" x2="1.216" y2="-0.675" gradientUnits="objectBoundingBox">
      <stop offset="0" stop-color="#ffda45" stop-opacity="0"/>
      <stop offset="1" stop-color="#b53759"/>
    </linearGradient>
    <radialGradient id="radial-gradient-2" cx="0.5" cy="0.5" r="0.5" gradientUnits="objectBoundingBox">
      <stop offset="0" stop-color="#fcee21" stop-opacity="0.6"/>
      <stop offset="0.326" stop-color="#fdea28" stop-opacity="0.404"/>
      <stop offset="0.786" stop-color="#fee03a" stop-opacity="0.129"/>
      <stop offset="1" stop-color="#ffda45" stop-opacity="0"/>
    </radialGradient>
    <linearGradient id="linear-gradient-4" y1="0.5" x2="1" y2="0.5" gradientUnits="objectBoundingBox">
      <stop offset="0" stop-color="#7e8595"/>
      <stop offset="1" stop-color="#555a66"/>
    </linearGradient>
    <linearGradient id="linear-gradient-5" x1="0.499" y1="0.934" x2="0.501" y2="-0.253" gradientUnits="objectBoundingBox">
      <stop offset="0" stop-color="#555a66" stop-opacity="0"/>
      <stop offset="1" stop-color="#555a66"/>
    </linearGradient>
    <linearGradient id="linear-gradient-7" x1="0.498" y1="0.934" x2="0.5" y2="-0.251" xlink:href="#linear-gradient-5"/>
    <linearGradient id="linear-gradient-8" x1="0.5" y1="0.363" x2="0.5" y2="-0.156" xlink:href="#linear-gradient"/>
    <linearGradient id="linear-gradient-9" x1="0.5" y1="0.468" x2="0.5" y2="1.086" xlink:href="#linear-gradient-3"/>
    <linearGradient id="linear-gradient-10" x1="0.498" y1="0.145" x2="0.503" y2="1.019" gradientUnits="objectBoundingBox">
      <stop offset="0" stop-color="#f9f7fc"/>
      <stop offset="1" stop-color="#f0ddfc"/>
    </linearGradient>
    <linearGradient id="linear-gradient-11" x1="0.498" y1="0.145" x2="0.503" y2="1.019" xlink:href="#linear-gradient-4"/>
    <linearGradient id="linear-gradient-12" x1="0.498" y1="0.145" x2="0.503" y2="1.019" xlink:href="#linear-gradient-4"/>
    <linearGradient id="linear-gradient-13" x1="0.493" y1="0.141" x2="0.533" y2="1.894" xlink:href="#linear-gradient-10"/>
    <linearGradient id="linear-gradient-14" x1="0.5" y1="0.384" x2="0.5" y2="1.412" gradientUnits="objectBoundingBox">
      <stop offset="0" stop-color="#92f37f"/>
      <stop offset="1" stop-color="#4ab272"/>
    </linearGradient>
    <linearGradient id="linear-gradient-16" x1="-7.022" y1="4.128" x2="-7.022" y2="4.633" xlink:href="#linear-gradient-14"/>
    <linearGradient id="linear-gradient-17" x1="-0.303" y1="3.962" x2="-0.303" y2="4.555" xlink:href="#linear-gradient-14"/>
    <linearGradient id="linear-gradient-18" x1="-8.014" y1="3.962" x2="-8.014" y2="4.555" xlink:href="#linear-gradient-14"/>
  </defs>
  <g id="idea" transform="translate(-44.119)">
    <path id="Path_49024" data-name="Path 49024" d="M154.447,80.026a28.664,28.664,0,1,0-49.2,20,25.549,25.549,0,0,1,7.3,17.817v2.194h26.462v-2.194a25.352,25.352,0,0,1,7.239-17.751A28.567,28.567,0,0,0,154.447,80.026Z" transform="translate(-43.377 -42.037)" fill="url(#radial-gradient)"/>
    <circle id="Ellipse_123" data-name="Ellipse 123" cx="26.815" cy="26.815" r="26.815" transform="translate(55.591 11.175)" fill="url(#linear-gradient)"/>
    <ellipse id="Ellipse_124" data-name="Ellipse 124" cx="17.393" cy="10.11" rx="17.393" ry="10.11" transform="translate(65.013 11.872)" fill="url(#linear-gradient-2)"/>
    <path id="Path_49025" data-name="Path 49025" d="M152.233,68.013a28.672,28.672,0,0,1-38.464,38.464,28.667,28.667,0,1,0,38.464-38.464Z" transform="translate(-57.005 -55.665)" fill="url(#linear-gradient-3)"/>
    <circle id="Ellipse_125" data-name="Ellipse 125" cx="17.393" cy="17.393" r="17.393" transform="translate(65.013 36.037)" fill="url(#radial-gradient-2)"/>
    <path id="Path_49026" data-name="Path 49026" d="M205.745,412.4a24.185,24.185,0,0,1-20.871,0,4.935,4.935,0,0,1-2.806-4.452V393.647H208.55v14.305A4.935,4.935,0,0,1,205.745,412.4Z" transform="translate(-112.903 -322.178)" fill="url(#linear-gradient-4)"/>
    <path id="Path_49027" data-name="Path 49027" d="M182.068,410.516l2.626,2.626h23.857v-2.648H182.068Z" transform="translate(-112.903 -335.966)" fill="url(#linear-gradient-5)"/>
    <path id="Path_49028" data-name="Path 49028" d="M182.068,446.457l2.626,2.626h23.857v-2.648H182.068Z" transform="translate(-112.903 -365.382)" fill="url(#linear-gradient-5)"/>
    <path id="Path_49029" data-name="Path 49029" d="M183.37,480.7q.067.209.151.41l2.238,2.238h21.591a4.932,4.932,0,0,0,2.029-2.648Z" transform="translate(-113.969 -393.428)" fill="url(#linear-gradient-7)"/>
    <path id="Path_49030" data-name="Path 49030" d="M211.408,294.292h-.538A3.869,3.869,0,0,0,207,298.157V299.4h-6.114v-1.245a3.869,3.869,0,0,0-3.865-3.865h-.538a3.865,3.865,0,1,0,0,7.73h1.783v10h2.62v-10H207v10h2.62v-10h1.783a3.865,3.865,0,0,0,0-7.73Zm-13.137,5.11h-1.783a1.245,1.245,0,0,1,0-2.49h.538a1.246,1.246,0,0,1,1.245,1.245Zm13.137,0h-1.783v-1.245a1.246,1.246,0,0,1,1.245-1.245h.538a1.245,1.245,0,0,1,0,2.49Z" transform="translate(-121.542 -240.861)" fill="url(#linear-gradient-8)"/>
    <path id="Path_49031" data-name="Path 49031" d="M211.408,294.292h-.538A3.869,3.869,0,0,0,207,298.157V299.4h-6.114v-1.245a3.869,3.869,0,0,0-3.865-3.865h-.538a3.865,3.865,0,1,0,0,7.73h1.783v10h2.62v-10H207v10h2.62v-10h1.783a3.865,3.865,0,0,0,0-7.73Zm-13.137,5.11h-1.783a1.245,1.245,0,0,1,0-2.49h.538a1.246,1.246,0,0,1,1.245,1.245Zm13.137,0h-1.783v-1.245a1.246,1.246,0,0,1,1.245-1.245h.538a1.245,1.245,0,0,1,0,2.49Z" transform="translate(-121.542 -240.861)" fill="url(#linear-gradient-9)"/>
    <path id="Path_49032" data-name="Path 49032" d="M200.85,390.714H175.814a2.271,2.271,0,1,1,0-4.541H200.85a2.271,2.271,0,1,1,0,4.541Z" transform="translate(-105.926 -316.061)" fill="url(#linear-gradient-10)"/>
    <path id="Path_49033" data-name="Path 49033" d="M200.85,426.682H175.814a2.271,2.271,0,1,1,0-4.541H200.85a2.271,2.271,0,0,1,0,4.541Z" transform="translate(-105.926 -345.499)" fill="url(#linear-gradient-11)"/>
    <path id="Path_49034" data-name="Path 49034" d="M200.85,462.649H175.814a2.271,2.271,0,1,1,0-4.541H200.85a2.271,2.271,0,1,1,0,4.541Z" transform="translate(-105.926 -374.936)" fill="url(#linear-gradient-12)"/>
    <path id="Path_49035" data-name="Path 49035" d="M224.755,495.376a29.21,29.21,0,0,0-17.243,0,24.186,24.186,0,0,0,17.243,0Z" transform="translate(-133.728 -404.373)" fill="url(#linear-gradient-13)"/>
    <path id="Path_49036" data-name="Path 49036" d="M49.745,204.479h-3.8a1.825,1.825,0,1,1,0-3.651h3.8a1.825,1.825,0,1,1,0,3.651Z" transform="translate(0 -164.366)" fill="url(#linear-gradient-14)"/>
    <path id="Path_49037" data-name="Path 49037" d="M430.465,204.479h-3.8a1.825,1.825,0,0,1,0-3.651h3.8a1.825,1.825,0,0,1,0,3.651Z" transform="translate(-311.598 -164.366)" fill="url(#linear-gradient-14)"/>
    <path id="Path_49038" data-name="Path 49038" d="M248.6,5.626v-3.8a1.825,1.825,0,0,0-3.651,0v3.8a1.825,1.825,0,0,0,3.651,0Z" transform="translate(-164.366)" fill="url(#linear-gradient-16)"/>
    <path id="Path_49039" data-name="Path 49039" d="M106.162,64.624l-2.688-2.688a1.825,1.825,0,0,1,2.582-2.582l2.688,2.688a1.825,1.825,0,0,1-2.582,2.582Z" transform="translate(-48.141 -48.141)" fill="url(#linear-gradient-17)"/>
    <path id="Path_49040" data-name="Path 49040" d="M375.266,64.624l2.688-2.688a1.825,1.825,0,1,0-2.581-2.582l-2.688,2.688a1.825,1.825,0,0,0,2.582,2.582Z" transform="translate(-268.474 -48.141)" fill="url(#linear-gradient-18)"/>
  </g>
</svg>
