<svg xmlns="http://www.w3.org/2000/svg" width="30" height="30" viewBox="0 0 30 30">
  <path id="Path_49497" data-name="Path 49497" d="M25.955,0H4.045A4.04,4.04,0,0,0,0,4.046V25.963A4.038,4.038,0,0,0,4.045,30h10.8l.018-10.725H12.079a.668.668,0,0,1-.66-.651l-.009-3.459a.658.658,0,0,1,.66-.661h2.779V11.165c0-3.872,2.366-5.982,5.824-5.982h2.834a.658.658,0,0,1,.66.661V8.761a.658.658,0,0,1-.66.661H21.764c-1.88,0-2.247.89-2.247,2.2v2.89h4.127a.654.654,0,0,1,.651.734l-.413,3.459a.655.655,0,0,1-.651.578H19.526V30h6.429A4.046,4.046,0,0,0,30,25.954V4.046A4.052,4.052,0,0,0,25.955,0Zm0,0" fill="#475993"/>
</svg>
