<svg xmlns="http://www.w3.org/2000/svg" width="26.419" height="22.713" viewBox="0 0 26.419 22.713">
  <path id="path" d="M260.915,1221.554l1.554-1.554,21.159,21.159-1.554,1.554-1.793-1.793c-1.076-1.076-1.793-1.674-2.271-2.271a12.509,12.509,0,0,1-5.26.956,13.557,13.557,0,0,1-8.009-2.51,14.277,14.277,0,0,1-5.14-6.455,14.542,14.542,0,0,1,4.543-5.977l-1.913-1.913C261.393,1221.913,261.034,1221.673,260.915,1221.554Zm6.694,6.575a5.819,5.819,0,0,0-.717,2.63,5.427,5.427,0,0,0,1.793,4.184,6.322,6.322,0,0,0,4.184,1.793,5.449,5.449,0,0,0,2.63-.717l-1.793-1.793a2.037,2.037,0,0,1-.837.119,3.677,3.677,0,0,1-3.586-3.586,6.74,6.74,0,0,1,.12-.837Zm5.26-3.347a4.688,4.688,0,0,0-2.152.478l-2.63-2.63a12.179,12.179,0,0,1,4.782-.837,13.557,13.557,0,0,1,8.009,2.51,14.276,14.276,0,0,1,5.14,6.455,15.778,15.778,0,0,1-4.064,5.618l-3.467-3.467a6.979,6.979,0,0,0,.478-2.152,5.426,5.426,0,0,0-1.793-4.184A6.376,6.376,0,0,0,272.869,1224.781Zm-.12,2.391h.12a3.677,3.677,0,0,1,3.586,3.586V1231Z" transform="translate(-259.6 -1220)" fill="#1fae93"/>
</svg>
