<svg xmlns="http://www.w3.org/2000/svg" width="101.497" height="101.779" viewBox="0 0 101.497 101.779">
  <g id="food" transform="translate(-0.71 0)">
    <circle id="Ellipse_174" data-name="Ellipse 174" cx="50.748" cy="50.748" r="50.748" transform="translate(0.71 0.027)" fill="#cdd6e0"/>
    <circle id="Ellipse_175" data-name="Ellipse 175" cx="36.581" cy="36.581" r="36.581" transform="translate(14.877 14.194)" fill="#acb3ba"/>
    <path id="Path_49555" data-name="Path 49555" d="M164.972.027a1.851,1.851,0,0,0-1.692,1.9V21.172a1.9,1.9,0,0,1-3.806,0V1.93a1.727,1.727,0,0,0-1.692-1.9,1.944,1.944,0,0,0-2.115,1.9V21.172a1.9,1.9,0,0,1-1.9,1.9h0a1.9,1.9,0,0,1-1.9-1.9V1.93a1.727,1.727,0,0,0-1.692-1.9,1.944,1.944,0,0,0-2.115,1.9V21.172a1.9,1.9,0,0,1-1.9,1.9h0a1.9,1.9,0,0,1-1.9-1.9V1.93a1.727,1.727,0,0,0-1.692-1.9,1.944,1.944,0,0,0-2.115,1.9V23.286a13.671,13.671,0,0,0,3.806,9.3,18.476,18.476,0,0,1,5.5,14.379l-4.229,45.674v1.48a8.136,8.136,0,0,0,9.515,7.189,8.36,8.36,0,0,0,6.555-9.092l-4.018-45.462a18.2,18.2,0,0,1,5.5-14.379,13.28,13.28,0,0,0,3.806-9.3V1.93A1.9,1.9,0,0,0,164.972.027Z" transform="translate(-112.034)" fill="#f2f2f2"/>
    <path id="Path_49556" data-name="Path 49556" d="M179.163,240.137h-8.035l-4.018,45.039v1.48a8.136,8.136,0,0,0,9.515,7.189,8.359,8.359,0,0,0,6.555-9.092Z" transform="translate(-133.413 -192.533)" fill="#40596b"/>
    <path id="Path_49557" data-name="Path 49557" d="M301.934.137s-9.092,3.595-12.9,30.872c-1.48,11.207.846,22.2,5.075,32.564a9.878,9.878,0,0,1,.634,3.595l-2.537,27.277v1.269a6.687,6.687,0,0,0,7.4,5.921c3.383-.423,5.709-4.018,5.5-7.4Z" transform="translate(-230.811 -0.11)" fill="#f2f2f2"/>
    <path id="Path_49558" data-name="Path 49558" d="M309.381,337.2v.423L306.844,364.9v1.269a6.686,6.686,0,0,0,7.4,5.921c3.383-.423,5.709-4.018,5.5-7.4l-.846-27.277h-9.515V337.2Z" transform="translate(-245.447 -270.358)" fill="#ff7058"/>
  </g>
</svg>
