<svg id="recruitment" xmlns="http://www.w3.org/2000/svg" width="99.033" height="99.033" viewBox="0 0 99.033 99.033">
  <path id="Path_49903" data-name="Path 49903" d="M371.981,423.277H344.9a2.9,2.9,0,0,1-2.9-2.9v-1.934a16.441,16.441,0,1,1,32.882,0v1.934A2.9,2.9,0,0,1,371.981,423.277Z" transform="translate(-275.849 -324.243)" fill="#fff064"/>
  <path id="Path_49904" data-name="Path 49904" d="M440.54,423.277a2.9,2.9,0,0,0,2.9-2.9v-1.934A16.46,16.46,0,0,0,427,402v21.277Z" transform="translate(-344.408 -324.243)" fill="#ffdc1e"/>
  <path id="Path_49905" data-name="Path 49905" d="M378.605,335.211a11.605,11.605,0,1,1,11.605-11.605A11.619,11.619,0,0,1,378.605,335.211Z" transform="translate(-296.013 -251.652)" fill="#ffd0af"/>
  <path id="Path_49906" data-name="Path 49906" d="M427,312v23.211A11.605,11.605,0,1,0,427,312Z" transform="translate(-344.408 -251.652)" fill="#fabe8c"/>
  <path id="Path_49907" data-name="Path 49907" d="M29.981,111.277H2.9a2.9,2.9,0,0,1-2.9-2.9v-1.934a16.441,16.441,0,0,1,32.882,0v1.934A2.9,2.9,0,0,1,29.981,111.277Z" transform="translate(0 -72.592)" fill="#00afff"/>
  <path id="Path_49908" data-name="Path 49908" d="M98.54,111.277a2.9,2.9,0,0,0,2.9-2.9v-1.934A16.46,16.46,0,0,0,85,90v21.277Z" transform="translate(-68.559 -72.592)" fill="#008cfa"/>
  <path id="Path_49909" data-name="Path 49909" d="M36.605,23.211A11.605,11.605,0,1,1,48.211,11.605,11.619,11.619,0,0,1,36.605,23.211Z" transform="translate(-20.164)" fill="#ffd0af"/>
  <path id="Path_49910" data-name="Path 49910" d="M85,0V23.211A11.605,11.605,0,0,0,85,0Z" transform="translate(-68.559)" fill="#fabe8c"/>
  <path id="Path_49911" data-name="Path 49911" d="M371.981,111.277H344.9a2.9,2.9,0,0,1-2.9-2.9v-1.934a16.441,16.441,0,0,1,32.882,0v1.934A2.9,2.9,0,0,1,371.981,111.277Z" transform="translate(-275.849 -72.592)" fill="#64e6e6"/>
  <path id="Path_49912" data-name="Path 49912" d="M440.54,111.277a2.9,2.9,0,0,0,2.9-2.9v-1.934A16.46,16.46,0,0,0,427,90v21.277Z" transform="translate(-344.408 -72.592)" fill="#00cdcd"/>
  <path id="Path_49913" data-name="Path 49913" d="M378.605,23.211a11.605,11.605,0,1,1,11.605-11.605A11.619,11.619,0,0,1,378.605,23.211Z" transform="translate(-296.013)" fill="#ffd0af"/>
  <path id="Path_49914" data-name="Path 49914" d="M427,0V23.211A11.605,11.605,0,1,0,427,0Z" transform="translate(-344.408)" fill="#fabe8c"/>
  <path id="Path_49915" data-name="Path 49915" d="M42.555,301.554c-.009.011.012-.008,0,0l-31,31a6.77,6.77,0,0,1-9.574-9.574l31-31Z" transform="translate(0 -235.506)" fill="#c8e1f5"/>
  <path id="Path_49916" data-name="Path 49916" d="M19.825,352.518l31-31c.01-.01-.011.009,0,0l-4.785-4.785L10.251,352.518a6.77,6.77,0,0,0,9.574,0Z" transform="translate(-8.268 -255.468)" fill="#aacde6"/>
  <circle id="Ellipse_207" data-name="Ellipse 207" cx="23" cy="23" r="23" transform="translate(25.822 27)" fill="#e1f5ff"/>
  <path id="Path_49917" data-name="Path 49917" d="M171.147,203.972a23.211,23.211,0,0,0,32.825-32.825Z" transform="translate(-138.043 -138.043)" fill="#c8e1f5"/>
  <path id="Path_49918" data-name="Path 49918" d="M188.569,292.116a23.133,23.133,0,0,0,16.171-6.563A16.43,16.43,0,0,0,188.57,272h0A16.43,16.43,0,0,0,172.4,285.554a23.132,23.132,0,0,0,16.171,6.562Z" transform="translate(-139.052 -219.389)" fill="#ff823c"/>
  <path id="Path_49919" data-name="Path 49919" d="M172.4,285.554a23.205,23.205,0,0,0,32.342,0A16.43,16.43,0,0,0,188.57,272h0a16.529,16.529,0,0,0-3.465.37l-12.586,12.586c-.043.2-.084.4-.12.6Z" transform="translate(-139.052 -219.389)" fill="#f06923"/>
  <path id="Path_49920" data-name="Path 49920" d="M121,147.112a26.112,26.112,0,1,1,26.112,26.112A26.142,26.142,0,0,1,121,147.112Zm5.8,0a20.31,20.31,0,1,0,20.31-20.31A20.333,20.333,0,0,0,126.8,147.112Z" transform="translate(-97.596 -97.596)" fill="#556e87"/>
  <path id="Path_49921" data-name="Path 49921" d="M193.4,164.686a20.3,20.3,0,1,1-28.708,28.708l-4.1,4.1A26.1,26.1,0,1,0,197.5,160.585Z" transform="translate(-129.525 -129.524)" fill="#435569"/>
  <path id="Path_49922" data-name="Path 49922" d="M199.422,185.422a11.605,11.605,0,1,1,0,16.413A11.619,11.619,0,0,1,199.422,185.422Z" transform="translate(-158.112 -146.82)" fill="#ffd0af"/>
  <path id="Path_49923" data-name="Path 49923" d="M221.161,223.347a11.6,11.6,0,0,0,16.185-16.185Z" transform="translate(-178.383 -167.092)" fill="#fabe8c"/>
</svg>
