<svg xmlns="http://www.w3.org/2000/svg" xmlns:xlink="http://www.w3.org/1999/xlink" width="102.088" height="109.227" viewBox="0 0 102.088 109.227">
  <defs>
    <linearGradient id="linear-gradient" x1="0.308" y1="0.308" x2="0.828" y2="0.828" gradientUnits="objectBoundingBox">
      <stop offset="0" stop-color="#7faef4"/>
      <stop offset="1" stop-color="#4c8df1"/>
    </linearGradient>
    <linearGradient id="linear-gradient-2" x1="0.821" y1="0.821" x2="0.126" y2="0.126" xlink:href="#linear-gradient"/>
    <linearGradient id="linear-gradient-3" x1="0.428" y1="0.45" x2="-0.035" y2="0.205" gradientUnits="objectBoundingBox">
      <stop offset="0" stop-color="#4c8df1" stop-opacity="0"/>
      <stop offset="0.563" stop-color="#466cc8" stop-opacity="0.565"/>
      <stop offset="1" stop-color="#4256ac"/>
    </linearGradient>
    <linearGradient id="linear-gradient-4" x1="0.608" y1="0.634" x2="-0.093" y2="0.449" xlink:href="#linear-gradient-3"/>
    <linearGradient id="linear-gradient-5" x1="0.464" y1="0.418" x2="1.086" y2="0.86" gradientUnits="objectBoundingBox">
      <stop offset="0" stop-color="#ffd833"/>
      <stop offset="1" stop-color="#f2b631"/>
    </linearGradient>
    <linearGradient id="linear-gradient-6" x1="0.801" y1="0.671" x2="0.39" y2="-0.096" gradientUnits="objectBoundingBox">
      <stop offset="0" stop-color="#f9a126" stop-opacity="0"/>
      <stop offset="1" stop-color="#ec4437"/>
    </linearGradient>
    <linearGradient id="linear-gradient-7" x1="0.317" y1="0.252" x2="0.97" y2="0.967" xlink:href="#linear-gradient-5"/>
    <linearGradient id="linear-gradient-8" x1="0.875" y1="0.78" x2="-0.125" y2="-0.215" xlink:href="#linear-gradient-5"/>
  </defs>
  <g id="google" transform="translate(-16.666 0)">
    <path id="Path_49017" data-name="Path 49017" d="M118.754,60.2V41.884a4.682,4.682,0,0,0-4.682-4.682h-1.446a4.705,4.705,0,0,1-4.34-2.927l-.024-.058a4.707,4.707,0,0,1,1-5.145l1.022-1.022a4.682,4.682,0,0,0,0-6.622L97.327,8.474a4.682,4.682,0,0,0-6.622,0L89.682,9.5a4.707,4.707,0,0,1-5.145,1l-.058-.024a4.705,4.705,0,0,1-2.927-4.34V4.683A4.683,4.683,0,0,0,76.869,0H58.55a4.682,4.682,0,0,0-4.682,4.682V6.128a4.705,4.705,0,0,1-2.927,4.34l-.058.024a4.707,4.707,0,0,1-5.145-1L44.715,8.473a4.682,4.682,0,0,0-6.622,0L25.139,21.427a4.682,4.682,0,0,0,0,6.622l1.022,1.022a4.707,4.707,0,0,1,1,5.145l-.024.058a4.705,4.705,0,0,1-4.34,2.927H21.348a4.682,4.682,0,0,0-4.682,4.682V60.2a4.682,4.682,0,0,0,4.682,4.682h1.446a4.705,4.705,0,0,1,4.34,2.927l.024.058a4.707,4.707,0,0,1-1,5.145l-1.022,1.022a4.682,4.682,0,0,0,0,6.622L38.093,93.614a4.682,4.682,0,0,0,6.622,0l1.022-1.022a4.707,4.707,0,0,1,5.145-1l.058.024a4.705,4.705,0,0,1,2.927,4.34v1.446a4.682,4.682,0,0,0,4.682,4.682H76.869a4.682,4.682,0,0,0,4.682-4.682V95.959a4.705,4.705,0,0,1,2.927-4.34l.058-.024a4.707,4.707,0,0,1,5.145,1L90.7,93.614a4.682,4.682,0,0,0,6.622,0L110.28,80.66a4.682,4.682,0,0,0,0-6.622l-1.022-1.022a4.707,4.707,0,0,1-1-5.145l.024-.058a4.705,4.705,0,0,1,4.34-2.927h1.446a4.682,4.682,0,0,0,4.683-4.682Z" transform="translate(0 0)" fill="url(#linear-gradient)"/>
    <circle id="Ellipse_122" data-name="Ellipse 122" cx="35.537" cy="35.537" r="35.537" transform="translate(32.172 15.507)" fill="url(#linear-gradient-2)"/>
    <path id="Path_49018" data-name="Path 49018" d="M200.248,159.119a4.682,4.682,0,0,1-4.657,4.2h-1.446a4.7,4.7,0,0,0-4.34,2.927c-.009.021-.016.039-.025.059a4.71,4.71,0,0,0,1,5.145l1.024,1.022a4.683,4.683,0,0,1,0,6.621l-12.955,12.953a4.68,4.68,0,0,1-6.621,0l-1.022-1.022a4.71,4.71,0,0,0-5.145-1l-.059.025a4.7,4.7,0,0,0-2.925,4.34v1.447a4.682,4.682,0,0,1-4.228,4.659l-29.527-29.541c-5.752-5.332-8.9-12.951-8.914-21.427a28.01,28.01,0,0,1,11.805-23.428c.922-.659,2.092-.862,2.724-.1.21.256,25.425,25.427,25.71,25.7a6.573,6.573,0,0,0,2.43-5.1v-19.33a2,2,0,0,1,3.162-1.638,29.526,29.526,0,0,1,4.513,3.984Z" transform="translate(-81.52 -98.437)" fill="url(#linear-gradient-3)"/>
    <path id="Path_49019" data-name="Path 49019" d="M339.991,181.363l-1.022-1.022a4.707,4.707,0,0,1-1-5.145l.024-.058a4.705,4.705,0,0,1,4.34-2.927h1.446a4.683,4.683,0,0,0,4.658-4.2l-29.5-29.5q-.938-1.016-1.967-1.935a29.288,29.288,0,0,1-7.99,45.323v26.846a4.675,4.675,0,0,0,2.281-4.014v-1.446a4.705,4.705,0,0,1,2.927-4.34l.058-.024a4.707,4.707,0,0,1,5.145,1l1.022,1.022a4.682,4.682,0,0,0,6.622,0l12.954-12.954A4.682,4.682,0,0,0,339.991,181.363Z" transform="translate(-229.711 -107.325)" fill="url(#linear-gradient-4)"/>
    <path id="Path_49020" data-name="Path 49020" d="M216.3,358.654a60.045,60.045,0,0,0,.936-10.561V323.918H188.948v24.176a60.046,60.046,0,0,0,.936,10.561,6.28,6.28,0,0,0,6.222,5.116h13.975A6.28,6.28,0,0,0,216.3,358.654Z" transform="translate(-135.384 -254.545)" fill="url(#linear-gradient-5)"/>
    <path id="Path_49021" data-name="Path 49021" d="M188.948,331.408l27.425,26.835a60.03,60.03,0,0,0,.867-10.149V323.918H188.948Z" transform="translate(-135.384 -254.545)" fill="url(#linear-gradient-6)"/>
    <path id="Path_49022" data-name="Path 49022" d="M176.839,149.482a29.283,29.283,0,1,1-46.3-23.831,2.007,2.007,0,0,1,3.178,1.628v19.328a6.58,6.58,0,0,0,3.29,5.7l7.263,4.194a6.579,6.579,0,0,0,6.58,0l7.263-4.194a6.58,6.58,0,0,0,3.29-5.7V127.279a2,2,0,0,1,3.163-1.638A29.244,29.244,0,0,1,176.839,149.482Z" transform="translate(-79.846 -98.438)" fill="url(#linear-gradient-7)"/>
    <path id="Path_49023" data-name="Path 49023" d="M153.814,151.949a10.3,10.3,0,0,0,5.15,8.92l11.37,6.565a10.3,10.3,0,0,0,10.3,0l11.37-6.565a10.3,10.3,0,0,0,5.15-8.92V129.792a29.424,29.424,0,0,0-4.665-4.151,2,2,0,0,0-3.163,1.638v19.329a6.58,6.58,0,0,1-3.29,5.7l-7.263,4.194a6.579,6.579,0,0,1-6.58,0l-7.263-4.194a6.58,6.58,0,0,1-3.29-5.7V127.28a2.007,2.007,0,0,0-3.178-1.628,29.447,29.447,0,0,0-4.65,4.139v22.158Z" transform="translate(-107.775 -98.439)" fill="url(#linear-gradient-8)"/>
  </g>
</svg>
