<svg id="youtube" xmlns="http://www.w3.org/2000/svg" xmlns:xlink="http://www.w3.org/1999/xlink" width="86.514" height="86.514" viewBox="0 0 86.514 86.514">
  <defs>
    <linearGradient id="linear-gradient" x1="0.076" y1="0.076" x2="0.866" y2="0.866" gradientUnits="objectBoundingBox">
      <stop offset="0" stop-color="#dc4955"/>
      <stop offset="1" stop-color="#c4237c"/>
    </linearGradient>
    <linearGradient id="linear-gradient-2" x1="0.5" y1="0.135" x2="0.5" y2="0.91" gradientUnits="objectBoundingBox">
      <stop offset="0" stop-color="#8a1958" stop-opacity="0"/>
      <stop offset="1" stop-color="#8a1958"/>
    </linearGradient>
    <linearGradient id="linear-gradient-3" x1="0.5" y1="0.935" x2="0.5" y2="0.106" xlink:href="#linear-gradient"/>
    <linearGradient id="linear-gradient-4" x1="0.829" y1="0.886" x2="0.338" y2="0.467" xlink:href="#linear-gradient-2"/>
    <linearGradient id="linear-gradient-5" x1="0.153" y1="0.329" x2="0.629" y2="0.767" gradientUnits="objectBoundingBox">
      <stop offset="0" stop-color="#eef4ff"/>
      <stop offset="1" stop-color="#cfe7fd"/>
    </linearGradient>
    <linearGradient id="linear-gradient-6" x1="0.505" y1="0.656" x2="0.602" y2="0.822" gradientUnits="objectBoundingBox">
      <stop offset="0" stop-color="#8aaadc" stop-opacity="0"/>
      <stop offset="1" stop-color="#8aaadc"/>
    </linearGradient>
  </defs>
  <path id="Path_49608" data-name="Path 49608" d="M68.432,0H18.081A18.081,18.081,0,0,0,0,18.081V68.432A18.081,18.081,0,0,0,18.081,86.514H68.432A18.081,18.081,0,0,0,86.514,68.432V18.081A18.081,18.081,0,0,0,68.432,0Zm-53.5,80.09a1.166,1.166,0,0,1-1.165,1.165H9.138A1.166,1.166,0,0,1,7.973,80.09V75.465A1.166,1.166,0,0,1,9.138,74.3h4.624a1.166,1.166,0,0,1,1.165,1.165Zm0-69.041a1.166,1.166,0,0,1-1.165,1.165H9.138a1.166,1.166,0,0,1-1.165-1.165V6.424A1.166,1.166,0,0,1,9.138,5.259h4.624a1.166,1.166,0,0,1,1.165,1.165ZM27.65,80.09a1.166,1.166,0,0,1-1.165,1.165H21.861A1.166,1.166,0,0,1,20.7,80.09V75.465A1.166,1.166,0,0,1,21.861,74.3h4.624a1.166,1.166,0,0,1,1.165,1.165Zm0-69.041a1.166,1.166,0,0,1-1.165,1.165H21.861A1.166,1.166,0,0,1,20.7,11.048V6.424a1.166,1.166,0,0,1,1.165-1.165h4.624A1.166,1.166,0,0,1,27.65,6.424ZM40.373,80.09a1.166,1.166,0,0,1-1.165,1.165H34.583a1.166,1.166,0,0,1-1.165-1.165V75.465A1.166,1.166,0,0,1,34.583,74.3h4.624a1.166,1.166,0,0,1,1.165,1.165Zm0-69.041a1.166,1.166,0,0,1-1.165,1.165H34.583a1.166,1.166,0,0,1-1.165-1.165V6.424a1.166,1.166,0,0,1,1.165-1.165h4.624a1.166,1.166,0,0,1,1.165,1.165ZM53.1,80.09a1.166,1.166,0,0,1-1.165,1.165H47.306a1.166,1.166,0,0,1-1.165-1.165V75.465A1.166,1.166,0,0,1,47.306,74.3H51.93A1.166,1.166,0,0,1,53.1,75.465Zm0-69.041a1.166,1.166,0,0,1-1.165,1.165H47.306a1.166,1.166,0,0,1-1.165-1.165V6.424a1.166,1.166,0,0,1,1.165-1.165H51.93A1.166,1.166,0,0,1,53.1,6.424ZM65.818,80.09a1.166,1.166,0,0,1-1.165,1.165H60.029a1.166,1.166,0,0,1-1.165-1.165V75.465A1.166,1.166,0,0,1,60.029,74.3h4.624a1.166,1.166,0,0,1,1.165,1.165Zm0-69.041a1.166,1.166,0,0,1-1.165,1.165H60.029a1.166,1.166,0,0,1-1.165-1.165V6.424a1.166,1.166,0,0,1,1.165-1.165h4.624a1.166,1.166,0,0,1,1.165,1.165ZM78.541,80.09a1.166,1.166,0,0,1-1.165,1.165H72.751a1.166,1.166,0,0,1-1.165-1.165V75.465A1.166,1.166,0,0,1,72.751,74.3h4.624a1.166,1.166,0,0,1,1.165,1.165Zm0-69.041a1.166,1.166,0,0,1-1.165,1.165H72.751a1.166,1.166,0,0,1-1.165-1.165V6.424a1.166,1.166,0,0,1,1.165-1.165h4.624a1.166,1.166,0,0,1,1.165,1.165Z" fill="url(#linear-gradient)"/>
  <path id="Path_49609" data-name="Path 49609" d="M0,344.63V354.6a18.081,18.081,0,0,0,18.081,18.081H68.432A18.081,18.081,0,0,0,86.514,354.6V344.63Zm14.928,21.628a1.166,1.166,0,0,1-1.165,1.165H9.138a1.166,1.166,0,0,1-1.165-1.165v-4.624a1.166,1.166,0,0,1,1.165-1.165h4.624a1.166,1.166,0,0,1,1.165,1.165Zm12.723,0a1.166,1.166,0,0,1-1.165,1.165H21.861a1.166,1.166,0,0,1-1.165-1.165v-4.624a1.166,1.166,0,0,1,1.165-1.165h4.624a1.166,1.166,0,0,1,1.165,1.165Zm12.723,0a1.166,1.166,0,0,1-1.165,1.165H34.583a1.166,1.166,0,0,1-1.165-1.165v-4.624a1.166,1.166,0,0,1,1.165-1.165h4.624a1.166,1.166,0,0,1,1.165,1.165Zm12.723,0a1.166,1.166,0,0,1-1.165,1.165H47.306a1.166,1.166,0,0,1-1.165-1.165v-4.624a1.166,1.166,0,0,1,1.165-1.165H51.93a1.166,1.166,0,0,1,1.165,1.165Zm12.723,0a1.166,1.166,0,0,1-1.165,1.165H60.029a1.166,1.166,0,0,1-1.165-1.165v-4.624a1.166,1.166,0,0,1,1.165-1.165h4.624a1.166,1.166,0,0,1,1.165,1.165Zm12.723,0a1.166,1.166,0,0,1-1.165,1.165H72.751a1.166,1.166,0,0,1-1.165-1.165v-4.624a1.166,1.166,0,0,1,1.165-1.165h4.624a1.166,1.166,0,0,1,1.165,1.165Z" transform="translate(0 -286.169)" fill="url(#linear-gradient-2)"/>
  <path id="Path_49610" data-name="Path 49610" d="M129.785,145.1a13.068,13.068,0,0,1-13.053-13.052V101.719a13.016,13.016,0,0,1,19.555-11.29l26.264,15.163a13.037,13.037,0,0,1,0,22.58l-26.264,15.163a13.035,13.035,0,0,1-6.5,1.762Z" transform="translate(-96.93 -73.626)" fill="url(#linear-gradient-3)"/>
  <path id="Path_49611" data-name="Path 49611" d="M200.907,160.741V149.594l-20.188-20.188a10.025,10.025,0,0,0-2.744-2.315l-25.238-14.571a9.983,9.983,0,0,0-14.974,8.645v29.142a9.852,9.852,0,0,0,3.6,7.678l8.625,8.625H153.6a1.166,1.166,0,0,1,1.165,1.165v3.614l7.435,7.435h20.625A18.081,18.081,0,0,0,200.907,160.741Zm-14.928,7.033a1.166,1.166,0,0,1,1.165-1.165h4.624a1.166,1.166,0,0,1,1.165,1.165V172.4a1.166,1.166,0,0,1-1.165,1.165h-4.624a1.166,1.166,0,0,1-1.165-1.165Zm-18.49,4.624a1.166,1.166,0,0,1-1.165,1.165H161.7a1.166,1.166,0,0,1-1.165-1.165v-4.624a1.166,1.166,0,0,1,1.165-1.165h4.624a1.166,1.166,0,0,1,1.165,1.165Zm12.723,0a1.166,1.166,0,0,1-1.165,1.165h-4.624a1.166,1.166,0,0,1-1.165-1.165v-4.624a1.166,1.166,0,0,1,1.165-1.165h4.624a1.166,1.166,0,0,1,1.165,1.165Z" transform="translate(-114.394 -92.309)" fill="url(#linear-gradient-4)"/>
  <path id="Path_49612" data-name="Path 49612" d="M176.974,126.09l-25.238-14.571a9.983,9.983,0,0,0-14.974,8.645v29.142a9.983,9.983,0,0,0,14.974,8.645l25.238-14.571A9.983,9.983,0,0,0,176.974,126.09Z" transform="translate(-113.562 -91.479)" fill="url(#linear-gradient-5)"/>
  <path id="Path_49613" data-name="Path 49613" d="M176.974,126.09l-25.238-14.571a9.983,9.983,0,0,0-14.974,8.645v29.142a9.983,9.983,0,0,0,14.974,8.645l25.238-14.571A9.983,9.983,0,0,0,176.974,126.09Z" transform="translate(-113.562 -91.479)" fill="url(#linear-gradient-6)"/>
</svg>
