<svg xmlns="http://www.w3.org/2000/svg" width="101.363" height="82.859" viewBox="0 0 101.363 82.859">
  <g id="megaphone" transform="translate(0 -46.733)">
    <path id="Path_49924" data-name="Path 49924" d="M71.273,326.607,76.4,350.452a1.408,1.408,0,0,0,1.377,1.112h5.57a1.408,1.408,0,0,0,1.408-1.408V324.328l-1.04-.83-11.235,1.9Z" transform="translate(-57.163 -221.972)" fill="#f5f8f9"/>
    <path id="Path_49925" data-name="Path 49925" d="M84.753,324.325v2.012L71.69,328.546l-.417-1.941,1.205-1.211,11.237-1.9Z" transform="translate(-57.163 -221.969)" fill="#e8edf2"/>
    <path id="Path_49926" data-name="Path 49926" d="M115.49,327.691V329.7l-5.893,1v-2.012Z" transform="translate(-87.9 -225.335)" fill="#eb5569"/>
    <path id="Path_49927" data-name="Path 49927" d="M109.6,336.607v-7.917l5.894-1v9.92H110.6A1.006,1.006,0,0,1,109.6,336.607Z" transform="translate(-87.9 -225.337)" fill="#f07281"/>
    <path id="Path_49928" data-name="Path 49928" d="M115.49,327.691V329.7l-5.893,1v-2.012Z" transform="translate(-87.9 -225.335)" fill="#eb5569"/>
    <path id="Path_49929" data-name="Path 49929" d="M371.888,176.266v9.211a7.464,7.464,0,0,1-6.829,7.438l-1.006-1.2V170.242l1.006-1.414A7.464,7.464,0,0,1,371.888,176.266Z" transform="translate(-291.98 -97.923)" fill="#a79ba7"/>
    <path id="Path_49930" data-name="Path 49930" d="M60.976,292.32v7.153a1.408,1.408,0,0,0,1.643,1.389l14.688-2.483a1.408,1.408,0,0,0,1.174-1.389v-4.67l-1.006-1.006h-15.4Z" transform="translate(-48.904 -196.16)" fill="#a79ba7"/>
    <path id="Path_49931" data-name="Path 49931" d="M180.776,119.164c-7.7-15.306-17.727-23-35.454-23l-1.006-1.307V71.178l1.006-1.441c17.727,0,29.1-7.077,35.454-23l1.006,1.71v68.943Z" transform="translate(-115.745)" fill="#f5f8f9"/>
    <path id="Path_49932" data-name="Path 49932" d="M154.577,213.394h-9.255l-1.006-.847v-8.81l1.006-1.006h9.255a1.408,1.408,0,0,1,1.408,1.408v7.847A1.408,1.408,0,0,1,154.577,213.394Z" transform="translate(-115.745 -125.114)" fill="#a79ba7"/>
    <path id="Path_49933" data-name="Path 49933" d="M158.768,253.162h-9.374v-.847A48.391,48.391,0,0,1,158.768,253.162Z" transform="translate(-119.818 -164.882)" fill="#918291"/>
    <path id="Path_49934" data-name="Path 49934" d="M12.072,162.929A12.072,12.072,0,0,0,0,175v2.279a12.072,12.072,0,0,0,12.072,12.072H29.577V162.929Z" transform="translate(0 -93.192)" fill="#f07281"/>
    <path id="Path_49935" data-name="Path 49935" d="M184.849,275.32v8.726c-7.7-15.307-17.728-23-35.455-23v-8.726C167.121,252.315,177.147,260.013,184.849,275.32Z" transform="translate(-119.818 -164.882)" fill="#e8edf2"/>
    <path id="Path_49936" data-name="Path 49936" d="M158.768,253.162h-9.374v-.847A48.391,48.391,0,0,1,158.768,253.162Z" transform="translate(-119.818 -164.882)" fill="#918291"/>
    <path id="Path_49937" data-name="Path 49937" d="M328.482,119.164h3.1a4.949,4.949,0,0,0,4.949-4.949V51.682a4.949,4.949,0,0,0-4.949-4.949h-3.1Z" transform="translate(-263.451 0)" fill="#f07281"/>
    <path id="Path_49938" data-name="Path 49938" d="M336.529,343.006v8.746a5.029,5.029,0,0,1-5.03,5.03h-3.018v-8.746H331.5A5.029,5.029,0,0,0,336.529,343.006Z" transform="translate(-263.45 -237.618)" fill="#eb5569"/>
    <path id="Path_49939" data-name="Path 49939" d="M13.845,192.915a7.893,7.893,0,0,1-4.294-1.237,12.057,12.057,0,0,1-5.525-10.144v-2.278c0-.332.014-.662.04-.988-.181.161-.358.328-.529.5A12.043,12.043,0,0,0,0,187.3v2.277a12.072,12.072,0,0,0,12.072,12.072h17.5V192.9Z" transform="translate(-0.002 -105.495)" fill="#eb5569"/>
    <g id="Group_24698" data-name="Group 24698" transform="translate(81.983 49.529)">
      <path id="Path_49940" data-name="Path 49940" d="M415.617,70.846a1.509,1.509,0,0,1-1.067-2.576l6.971-6.971a1.509,1.509,0,0,1,2.134,2.134L416.684,70.4a1.505,1.505,0,0,1-1.067.442Z" transform="translate(-414.108 -60.857)" fill="#a79ba7"/>
    </g>
    <g id="Group_24699" data-name="Group 24699" transform="translate(92.309 69.953)">
      <path id="Path_49941" data-name="Path 49941" d="M467.777,171.06a1.509,1.509,0,0,1-.838-2.765l6.036-4.024a1.509,1.509,0,1,1,1.674,2.511l-6.036,4.024A1.5,1.5,0,0,1,467.777,171.06Z" transform="translate(-466.266 -164.018)" fill="#a79ba7"/>
    </g>
    <g id="Group_24700" data-name="Group 24700" transform="translate(92.309 88.902)">
      <path id="Path_49942" data-name="Path 49942" d="M473.81,266.777a1.5,1.5,0,0,1-.836-.254l-6.036-4.024a1.509,1.509,0,0,1,1.674-2.511l6.036,4.024a1.509,1.509,0,0,1-.838,2.765Z" transform="translate(-466.266 -259.735)" fill="#a79ba7"/>
    </g>
    <g id="Group_24701" data-name="Group 24701" transform="translate(81.983 106.378)">
      <path id="Path_49943" data-name="Path 49943" d="M422.588,358a1.5,1.5,0,0,1-1.067-.442l-6.971-6.971a1.509,1.509,0,0,1,2.134-2.134l6.971,6.971A1.509,1.509,0,0,1,422.588,358Z" transform="translate(-414.108 -348.009)" fill="#a79ba7"/>
    </g>
  </g>
</svg>
