<svg xmlns="http://www.w3.org/2000/svg" xmlns:xlink="http://www.w3.org/1999/xlink" width="93.517" height="94.79" viewBox="0 0 93.517 94.79">
  <defs>
    <linearGradient id="linear-gradient" x1="0.385" y1="-0.072" x2="0.672" y2="0.214" gradientUnits="objectBoundingBox">
      <stop offset="0" stop-color="#816965"/>
      <stop offset="1" stop-color="#654e48"/>
    </linearGradient>
    <linearGradient id="linear-gradient-2" x1="0.315" y1="1.326" x2="0.912" y2="0.729" gradientUnits="objectBoundingBox">
      <stop offset="0" stop-color="#ff931e"/>
      <stop offset="1" stop-color="#ff5d00"/>
    </linearGradient>
    <linearGradient id="linear-gradient-3" x1="0.792" y1="0.658" x2="0.292" y2="1.158" gradientUnits="objectBoundingBox">
      <stop offset="0" stop-color="#654e48" stop-opacity="0"/>
      <stop offset="0.526" stop-color="#57403d" stop-opacity="0.525"/>
      <stop offset="1" stop-color="#503837"/>
    </linearGradient>
    <linearGradient id="linear-gradient-4" x1="0.305" y1="1.514" x2="0.739" y2="1.08" gradientUnits="objectBoundingBox">
      <stop offset="0" stop-color="#ffe7a5"/>
      <stop offset="0.966" stop-color="#ffbf5c"/>
    </linearGradient>
    <linearGradient id="linear-gradient-5" x1="0.29" y1="0.212" x2="0.634" y2="0.556" xlink:href="#linear-gradient-4"/>
    <linearGradient id="linear-gradient-6" x1="0.696" y1="3.297" x2="0.352" y2="2.952" xlink:href="#linear-gradient-4"/>
    <linearGradient id="linear-gradient-7" x1="0.445" y1="-1.465" x2="0.643" y2="-1.267" gradientUnits="objectBoundingBox">
      <stop offset="0" stop-color="#654e48"/>
      <stop offset="1" stop-color="#503837"/>
    </linearGradient>
    <linearGradient id="linear-gradient-8" x1="0.497" y1="-4.022" x2="0.497" y2="-5.556" gradientUnits="objectBoundingBox">
      <stop offset="0" stop-color="#4975ad"/>
      <stop offset="1" stop-color="#114f77"/>
    </linearGradient>
    <linearGradient id="linear-gradient-9" x1="0.497" y1="-4.71" x2="0.497" y2="-3.996" gradientUnits="objectBoundingBox">
      <stop offset="0" stop-color="#4975ad" stop-opacity="0"/>
      <stop offset="1" stop-color="#114f77"/>
    </linearGradient>
    <linearGradient id="linear-gradient-10" x1="0.497" y1="-4.513" x2="0.497" y2="-6.047" gradientUnits="objectBoundingBox">
      <stop offset="0" stop-color="#7eccfd"/>
      <stop offset="1" stop-color="#3fa9f5"/>
    </linearGradient>
  </defs>
  <g id="auction" transform="translate(-3.441 0)">
    <path id="Path_48878" data-name="Path 48878" d="M283.7,235.688l-4.985,4.985-33.6-33.6,4.985-4.985Z" transform="translate(-196.93 -164.673)" fill="url(#linear-gradient)"/>
    <path id="Path_48879" data-name="Path 48879" d="M122.858,44.512l-35.32,35.32L71.2,63.494l35.32-35.319Z" transform="translate(-55.215 -22.958)" fill="url(#linear-gradient-2)"/>
    <path id="Path_48880" data-name="Path 48880" d="M254.176,216.134l4.985-4.985-9.062-9.062-4.985,4.985Z" transform="translate(-196.93 -164.673)" fill="url(#linear-gradient-3)"/>
    <path id="Path_48881" data-name="Path 48881" d="M140.425,82.5l-14.9,14.9a5.307,5.307,0,0,1-7.5,0l-14.9-14.9a5.307,5.307,0,0,1,0-7.5l14.9-14.9a5.307,5.307,0,0,1,7.5,0l14.9,14.9A5.307,5.307,0,0,1,140.425,82.5Z" transform="translate(-79.958 -47.7)" fill="url(#linear-gradient-4)"/>
    <path id="Path_48882" data-name="Path 48882" d="M68.424,215.544l-.572.572a8.258,8.258,0,0,1-11.678,0L45.446,205.39a8.258,8.258,0,0,1,0-11.678l.572-.572a3.919,3.919,0,0,1,5.542,0L68.424,210A3.919,3.919,0,0,1,68.424,215.544Z" transform="translate(-32.258 -156.446)" fill="url(#linear-gradient-5)"/>
    <path id="Path_48883" data-name="Path 48883" d="M236.166,2.991l.572-.572a8.258,8.258,0,0,1,11.678,0l10.727,10.727a8.258,8.258,0,0,1,0,11.678l-.572.572a3.919,3.919,0,0,1-5.542,0L236.166,8.533A3.918,3.918,0,0,1,236.166,2.991Z" transform="translate(-188.704 0)" fill="url(#linear-gradient-6)"/>
    <path id="Path_48884" data-name="Path 48884" d="M391.528,346.512l-1.989,1.989a4.6,4.6,0,0,1-6.5,0l-15.1-15.1a4.6,4.6,0,0,1,0-6.5l1.989-1.989a4.6,4.6,0,0,1,6.5,0l15.1,15.1A4.6,4.6,0,0,1,391.528,346.512Z" transform="translate(-295.917 -263.66)" fill="url(#linear-gradient-7)"/>
    <path id="Path_48885" data-name="Path 48885" d="M49.5,430.635v-.314a1.709,1.709,0,0,1,1.652-1.708c.019,0,.006-.044.025-.044v-.012l.031.034v-3.934H9.424v3.934l.013-.006h0c.124-.021.025.027.043.028a1.709,1.709,0,0,1,1.653,1.708v.314a1.709,1.709,0,0,1-1.709,1.709h0a3,3,0,0,0-3,3v3.79a1.692,1.692,0,0,0,1.692,1.692H52.524a1.692,1.692,0,0,0,1.692-1.692v-3.79a3,3,0,0,0-3-3h0A1.709,1.709,0,0,1,49.5,430.635Z" transform="translate(-2.428 -346.037)" fill="url(#linear-gradient-8)"/>
    <path id="Path_48886" data-name="Path 48886" d="M67.431,439.135v-3.679a3.1,3.1,0,0,0-2.995-3.113,1.709,1.709,0,0,1-1.716-1.709v-.314a1.709,1.709,0,0,1,1.62-1.706.092.092,0,0,0,.089-.091v-3.866H22.639v3.488s.625.521.846.686a.148.148,0,0,0,.024.02c.049.028.123.079.123.079a1.729,1.729,0,0,1,.4.4l11.5,11.5H65.739A1.692,1.692,0,0,0,67.431,439.135Z" transform="translate(-15.644 -346.037)" fill="url(#linear-gradient-9)"/>
    <path id="Path_48887" data-name="Path 48887" d="M46.763,398.866H9.017a5.569,5.569,0,0,1-5.576-5.576h0a5.576,5.576,0,0,1,5.576-5.576H46.763a5.576,5.576,0,0,1,5.576,5.576h0A5.576,5.576,0,0,1,46.763,398.866Z" transform="translate(0 -315.933)" fill="url(#linear-gradient-10)"/>
  </g>
</svg>
