<svg xmlns="http://www.w3.org/2000/svg" width="241.527" height="277" viewBox="0 0 241.527 277">
  <g id="Group_23570" data-name="Group 23570" transform="translate(-38.158 -295.333)">
    <path id="Path_31159" data-name="Path 31159" d="M101.524,357.266c-.088.031-.177.067-.265.1l.229.212Z" transform="translate(87.504 85.884)" fill="#fbfbfb"/>
    <path id="Path_31160" data-name="Path 31160" d="M84.969,328.434c-.859,3-1.516,6.163-2.17,9.37-.737,3.189-1.069,6.513-1.628,9.781-.425,3.291-.671,6.606-1.01,9.848-.129,3.258-.255,6.463-.377,9.566.06,3.1.119,6.1.174,8.943.01,2.838.4,5.513.561,7.981.232,2.468.327,4.733.69,6.719.3,1.99.554,3.723.769,5.153.107.723.2,1.368.286,1.928l.38,2.554-.279.041c.518.1,1.041.2,1.58.3.508.091,1.024.179,1.551.265a98.379,98.379,0,0,0,13.585,1.229V376.2a12.728,12.728,0,0,1,0-25.268V327.513a93.392,93.392,0,0,1-13.487-1.337C85.384,326.928,85.155,327.661,84.969,328.434Z" transform="translate(57.725 42.771)" fill="#fbfbfb"/>
    <path id="Path_31161" data-name="Path 31161" d="M78.337,399.054c1.107.353,2.423.747,3.924,1.148-.031-.351-.064-.728-.1-1.148-.031-.365-.067-.749-.1-1.165-.131-1.487-.289-3.289-.47-5.358-.248-2.06-.21-4.413-.3-6.964-.012-2.554-.246-5.313-.084-8.239.119-2.919.243-6,.375-9.179.315-3.167.642-6.442.974-9.767.544-3.3,1-6.659,1.633-9.986.769-3.3,1.31-6.645,2.253-9.845.859-3.217,1.718-6.375,2.769-9.366.212-.695.463-1.346.695-2.022a78.366,78.366,0,0,1-7.9-1.948c-5.58,17.368-8.8,41.252-5.093,73.361C77.337,398.727,77.809,398.885,78.337,399.054Z" transform="translate(51.533 41.439)" fill="#fbfbfb"/>
    <path id="Path_31162" data-name="Path 31162" d="M81.592,392.21c1.735,1.325,9.251,6.356,23.058,6.356,13.9,0,21.337-5.024,23.061-6.351q2.538-10.21,4.3-19.6l-9.719-13.972a95.4,95.4,0,0,1-17.745,1.675,101.239,101.239,0,0,1-17.619-1.563l-9.635,13.855Q79.063,382.006,81.592,392.21Z" transform="translate(54.271 87.796)" fill="#fbfbfb"/>
    <path id="Path_31163" data-name="Path 31163" d="M87.833,362.049c1.091-2.683,2.184-5.194,3.263-7.478s2.117-4.349,3.122-6.139c.943-1.816,1.9-3.327,2.642-4.6,1.554-2.5,2.554-3.845,2.554-3.845S98.5,341.4,97.1,343.975c-.656,1.31-1.52,2.864-2.351,4.728-.89,1.835-1.783,3.955-2.73,6.272s-1.866,4.876-2.783,7.59c-.329,1.048-.673,2.131-1.012,3.217a86.583,86.583,0,0,0,39.095-2.222c-5.544-15.733-12.934-25.7-18.294-31.352l-.475-2.852-.444-2.69-5.2-31.333-5.193,31.333-.446,2.69-.48,2.9c-5.349,5.673-12.707,15.64-18.237,31.335a78.191,78.191,0,0,0,7.972,1.89C86.962,364.319,87.408,363.164,87.833,362.049Z" transform="translate(56.014)" fill="#16135a"/>
    <path id="Path_31164" data-name="Path 31164" d="M89.218,352.3a12.728,12.728,0,0,1,0,25.268v25.918a90.138,90.138,0,0,0,26.839-4.4q1.3-.426,2.6-.9c3.645-31.946.439-55.7-5.117-72.991a85.314,85.314,0,0,1-24.326,3.7Z" transform="translate(70.806 41.409)" fill="#fbfbfb"/>
    <path id="Path_31165" data-name="Path 31165" d="M77.479,396.32l5.516,3.32,8.029-19.18c-.153-.031-.3-.067-.449-.1Z" transform="translate(54.527 117.909)" fill="#fbfbfb"/>
    <path id="Path_31166" data-name="Path 31166" d="M94.44,380.439l8.048,19.227,5.516-3.32L94.872,380.341C94.726,380.374,94.586,380.408,94.44,380.439Z" transform="translate(78.048 117.883)" fill="#fbfbfb"/>
    <path id="Path_31167" data-name="Path 31167" d="M95.062,358.136l-2.312,2.133-1.466,1.353-1.419,1.309L71.609,379.773l-7.041,33.743H82.706V385.273l8.807-12.662,1.281-1.842,1.311-1.885,6.893-9.91Z" transform="translate(36.623 87.09)" fill="#fdde43"/>
    <path id="Path_31168" data-name="Path 31168" d="M108.815,362.932l-1.42-1.31-1.459-1.347-2.319-2.14-5.935.839,6.9,9.917,1.307,1.879,1.281,1.842,8.806,12.66v28.242h18.138l-7.041-33.743Z" transform="translate(82.542 87.09)" fill="#fdde43"/>
    <path id="Path_31169" data-name="Path 31169" d="M129.2,374.056c-.057.038-.146.091-.205.131-.527.353-1.208.761-1.988,1.193a34.375,34.375,0,0,1-3.847,1.814,40.953,40.953,0,0,1-4.926,1.611,54.419,54.419,0,0,1-26.287,0,40.907,40.907,0,0,1-4.924-1.611,33.963,33.963,0,0,1-3.847-1.814c-.78-.432-1.461-.84-1.988-1.193-.062-.041-.15-.093-.208-.131l-1.033,1.64-2.962,4.711a57.9,57.9,0,0,0,28.089,6.938,58.1,58.1,0,0,0,28.125-6.94L130.23,375.7Z" transform="translate(53.835 109.167)" fill="#fbfbfb"/>
    <path id="Path_31170" data-name="Path 31170" d="M102.495,356.153h0Z" transform="translate(89.217 84.34)" fill="#fbfbfb"/>
    <path id="Path_31171" data-name="Path 31171" d="M84.532,347.406A9.57,9.57,0,0,0,92.5,356.82a9.387,9.387,0,0,0,1.609.162h0a9.387,9.387,0,0,0,1.609-.162,9.577,9.577,0,0,0-1.609-18.989h0a9.748,9.748,0,0,0-9.576,9.576Z" transform="translate(64.308 58.933)" fill="#fdde43"/>
    <path id="Path_31172" data-name="Path 31172" d="M86.622,401.4H97.105l-5.2-20.408Z" transform="translate(67.206 118.785)" fill="#fbfbfb"/>
    <path id="Path_31173" data-name="Path 31173" d="M80.186,380.012a11.58,11.58,0,0,1,.5-2.224,12.206,12.206,0,0,1,2.3-4.038,13.533,13.533,0,0,1,1.718-1.647,12.794,12.794,0,0,1,4.315-2.186,14.865,14.865,0,0,1,2.446-.432,15.109,15.109,0,0,0-2.52.062,14.683,14.683,0,0,0-2.5.57,14.368,14.368,0,0,0-2.349,1.1A14.97,14.97,0,0,0,82,372.777a13,13,0,0,0-3.112,4.294,13.652,13.652,0,0,0-.866,2.573c-.064.356-.148.742-.2,1.093a19.453,19.453,0,0,0-2.976-.551,20.352,20.352,0,0,0-4.571.127,18.223,18.223,0,0,0-4.451,1.208,19.093,19.093,0,0,0-4.043,2.286,20.57,20.57,0,0,0-1.807,1.485c-.549.549-1.11,1.1-1.609,1.7a19.171,19.171,0,0,0-2.573,3.936,19.725,19.725,0,0,0-1.554,4.475c-.122.785-.325,1.731-.348,2.4l-.031.47a22.452,22.452,0,0,0-5.2,2.346,20.64,20.64,0,0,0-3,2.236,21.838,21.838,0,0,0-2.609,2.762l-.518.678-.563.795c-.346.52-.675,1.055-.981,1.6a22.624,22.624,0,0,0-2.5,7.062c-.107.62-.186,1.243-.243,1.869l-.067.986-.019.893a22.534,22.534,0,0,0,2.828,10.807c.3.535.642,1.1,1,1.635.291.432.721,1.014,1.091,1.48a21.949,21.949,0,0,0,10.783,7.3c.012.177.024.351.033.527a22.971,22.971,0,0,0,.346,2.346,19.392,19.392,0,0,0,4.124,8.4c.5.6,1.06,1.153,1.609,1.7a20.553,20.553,0,0,0,1.807,1.482,19.074,19.074,0,0,0,4.041,2.287,18.4,18.4,0,0,0,4.466,1.212,17.067,17.067,0,0,0,2.286.182l1.057.012c.518-.007.8-.036,1.21-.069a19.872,19.872,0,0,0,2.981-.554c.05.372.138.742.2,1.11a13.644,13.644,0,0,0,.864,2.561A12.98,12.98,0,0,0,82,466.218a15.1,15.1,0,0,0,2.1,1.566,14.54,14.54,0,0,0,2.349,1.1,14.7,14.7,0,0,0,2.5.57,14.9,14.9,0,0,0,2.52.064,14.805,14.805,0,0,1-2.449-.432A12.851,12.851,0,0,1,84.7,466.9a13.535,13.535,0,0,1-1.718-1.647,12.215,12.215,0,0,1-2.3-4.038,11.954,11.954,0,0,1-.506-2.239c-.021-.379-.1-.754-.084-1.136a8.67,8.67,0,0,1,.043-1.155l.282-1.6-1.845.43a18.333,18.333,0,0,1-3.893.5c-.294,0-.716,0-.9-.017l-1.053-.1a12.735,12.735,0,0,1-1.9-.31,16.014,16.014,0,0,1-3.582-1.284,15.424,15.424,0,0,1-3.182-2.055,16.736,16.736,0,0,1-1.387-1.279c-.413-.473-.838-.938-1.208-1.442a15.307,15.307,0,0,1-1.852-3.236,16.613,16.613,0,0,1-1.081-3.54,18.32,18.32,0,0,1-.2-1.838,17.543,17.543,0,0,1,0-1.943l.141-1.714-1.878-.485A18.274,18.274,0,0,1,46.9,430.4c-.315-.418-.549-.733-.876-1.227-.255-.394-.489-.785-.73-1.229a17.527,17.527,0,0,1-2.105-8.442l.014-.78.041-.682c.041-.487.1-.971.172-1.454a17.579,17.579,0,0,1,1.881-5.523c.232-.43.485-.852.749-1.26l.4-.578.492-.656a17.247,17.247,0,0,1,1.964-2.119,20.056,20.056,0,0,1,2.322-1.809,17.716,17.716,0,0,1,5.373-2.406l1.833-.477-.088-1.728-.029-.528c0-.038-.01-.291-.012-.15l.007-.265.036-1.055c0-.745.148-1.179.2-1.79a16.333,16.333,0,0,1,1.081-3.53,15.239,15.239,0,0,1,1.852-3.234c.368-.5.792-.969,1.205-1.442a17.607,17.607,0,0,1,1.387-1.279A15.512,15.512,0,0,1,67.24,384.7a16.224,16.224,0,0,1,3.6-1.284,17.39,17.39,0,0,1,3.843-.423,17.882,17.882,0,0,1,3.89.5l2.007.47-.434-1.649a7.2,7.2,0,0,1-.041-1.189A11.129,11.129,0,0,1,80.186,380.012Z" transform="translate(0 102.791)" fill="#fbfbfb"/>
    <path id="Path_31174" data-name="Path 31174" d="M170.309,418.607l-.064-.986c-.06-.625-.138-1.248-.246-1.869a22.464,22.464,0,0,0-2.5-7.062q-.458-.82-.981-1.6l-.561-.795-.52-.678a21.993,21.993,0,0,0-2.606-2.762,20.769,20.769,0,0,0-3-2.236,22.514,22.514,0,0,0-5.2-2.346l-.031-.47c-.024-.666-.227-1.611-.348-2.4a19.717,19.717,0,0,0-1.551-4.475A19.373,19.373,0,0,0,150.127,387c-.5-.6-1.06-1.155-1.611-1.7a20.541,20.541,0,0,0-1.8-1.485,19.151,19.151,0,0,0-4.043-2.286,18.281,18.281,0,0,0-4.451-1.208,20.356,20.356,0,0,0-4.571-.127,19.43,19.43,0,0,0-2.979.551c-.05-.351-.136-.738-.2-1.093a13.827,13.827,0,0,0-.869-2.573,12.991,12.991,0,0,0-3.11-4.294,14.97,14.97,0,0,0-2.105-1.563,14.555,14.555,0,0,0-2.349-1.1,14.787,14.787,0,0,0-2.5-.57,15.144,15.144,0,0,0-2.523-.062,14.937,14.937,0,0,1,2.449.432,12.753,12.753,0,0,1,4.313,2.186,13.55,13.55,0,0,1,1.721,1.647,12.241,12.241,0,0,1,2.3,4.038,11.767,11.767,0,0,1,.5,2.224,11.167,11.167,0,0,1,.081,1.115,7.5,7.5,0,0,1-.038,1.189l-.437,1.649,2.01-.47a17.861,17.861,0,0,1,3.888-.5,17.39,17.39,0,0,1,3.843.423,16.181,16.181,0,0,1,3.6,1.284,15.448,15.448,0,0,1,3.179,2.055,16.806,16.806,0,0,1,1.387,1.279c.413.473.838.938,1.208,1.442a15.332,15.332,0,0,1,1.85,3.234,16.2,16.2,0,0,1,1.081,3.53c.05.611.193,1.045.2,1.79l.036,1.055.01.265c0-.141-.01.112-.014.15l-.026.528-.088,1.728,1.831.477a17.755,17.755,0,0,1,5.375,2.406,20.24,20.24,0,0,1,2.32,1.809,17.46,17.46,0,0,1,1.967,2.119l.489.656.4.578c.267.408.518.831.752,1.26a17.653,17.653,0,0,1,1.878,5.523c.079.482.131.967.174,1.454l.038.682.017.831a17.6,17.6,0,0,1-.227,2.866,17.412,17.412,0,0,1-.709,2.84,17.62,17.62,0,0,1-1.17,2.685c-.243.444-.477.835-.73,1.229-.329.494-.561.809-.878,1.227a18.268,18.268,0,0,1-9.69,6.377l-1.881.485.141,1.714a16.434,16.434,0,0,1,0,1.943,18.334,18.334,0,0,1-.2,1.838,16.346,16.346,0,0,1-1.081,3.54,15.2,15.2,0,0,1-1.852,3.236c-.37.5-.795.969-1.208,1.442a16.363,16.363,0,0,1-1.387,1.279,15.36,15.36,0,0,1-3.181,2.055,16.037,16.037,0,0,1-3.58,1.284,12.719,12.719,0,0,1-1.907.31l-1.053.1c-.184.014-.609.019-.9.017a18.311,18.311,0,0,1-3.89-.5l-1.845-.43.282,1.6a8.662,8.662,0,0,1,.041,1.155,11.305,11.305,0,0,1-.084,1.136,11.592,11.592,0,0,1-.506,2.239,12.208,12.208,0,0,1-2.3,4.038,13.55,13.55,0,0,1-1.721,1.647,13.991,13.991,0,0,1-2.038,1.289,14.144,14.144,0,0,1-2.277.9,14.761,14.761,0,0,1-2.449.432,14.917,14.917,0,0,0,2.523-.064,14.72,14.72,0,0,0,2.494-.57,14.353,14.353,0,0,0,2.349-1.1,14.821,14.821,0,0,0,2.1-1.566,12.946,12.946,0,0,0,3.11-4.291,13.644,13.644,0,0,0,.864-2.561c.064-.368.155-.738.205-1.11a19.815,19.815,0,0,0,2.981.554c.408.033.69.062,1.208.069l1.057-.012a17.066,17.066,0,0,0,2.286-.182,18.421,18.421,0,0,0,4.468-1.212,19.2,19.2,0,0,0,4.041-2.287,20.527,20.527,0,0,0,1.8-1.482c.549-.551,1.11-1.1,1.609-1.7a19.36,19.36,0,0,0,4.127-8.4,22.964,22.964,0,0,0,.344-2.346c.012-.177.021-.351.033-.527a21.966,21.966,0,0,0,10.786-7.3c.368-.465.8-1.048,1.088-1.48.36-.539.706-1.1,1-1.635a22.462,22.462,0,0,0,2.5-7.062,22.267,22.267,0,0,0,.332-3.795Z" transform="translate(109.357 102.791)" fill="#fbfbfb"/>
  </g>
</svg>
