<svg xmlns="http://www.w3.org/2000/svg" width="81.139" height="91.877" viewBox="0 0 81.139 91.877">
  <g id="party" transform="translate(-29.918)">
    <g id="Group_24658" data-name="Group 24658" transform="translate(29.918 28.948)">
      <path id="Path_49830" data-name="Path 49830" d="M111.058,212.152V161.319H29.919v50.833a.828.828,0,0,0,.826.826h79.487A.828.828,0,0,0,111.058,212.152Z" transform="translate(-29.919 -161.319)" fill="#eff6ff" fill-rule="evenodd"/>
    </g>
    <g id="Group_24659" data-name="Group 24659" transform="translate(53.391 48.947)">
      <path id="Path_49831" data-name="Path 49831" d="M189.76,294.954,162.1,272.766l-1.378,4.77,18.548,23.148Z" transform="translate(-160.723 -272.766)" fill="#fe8d94" fill-rule="evenodd"/>
    </g>
    <g id="Group_24660" data-name="Group 24660" transform="translate(51.207 53.717)">
      <path id="Path_49832" data-name="Path 49832" d="M169.286,322.495l-18.548-23.148-2.184,7.558,15,18.718Z" transform="translate(-148.555 -299.347)" fill="#ccf49f" fill-rule="evenodd"/>
    </g>
    <g id="Group_24661" data-name="Group 24661" transform="translate(48.12 61.275)">
      <path id="Path_49833" data-name="Path 49833" d="M149.44,360.182l-15-18.718-3.087,10.691,6.928,8.642,3.056,3.81,6.979-3.81Z" transform="translate(-131.352 -341.464)" fill="#fe8d94" fill-rule="evenodd"/>
    </g>
    <g id="Group_24662" data-name="Group 24662" transform="translate(45.936 71.966)">
      <path id="Path_49834" data-name="Path 49834" d="M128.294,409.684l-6.928-8.642-2.184,7.553.872,1.089,5.565,6.938,5.73-3.128Z" transform="translate(-119.183 -401.042)" fill="#ccf49f" fill-rule="evenodd"/>
    </g>
    <g id="Group_24663" data-name="Group 24663" transform="translate(42.888 79.518)">
      <path id="Path_49835" data-name="Path 49835" d="M111.682,451.157l-5.565-6.938-.872-1.089-.31,1.089-2.561,8.859c-.356,1.652-.191,2.4.614,2.411h.046a4.611,4.611,0,0,0,1.657-.511Z" transform="translate(-102.196 -443.13)" fill="#fe8d94" fill-rule="evenodd"/>
    </g>
    <g id="Group_24664" data-name="Group 24664" transform="translate(29.918 22.542)">
      <path id="Path_49836" data-name="Path 49836" d="M29.919,133.847h81.139v-8.229H29.919Z" transform="translate(-29.919 -125.618)" fill="#9fd4fe" fill-rule="evenodd"/>
    </g>
    <g id="Group_24665" data-name="Group 24665" transform="translate(29.918 9.61)">
      <path id="Path_49837" data-name="Path 49837" d="M57.463,68.3h53.594V54.38a.828.828,0,0,0-.826-.826H30.744a.828.828,0,0,0-.826.826V68.3Z" transform="translate(-29.918 -53.554)" fill="#fe8d94" fill-rule="evenodd"/>
    </g>
    <g id="Group_24666" data-name="Group 24666" transform="translate(38.144)">
      <path id="Path_49838" data-name="Path 49838" d="M88.388,6.312v3.3H85.656v-3.3a3.582,3.582,0,0,0-7.164,0v6.6a3.583,3.583,0,0,0,3.579,3.58,1.366,1.366,0,0,1,0,2.732,6.318,6.318,0,0,1-6.31-6.312v-6.6a6.314,6.314,0,0,1,12.628,0Z" transform="translate(-75.76 0)" fill="#fde588"/>
    </g>
    <g id="Group_24667" data-name="Group 24667" transform="translate(55.928)">
      <path id="Path_49839" data-name="Path 49839" d="M187.489,6.312v3.3h-2.732v-3.3a3.582,3.582,0,0,0-7.164,0v6.6a3.584,3.584,0,0,0,3.579,3.58,1.366,1.366,0,0,1,0,2.732,6.318,6.318,0,0,1-6.31-6.312v-6.6a6.314,6.314,0,0,1,12.628,0Z" transform="translate(-174.861 0)" fill="#fde588"/>
    </g>
    <g id="Group_24668" data-name="Group 24668" transform="translate(73.711)">
      <path id="Path_49840" data-name="Path 49840" d="M286.591,6.312v3.3h-2.732v-3.3a3.582,3.582,0,0,0-7.164,0v6.6a3.584,3.584,0,0,0,3.579,3.58,1.366,1.366,0,0,1,0,2.732,6.319,6.319,0,0,1-6.31-6.312v-6.6a6.314,6.314,0,0,1,12.628,0Z" transform="translate(-273.963 0)" fill="#fde588"/>
    </g>
    <g id="Group_24669" data-name="Group 24669" transform="translate(91.495)">
      <path id="Path_49841" data-name="Path 49841" d="M385.694,6.312v3.3h-2.732v-3.3a3.582,3.582,0,0,0-7.164,0v6.6a3.586,3.586,0,0,0,3.584,3.58,1.366,1.366,0,1,1,0,2.732,6.321,6.321,0,0,1-6.316-6.312v-6.6a6.314,6.314,0,0,1,12.628,0Z" transform="translate(-373.066 0)" fill="#fde588"/>
    </g>
    <g id="Group_24670" data-name="Group 24670" transform="translate(75.043 41.205)">
      <path id="Path_49842" data-name="Path 49842" d="M282.75,238.706a1.366,1.366,0,0,1-1.065-2.22l5.09-6.35a1.366,1.366,0,0,1,2.131,1.709l-5.09,6.35A1.364,1.364,0,0,1,282.75,238.706Z" transform="translate(-281.385 -229.624)" fill="#fe8d94"/>
    </g>
    <g id="Group_24671" data-name="Group 24671" transform="translate(65.271 41.84)">
      <path id="Path_49843" data-name="Path 49843" d="M228.294,243.53a1.366,1.366,0,0,1-1.028-2.264,38.21,38.21,0,0,0,5.274-7.368,1.366,1.366,0,0,1,2.422,1.264,40.717,40.717,0,0,1-5.639,7.9A1.364,1.364,0,0,1,228.294,243.53Z" transform="translate(-226.928 -233.164)" fill="#9fd4fe"/>
    </g>
    <g id="Group_24672" data-name="Group 24672" transform="translate(75.291 50.529)">
      <path id="Path_49844" data-name="Path 49844" d="M284.13,291.292a1.366,1.366,0,0,1-1.1-2.175,40.577,40.577,0,0,1,6.489-7.216,1.366,1.366,0,0,1,1.757,2.092,38.058,38.058,0,0,0-6.045,6.743A1.365,1.365,0,0,1,284.13,291.292Z" transform="translate(-282.765 -281.581)" fill="#9fd4fe"/>
    </g>
    <g id="Group_24673" data-name="Group 24673" transform="translate(81.594 55.061)">
      <path id="Path_49845" data-name="Path 49845" d="M319.255,317.078a1.366,1.366,0,0,1-1.112-2.157c2.554-3.6,6.336-7.764,12.968-8.079a1.366,1.366,0,1,1,.13,2.728c-5.424.258-8.539,3.649-10.871,6.933a1.364,1.364,0,0,1-1.115.575Z" transform="translate(-317.89 -306.84)" fill="#fe8d94"/>
    </g>
    <g id="Group_24674" data-name="Group 24674" transform="translate(60.862 37.474)">
      <path id="Path_49846" data-name="Path 49846" d="M203.724,217.693a1.366,1.366,0,0,1-1.173-2.063,8.01,8.01,0,0,0,1.253-5.282,1.366,1.366,0,0,1,2.714-.307,10.679,10.679,0,0,1-1.618,6.984A1.365,1.365,0,0,1,203.724,217.693Z" transform="translate(-202.359 -208.828)" fill="#fe8d94"/>
    </g>
    <g id="Group_24675" data-name="Group 24675" transform="translate(42.888 82.203)">
      <path id="Path_49847" data-name="Path 49847" d="M103.924,459.989l-1.549,5.364c-.356,1.652-.191,2.4.614,2.411h.046a4.613,4.613,0,0,0,1.657-.511l6.99-3.82-4.285-5.343Z" transform="translate(-102.197 -458.089)" fill="#ff6d75" fill-rule="evenodd"/>
    </g>
    <g id="Group_24676" data-name="Group 24676" transform="translate(48.089 79.074)">
      <path id="Path_49848" data-name="Path 49848" d="M131.179,443.783l4.285,5.343,5.73-3.128-3.056-3.81-1.228-1.533-2.8,1.533Z" transform="translate(-131.179 -440.655)" fill="#b3e59f" fill-rule="evenodd"/>
    </g>
    <g id="Group_24677" data-name="Group 24677" transform="translate(53.819 74.645)">
      <path id="Path_49849" data-name="Path 49849" d="M163.111,420.4l1.228,1.533,3.056,3.81,6.979-3.81,1.125-.614-4.285-5.348Z" transform="translate(-163.111 -415.973)" fill="#ff6d75" fill-rule="evenodd"/>
    </g>
    <g id="Group_24678" data-name="Group 24678" transform="translate(61.924 71.517)">
      <path id="Path_49850" data-name="Path 49850" d="M208.275,401.667l4.285,5.348,5.73-3.128-4.285-5.348Z" transform="translate(-208.275 -398.539)" fill="#b3e59f" fill-rule="evenodd"/>
    </g>
    <g id="Group_24679" data-name="Group 24679" transform="translate(67.654 66.561)">
      <path id="Path_49851" data-name="Path 49851" d="M240.207,375.878l4.285,5.348,10.489-5.73-5.7-4.574Z" transform="translate(-240.207 -370.922)" fill="#ff6d75" fill-rule="evenodd"/>
    </g>
    <g id="Group_24680" data-name="Group 24680" transform="translate(103.541 9.61)">
      <path id="Path_49852" data-name="Path 49852" d="M440.2,53.554V68.3h7.516V54.38a.828.828,0,0,0-.826-.826H440.2Z" transform="translate(-440.196 -53.554)" fill="#ff6d75" fill-rule="evenodd"/>
    </g>
    <g id="Group_24681" data-name="Group 24681" transform="translate(103.541 24.359)">
      <path id="Path_49853" data-name="Path 49853" d="M440.2,135.744v6.412h7.516v-6.412Z" transform="translate(-440.196 -135.744)" fill="#85beef" fill-rule="evenodd"/>
    </g>
    <g id="Group_24682" data-name="Group 24682" transform="translate(103.541 30.77)">
      <path id="Path_49854" data-name="Path 49854" d="M440.2,171.474v49.837h6.69a.828.828,0,0,0,.826-.826V171.474Z" transform="translate(-440.196 -171.474)" fill="#d9eeff" fill-rule="evenodd"/>
    </g>
    <g id="Group_24683" data-name="Group 24683" transform="translate(29.918 30.77)">
      <path id="Path_49855" data-name="Path 49855" d="M29.919,171.474h81.139v5.565H29.919Z" transform="translate(-29.919 -171.474)" fill="#d9eeff" fill-rule="evenodd"/>
    </g>
    <g id="Group_24684" data-name="Group 24684" transform="translate(50.889 45.568)">
      <path id="Path_49856" data-name="Path 49856" d="M180.834,282.881a1.359,1.359,0,0,1-.854-.3l-32.687-26.214A1.366,1.366,0,0,1,149,254.235L181.69,280.45a1.366,1.366,0,0,1-.855,2.431Z" transform="translate(-146.782 -253.935)" fill="#fde588"/>
    </g>
  </g>
</svg>
