<svg xmlns="http://www.w3.org/2000/svg" id="kit" width="92.968" height="96.867" viewBox="0 0 92.968 96.867">
    <defs>
        <style>
            .cls-1{fill:#edb740}.cls-2{fill:#d8a43d}.cls-3{fill:#ccd3df}.cls-4{fill:#b0b5ca}.cls-7{fill:#5fa8ed}.cls-8{fill:#4689d3}
        </style>
    </defs>
    <path id="Path_48841" d="M139.852 205.43h-6.947a2.163 2.163 0 0 0-.973 4.1 2.125 2.125 0 0 0 .973.232h6.947a2.143 2.143 0 0 0 .971-.23 2.164 2.164 0 0 0-.971-4.1z" class="cls-1" transform="translate(-109.963 -167.375)"/>
    <path id="Path_48842" d="M142.054 230.082l-.71 1.428H131.22c.32-1.983.743-3.84 1.094-6.12a2.126 2.126 0 0 0 .973.232h6.947a2.143 2.143 0 0 0 .971-.23c.268 1.732.576 3.208.849 4.69z" class="cls-2" transform="translate(-110.345 -183.238)"/>
    <path id="Path_48843" d="M149.1 28.684l-1.788 34.14h-2.922l-1.632-34.14L145.931 26z" class="cls-3" transform="translate(-119.516 -24.769)"/>
    <path id="Path_48844" d="M359.73 183.18h9.97v3.641h-9.97z" class="cls-1" transform="translate(-291.958 -149.691)"/>
    <path id="Path_48845" d="M370.7 212.062h-9.31c.24-3.934.413-7.13.464-11.142h8.186c.101 3.99.372 7.193.66 11.142z" class="cls-2" transform="translate(-293.277 -163.79)"/>
    <path id="Path_48846" d="M363.46 161.66h8.24c-.035.936-.053 3.456-.057 4.416h-8.137c-.006-.958-.021-3.476-.046-4.416z" class="cls-4" transform="translate(-294.922 -132.588)"/>
    <path id="Path_48847" d="M327.028 98.75v11.444c-1.057-.47-6.51-.433-7.478 0V98.75c.969.431 6.422.468 7.478 0z" class="cls-4" transform="translate(-260.024 -82.588)"/>
    <path id="Path_48848" d="M419.517 98.75v11.444c-.967-.433-6.42-.47-7.477 0V98.75c1.06.468 6.51.431 7.477 0z" class="cls-4" transform="translate(-333.533 -82.588)"/>
    <g id="Group_18148" transform="translate(2.017 13.288)">
        <path id="Path_48849" d="M454.223 87.629v11.432a2.876 2.876 0 0 1-5.753.006V87.623a2.876 2.876 0 1 1 5.753.006z" class="cls-3" transform="translate(-364.503 -84.75)"/>
        <path id="Path_48850" d="M355.99 91.6h11.5v14.378h-11.5z" class="cls-3" transform="translate(-291.003 -90.194)"/>
        <path id="Path_48851" d="M297.281 87.633v11.438a2.875 2.875 0 0 1-5.751-.006V87.633a2.875 2.875 0 0 1 5.751-.006z" class="cls-3" transform="translate(-239.772 -84.754)"/>
        <path id="Path_48852" d="M39.33 116.22h18.035a105.847 105.847 0 0 1-3.905 28.525 41.955 41.955 0 0 1-3.415 8.776H46.65a31.065 31.065 0 0 1-2.84-6.7 105.425 105.425 0 0 1-4.48-30.601z" class="cls-3" transform="translate(-39.33 -109.762)"/>
    </g>
    <path id="Path_48853" fill="#4a5160" d="M47.752 265.34a7.968 7.968 0 0 0-2.588 5.241l-.872 10.329a8 8 0 0 1 4.642-5.759l1.66-3.115a31.071 31.071 0 0 1-2.842-6.696z" transform="translate(-41.255 -214.99)"/>
    <path id="Path_48854" fill="#6d7486" d="M167.868 262.53a7.994 7.994 0 0 0-7.963-7.32h-64.95a41.948 41.948 0 0 1-3.415 8.776l.839 2.45H160.9a7.993 7.993 0 0 1 7.836 6.413z" transform="translate(-78.808 -206.939)"/>
    <path id="Path_48855" d="M125.978 376.113L124.5 358.64H37l-1.47 17.473a7.992 7.992 0 0 0 7.963 8.665h74.522a7.992 7.992 0 0 0 7.963-8.665z" class="cls-7" transform="translate(-34.27 -289.142)"/>
    <path id="Path_48856" d="M47.764 314.747v-1.6a8 8 0 0 0-4.642 5.759l-.3 3.577h10.649l.08-7.739z" class="cls-7" transform="translate(-40.087 -252.988)"/>
    <path id="Path_48857" d="M170.225 316.323a7.993 7.993 0 0 0-7.835-6.413H93.66l-.25 10h77.118z" class="cls-8" transform="translate(-80.294 -250.413)"/>
    <path id="Path_48858" d="M41.687 376.113l1.474-17.473H37l-1.47 17.473a7.992 7.992 0 0 0 7.963 8.665h6.157a7.992 7.992 0 0 1-7.963-8.665z" class="cls-8" transform="translate(-34.27 -289.142)"/>
    <path id="Path_48859" d="M47.915 146.824a105.425 105.425 0 0 1-4.48-30.6h-4.1a105.425 105.425 0 0 0 4.48 30.6 31.065 31.065 0 0 0 2.84 6.7h3.394c.112-.193.226-.4.342-.622a35.158 35.158 0 0 1-2.476-6.078z" class="cls-4" transform="translate(-37.313 -96.473)"/>
    <path id="Path_48860" fill="#fea92a" d="M185.9 309.91h28.773v26.384H185.9z" transform="translate(-153.803 -250.413)"/>
    <path id="Path_48861" d="M66.91 297.97h6.715v4.712H66.91z" class="cls-1" transform="translate(-59.233 -240.923)"/>
    <path id="Path_48862" d="M74.018 328.669h-6.3a59.794 59.794 0 0 0 .7-7.739h4.972a62.008 62.008 0 0 0 .628 7.739z" class="cls-2" transform="translate(-59.876 -259.171)"/>
    <path id="Path_48863" fill="#284268" d="M108.009 50.3a1.231 1.231 0 0 0 1.231-1.231V48.6a30.235 30.235 0 0 1 5.148.018 4.1 4.1 0 0 0 8.081-1.02v-11.43a4.1 4.1 0 0 0-8.081-1.02 30.341 30.341 0 0 1-5.148.021v-.474a1.231 1.231 0 0 0-1.231-1.231h-11.5a1.231 1.231 0 0 0-1.231 1.231v.472a30.188 30.188 0 0 1-5.148-.018 4.1 4.1 0 0 0-8.081 1.02V47.6a4.1 4.1 0 0 0 8.081 1.02 30.3 30.3 0 0 1 5.148-.021v.474A1.231 1.231 0 0 0 96.5 50.3h.323c.008.645.014 1.391.019 2.03a1.231 1.231 0 0 0-.805 1.154v3.646a1.231 1.231 0 0 0 .785 1.147c-.062 3.156-.2 5.831-.374 8.765h-4.22l-1.778-3.576a9.221 9.221 0 0 0-8.7-6.172H70.22a9.221 9.221 0 0 0-7.62 4.031 3.386 3.386 0 0 0-3.207-4.5H58.6l1.72-32.842a1.231 1.231 0 0 0-.434-1l-3.171-2.686a1.231 1.231 0 0 0-1.592 0l-3.173 2.68a1.231 1.231 0 0 0-.434 1l1.569 32.848h-.642a3.391 3.391 0 0 0-2.309 5.875c-.156.94-.323 1.817-.486 2.672-.108.567-.211 1.115-.31 1.667H47.27c.336-1.251.657-2.553.953-3.89a109.519 109.519 0 0 0 2.562-23.4 1.231 1.231 0 0 0-1.231-1.231H31.519a1.231 1.231 0 0 0-1.231 1.231 106.234 106.234 0 0 0 4.312 30.26 9.19 9.19 0 0 0-2.414 5.48l-2.647 31.379a9.223 9.223 0 0 0 9.191 10h74.521a9.223 9.223 0 0 0 9.191-10l-2.647-31.379a9.28 9.28 0 0 0-9.191-8.448h-2.532l-.049-.672c-.205-2.787-.385-5.242-.483-8.045a1.231 1.231 0 0 0 .939-1.2v-3.635a1.231 1.231 0 0 0-1.007-1.211c.006-.652.013-1.363.022-1.974zm8.709-14.027a1.226 1.226 0 0 0 0-.194 1.643 1.643 0 0 1 3.285.084V47.6a1.644 1.644 0 0 1-3.289 0zm-7.477 1.349c.747.073 1.627.11 2.507.11s1.76-.037 2.507-.11v8.515a28.674 28.674 0 0 0-5.015 0zM87.8 47.489a1.2 1.2 0 0 0 0 .194 1.643 1.643 0 0 1-3.285-.084V36.168a1.645 1.645 0 1 1 3.289 0zm7.477-1.349a28.672 28.672 0 0 0-5.015 0v-8.514c.747.073 1.627.11 2.507.11s1.76-.037 2.507-.11zm2.463 1.49V36.256a1.2 1.2 0 0 0 0-.182v-.148h9.041v11.581a1.2 1.2 0 0 0 0 .182v.149h-9.045zm.769 8.268V54.72h7.5v1.18zm7.091 11.143h-6.679c.168-2.824.307-5.549.368-8.68h5.78c.1 2.867.282 5.358.49 8.189l.036.491zM99.291 50.3h5.734c-.01.641-.017 1.36-.022 1.953H99.31c-.01-.613-.01-1.323-.019-1.953zM63.755 64.491a1.209 1.209 0 0 0 .063-.151 6.759 6.759 0 0 1 6.4-4.583h11.534a6.759 6.759 0 0 1 6.4 4.585 1.2 1.2 0 0 0 .063.15l1.268 2.55h-27zm-1.819-2.033c-.072.147-.139.3-.2.449l-.034-.205a3.323 3.323 0 0 0 .234-.244zm-6.02-39.612l1.909 1.617-1.7 32.362h-.58L54 24.465zm-3.473 36.441h6.946a.933.933 0 1 1 0 1.866h-6.946a.933.933 0 0 1 0-1.866zm7.48 7.38l-.187.375h-7.9c.073-.4.149-.8.226-1.207.136-.715.275-1.446.409-2.219h6.879c.135.775.274 1.505.41 2.22.055.28.106.555.158.831zM32.758 40.979h15.558a104.555 104.555 0 0 1-3.788 26.788 1.219 1.219 0 0 0-.095.326 43.922 43.922 0 0 1-2.925 7.723h-1.969a32.974 32.974 0 0 1-2.339-5.725 1.229 1.229 0 0 0-.075-.231 104.538 104.538 0 0 1-4.367-28.881zM42.663 79.5v1.028h-4.252v-2.25h4.252V79.5zm-.412 8.768h-3.5c.233-1.829.426-3.606.494-5.277h2.564c.056 1.63.217 3.349.445 5.276zM34.635 75.7a6.744 6.744 0 0 1 .913-2.864c.425 1.157.849 2.175 1.26 3.041a1.231 1.231 0 0 0-.86 1.174V79.4a9.225 9.225 0 0 0-1.728 1.221zm-.879 10.417a6.752 6.752 0 0 1 2.308-3.834 1.233 1.233 0 0 0 .718.644c-.062 1.512-.239 3.177-.518 5.343h-2.69zm41 28.291H38.725a6.761 6.761 0 0 1-6.737-7.329l1.379-16.349h27v15.152a1.231 1.231 0 0 0 1.231 1.231h13.156zM44.268 82.932a1.231 1.231 0 0 0 .858-1.173v-1.03h15.241v7.538H44.731c-.238-1.973-.406-3.71-.463-5.335zM62.83 104.65V80.729h26.31v23.921zm57.152 2.425a6.761 6.761 0 0 1-6.736 7.329h-36.03v-7.292h13.155a1.231 1.231 0 0 0 1.231-1.231V90.73h27zm-1.587-18.809H91.6v-7.537h20a6.808 6.808 0 0 1 6.617 5.386zM110.6 69.5a6.8 6.8 0 0 1 6.737 6.193l.418 4.953a9.2 9.2 0 0 0-6.156-2.384H45.126v-1.215a1.231 1.231 0 0 0-.9-1.185 50.667 50.667 0 0 0 2.341-6.362H110.6z" transform="translate(-29.501 -20)"/>
</svg>
