<svg xmlns="http://www.w3.org/2000/svg" width="57.314" height="49.762" viewBox="0 0 57.314 49.762">
  <g id="laboratory" transform="translate(0 -33.733)">
    <g id="Group_23888" data-name="Group 23888" transform="translate(0 33.733)">
      <path id="Path_49285" data-name="Path 49285" d="M1.12,258.778H12.893l.806-16.047-.806-11.62H0v26.534A1.053,1.053,0,0,0,1.12,258.778Z" transform="translate(0 -209.016)" fill="#fff1dd" fill-rule="evenodd"/>
      <path id="Path_49286" data-name="Path 49286" d="M0,185.064H12.893l.4-3.1-.4-3.094-11.807,3.04A1.3,1.3,0,0,0,0,183.306Z" transform="translate(0 -162.62)" fill="#ff8086" fill-rule="evenodd"/>
      <path id="Path_49287" data-name="Path 49287" d="M115.173,84.417H146.7v44.088H115.173Z" transform="translate(-102.28 -78.743)" fill="#fff8ef" fill-rule="evenodd"/>
      <path id="Path_49288" data-name="Path 49288" d="M198.789,423.415h11.617a.672.672,0,0,1,.67.67v5.471H198.116v-5.471A.672.672,0,0,1,198.789,423.415Z" transform="translate(-175.939 -379.793)" fill="#9dc6fb" fill-rule="evenodd"/>
      <path id="Path_49289" data-name="Path 49289" d="M277.884,423.415h3.36a.672.672,0,0,1,.67.67v5.471h-3.357v-5.471A.672.672,0,0,0,277.884,423.415Z" transform="translate(-246.777 -379.793)" fill="#80b4fb" fill-rule="evenodd"/>
      <path id="Path_49290" data-name="Path 49290" d="M390.433,257.721h11.776a1,1,0,0,0,1.117-1.139V229.921H390.433l-.806,15.38Z" transform="translate(-346.012 -207.959)" fill="#fff1dd" fill-rule="evenodd"/>
      <path id="Path_49291" data-name="Path 49291" d="M115.173,39.813H146.7V38.055a1.326,1.326,0,0,0-1.095-1.349l-13.575-2.859a5.309,5.309,0,0,0-2.189,0l-13.572,2.859a1.3,1.3,0,0,0-1.1,1.349Z" transform="translate(-102.28 -33.733)" fill="#ff8086" fill-rule="evenodd"/>
      <path id="Path_49292" data-name="Path 49292" d="M407.051,185.065H394.158l-.336-3.373.336-2.824,11.811,3.04a1.363,1.363,0,0,1,1.082,1.4v1.758Z" transform="translate(-349.737 -162.621)" fill="#ff8086" fill-rule="evenodd"/>
      <path id="Path_49293" data-name="Path 49293" d="M83.2,234.229h3.579v27.318H83.2Z" transform="translate(-73.885 -211.785)" fill="#ffe4c1" fill-rule="evenodd"/>
      <path id="Path_49294" data-name="Path 49294" d="M86.777,178.868l-3.579.923v5.274h3.579Z" transform="translate(-73.885 -162.621)" fill="#e5646e" fill-rule="evenodd"/>
      <path id="Path_49295" data-name="Path 49295" d="M480,200.3v3.8h3.582v-1.758a1.362,1.362,0,0,0-1.082-1.4Z" transform="translate(-426.265 -181.652)" fill="#e5646e" fill-rule="evenodd"/>
      <path id="Path_49296" data-name="Path 49296" d="M483.579,234.229H480v27.318h2.466a.989.989,0,0,0,1.117-1.12Z" transform="translate(-426.265 -211.785)" fill="#ffe4c1" fill-rule="evenodd"/>
      <path id="Path_49297" data-name="Path 49297" d="M364.824,88.045h3.582v43.682h-3.582Z" transform="translate(-323.985 -81.965)" fill="#fff1dd" fill-rule="evenodd"/>
      <path id="Path_49298" data-name="Path 49298" d="M364.824,59.246h3.582V57.488a1.326,1.326,0,0,0-1.095-1.349l-2.488-.524Z" transform="translate(-323.985 -53.166)" fill="#e5646e" fill-rule="evenodd"/>
      <path id="Path_49299" data-name="Path 49299" d="M45.481,263.54h4.395a.672.672,0,0,1,.673.669v4.4a.675.675,0,0,1-.673.673H45.481a.675.675,0,0,1-.673-.673v-4.4A.672.672,0,0,1,45.481,263.54Zm31.56,9.018h4.395a.675.675,0,0,1,.673.673v4.4a.672.672,0,0,1-.673.67H77.041a.672.672,0,0,1-.673-.67v-4.4A.675.675,0,0,1,77.041,272.558Zm-44.421,0h4.4a.674.674,0,0,1,.67.673v4.4a.672.672,0,0,1-.67.67h-4.4a.674.674,0,0,1-.673-.67v-4.4A.677.677,0,0,1,32.62,272.558Zm44.421-9.018h4.395a.672.672,0,0,1,.673.669v4.4a.675.675,0,0,1-.673.673H77.041a.675.675,0,0,1-.673-.673v-4.4A.672.672,0,0,1,77.041,263.54Zm-44.421,0h4.4a.672.672,0,0,1,.67.669v4.4a.674.674,0,0,1-.67.673h-4.4a.677.677,0,0,1-.673-.673v-4.4A.674.674,0,0,1,32.62,263.54Zm31.561,9.018h4.4a.674.674,0,0,1,.67.673v4.4a.672.672,0,0,1-.67.67h-4.4a.674.674,0,0,1-.673-.67v-4.4A.677.677,0,0,1,64.18,272.558Zm0-9.018h4.4a.672.672,0,0,1,.67.669v4.4a.674.674,0,0,1-.67.673h-4.4a.677.677,0,0,1-.673-.673v-4.4A.674.674,0,0,1,64.18,263.54Zm-9.351,9.018h4.4a.677.677,0,0,1,.673.673v4.4a.674.674,0,0,1-.673.67h-4.4a.672.672,0,0,1-.67-.67v-4.4A.674.674,0,0,1,54.829,272.558Zm0-9.018h4.4a.674.674,0,0,1,.673.669v4.4a.677.677,0,0,1-.673.673h-4.4a.674.674,0,0,1-.67-.673v-4.4A.672.672,0,0,1,54.829,263.54Zm-9.348,9.018h4.395a.675.675,0,0,1,.673.673v4.4a.672.672,0,0,1-.673.67H45.481a.672.672,0,0,1-.673-.67v-4.4A.675.675,0,0,1,45.481,272.558Z" transform="translate(-28.371 -237.815)" fill="#c3ddff" fill-rule="evenodd"/>
      <path id="Path_49300" data-name="Path 49300" d="M60.087,263.54h3.357a.672.672,0,0,1,.673.669v4.4a.675.675,0,0,1-.673.673H60.087a.677.677,0,0,0,.673-.673v-4.4A.674.674,0,0,0,60.087,263.54Zm31.56,9.018H95a.675.675,0,0,1,.673.673v4.4a.672.672,0,0,1-.673.67H91.647a.672.672,0,0,0,.673-.67v-4.4A.675.675,0,0,0,91.647,272.558Zm-44.421,0h3.36a.674.674,0,0,1,.67.673v4.4a.672.672,0,0,1-.67.67h-3.36a.672.672,0,0,0,.673-.67v-4.4A.675.675,0,0,0,47.226,272.558Zm44.421-9.018H95a.672.672,0,0,1,.673.669v4.4a.675.675,0,0,1-.673.673H91.647a.675.675,0,0,0,.673-.673v-4.4A.672.672,0,0,0,91.647,263.54Zm-44.421,0h3.36a.672.672,0,0,1,.67.669v4.4a.674.674,0,0,1-.67.673h-3.36a.675.675,0,0,0,.673-.673v-4.4A.672.672,0,0,0,47.226,263.54Zm31.56,9.018h3.36a.674.674,0,0,1,.67.673v4.4a.672.672,0,0,1-.67.67h-3.36a.672.672,0,0,0,.673-.67v-4.4A.675.675,0,0,0,78.786,272.558Zm0-9.018h3.36a.672.672,0,0,1,.67.669v4.4a.674.674,0,0,1-.67.673h-3.36a.675.675,0,0,0,.673-.673v-4.4A.672.672,0,0,0,78.786,263.54Zm-9.348,9.018H72.8a.677.677,0,0,1,.673.673v4.4a.674.674,0,0,1-.673.67H69.438a.672.672,0,0,0,.67-.67v-4.4A.674.674,0,0,0,69.438,272.558Zm0-9.018H72.8a.674.674,0,0,1,.673.669v4.4a.677.677,0,0,1-.673.673H69.438a.674.674,0,0,0,.67-.673v-4.4A.672.672,0,0,0,69.438,263.54Zm-9.351,9.018h3.357a.675.675,0,0,1,.673.673v4.4a.672.672,0,0,1-.673.67H60.087a.674.674,0,0,0,.673-.67v-4.4A.677.677,0,0,0,60.087,272.558Z" transform="translate(-41.939 -237.815)" fill="#a4ccff" fill-rule="evenodd"/>
    </g>
    <path id="Path_49301" data-name="Path 49301" d="M157.731,139.48a.839.839,0,0,1-1.568-.6l3.294-8.644a1.034,1.034,0,0,1,1.932,0l3.262,8.644a.838.838,0,1,1-1.568.59l-.606-1.609h-4.135Zm15.726-2.669a3.2,3.2,0,0,1-3.2,3.2c-1.234,0-2.983.006-2.989.006a.837.837,0,0,1-.841-.835v-8.767a.84.84,0,0,1,.838-.841h2.548a2.86,2.86,0,0,1,2.262,4.6,3.321,3.321,0,0,1,.444.371A3.179,3.179,0,0,1,173.458,136.811Zm-5.353-3.2h1.707a1.179,1.179,0,1,0,0-2.358H168.1Zm3.227,4.277a1.52,1.52,0,0,0-1.076-2.6H168.1v3.049l2.151-.01A1.523,1.523,0,0,0,171.332,137.887Zm-21.689-7.466a.839.839,0,1,1,1.679,0v7.933l2.231-.01a.836.836,0,1,1,0,1.672h-3a.862.862,0,0,1-.911-.835Zm10.779,2-1.437,3.773h2.859Z" transform="translate(-132.892 -85.112)" fill="#6f6571"/>
  </g>
</svg>
