<svg xmlns="http://www.w3.org/2000/svg" width="44.075" height="67.694" viewBox="0 0 44.075 67.694">
  <g id="Group_23997" data-name="Group 23997" transform="translate(13883 21067)">
    <path id="Path_3423" data-name="Path 3423" d="M184.141,271.022c0,.021,0,.042,0,.064h-.963a.513.513,0,0,0,0-.064Z" transform="translate(-14045.571 -21289.795)" fill="#d5d5e2"/>
    <g id="Group_23999" data-name="Group 23999" transform="translate(-13876.719 -21067)">
      <path id="Path_3420" data-name="Path 3420" d="M97.1,65.029c-.253-1.1-.451-2.208-.691-3.31-.37-1.7-.632-3.426-1.011-5.124-.4-1.816-.72-3.649-1.135-5.461-.152-.668-.266-1.346-.4-2.018-.3-1.5-.606-3-.906-4.5-.175-.875-.333-1.755-.52-2.627-.2-.942-.317-1.905-.612-2.827-.091-.286.013-.618-.2-.875v-.444a9.7,9.7,0,0,1,1.869,0,4.76,4.76,0,0,1,3.535,2.239c.314.5.439,1.078.728,1.584.173.112.16.293.166.464.056,1.588.107,3.176.074,4.765-.047,2.255.036,4.508.1,6.76.069,2.514.009,5.025.055,7.537a2.988,2.988,0,0,0-.046.7c.052.857-.07,1.711-.077,2.568,0,.516.088,1.026.086,1.544a13.608,13.608,0,0,0-.079,1.506c.018.17-.081.2-.209.327-.153.146-.173-.178-.187-.305" transform="translate(-91.62 -36.72)" fill="#ffd506"/>
      <path id="Path_3421" data-name="Path 3421" d="M122.086,57.1c-.011-1.9-.092-3.8-.113-5.693q-.067-5.951-.151-11.9c-.009-.654-.04-1.305-.061-1.958.049-1.157,0-2.314-.031-3.471-.01-.368,0-.738-.016-1.106-.012-.252.065-.362.337-.339a5.341,5.341,0,0,1,4.056,2.094,5.752,5.752,0,0,1,.916,2.535c.014.08-.025.178.073.231a4.694,4.694,0,0,1-.215,1.412c-.3,1.807-.633,3.61-.953,5.414q-.635,3.58-1.271,7.158-.723,4.031-1.456,8.06-.419,2.324-.831,4.648a1.912,1.912,0,0,1-.187.633c-.212-.1-.192-.3-.187-.479q.027-1.029.075-2.056c.033-.688-.061-1.374-.068-2.06-.009-.919.027-2.2.005-3.12C122,56.978,122.134,57.218,122.086,57.1Z" transform="translate(-115.629 -32.594)" fill="#1fae93"/>
      <path id="Path_3422" data-name="Path 3422" d="M121.523,160.232c.082-.014.114-.084.118-.166a26.388,26.388,0,0,0-.054-3.68c-.024-.273.123-.479.111-.743-.033-.652,0-1.3,0-1.958a.7.7,0,0,1,.059.43q.046,3.384.087,6.767c0,.172.018.345.029.516a1.218,1.218,0,0,1-.121.479,6.2,6.2,0,0,1-.427-1.956" transform="translate(-115.32 -129.18)" fill="#ffd506"/>
      <path id="Path_3424" data-name="Path 3424" d="M198.1,201.85c.319.434.621.88.949,1.308a2.025,2.025,0,0,1,.466,1.129.907.907,0,0,1-.712-.588c-.054-.147-.218-.253-.333-.378.059-.341-.172-.562-.332-.812-.11-.174-.221-.346-.332-.519C197.784,201.684,197.942,201.762,198.1,201.85Z" transform="translate(-176.34 -167.545)" fill="#fcfefd"/>
      <path id="Path_3425" data-name="Path 3425" d="M182.406,180.063c.029-.066.086-.075.147-.079.3-.094.17.239.308.305.36-.085.377-.393.435-.674.231-.108.226.126.317.219.157.094.364.094.027.322a1.556,1.556,0,0,1-1.07.268c-.125-.1.054-.264-.085-.357Z" transform="translate(-164.053 -149.846)" fill="#edf9f8"/>
      <path id="Path_3426" data-name="Path 3426" d="M193.048,187.881c.19-.042.449-.252.415.207-.008.116.205.15.319.211.091.048.19.068.179.2-.014.173-.161.121-.258.135a.524.524,0,0,1-.255-.014.891.891,0,0,0-.783.037.219.219,0,0,1-.3-.035.228.228,0,0,1-.031-.3c.121-.164.075-.489.419-.442C192.848,187.966,192.944,188.051,193.048,187.881Z" transform="translate(-171.937 -156.395)" fill="#fafdfd"/>
      <g id="Group_18034" data-name="Group 18034" transform="translate(11.171 25.844)">
        <path id="Path_3427" data-name="Path 3427" d="M230.8,201.018c.157-.09.268-.1.35.112a1.689,1.689,0,0,1,.176.838A2.156,2.156,0,0,0,230.8,201.018Z" transform="translate(-213.833 -192.738)" fill="#6ae3cc"/>
        <g id="Group_18033" data-name="Group 18033">
          <path id="Path_3428" data-name="Path 3428" d="M160.147,193.705c0,.593.128.674.673.421.246-.116.568-.375.747-.225.211.176-.028.523-.091.789a5.442,5.442,0,0,1-1.531,2.221c-.473.533-.9,1.033-.683,1.824a3.281,3.281,0,0,1,.032.785.591.591,0,0,1-.4.615,5.078,5.078,0,0,0-.8.487c-.314.169-.185.47-.066.727a10.03,10.03,0,0,1-4.131.764,5.3,5.3,0,0,1-1-1.4.711.711,0,0,1-.027-.666,1.778,1.778,0,0,0-.416-1.941,1.587,1.587,0,0,1-.431-1.342c.06-.3-.158-.39-.394-.563-.845-.62-1.81-.349-2.715-.473a1.617,1.617,0,0,1-1.2-.657,3.249,3.249,0,0,1-.708-2.943c.182-.614.16-1.285.644-1.789.037-.038.057-.093.1-.123a22.006,22.006,0,0,0,1.7-1.709,1.094,1.094,0,0,1,.761-.257c.692-.03,1.365-.255,2.069-.275.612-.016.729.038.838.653.022.124.021.266.159.3a5.675,5.675,0,0,1,1,.467c.216.107.364,0,.508-.148a.6.6,0,0,1,.723-.148,4.813,4.813,0,0,0,1.436.313c.188.042.4.052.481.273.091.276-.056.457-.23.649a5.527,5.527,0,0,0-.766,1.049c.306-.117.422-.4.636-.6.188-.172.387-.359.644-.186s.152.425.04.657a.585.585,0,0,0,.492.752,1.089,1.089,0,0,1,.54.169c.493.449.752,1.113,1.357,1.457C160.133,193.66,160.14,193.683,160.147,193.705Z" transform="translate(-146.877 -182.377)" fill="#1fae93"/>
          <path id="Path_3429" data-name="Path 3429" d="M168.679,169.772a1.557,1.557,0,0,0,.222-.741c0-.439-.137-.523-.519-.315a1.863,1.863,0,0,1-1.306-.525c-.131-.234-.212-.545-.6-.4-.271.023-.138.456-.448.44-.183-.007-.236-.167-.26-.287-.109-.559-.646-.738-.959-1.113a.21.21,0,0,0-.284-.044c-.1.071-.089.183-.037.283s.123.21.186.315c.094.238,0,.277-.207.2-.127,0-.163-.107-.23-.186a1.162,1.162,0,0,0-1.555-.02,4.592,4.592,0,0,0-.911.865c-.23.3-.58.174-.885.165-.11,0-.2-.123-.249-.247-.119-.328.436-1.113.779-1.1.139,0,.281.019.42.015.43-.016.595-.252.413-.647-.095-.209-.065-.32.114-.424.247-.2.575-.183.851-.305.288-.01.438-.323.728-.332.158-.08.329-.129.487-.206a1.93,1.93,0,0,0,1.22-.3c.127-.111.317-.176.218-.4-.129-.03.116-.338-.181-.236-.13.415-.191.889-.788.882-.18-.079-.151-.384-.41-.376-.082-.015-.162-.068-.244,0-.372-.4.036-.572.26-.661a3.323,3.323,0,0,0,.906-.5c.57-.473,1.205-.214,1.744-.019a1.606,1.606,0,0,0,.88.018,4.547,4.547,0,0,1,1.961-.211,3.424,3.424,0,0,1,1.154.6,1.27,1.27,0,0,0,.685.473,9.909,9.909,0,0,1,3.168,4.954,7.165,7.165,0,0,0,.867,1.6c-.19.705.105,1.412-.075,2.154q-.229-.6-.461-1.209c-.078-.372-.082-.783-.526-.95a1.292,1.292,0,0,1-.258-.255.519.519,0,0,0-.752-.243c-.242.1-.5.2-.7-.088a.19.19,0,0,0-.237-.058c-.47.259-.694-.091-.938-.373-.132-.153-.289-.236-.458-.121-.219.147-.076.314.048.438.229.233.375.541.678.714a.459.459,0,0,0,.436.054c.131-.051.165-.43.383-.157.2.25.646.328.519.817a3.751,3.751,0,0,1-1.572,1.952,1.243,1.243,0,0,1-.846.369l.012.009a.855.855,0,0,1-.238-.344,10.248,10.248,0,0,0-1.63-2.542,2.128,2.128,0,0,1-.3-.492c-.041-.088-.087-.215-.2-.133-.058.044.058.133.1.2.246.361.5.713.735,1.081.168.266.331.553.042.852-.025-.024-.052-.069-.076-.068-.429.03-.712-.247-1.047-.448-.316-.191-.3-.324-.075-.545a1,1,0,0,0,.2-.23.249.249,0,0,0-.031-.337.214.214,0,0,0-.323.055c-.159.231-.423.373-.53.646-.063.166-.116.354-.348.315a.322.322,0,0,1-.279-.276.464.464,0,0,1,.206-.494,4.284,4.284,0,0,0,.943-1.159C168.382,169.959,168.567,169.91,168.679,169.772Z" transform="translate(-157.844 -162.685)" fill="#1fae93"/>
          <path id="Path_3430" data-name="Path 3430" d="M211.06,244.42a2.957,2.957,0,0,1,1.11-1.208c.129-.021.147.138.245.172A5.259,5.259,0,0,1,211.06,244.42Z" transform="translate(-198.084 -226.449)" fill="#1fae93"/>
          <path id="Path_3431" data-name="Path 3431" d="M204.64,162.6a6.99,6.99,0,0,0-1.157-.573c-.282-.135-.732.091-.848-.4.128-.108.334.1.435-.112a6.267,6.267,0,0,1,1.671.975C204.758,162.57,204.723,162.606,204.64,162.6Z" transform="translate(-191.363 -161.268)" fill="#1fae93"/>
          <path id="Path_3432" data-name="Path 3432" d="M212.555,166.445l.1-.109a1.872,1.872,0,0,1,.615.513C212.959,166.844,212.618,166.89,212.555,166.445Z" transform="translate(-199.277 -165.116)" fill="#1fae93"/>
          <path id="Path_3433" data-name="Path 3433" d="M197.2,195.359c-.053.211-.152.363-.4.333-.05-.263-.261-.18-.425-.2C196.613,195.222,196.938,195.484,197.2,195.359Z" transform="translate(-186.366 -188.272)" fill="#1fae93"/>
          <path id="Path_3434" data-name="Path 3434" d="M164.884,160.3c-1.26.584-2.462.856-3.6,1.273A7.007,7.007,0,0,1,164.884,160.3Z" transform="translate(-158.371 -160.303)" fill="#1fae93"/>
          <path id="Path_3435" data-name="Path 3435" d="M198.379,162l.849.4c-.628.284-1.294-.064-1.927.115C197.709,162.447,197.88,161.879,198.379,162Z" transform="translate(-187.106 -161.644)" fill="#1fae93"/>
          <path id="Path_3436" data-name="Path 3436" d="M169.316,171.413a.2.2,0,0,1-.022-.318.534.534,0,0,1,.167-.122c.222-.118-.039-.6.248-.506.243.082.239.518.251.824C169.8,171.6,169.572,171.579,169.316,171.413Z" transform="translate(-164.71 -168.402)" fill="#1fae93"/>
          <path id="Path_3437" data-name="Path 3437" d="M169.333,174.713a1.147,1.147,0,0,0,.644-.123c.042.04.083.081.123.122-.194.356-.529.314-.851.307Z" transform="translate(-164.726 -171.702)" fill="#1fae93"/>
          <path id="Path_3438" data-name="Path 3438" d="M179.644,183.739c.116-.017.2-.068.207-.2a.535.535,0,0,1,.445.708Z" transform="translate(-173.02 -178.843)" fill="#1fae93"/>
          <path id="Path_3439" data-name="Path 3439" d="M187.31,185.943c.117-.18.081-.515.448-.439-.146.142-.1.316-.092.489a.221.221,0,0,1-.2.21C187.3,186.205,187.274,186.083,187.31,185.943Z" transform="translate(-179.125 -180.401)" fill="#1fae93"/>
          <path id="Path_3440" data-name="Path 3440" d="M166.719,172.611c-.032.174-.191.2-.338.235-.1.023-.185-.017-.148-.129.041-.127.1-.263.267-.279C166.612,172.43,166.706,172.457,166.719,172.611Z" transform="translate(-162.313 -169.984)" fill="#1fae93"/>
          <path id="Path_3441" data-name="Path 3441" d="M177.474,170.4c.384.088.029.353.122.508-.184.023-.338.172-.537.128C177.253,170.866,177.556,170.761,177.474,170.4Z" transform="translate(-170.956 -168.362)" fill="#1fae93"/>
          <path id="Path_3442" data-name="Path 3442" d="M179.49,187.771c.095.02.21.039.231.16a.118.118,0,0,1-.133.128c-.12-.008-.25-.042-.262-.189C179.32,187.793,179.409,187.772,179.49,187.771Z" transform="translate(-172.766 -182.218)" fill="#1fae93"/>
          <path id="Path_3443" data-name="Path 3443" d="M199.968,198.022c-.171,0-.4-.125-.419.2-.076-.162-.351-.244-.207-.5C199.543,197.837,199.927,197.568,199.968,198.022Z" transform="translate(-188.702 -190.158)" fill="#1fae93"/>
          <path id="Path_3444" data-name="Path 3444" d="M185.282,166.037c-.173-.07-.231-.311-.452-.313.194-.1.315-.316.587-.377C185.435,165.609,185.19,165.8,185.282,166.037Z" transform="translate(-177.157 -164.327)" fill="#1fae93"/>
          <path id="Path_3445" data-name="Path 3445" d="M180.027,169.609c-.3,0-.151-.432-.439-.435.1-.15.221-.266.331-.021A2.555,2.555,0,0,1,180.027,169.609Z" transform="translate(-172.975 -167.251)" fill="#1fae93"/>
          <path id="Path_3446" data-name="Path 3446" d="M196.329,179.273c-.035.1.11.266-.077.3-.225.043-.272-.161-.345-.313C196.048,179.277,196.186,179.357,196.329,179.273Z" transform="translate(-185.996 -175.429)" fill="#1fae93"/>
        </g>
      </g>
      <path id="Path_3451" data-name="Path 3451" d="M146,68.442c-1.2-.224-1.25,1.063-1.271,1.16a7.041,7.041,0,0,1-.392,1.487l0,0a10.045,10.045,0,1,1-.084-6.474,10.293,10.293,0,0,1,.478,1.953c.021.1.07,1.384,1.271,1.16,1.147-.119,1.332-.579,1.332-1.7l-.373-1.709a12.169,12.169,0,0,0-3.151-5.436c-4.034-3.9-8.722-4.849-14.006-3.017-.107.039-.2.142-.343.048a3.372,3.372,0,0,1,.058-.437c.362-2.225.745-4.449,1.124-6.673.529-3.1,1.037-6.2,1.571-9.3a8.432,8.432,0,0,0,.178-2.935,5.089,5.089,0,0,0-3.87-4.036c-.586-.149-.674-.049-.787.544-.273,1.437-.466,2.888-.805,4.312-.058.677-.252,1.33-.356,2-.379,2.423-.867,4.826-1.279,7.242-.571,3.35-1.2,6.692-1.782,10.041q-.55,3.167-1.132,6.331l-.461,2.128a12.652,12.652,0,0,0-.255,3.048,12.709,12.709,0,0,0,12.482,12.517H135a10.454,10.454,0,0,0,2.531-.2,12.81,12.81,0,0,0,6.71-4,14,14,0,0,0,2.85-5.3h0l.005-.035c0-.007,0-.021.007-.028s.008-.041.012-.06l.216-.922C147.336,69.023,147.152,68.561,146,68.442Z" transform="translate(-115.592 -32.471)" fill="#16135a"/>
    </g>
    <g id="Group_23998" data-name="Group 23998" transform="translate(-13883 -21013.1)">
      <path id="Path_48645" data-name="Path 48645" d="M68.741,285.963v2.52h-2.58l.045,10.786H63.544q0-.173,0-.608t0-1.058v-1.391q0-.768,0-1.605t0-1.7v-4.429H60.993v-2.5Z" transform="translate(-60.993 -285.678)" fill="#16135a"/>
      <path id="Path_48646" data-name="Path 48646" d="M114.828,294.176a3.9,3.9,0,0,1-.352,1.545,3.47,3.47,0,0,1-.829,1.107,4.374,4.374,0,0,1-1.174.739,7.5,7.5,0,0,1-1.387.442,10.313,10.313,0,0,1-1.478.21q-.751.052-1.437.045t-1.271-.049q-.585-.041-.983-.078L105.887,285q1.08-.172,2.145-.262a14.282,14.282,0,0,1,2.033-.034,8.647,8.647,0,0,1,1.8.285,4.114,4.114,0,0,1,1.426.686,3.039,3.039,0,0,1,.923,1.181,4,4,0,0,1,.3,1.766,3.386,3.386,0,0,1-.412,1.6,3.545,3.545,0,0,1-.99,1.106,6.085,6.085,0,0,1,.675.518,3.411,3.411,0,0,1,.563.638,3,3,0,0,1,.375.772A2.591,2.591,0,0,1,114.828,294.176Zm-6.578-4a5.369,5.369,0,0,0,.7.034,8.149,8.149,0,0,0,.84-.053,5.73,5.73,0,0,0,.855-.161,2.972,2.972,0,0,0,.746-.3,1.61,1.61,0,0,0,.518-.466,1.008,1.008,0,0,0,.168-.656,1.247,1.247,0,0,0-.21-.641,1.665,1.665,0,0,0-.488-.465,2.677,2.677,0,0,0-.682-.3,5.053,5.053,0,0,0-.8-.165,5.545,5.545,0,0,0-.844-.041,7.182,7.182,0,0,0-.806.064Zm0,5.746a4.251,4.251,0,0,0,.536.041,7.1,7.1,0,0,0,.81-.026,6.467,6.467,0,0,0,.915-.146,3.211,3.211,0,0,0,.844-.319,1.727,1.727,0,0,0,.6-.537,1.241,1.241,0,0,0,.184-.814,1.289,1.289,0,0,0-.232-.671,1.693,1.693,0,0,0-.517-.469,2.773,2.773,0,0,0-.713-.292,4.868,4.868,0,0,0-.818-.143,5.829,5.829,0,0,0-.836-.015q-.417.022-.769.075Z" transform="translate(-96.811 -284.657)" fill="#16135a"/>
      <path id="Path_48647" data-name="Path 48647" d="M166.336,291.493a6.642,6.642,0,0,1-.262,2.1,5.934,5.934,0,0,1-.863,1.77,6,6,0,0,1-1.4,1.388,7.518,7.518,0,0,1-1.86.96,9.457,9.457,0,0,1-2.25.488,12.072,12.072,0,0,1-2.577-.038V284.832a14.556,14.556,0,0,1,2.442-.033,9.846,9.846,0,0,1,2.175.4,7.387,7.387,0,0,1,1.837.848,5.668,5.668,0,0,1,1.429,1.32,6.132,6.132,0,0,1,.941,1.811A8.254,8.254,0,0,1,166.336,291.493Zm-2.325.54a6.1,6.1,0,0,0-.222-1.759,4,4,0,0,0-2.175-2.6,5.667,5.667,0,0,0-2.111-.518l.052,8.948a5.657,5.657,0,0,0,1.815-.409,4.586,4.586,0,0,0,1.4-.888,3.975,3.975,0,0,0,.9-1.257A3.792,3.792,0,0,0,164.011,292.033Z" transform="translate(-137.69 -284.719)" fill="#16135a"/>
      <path id="Path_48648" data-name="Path 48648" d="M209.61,284.552c.015.06.035.137.063.229s.07.227.128.4.139.413.244.708.237.657.4,1.084.356.941.588,1.541.505,1.3.818,2.086.674,1.69,1.083,2.7q.833-2.04,1.4-3.484t.938-2.415q.37-.972.57-1.539t.292-.858c.063-.2.107-.348.132-.458h2.505q.023.142.075.559t.124,1.031q.071.615.165,1.387t.192,1.632q.1.859.206,1.766t.214,1.789q.1.881.2,1.7t.176,1.5q.083.682.147,1.192t.1.765l-2.625.472-.862-8.393q-.278.7-.559,1.474t-.559,1.537q-.278.769-.533,1.489t-.472,1.331c-.145.408-.275.764-.386,1.066s-.2.531-.267.686H211.77q-.1-.232-.266-.686t-.386-1.066q-.218-.61-.472-1.331t-.533-1.489q-.277-.768-.562-1.537t-.555-1.474l-.862,8.393-2.626-.472q.037-.256.1-.765t.146-1.192q.082-.683.176-1.5t.2-1.7q.1-.882.214-1.789t.206-1.766q.1-.86.19-1.632t.165-1.387q.072-.615.124-1.031t.075-.559Z" transform="translate(-176.291 -284.552)" fill="#16135a"/>
    </g>
  </g>
</svg>
