<svg xmlns="http://www.w3.org/2000/svg" width="89.578" height="89.578" viewBox="0 0 89.578 89.578">
  <g id="auction" transform="translate(-1 -1)">
    <g id="Group_24598" data-name="Group 24598" transform="translate(2.445 2.445)">
      <g id="Group_24597" data-name="Group 24597" transform="translate(0 0)">
        <path id="Path_49746" data-name="Path 49746" d="M2,2V74.24a5.779,5.779,0,0,1,5.779-5.779H59.792V2Z" transform="translate(-2 -2)" fill="#d5cec2"/>
      </g>
    </g>
    <g id="Group_24599" data-name="Group 24599" transform="translate(2.445 2.445)">
      <path id="Path_49747" data-name="Path 49747" d="M2,64.111c.241,0,.48.016.722.016,27.529,0,49.846-20.052,49.846-44.789A40.771,40.771,0,0,0,48.693,2H2Z" transform="translate(-2 -2)" fill="#f7f5f3"/>
    </g>
    <g id="Group_24600" data-name="Group 24600" transform="translate(34.332 8.017)">
      <circle id="Ellipse_197" data-name="Ellipse 197" cx="3" cy="3" r="3" transform="translate(-0.332 -0.018)" fill="#bf8859"/>
    </g>
    <g id="Group_24601" data-name="Group 24601" transform="translate(22.672 28.451)">
      <path id="Path_49748" data-name="Path 49748" d="M20.334,25.779A4.334,4.334,0,0,1,16,21.445V20h8.669v1.445A4.334,4.334,0,0,1,20.334,25.779Z" transform="translate(-16 -20)" fill="#bf8859"/>
    </g>
    <g id="Group_24602" data-name="Group 24602" transform="translate(42.899 28.451)">
      <path id="Path_49749" data-name="Path 49749" d="M34.334,25.779A4.334,4.334,0,0,1,30,21.445V20h8.669v1.445A4.334,4.334,0,0,1,34.334,25.779Z" transform="translate(-30 -20)" fill="#bf8859"/>
    </g>
    <g id="Group_24603" data-name="Group 24603" transform="translate(28.451 40.01)">
      <path id="Path_49750" data-name="Path 49750" d="M37.338,33.779H20V32.334A4.334,4.334,0,0,1,24.334,28H33a4.334,4.334,0,0,1,4.334,4.334Z" transform="translate(-20 -28)" fill="#bf8859"/>
    </g>
    <g id="Group_24604" data-name="Group 24604" transform="translate(2.445 68.906)">
      <path id="Path_49751" data-name="Path 49751" d="M59.792,59.558H7.779A5.779,5.779,0,0,1,7.779,48H59.792Z" transform="translate(-2 -48)" fill="#8a8275"/>
    </g>
    <g id="Group_24605" data-name="Group 24605" transform="translate(44.344 60.237)">
      <path id="Path_49752" data-name="Path 49752" d="M36.779,55,31,47.779l7.224,1.445V42l4.334,5.779L46.893,42v7.224l7.224-1.445L48.338,55Z" transform="translate(-31 -42)" fill="#f8cf6a"/>
    </g>
    <g id="Group_24606" data-name="Group 24606" transform="translate(47.234 77.575)">
      <path id="Path_49753" data-name="Path 49753" d="M33,54H50.338v5.779H33Z" transform="translate(-33 -54)" fill="#bf8859"/>
    </g>
    <g id="Group_24607" data-name="Group 24607" transform="translate(44.344 83.354)">
      <path id="Path_49754" data-name="Path 49754" d="M31,58H54.117v5.779H31Z" transform="translate(-31 -58)" fill="#bf8859"/>
    </g>
    <g id="Group_24608" data-name="Group 24608" transform="translate(67.448 42.903)">
      <path id="Path_49755" data-name="Path 49755" d="M0,0H5.109V25.541H0Z" transform="translate(0 3.612) rotate(-45)" fill="#bf8859"/>
    </g>
    <g id="Group_24609" data-name="Group 24609" transform="translate(57.336 32.79)">
      <path id="Path_49756" data-name="Path 49756" d="M0,0H14.3V10.216H0Z" transform="translate(0 10.112) rotate(-45)" fill="#bf8859"/>
    </g>
    <g id="Group_24610" data-name="Group 24610" transform="translate(51.558 41.456)">
      <path id="Path_49757" data-name="Path 49757" d="M0,0H6.13V14.3H0Z" transform="translate(0 4.334) rotate(-45)" fill="#bf8859"/>
    </g>
    <g id="Group_24611" data-name="Group 24611" transform="translate(66.006 27.011)">
      <path id="Path_49758" data-name="Path 49758" d="M0,0H6.13V14.3H0Z" transform="translate(0 4.334) rotate(-45)" fill="#bf8859"/>
    </g>
    <g id="Group_24612" data-name="Group 24612" transform="translate(1 67.461)">
      <path id="Path_49759" data-name="Path 49759" d="M41.454,61.448H8.224A7.224,7.224,0,1,1,8.224,47h33.23v2.89H8.224a4.334,4.334,0,1,0,0,8.669h33.23Z" transform="translate(-1 -47)"/>
    </g>
    <g id="Group_24613" data-name="Group 24613" transform="translate(1 1)">
      <path id="Path_49760" data-name="Path 49760" d="M3.89,74.685H1V2.445A1.445,1.445,0,0,1,2.445,1H60.237a1.445,1.445,0,0,1,1.445,1.445V40.01h-2.89V3.89H3.89Z" transform="translate(-1 -1)"/>
    </g>
    <g id="Group_24614" data-name="Group 24614" transform="translate(11.114 73.24)">
      <path id="Path_49761" data-name="Path 49761" d="M8,51H38.341v2.89H8Z" transform="translate(-8 -51)"/>
    </g>
    <g id="Group_24615" data-name="Group 24615" transform="translate(12.558 2.445)">
      <path id="Path_49762" data-name="Path 49762" d="M9,2h2.89V68.461H9Z" transform="translate(-9 -2)"/>
    </g>
    <g id="Group_24616" data-name="Group 24616" transform="translate(50.123 40.009)">
      <path id="Path_49763" data-name="Path 49763" d="M46.559,45.338a1.441,1.441,0,0,1-1.021-.423L35.423,34.8a1.443,1.443,0,0,1,0-2.043l4.334-4.334a1.443,1.443,0,0,1,2.043,0L51.914,38.537a1.443,1.443,0,0,1,0,2.043L47.58,44.914A1.441,1.441,0,0,1,46.559,45.338ZM38.488,33.779l8.071,8.071,2.291-2.291-8.071-8.071Z" transform="translate(-35 -28)"/>
    </g>
    <g id="Group_24617" data-name="Group 24617" transform="translate(64.571 25.561)">
      <path id="Path_49764" data-name="Path 49764" d="M56.559,35.338a1.441,1.441,0,0,1-1.021-.423L45.423,24.8a1.443,1.443,0,0,1,0-2.043l4.334-4.334a1.443,1.443,0,0,1,2.043,0L61.914,28.537a1.443,1.443,0,0,1,0,2.043L57.58,34.914A1.441,1.441,0,0,1,56.559,35.338ZM48.488,23.779l8.071,8.071,2.291-2.291-8.071-8.071Z" transform="translate(-45 -18)"/>
    </g>
    <g id="Group_24618" data-name="Group 24618" transform="translate(56.315 31.769)">
      <path id="Path_49765" data-name="Path 49765" d="M0,0H14.3V2.89H0Z" transform="translate(0 10.112) rotate(-45)"/>
    </g>
    <g id="Group_24619" data-name="Group 24619" transform="translate(63.537 38.993)">
      <path id="Path_49766" data-name="Path 49766" d="M0,0H14.3V2.89H0Z" transform="translate(0 10.112) rotate(-45)"/>
    </g>
    <g id="Group_24620" data-name="Group 24620" transform="translate(66.439 41.878)">
      <path id="Path_49767" data-name="Path 49767" d="M65.375,53.431a1.441,1.441,0,0,1-1.021-.423l-18.06-18.06,2.043-2.043L65.375,49.944l1.569-1.569L49.905,31.336l2.043-2.043,18.06,18.06a1.443,1.443,0,0,1,0,2.043L66.4,53.008a1.441,1.441,0,0,1-1.021.423Z" transform="translate(-46.293 -29.293)"/>
    </g>
    <g id="Group_24621" data-name="Group 24621" transform="translate(42.899 81.909)">
      <path id="Path_49768" data-name="Path 49768" d="M54.562,65.669H31.445A1.444,1.444,0,0,1,30,64.224V58.445A1.444,1.444,0,0,1,31.445,57H54.562a1.444,1.444,0,0,1,1.445,1.445v5.779A1.444,1.444,0,0,1,54.562,65.669ZM32.89,62.779H53.117V59.89H32.89Z" transform="translate(-30 -57)"/>
    </g>
    <g id="Group_24622" data-name="Group 24622" transform="translate(45.789 76.13)">
      <path id="Path_49769" data-name="Path 49769" d="M52.227,60.224h-2.89V55.89H34.89v4.334H32V54.445A1.444,1.444,0,0,1,33.445,53H50.782a1.444,1.444,0,0,1,1.445,1.445Z" transform="translate(-32 -53)"/>
    </g>
    <g id="Group_24623" data-name="Group 24623" transform="translate(42.899 58.791)">
      <path id="Path_49770" data-name="Path 49770" d="M49.911,56.351l-2.257-1.806,3.3-4.126-3.335.668a1.444,1.444,0,0,1-1.728-1.417V46.78l-1.734,2.312a1.5,1.5,0,0,1-2.312,0L40.114,46.78v2.89a1.442,1.442,0,0,1-.529,1.117,1.458,1.458,0,0,1-1.2.3l-3.335-.667,3.3,4.126L36.1,56.35l-5.779-7.224a1.446,1.446,0,0,1,1.412-2.32l5.5,1.1V42.445a1.445,1.445,0,0,1,2.6-.865L43,45.817l3.179-4.238a1.445,1.445,0,0,1,2.6.865v5.461l5.5-1.1a1.446,1.446,0,0,1,1.412,2.32Z" transform="translate(-30 -40.999)"/>
    </g>
    <g id="Group_24624" data-name="Group 24624" transform="translate(21.227 27.006)">
      <path id="Path_49771" data-name="Path 49771" d="M20.779,27.669A5.785,5.785,0,0,1,15,21.89V20.445A1.445,1.445,0,0,1,16.445,19h8.669a1.445,1.445,0,0,1,1.445,1.445V21.89A5.785,5.785,0,0,1,20.779,27.669ZM17.89,21.89a2.89,2.89,0,1,0,5.779,0Z" transform="translate(-15 -19)"/>
    </g>
    <g id="Group_24625" data-name="Group 24625" transform="translate(21.38 18.4)">
      <path id="Path_49772" data-name="Path 49772" d="M23.773,23.74l-3.041-6.084L17.691,23.74l-2.585-1.293,4.334-8.669a1.5,1.5,0,0,1,2.585,0l4.334,8.669Z" transform="translate(-15.106 -13.043)"/>
    </g>
    <g id="Group_24626" data-name="Group 24626" transform="translate(41.454 27.006)">
      <path id="Path_49773" data-name="Path 49773" d="M34.779,27.669A5.785,5.785,0,0,1,29,21.89V20.445A1.445,1.445,0,0,1,30.445,19h8.669a1.445,1.445,0,0,1,1.445,1.445V21.89A5.785,5.785,0,0,1,34.779,27.669ZM31.89,21.89a2.89,2.89,0,1,0,5.779,0Z" transform="translate(-29 -19)"/>
    </g>
    <g id="Group_24627" data-name="Group 24627" transform="translate(41.608 18.4)">
      <path id="Path_49774" data-name="Path 49774" d="M37.773,23.74l-3.041-6.084L31.691,23.74l-2.585-1.293,4.334-8.669a1.5,1.5,0,0,1,2.585,0l4.334,8.669Z" transform="translate(-29.106 -13.043)"/>
    </g>
    <g id="Group_24628" data-name="Group 24628" transform="translate(35.675 14.003)">
      <path id="Path_49775" data-name="Path 49775" d="M25,10h2.89V36.006H25Z" transform="translate(-25 -10)"/>
    </g>
    <g id="Group_24629" data-name="Group 24629" transform="translate(27.006 38.565)">
      <path id="Path_49776" data-name="Path 49776" d="M37.782,35.669H20.445A1.445,1.445,0,0,1,19,34.224V32.779A5.785,5.785,0,0,1,24.779,27h8.669a5.785,5.785,0,0,1,5.779,5.779v1.445A1.445,1.445,0,0,1,37.782,35.669ZM21.89,32.779H36.338a2.893,2.893,0,0,0-2.89-2.89H24.779A2.893,2.893,0,0,0,21.89,32.779Z" transform="translate(-19 -27)"/>
    </g>
    <g id="Group_24630" data-name="Group 24630" transform="translate(17.316 15.871)">
      <path id="Path_49777" data-name="Path 49777" d="M47.99,16.649H16.2a1.441,1.441,0,0,1-1.021-.423l-2.89-2.89,2.043-2.043L16.8,13.759H47.392l2.466-2.466L51.9,13.336l-2.89,2.89a1.441,1.441,0,0,1-1.021.423Z" transform="translate(-12.293 -11.293)"/>
    </g>
    <g id="Group_24631" data-name="Group 24631" transform="translate(32.786 6.779)">
      <path id="Path_49778" data-name="Path 49778" d="M27.334,13.669a4.334,4.334,0,1,1,4.334-4.334A4.34,4.34,0,0,1,27.334,13.669Zm0-5.779a1.445,1.445,0,1,0,1.445,1.445A1.447,1.447,0,0,0,27.334,7.89Z" transform="translate(-23 -5)"/>
    </g>
  </g>
</svg>
