<svg id="noun_Truck_3594076" xmlns="http://www.w3.org/2000/svg" width="34.73" height="21.967" viewBox="0 0 34.73 21.967">
  <path id="Path_48999" data-name="Path 48999" d="M59.249,50A2.949,2.949,0,1,0,62.2,52.949,2.951,2.951,0,0,0,59.249,50Zm0,3.814a.864.864,0,1,1,.864-.864A.827.827,0,0,1,59.249,53.814Z" transform="translate(-30.672 -33.932)" fill="#fff"/>
  <path id="Path_49000" data-name="Path 49000" d="M56,25.9H50.912a.7.7,0,0,0-.712.712V40.138a.7.7,0,0,0,.712.712h.712a.713.713,0,0,0,.712-.61,4.022,4.022,0,0,1,7.932,0,.713.713,0,0,0,.712.61h.712a.7.7,0,0,0,.712-.712V33.375a.82.82,0,0,0-.153-.458l-5.746-6.763A.626.626,0,0,0,56,25.9Zm-4.424,5.543V27.985a.7.7,0,0,1,.712-.712h3.051a.626.626,0,0,1,.508.254l2.9,3.458a.684.684,0,0,1-.508,1.119H52.285A.652.652,0,0,1,51.573,31.443Z" transform="translate(-27.674 -22.086)" fill="#fff"/>
  <path id="Path_49001" data-name="Path 49001" d="M6.612,37.113h1.78A.713.713,0,0,0,9.1,36.5a3.8,3.8,0,0,1,3.966-3.356A3.83,3.83,0,0,1,17.036,36.5a.713.713,0,0,0,.712.61h8.7a.7.7,0,0,0,.712-.712V19.112a.7.7,0,0,0-.712-.712H6.612a.7.7,0,0,0-.712.712v17.34A.685.685,0,0,0,6.612,37.113Z" transform="translate(-5.9 -18.4)" fill="#fff"/>
  <path id="Path_49002" data-name="Path 49002" d="M17.049,50A2.949,2.949,0,1,0,20,52.949,2.951,2.951,0,0,0,17.049,50Zm0,3.814a.864.864,0,1,1,.864-.864A.891.891,0,0,1,17.049,53.814Z" transform="translate(-9.93 -33.932)" fill="#fff"/>
</svg>
