<svg xmlns="http://www.w3.org/2000/svg" width="30.882" height="27.432" viewBox="0 0 30.882 27.432">
  <g id="noun_Box_1094245" transform="translate(0 0)">
    <g id="Group_23741" data-name="Group 23741" transform="translate(0)">
      <path id="Path_49003" data-name="Path 49003" d="M18.919,963.166a.7.7,0,0,0-.153.044L7.9,967.441a.731.731,0,0,0-.35,1.006L9.657,972l-3.565,3.073a.737.737,0,0,0,.186,1.181l3.587,1.487v7.337a.8.8,0,0,0,.558.8l12.05,4.669a.709.709,0,0,0,.547-.011l10.312-4.691a.759.759,0,0,0,.47-.765v-7.053l1.881-1.017a.727.727,0,0,0,.284-.941l-2-3.794,2.613-2.7a.737.737,0,0,0-.262-1.148l-11.383-4.09a.767.767,0,0,0-.667.109l-2.832,2.209-1.8-3.149a.715.715,0,0,0-.645-.339.653.653,0,0,0-.066,0Zm-.208,1.564,1.52,2.635-9.371,3.9-1.684-2.821Zm6.113,1.061,9.995,3.587-1.9,1.957-10.279-3.849,2.187-1.7Zm-14.139,7.173,10.64,4.112-3.3,2.559L7.863,975.4Zm22.1.1,1.618,3.051-8.562,4.636-2.11-3.565ZM22.035,978.3v10.574L11.264,984.7v-6.364l6.6,2.745a.714.714,0,0,0,.689-.087Z" transform="translate(-5.873 -963.165)" fill="#dcdcdc" fill-rule="evenodd"/>
    </g>
  </g>
</svg>
