<svg xmlns="http://www.w3.org/2000/svg" width="29.623" height="32.899" viewBox="0 0 29.623 32.899">
  <g id="Group" transform="translate(0 0)">
    <path id="Path" d="M5.6.925A3.294,3.294,0,1,0,1.005,5.65a3.309,3.309,0,0,0,4.667-.076A3.268,3.268,0,0,0,6.592,3.5c-.435-.122-.9-.242-1.377-.347A22.487,22.487,0,0,1,2.2,2.3a24.735,24.735,0,0,0,2.64.436A22.15,22.15,0,0,0,8.029,2.9c.722-.029,1.174-.126,1.193-.287.03-.263-1.09-.619-2.7-.894-.118-.02-.238-.04-.36-.059A3.292,3.292,0,0,0,5.6.925Z" transform="translate(6.831 0)" fill="#fff"/>
    <path id="Path-2" data-name="Path" d="M2.934,25.244a14.027,14.027,0,0,0,4.329-5.008A10.985,10.985,0,0,0,8.39,15.814a18.633,18.633,0,0,1,3.579,8.331,1.834,1.834,0,0,0,3.6-.723c-1.131-5.608-3.319-9.033-5.335-11.02a12.3,12.3,0,0,0-1.982-1.6,11.259,11.259,0,0,1,.114-1.126A7.181,7.181,0,0,1,7.33,8.443,6.979,6.979,0,0,1,6.189,4.577a7.306,7.306,0,0,1,.39-2.4v0l0-.012a1.469,1.469,0,0,1,1.891-.849A1.459,1.459,0,0,1,9.328,3.2s-.007.024-.017.053-.041.139-.073.28a4.871,4.871,0,0,0-.114,1.045,4.233,4.233,0,0,0,.219,1.357c.257-.753.519-1.459.738-2.08.626-1.379.332-3.181-.863-3.668A3.362,3.362,0,0,0,5.09,2.123,16.1,16.1,0,0,0,3.1,10.035,3,3,0,0,0,4.036,12.3a1.828,1.828,0,0,0,.244.409,8.168,8.168,0,0,1,.452,2.654,7.334,7.334,0,0,1-.762,3.272A10.384,10.384,0,0,1,.734,22.321a1.83,1.83,0,0,0,2.2,2.923Z" transform="translate(0 7.289)" fill="#fff"/>
    <path id="Path-3" data-name="Path" d="M.071.332A.441.441,0,0,0,.68.461h0L.8.381Q.392.2.01,0A.435.435,0,0,0,.071.332Z" transform="translate(10.471 18.466)" fill="#fff"/>
    <path id="Path-4" data-name="Path" d="M4.205.806A.439.439,0,1,0,3.726.071L0,2.481a2.633,2.633,0,0,1,.482.734Z" transform="translate(25.217 26.43)" fill="#fff"/>
    <path id="Path-5" data-name="Path" d="M.587,1.088l.066-.043L8.224,12.664a2.649,2.649,0,0,1,.737-.48L1.152.2A.441.441,0,0,0,.543.071L0,.422A1.46,1.46,0,0,1,.587,1.088Z" transform="translate(13.267 16.091)" fill="#fff"/>
    <path id="Path-6" data-name="Path" d="M3.755,6.71l3.551-2.3L4.43,0,0,2.865,2.276,6.357c.05,0,.1-.008.152-.008A2.629,2.629,0,0,1,3.755,6.71Z" transform="translate(20.849 21.709)" fill="#fff"/>
    <path id="Rectangle" d="M0,0,5.276.009l.009,5.268L.009,5.268Z" transform="matrix(0.839, -0.544, 0.544, 0.839, 17.574, 19.548)" fill="#fff"/>
    <path id="Path-7" data-name="Path" d="M2.469,1.956c.03-.134.059-.238.079-.3.01-.032.018-.055.022-.067v0A1.173,1.173,0,0,0,.375.755,6.939,6.939,0,0,0,0,3.066,6.657,6.657,0,0,0,1.093,6.771a8.838,8.838,0,0,0,4.533,3.292,1.17,1.17,0,1,0,.808-2.2A6.51,6.51,0,0,1,3.053,5.484a4.32,4.32,0,0,1-.706-2.419A5.136,5.136,0,0,1,2.469,1.956Z" transform="translate(6.483 8.801)" fill="#fff"/>
    <path id="Shape" d="M0,2.193A2.2,2.2,0,1,1,2.2,4.385,2.2,2.2,0,0,1,0,2.193Z" transform="translate(21.075 28.496)" fill="#fff"/>
  </g>
</svg>
