<svg xmlns="http://www.w3.org/2000/svg" width="24.732" height="26" viewBox="0 0 24.732 26">
  <g id="noun_call_2442988" transform="translate(-2.441 0.006)">
    <path id="Path_48716" data-name="Path 48716" d="M20.157,25.939a11.217,11.217,0,0,1-4.924-1.983A27.516,27.516,0,0,1,10.6,19.89a68.216,68.216,0,0,1-4.939-5.623A17.251,17.251,0,0,1,2.847,9.024,8.272,8.272,0,0,1,2.54,5.195,6.759,6.759,0,0,1,4.721,1.376,9.309,9.309,0,0,1,6.205.292a1.911,1.911,0,0,1,2.1.034,7.539,7.539,0,0,1,3.21,3.85,1.393,1.393,0,0,1-.153,1.409c-.372.5-.759.99-1.133,1.492-.33.445-.673.881-.967,1.349a1.243,1.243,0,0,0,.013,1.456c.741,1.04,1.458,2.111,2.264,3.1a39.448,39.448,0,0,0,4.825,5c.39.335.808.632,1.224.936a1.172,1.172,0,0,0,1.261.114,14.177,14.177,0,0,0,1.3-.728c.582-.372,1.154-.754,1.726-1.12a1.518,1.518,0,0,1,1.586-.031,7.721,7.721,0,0,1,3.431,3.379,2.08,2.08,0,0,1-.187,2.358,7.136,7.136,0,0,1-5.719,3.1,8.121,8.121,0,0,1-.829-.055Z" transform="translate(0 0)" fill="#16135a"/>
  </g>
</svg>
