<svg xmlns="http://www.w3.org/2000/svg" xmlns:xlink="http://www.w3.org/1999/xlink" id="pizza" width="108.868" height="94.405" viewBox="0 0 108.868 94.405">
    <defs>
        <linearGradient id="linear-gradient" x1=".444" x2=".5" y1=".531" y2=".687" gradientUnits="objectBoundingBox">
            <stop offset="0" stop-color="#faa68e"/>
            <stop offset=".206" stop-color="#fba682"/>
            <stop offset=".581" stop-color="#fda861"/>
            <stop offset="1" stop-color="#ffa936"/>
        </linearGradient>
        <linearGradient id="linear-gradient-2" x1=".503" x2=".455" y1=".506" y2=".222" gradientUnits="objectBoundingBox">
            <stop offset="0" stop-color="#f82814" stop-opacity="0"/>
            <stop offset=".245" stop-color="#f12817" stop-opacity=".243"/>
            <stop offset=".605" stop-color="#dd2820" stop-opacity=".604"/>
            <stop offset="1" stop-color="#c0272d"/>
        </linearGradient>
        <linearGradient id="linear-gradient-3" x1=".295" x2=".538" y1=".357" y2=".735" gradientUnits="objectBoundingBox">
            <stop offset="0" stop-color="#ffd945"/>
            <stop offset=".304" stop-color="#ffcd3e"/>
            <stop offset=".856" stop-color="#ffad2b"/>
            <stop offset="1" stop-color="#ffa325"/>
        </linearGradient>
        <linearGradient id="linear-gradient-4" x1=".481" x2=".603" y1=".424" y2=".224" gradientUnits="objectBoundingBox">
            <stop offset="0" stop-color="#f82814" stop-opacity="0"/>
            <stop offset="1" stop-color="#c0272d"/>
        </linearGradient>
        <linearGradient id="linear-gradient-5" x1=".528" x2="-.226" y1=".448" y2="-.64" xlink:href="#linear-gradient-4"/>
        <linearGradient id="linear-gradient-6" x1=".475" x2=".055" y1=".467" y2="-.508" xlink:href="#linear-gradient-4"/>
        <linearGradient id="linear-gradient-7" x1=".551" x2=".169" y1=".508" y2="-.353" xlink:href="#linear-gradient-4"/>
        <linearGradient id="linear-gradient-8" x1=".615" x2=".258" y1=".608" y2="-.125" xlink:href="#linear-gradient-4"/>
        <linearGradient id="linear-gradient-9" x1=".393" x2=".607" y1=".133" y2=".869" gradientUnits="objectBoundingBox">
            <stop offset="0" stop-color="#bada00"/>
            <stop offset=".227" stop-color="#b0ce00"/>
            <stop offset=".638" stop-color="#95ae00"/>
            <stop offset="1" stop-color="#798c00"/>
        </linearGradient>
        <linearGradient id="linear-gradient-10" x1="256.866" x2="258.25" y1="-388.342" y2="-386.422" gradientUnits="objectBoundingBox">
            <stop offset="0" stop-color="#798c00" stop-opacity="0"/>
            <stop offset=".654" stop-color="#556100" stop-opacity=".655"/>
            <stop offset="1" stop-color="#464f00"/>
        </linearGradient>
        <linearGradient id="linear-gradient-11" x1="327.674" x2="329.059" y1="-495.304" y2="-493.384" xlink:href="#linear-gradient-10"/>
        <linearGradient id="linear-gradient-12" x1="536.196" x2="537.58" y1="-822.649" y2="-820.729" xlink:href="#linear-gradient-10"/>
        <linearGradient id="linear-gradient-14" x1="282.146" x2="283.53" y1="-411.487" y2="-409.568" xlink:href="#linear-gradient-10"/>
        <linearGradient id="linear-gradient-15" x1="359.701" x2="361.086" y1="-524.63" y2="-522.71" xlink:href="#linear-gradient-10"/>
        <linearGradient id="linear-gradient-16" x1="589.319" x2="590.704" y1="-871.288" y2="-869.369" xlink:href="#linear-gradient-10"/>
        <linearGradient id="linear-gradient-18" x1="249.728" x2="251.113" y1="-417.049" y2="-415.13" xlink:href="#linear-gradient-10"/>
        <linearGradient id="linear-gradient-19" x1="318.632" x2="320.016" y1="-531.676" y2="-529.757" xlink:href="#linear-gradient-10"/>
        <linearGradient id="linear-gradient-20" x1="521.198" x2="522.582" y1="-882.976" y2="-881.057" xlink:href="#linear-gradient-10"/>
        <linearGradient id="linear-gradient-22" x1="204.013" x2="205.398" y1="-401.194" y2="-399.275" xlink:href="#linear-gradient-10"/>
        <linearGradient id="linear-gradient-23" x1="260.714" x2="262.099" y1="-511.587" y2="-509.667" xlink:href="#linear-gradient-10"/>
        <linearGradient id="linear-gradient-24" x1="425.133" x2="426.518" y1="-849.656" y2="-847.737" xlink:href="#linear-gradient-10"/>
        <linearGradient id="linear-gradient-26" x1="257.253" x2="258.637" y1="-362.13" y2="-360.211" xlink:href="#linear-gradient-10"/>
        <linearGradient id="linear-gradient-27" x1="328.164" x2="329.548" y1="-462.097" y2="-460.177" xlink:href="#linear-gradient-10"/>
        <linearGradient id="linear-gradient-28" x1="537.009" x2="538.393" y1="-767.571" y2="-765.651" xlink:href="#linear-gradient-10"/>
        <linearGradient id="linear-gradient-29" x1="7.69" x2="7.902" y1="1.614" y2="2.188" gradientUnits="objectBoundingBox">
            <stop offset="0" stop-color="#ffdecf"/>
            <stop offset=".379" stop-color="#fdc4b0"/>
            <stop offset=".766" stop-color="#fbae97"/>
            <stop offset="1" stop-color="#faa68e"/>
        </linearGradient>
        <linearGradient id="linear-gradient-30" x1="3.563" x2="3.769" y1="-35.47" y2="-34.893" xlink:href="#linear-gradient-29"/>
        <linearGradient id="linear-gradient-31" x1=".415" x2=".884" y1=".279" y2="1.274" gradientUnits="objectBoundingBox">
            <stop offset="0" stop-color="#a57c52"/>
            <stop offset=".134" stop-color="#a26c4a"/>
            <stop offset=".516" stop-color="#994336"/>
            <stop offset=".817" stop-color="#942a2a"/>
            <stop offset="1" stop-color="#922125"/>
        </linearGradient>
        <linearGradient id="linear-gradient-32" x1="10.738" x2="10.95" y1="2.411" y2="2.984" xlink:href="#linear-gradient-29"/>
        <linearGradient id="linear-gradient-33" x1="5.276" x2="5.481" y1="-48.72" y2="-48.143" xlink:href="#linear-gradient-29"/>
        <linearGradient id="linear-gradient-34" x1=".343" x2=".965" y1=".204" y2="1.545" xlink:href="#linear-gradient-31"/>
        <linearGradient id="linear-gradient-35" x1=".393" x2=".607" y1=".133" y2=".869" gradientUnits="objectBoundingBox">
            <stop offset="0" stop-color="#ff6359"/>
            <stop offset=".224" stop-color="#fe5b50"/>
            <stop offset=".595" stop-color="#fc4637"/>
            <stop offset="1" stop-color="#f82814"/>
        </linearGradient>
        <linearGradient id="linear-gradient-36" x1="120.151" x2="121.536" y1="-208.275" y2="-206.355" xlink:href="#linear-gradient-2"/>
        <linearGradient id="linear-gradient-37" x1="154.428" x2="155.813" y1="-267.106" y2="-265.187" xlink:href="#linear-gradient-2"/>
        <linearGradient id="linear-gradient-38" x1="248.869" x2="250.254" y1="-444.196" y2="-442.277" xlink:href="#linear-gradient-2"/>
        <linearGradient id="linear-gradient-40" x1="146.217" x2="147.601" y1="-220.633" y2="-218.714" xlink:href="#linear-gradient-2"/>
        <linearGradient id="linear-gradient-41" x1="187.442" x2="188.827" y1="-282.76" y2="-280.84" xlink:href="#linear-gradient-2"/>
        <linearGradient id="linear-gradient-42" x1="303.634" x2="305.018" y1="-470.162" y2="-468.242" xlink:href="#linear-gradient-2"/>
        <linearGradient id="linear-gradient-44" x1=".869" x2="-.143" y1="1.246" y2="-1.284" xlink:href="#linear-gradient-10"/>
        <linearGradient id="linear-gradient-45" x1="9.684" x2="9.895" y1="1.018" y2="1.592" xlink:href="#linear-gradient-29"/>
        <linearGradient id="linear-gradient-46" x1="2.229" x2="2.434" y1="-44.51" y2="-43.933" xlink:href="#linear-gradient-29"/>
        <linearGradient id="linear-gradient-47" x1=".297" x2=".529" y1="-.07" y2=".58" gradientUnits="objectBoundingBox">
            <stop offset="0" stop-color="#8a7889"/>
            <stop offset=".334" stop-color="#867385"/>
            <stop offset=".704" stop-color="#7b667b"/>
            <stop offset="1" stop-color="#6e566e"/>
        </linearGradient>
        <linearGradient id="linear-gradient-49" x1=".297" x2=".529" y1="-.07" y2=".58" xlink:href="#linear-gradient-47"/>
        <linearGradient id="linear-gradient-52" x1="145.974" x2="147.359" y1="-205.322" y2="-203.402" xlink:href="#linear-gradient-2"/>
        <linearGradient id="linear-gradient-53" x1="187.135" x2="188.52" y1="-263.366" y2="-261.446" xlink:href="#linear-gradient-2"/>
        <linearGradient id="linear-gradient-54" x1="303.125" x2="304.509" y1="-437.991" y2="-436.071" xlink:href="#linear-gradient-2"/>
        <linearGradient id="linear-gradient-56" x1=".566" x2=".448" y1=".371" y2=".6" xlink:href="#linear-gradient"/>
        <style>
            .cls-9{fill:#ffeaa2}.cls-10{fill:url(#linear-gradient-9)}.cls-31{fill:url(#linear-gradient-34)}.cls-32{fill:url(#linear-gradient-35)}.cls-42{fill:url(#linear-gradient-47)}
        </style>
    </defs>
    <path id="Path_48686" fill="url(#linear-gradient)" d="M56.662 97.9s-33.073 20.234-45.3 75.223a4.517 4.517 0 0 0 7.118 4.594 206.142 206.142 0 0 1 88.953-37.8 6.921 6.921 0 0 0 4.723-10.556c-6.514-10.239-21.767-26-55.493-31.461z" transform="translate(-8.845 -84.234)"/>
    <path id="Path_48687" fill="url(#linear-gradient-2)" d="M112.069 244.7A205.825 205.825 0 0 0 14.9 283.671a4.448 4.448 0 0 1-2.6.92c-.326 1.315-.644 2.646-.946 4a4.516 4.516 0 0 0 7.12 4.588 206.138 206.138 0 0 1 88.976-37.8 6.909 6.909 0 0 0 4.724-10.514z" transform="translate(-8.839 -199.697)"/>
    <path id="Path_48688" fill="url(#linear-gradient-3)" d="M105.049 123.536S96.435 92.615 44.89 85.469c0 0-32.921 19.953-44.782 72.892-.883 3.941 3.812 6.755 7.145 4.282 1.272-.944 2.67-1.954 4.19-3.015a2.873 2.873 0 0 1 4.515 2.356v.165a4.442 4.442 0 0 0 8.885 0V157.5a11.037 11.037 0 0 1 5.757-9.7 215.791 215.791 0 0 1 30.7-13.743 2.874 2.874 0 0 1 3.838 2.706 4.442 4.442 0 0 0 8.885 0v-5.718a1.436 1.436 0 0 1 1.047-1.382l.029-.008a1.444 1.444 0 0 1 1.835 1.39v14.476a4.442 4.442 0 1 0 8.885 0v-12.353A7.661 7.661 0 0 1 92 125.64q6.346-1.231 13.052-2.1z" transform="translate(0 -74.455)"/>
    <path id="Path_48689" fill="url(#linear-gradient-4)" d="M157.406 85.47s-6.286 3.81-14.354 12.517L185.1 140.03a4.426 4.426 0 0 0 1.437-3.265v-5.718a1.436 1.436 0 0 1 1.047-1.382l.029-.008a1.444 1.444 0 0 1 1.835 1.39v13.331l5.465 5.465a4.441 4.441 0 0 0 3.42-4.319v-12.355a7.661 7.661 0 0 1 6.184-7.528q6.346-1.231 13.052-2.1s-8.619-30.925-60.163-38.071z" transform="translate(-112.515 -74.456)"/>
    <path id="Path_48690" fill="url(#linear-gradient-5)" d="M179.163 119.128a10.268 10.268 0 0 0-1.519-1.4 14.985 14.985 0 0 0-17.058 0c-4.465 3.367-4.695 8.716-.694 12.29l34.321 34.321a4.44 4.44 0 0 0 3.333-4.3v-5.718a1.436 1.436 0 0 1 1.047-1.382l.029-.008a1.444 1.444 0 0 1 1.834 1.39V168.8a4.424 4.424 0 0 0 1 2.8 10.359 10.359 0 0 0 1 .9 4.44 4.44 0 0 0 6.889-3.706v-12.347a7.679 7.679 0 0 1 1.985-5.155z" transform="translate(-123.528 -97.734)"/>
    <path id="Path_48691" fill="url(#linear-gradient-6)" d="M119.173 189.369a10.572 10.572 0 0 0-7.952-3.15c-5.14 0-9.306 2.936-9.306 6.557a5.478 5.478 0 0 0 2.031 4.086l22.412 22.482c4.725-2.1 9.76-4.138 15.1-6.043a2.841 2.841 0 0 1 1.453-.124z" transform="translate(-80.159 -153.699)"/>
    <path id="Path_48692" fill="url(#linear-gradient-7)" d="M238.76 214.773a10.662 10.662 0 0 0-7.839-3.025c-5.14 0-9.306 2.936-9.306 6.557 0 .148.009.294.023.439a12.907 12.907 0 0 0-13.181.871c-3.778 2.849-4.005 7.36-.684 10.41l6.6 6.6q4.118-1.67 8.51-3.242a2.874 2.874 0 0 1 3.838 2.706 4.442 4.442 0 1 0 8.885 0v-5.719a1.436 1.436 0 0 1 1.047-1.382l.029-.008a1.444 1.444 0 0 1 1.835 1.39v14.476a4.442 4.442 0 1 0 8.885 0v-12.355a7.681 7.681 0 0 1 2.992-6.086z" transform="translate(-161.587 -173.778)"/>
    <path id="Path_48693" fill="url(#linear-gradient-8)" d="M71 303.48l-7.635-7.635a10.661 10.661 0 0 0-7.84-3.026c-4.032 0-7.464 1.807-8.756 4.334a12.869 12.869 0 0 0-11.394 1.627c-3.778 2.849-4.005 7.36-.684 10.41l15.6 15.6v-4.211a11.037 11.037 0 0 1 5.754-9.694c4.555-2.476 9.555-4.98 14.955-7.405z" transform="translate(-25.455 -237.543)"/>
    <g id="Group_18118" transform="translate(2.047 22.074)">
        <g id="Group_18114" transform="translate(15.311 21.816)">
            <path id="Path_48694" d="M92.29 251.586a.791.791 0 1 0-1.069.328.791.791 0 0 0 1.069-.328z" class="cls-9" transform="translate(-88.776 -248.088)"/>
            <path id="Path_48695" d="M82.234 257.092a.624.624 0 1 0 .259.844.624.624 0 0 0-.259-.844z" class="cls-9" transform="translate(-81.316 -253.275)"/>
            <path id="Path_48696" d="M86.791 272.45a.376.376 0 1 0 .156.509.377.377 0 0 0-.156-.509z" class="cls-9" transform="translate(-85.188 -265.377)"/>
            <path id="Path_48697" d="M111.12 277.482a.791.791 0 1 0 .768.813.791.791 0 0 0-.768-.813z" class="cls-9" transform="translate(-104.118 -269.369)"/>
            <path id="Path_48698" d="M131.03 251.271a.624.624 0 1 0 .607.642.624.624 0 0 0-.607-.642z" class="cls-9" transform="translate(-119.913 -248.754)"/>
            <path id="Path_48699" d="M104.792 252.382a.377.377 0 1 0 .366.387.377.377 0 0 0-.366-.387z" class="cls-9" transform="translate(-99.477 -249.628)"/>
            <path id="Path_48700" d="M98.725 267.521a.585.585 0 1 0 .7.44.585.585 0 0 0-.7-.44z" class="cls-9" transform="translate(-94.651 -261.523)"/>
            <path id="Path_48701" d="M102.143 259.888a.461.461 0 1 0 .552.348.462.462 0 0 0-.552-.348z" class="cls-9" transform="translate(-97.415 -255.522)"/>
            <path id="Path_48702" d="M93.425 262.136a.278.278 0 1 0-.333-.209.278.278 0 0 0 .333.209z" class="cls-9" transform="translate(-90.573 -256.867)"/>
            <path id="Path_48703" d="M160.983 240.641a.791.791 0 1 0-1.069.328.791.791 0 0 0 1.069-.328z" class="cls-9" transform="translate(-142.805 -239.479)"/>
            <path id="Path_48704" d="M145.155 276.519a.624.624 0 1 0 .259.844.624.624 0 0 0-.259-.844z" class="cls-9" transform="translate(-130.806 -268.555)"/>
            <path id="Path_48705" d="M141.87 260.532a.376.376 0 1 0 .156.509.376.376 0 0 0-.156-.509z" class="cls-9" transform="translate(-128.509 -256.003)"/>
            <path id="Path_48706" d="M183.657 249.92a.791.791 0 1 0 .768.813.791.791 0 0 0-.768-.813z" class="cls-9" transform="translate(-161.171 -247.691)"/>
            <path id="Path_48707" d="M181.642 242.61a.624.624 0 1 0-.642.607.624.624 0 0 0 .642-.607z" class="cls-9" transform="translate(-159.244 -241.437)"/>
            <path id="Path_48708" d="M173.487 241.437a.376.376 0 1 0 .366.387.377.377 0 0 0-.366-.387z" class="cls-9" transform="translate(-153.507 -241.019)"/>
            <path id="Path_48709" d="M157.259 266.979a.585.585 0 1 0 .7.44.585.585 0 0 0-.7-.44z" class="cls-9" transform="translate(-140.69 -261.097)"/>
            <path id="Path_48710" d="M170.836 248.942a.461.461 0 1 0 .552.348.461.461 0 0 0-.552-.348z" class="cls-9" transform="translate(-151.444 -246.913)"/>
            <path id="Path_48711" d="M162.119 251.191a.278.278 0 1 0-.333-.209.278.278 0 0 0 .333.209z" class="cls-9" transform="translate(-144.603 -248.258)"/>
        </g>
        <g id="Group_18115" transform="translate(38.176)">
            <path id="Path_48712" d="M199.4 300.089a.791.791 0 1 0-1.07.328.791.791 0 0 0 1.07-.328z" class="cls-9" transform="translate(-195.888 -264.421)"/>
            <path id="Path_48713" d="M189.346 305.6a.624.624 0 1 0 .259.844.624.624 0 0 0-.259-.844z" class="cls-9" transform="translate(-188.428 -269.609)"/>
            <path id="Path_48714" d="M193.9 320.953a.376.376 0 1 0 .156.509.377.377 0 0 0-.156-.509z" class="cls-9" transform="translate(-192.3 -281.711)"/>
            <path id="Path_48715" d="M218.233 325.985a.791.791 0 1 0 .768.813.791.791 0 0 0-.768-.813z" class="cls-9" transform="translate(-211.231 -285.703)"/>
            <path id="Path_48716" d="M382.533 241.148a.624.624 0 1 0-.3.832.625.625 0 0 0 .3-.832z" class="cls-9" transform="translate(-340.163 -218.695)"/>
            <path id="Path_48717" d="M211.906 300.885a.377.377 0 1 0 .366.387.377.377 0 0 0-.366-.387z" class="cls-9" transform="translate(-206.589 -265.962)"/>
            <path id="Path_48718" d="M205.837 316.024a.585.585 0 1 0 .7.44.585.585 0 0 0-.7-.44z" class="cls-9" transform="translate(-201.763 -277.857)"/>
            <path id="Path_48719" d="M209.255 308.391a.462.462 0 1 0 .552.347.462.462 0 0 0-.552-.347z" class="cls-9" transform="translate(-204.527 -271.856)"/>
            <path id="Path_48720" d="M200.537 310.639a.278.278 0 1 0-.333-.209.278.278 0 0 0 .333.209z" class="cls-9" transform="translate(-197.685 -273.201)"/>
            <path id="Path_48721" d="M199.661 138.444a.791.791 0 1 0-1.069.328.791.791 0 0 0 1.069-.328z" class="cls-9" transform="translate(-196.091 -137.282)"/>
            <path id="Path_48722" d="M366.432 265.186a.624.624 0 1 0-.635.614.624.624 0 0 0 .635-.614z" class="cls-9" transform="translate(-327.452 -237.383)"/>
            <path id="Path_48723" d="M380.506 254.695a.376.376 0 1 0-.383.37.376.376 0 0 0 .383-.37z" class="cls-9" transform="translate(-338.912 -229.33)"/>
            <path id="Path_48724" d="M222.335 147.723a.791.791 0 1 0 .768.813.791.791 0 0 0-.768-.813z" class="cls-9" transform="translate(-214.457 -145.494)"/>
            <path id="Path_48725" d="M220.32 140.413a.624.624 0 1 0-.642.607.624.624 0 0 0 .642-.607z" class="cls-9" transform="translate(-212.53 -139.24)"/>
            <path id="Path_48726" d="M212.163 139.24a.377.377 0 1 0 .366.387.377.377 0 0 0-.366-.387z" class="cls-9" transform="translate(-206.792 -138.822)"/>
            <path id="Path_48727" d="M380.635 271.6a.584.584 0 1 0-.075.823.585.585 0 0 0 .075-.823z" class="cls-9" transform="translate(-338.792 -242.763)"/>
            <path id="Path_48728" d="M209.514 146.746a.461.461 0 1 0 .552.348.461.461 0 0 0-.552-.348z" class="cls-9" transform="translate(-204.73 -144.717)"/>
            <path id="Path_48729" d="M200.8 148.994a.278.278 0 1 0-.333-.209.278.278 0 0 0 .333.209z" class="cls-9" transform="translate(-197.889 -146.061)"/>
        </g>
        <g id="Group_18116" transform="translate(43.6 11.121)">
            <path id="Path_48730" d="M305.8 218.141a.791.791 0 1 0 1.091-.25.791.791 0 0 0-1.091.25z" class="cls-9" transform="translate(-286.071 -211.709)"/>
            <path id="Path_48731" d="M317.4 214.645a.624.624 0 1 0-.2-.861.624.624 0 0 0 .2.861z" class="cls-9" transform="translate(-295.066 -208.344)"/>
            <path id="Path_48732" d="M315.726 200.888a.377.377 0 1 0-.119-.519.376.376 0 0 0 .119.519z" class="cls-9" transform="translate(-293.838 -197.884)"/>
            <path id="Path_48733" d="M288.884 190.956a.791.791 0 1 0-.708-.866.791.791 0 0 0 .708.866z" class="cls-9" transform="translate(-272.304 -189.378)"/>
            <path id="Path_48734" d="M268.317 216.933a.624.624 0 1 0-.559-.684.625.625 0 0 0 .559.684z" class="cls-9" transform="translate(-256.245 -210.071)"/>
            <path id="Path_48735" d="M296.325 219.607a.376.376 0 1 0-.337-.412.376.376 0 0 0 .337.412z" class="cls-9" transform="translate(-278.45 -212.563)"/>
            <path id="Path_48736" d="M301.992 203.358a.585.585 0 1 0-.666-.49.585.585 0 0 0 .666.49z" class="cls-9" transform="translate(-282.645 -199.459)"/>
            <path id="Path_48737" d="M298.906 211.664a.461.461 0 1 0-.526-.386.461.461 0 0 0 .526.386z" class="cls-9" transform="translate(-280.329 -206.185)"/>
            <path id="Path_48738" d="M309.063 211.447a.278.278 0 1 0 .317.233.278.278 0 0 0-.317-.233z" class="cls-9" transform="translate(-288.55 -206.734)"/>
            <path id="Path_48739" d="M236.493 224.105a.791.791 0 1 0 1.09-.25.791.791 0 0 0-1.09.25z" class="cls-9" transform="translate(-231.562 -216.4)"/>
            <path id="Path_48740" d="M256.049 190.732a.624.624 0 1 0-.2-.861.624.624 0 0 0 .2.861z" class="cls-9" transform="translate(-246.808 -189.535)"/>
            <path id="Path_48741" d="M259.932 208.8a.376.376 0 1 0-.119-.519.376.376 0 0 0 .119.519z" class="cls-9" transform="translate(-249.953 -204.11)"/>
            <path id="Path_48742" d="M214.549 213.217a.791.791 0 1 0-.708-.866.791.791 0 0 0 .708.866z" class="cls-9" transform="translate(-213.837 -206.887)"/>
            <path id="Path_48743" d="M217.211 221.922a.624.624 0 1 0 .684-.559.624.624 0 0 0-.684.559z" class="cls-9" transform="translate(-216.488 -214.533)"/>
            <path id="Path_48744" d="M227.021 225.571a.376.376 0 1 0-.337-.412.376.376 0 0 0 .337.412z" class="cls-9" transform="translate(-223.94 -217.254)"/>
            <path id="Path_48745" d="M243.571 199.679a.584.584 0 1 0-.666-.489.585.585 0 0 0 .666.489z" class="cls-9" transform="translate(-236.695 -196.566)"/>
            <path id="Path_48746" d="M229.6 217.628a.461.461 0 1 0-.526-.386.461.461 0 0 0 .526.386z" class="cls-9" transform="translate(-225.819 -210.876)"/>
            <path id="Path_48747" d="M239.759 217.412a.278.278 0 1 0 .317.233.278.278 0 0 0-.317-.233z" class="cls-9" transform="translate(-234.04 -211.425)"/>
        </g>
        <g id="Group_18117" transform="translate(0 50.296)">
            <path id="Path_48748" d="M96.029 392.693a.791.791 0 1 0 .9-.671.791.791 0 0 0-.9.671z" class="cls-9" transform="translate(-77.571 -387.934)"/>
            <path id="Path_48749" d="M105.024 385.092a.624.624 0 1 0-.53-.707.624.624 0 0 0 .53.707z" class="cls-9" transform="translate(-84.231 -381.512)"/>
            <path id="Path_48750" d="M97.616 373.648a.377.377 0 1 0-.319-.426.376.376 0 0 0 .319.426z" class="cls-9" transform="translate(-78.572 -372.899)"/>
            <path id="Path_48751" d="M69.54 374.709a.791.791 0 1 0-1-.5.791.791 0 0 0 1 .5z" class="cls-9" transform="translate(-55.926 -373.109)"/>
            <path id="Path_48752" d="M61.086 407.1a.624.624 0 1 0-.788-.4.624.624 0 0 0 .788.4z" class="cls-9" transform="translate(-49.448 -398.84)"/>
            <path id="Path_48753" d="M87.477 398.628a.376.376 0 1 0-.475-.24.377.377 0 0 0 .475.24z" class="cls-9" transform="translate(-70.462 -392.558)"/>
            <path id="Path_48754" d="M86.31 381.1a.584.584 0 1 0-.807-.177.584.584 0 0 0 .807.177z" class="cls-9" transform="translate(-69.225 -378.503)"/>
            <path id="Path_48755" d="M86.714 390.167a.461.461 0 1 0-.637-.14.462.462 0 0 0 .637.14z" class="cls-9" transform="translate(-69.692 -385.812)"/>
            <path id="Path_48756" d="M95.694 386.18a.278.278 0 1 0 .384.084.278.278 0 0 0-.384-.084z" class="cls-9" transform="translate(-77.212 -383.311)"/>
            <path id="Path_48757" d="M35.1 426.262a.791.791 0 1 0 .9-.671.791.791 0 0 0-.9.671z" class="cls-9" transform="translate(-29.651 -414.337)"/>
            <path id="Path_48758" d="M39.242 388.127a.624.624 0 1 0-.53-.707.624.624 0 0 0 .53.707z" class="cls-9" transform="translate(-32.491 -383.899)"/>
            <path id="Path_48759" d="M49.832 403.519a.377.377 0 1 0-.319-.426.377.377 0 0 0 .319.426z" class="cls-9" transform="translate(-40.988 -396.394)"/>
            <path id="Path_48760" d="M10.628 425.213a.791.791 0 1 0-1-.5.791.791 0 0 0 1 .5z" class="cls-9" transform="translate(-9.59 -412.832)"/>
            <path id="Path_48761" d="M16.4 432.393a.624.624 0 1 0 .4-.788.625.625 0 0 0-.4.788z" class="cls-9" transform="translate(-14.92 -419.048)"/>
            <path id="Path_48762" d="M26.553 432.2a.376.376 0 1 0-.475-.24.376.376 0 0 0 .475.24z" class="cls-9" transform="translate(-22.543 -418.961)"/>
            <path id="Path_48763" d="M31.42 401.44a.584.584 0 1 0-.807-.177.584.584 0 0 0 .807.177z" class="cls-9" transform="translate(-26.052 -394.501)"/>
            <path id="Path_48764" d="M25.79 423.735a.461.461 0 1 0-.637-.14.461.461 0 0 0 .637.14z" class="cls-9" transform="translate(-21.773 -412.215)"/>
            <path id="Path_48765" d="M34.77 419.749a.278.278 0 1 0 .384.084.278.278 0 0 0-.384-.084z" class="cls-9" transform="translate(-29.294 -409.714)"/>
        </g>
    </g>
    <g id="Group_18120" transform="translate(41.537 33.149)">
        <ellipse id="Ellipse_30" cx="4.901" cy="3.453" class="cls-10" rx="4.901" ry="3.453"/>
        <g id="Group_18119" transform="translate(2.309 .583)">
            <circle id="Ellipse_31" cx=".783" cy=".783" r=".783" fill="url(#linear-gradient-10)" transform="translate(1.289)"/>
            <circle id="Ellipse_32" cx=".618" cy=".618" r=".618" fill="url(#linear-gradient-11)" transform="translate(0 2.19)"/>
            <circle id="Ellipse_33" cx=".373" cy=".373" r=".373" fill="url(#linear-gradient-12)" transform="translate(2.94 2.954)"/>
        </g>
    </g>
    <g id="Group_18122" transform="translate(21.238 50.731)">
        <ellipse id="Ellipse_34" cx="4.901" cy="3.453" class="cls-10" rx="4.901" ry="3.453"/>
        <g id="Group_18121" transform="translate(2.309 .583)">
            <circle id="Ellipse_35" cx=".783" cy=".783" r=".783" fill="url(#linear-gradient-14)" transform="translate(1.289)"/>
            <circle id="Ellipse_36" cx=".618" cy=".618" r=".618" fill="url(#linear-gradient-15)" transform="translate(0 2.19)"/>
            <circle id="Ellipse_37" cx=".373" cy=".373" r=".373" fill="url(#linear-gradient-16)" transform="translate(2.94 2.954)"/>
        </g>
    </g>
    <g id="Group_18124" transform="translate(46.507 55.787)">
        <ellipse id="Ellipse_38" cx="4.901" cy="3.453" class="cls-10" rx="4.901" ry="3.453"/>
        <g id="Group_18123" transform="translate(2.309 .583)">
            <circle id="Ellipse_39" cx=".783" cy=".783" r=".783" fill="url(#linear-gradient-18)" transform="translate(1.289)"/>
            <circle id="Ellipse_40" cx=".618" cy=".618" r=".618" fill="url(#linear-gradient-19)" transform="translate(0 2.19)"/>
            <circle id="Ellipse_41" cx=".373" cy=".373" r=".373" fill="url(#linear-gradient-20)" transform="translate(2.94 2.954)"/>
        </g>
    </g>
    <g id="Group_18126" transform="translate(82.654 44.355)">
        <ellipse id="Ellipse_42" cx="4.901" cy="3.453" class="cls-10" rx="4.901" ry="3.453"/>
        <g id="Group_18125" transform="translate(2.309 .583)">
            <circle id="Ellipse_43" cx=".783" cy=".783" r=".783" fill="url(#linear-gradient-22)" transform="translate(1.289)"/>
            <circle id="Ellipse_44" cx=".618" cy=".618" r=".618" fill="url(#linear-gradient-23)" transform="translate(0 2.19)"/>
            <circle id="Ellipse_45" cx=".373" cy=".373" r=".373" fill="url(#linear-gradient-24)" transform="translate(2.94 2.954)"/>
        </g>
    </g>
    <g id="Group_18128" transform="translate(41.799 12.611)">
        <ellipse id="Ellipse_46" cx="4.901" cy="3.453" class="cls-10" rx="4.901" ry="3.453"/>
        <g id="Group_18127" transform="translate(2.309 .583)">
            <circle id="Ellipse_47" cx=".783" cy=".783" r=".783" fill="url(#linear-gradient-26)" transform="translate(1.289)"/>
            <circle id="Ellipse_48" cx=".618" cy=".618" r=".618" fill="url(#linear-gradient-27)" transform="translate(0 2.19)"/>
            <circle id="Ellipse_49" cx=".373" cy=".373" r=".373" fill="url(#linear-gradient-28)" transform="translate(2.94 2.954)"/>
        </g>
    </g>
    <g id="Group_18129" transform="translate(33.524 17.331)">
        <path id="Path_48766" fill="url(#linear-gradient-29)" d="M177.638 117.729a14.985 14.985 0 0 0-17.058 0c-4.71 3.552-4.71 9.311 0 12.863a14.984 14.984 0 0 0 17.058 0c4.711-3.552 4.711-9.311 0-12.863zm-13.945 8.744c-2.991-1.97-2.991-5.165 0-7.135a10.663 10.663 0 0 1 10.831 0c2.991 1.97 2.992 5.164 0 7.134a10.666 10.666 0 0 1-10.831.001z" transform="translate(-157.048 -115.065)"/>
        <path id="Path_48767" fill="url(#linear-gradient-30)" d="M169.488 132.528a12.851 12.851 0 0 0 14.189 0c3.919-2.849 3.918-7.466 0-10.314a12.847 12.847 0 0 0-14.189 0c-3.918 2.847-3.919 7.465 0 10.314zM182 123.281c2.991 1.97 2.991 5.165 0 7.135a10.663 10.663 0 0 1-10.831 0c-2.991-1.97-2.992-5.164 0-7.134a10.666 10.666 0 0 1 10.831-.001z" transform="translate(-164.521 -119.007)"/>
    </g>
    <path id="Path_48768" fill="url(#linear-gradient-31)" d="M25.114 365a4.6 4.6 0 0 0 5.026-1.128c.2-.256.111-.558-.166-.867a.681.681 0 0 1 .224-1.067l.071-.046c.543-.355.419-.982-.242-1.219l-2.631-.943c-.661-.237-1.456.061-1.545.578a1.09 1.09 0 0 1-1.1.732 1.3 1.3 0 0 0-1 .365c-1.012 1.308-.401 2.918 1.363 3.595z" transform="translate(-18.296 -290.109)"/>
    <g id="Group_18130" transform="translate(6.908 58.963)">
        <path id="Path_48769" fill="url(#linear-gradient-32)" d="M49.937 312.364a12.79 12.79 0 0 0-14.56 0c-4.021 3.032-4.021 7.948 0 10.979a12.79 12.79 0 0 0 14.56 0c4.021-3.032 4.021-7.943 0-10.979zm-11.9 7.464c-2.553-1.682-2.553-4.408 0-6.09a9.1 9.1 0 0 1 9.245 0c2.553 1.681 2.554 4.408 0 6.089a9.1 9.1 0 0 1-9.248 0z" transform="translate(-32.362 -310.09)"/>
        <path id="Path_48770" fill="url(#linear-gradient-33)" d="M42.981 324.994a10.969 10.969 0 0 0 12.111 0c3.345-2.431 3.344-6.373 0-8.8a10.967 10.967 0 0 0-12.111 0c-3.344 2.427-3.345 6.369 0 8.8zm10.678-7.894c2.553 1.681 2.553 4.408 0 6.09a9.1 9.1 0 0 1-9.245 0c-2.553-1.682-2.554-4.408 0-6.089a9.1 9.1 0 0 1 9.245-.001z" transform="translate(-38.741 -313.454)"/>
    </g>
    <path id="Path_48771" d="M319.494 268.655a4.6 4.6 0 0 0-5.026 1.128c-.2.257-.111.558.166.867a.682.682 0 0 1-.224 1.067l-.071.046c-.543.355-.419.982.242 1.219l2.631.943c.661.237 1.456-.061 1.545-.579a1.09 1.09 0 0 1 1.1-.732 1.3 1.3 0 0 0 1-.365c1.012-1.3.4-2.914-1.364-3.595z" class="cls-31" transform="translate(-246.97 -218.299)"/>
    <g id="Group_18132" transform="translate(60.028 37.97)">
        <ellipse id="Ellipse_50" cx="9.306" cy="6.557" class="cls-32" rx="9.306" ry="6.557"/>
        <g id="Group_18131" transform="translate(4.384 1.108)">
            <circle id="Ellipse_51" cx="1.487" cy="1.487" r="1.487" fill="url(#linear-gradient-36)" transform="translate(2.448)"/>
            <circle id="Ellipse_52" cx="1.174" cy="1.174" r="1.174" fill="url(#linear-gradient-37)" transform="translate(0 4.158)"/>
            <circle id="Ellipse_53" cx=".708" cy=".708" r=".708" fill="url(#linear-gradient-38)" transform="translate(5.583 5.609)"/>
        </g>
    </g>
    <g id="Group_18134" transform="translate(20.767 55.276)">
        <ellipse id="Ellipse_54" cx="9.306" cy="6.557" class="cls-32" rx="9.306" ry="6.557"/>
        <g id="Group_18133" transform="translate(4.384 1.108)">
            <circle id="Ellipse_55" cx="1.487" cy="1.487" r="1.487" fill="url(#linear-gradient-40)" transform="translate(2.448)"/>
            <circle id="Ellipse_56" cx="1.174" cy="1.174" r="1.174" fill="url(#linear-gradient-41)" transform="translate(0 4.158)"/>
            <circle id="Ellipse_57" cx=".708" cy=".708" r=".708" fill="url(#linear-gradient-42)" transform="translate(5.583 5.609)"/>
        </g>
    </g>
    <path id="Path_48772" d="M213.511 229.52a4.6 4.6 0 0 0-5.026 1.127c-.2.257-.111.558.166.867a.682.682 0 0 1-.224 1.067l-.071.046c-.543.355-.419.982.242 1.219l2.631.943c.661.237 1.456-.061 1.545-.579a1.09 1.09 0 0 1 1.1-.732 1.3 1.3 0 0 0 1-.365c1.012-1.303.401-2.913-1.363-3.593z" class="cls-31" transform="translate(-163.611 -187.518)"/>
    <path id="Path_48773" fill="url(#linear-gradient-44)" d="M226.819 302.025c2.161-.36 3.772-1.725 3.772-3.358 0-1.907-2.194-3.453-4.9-3.453a5.627 5.627 0 0 0-4.108 1.574z" transform="translate(-174.281 -239.427)"/>
    <g id="Group_18135" transform="translate(43.855 43.563)">
        <path id="Path_48774" fill="url(#linear-gradient-45)" d="M223.015 240.224a12.79 12.79 0 0 0-14.56 0c-4.021 3.032-4.021 7.948 0 10.979a12.791 12.791 0 0 0 14.56 0c4.021-3.032 4.021-7.947 0-10.979zm-11.9 7.464c-2.553-1.682-2.553-4.409 0-6.09a9.1 9.1 0 0 1 9.245 0c2.553 1.682 2.554 4.408 0 6.089a9.1 9.1 0 0 1-9.248 0z" transform="translate(-205.44 -237.95)"/>
        <path id="Path_48775" fill="url(#linear-gradient-46)" d="M216.06 252.854a10.969 10.969 0 0 0 12.111 0c3.345-2.431 3.344-6.373 0-8.8a10.967 10.967 0 0 0-12.111 0c-3.344 2.427-3.345 6.368 0 8.8zm10.678-7.893c2.553 1.682 2.553 4.409 0 6.09a9.1 9.1 0 0 1-9.245 0c-2.553-1.682-2.554-4.408 0-6.089a9.1 9.1 0 0 1 9.245-.001z" transform="translate(-211.82 -241.314)"/>
    </g>
    <path id="Path_48776" d="M60.442 278.646c-2.346 0-4.248 1.355-4.248 3.025s1.9 3.025 4.248 3.025 4.248-1.354 4.248-3.025-1.902-3.025-4.248-3.025zm0 4.31c-1 0-1.8-.575-1.8-1.284s.807-1.284 1.8-1.284 1.8.575 1.8 1.284-.804 1.284-1.8 1.284z" class="cls-42" transform="translate(-44.198 -226.396)"/>
    <path id="Path_48777" d="M161.295 251.023c-2.346 0-4.248 1.355-4.248 3.025s1.9 3.026 4.248 3.026 4.248-1.354 4.248-3.026-1.902-3.025-4.248-3.025zm0 4.31c-1 0-1.8-.575-1.8-1.284s.807-1.284 1.8-1.284 1.8.575 1.8 1.284-.805 1.284-1.8 1.284z" class="cls-42" transform="translate(-123.523 -204.669)"/>
    <path id="Path_48778" fill="url(#linear-gradient-49)" d="M289.733 179.706c-2.346 0-4.248 1.354-4.248 3.025s1.9 3.025 4.248 3.025 4.248-1.354 4.248-3.025-1.902-3.025-4.248-3.025zm0 4.31c-1 0-1.8-.575-1.8-1.284s.807-1.284 1.8-1.284 1.8.575 1.8 1.284-.804 1.284-1.8 1.284z" transform="translate(-224.544 -148.576)"/>
    <path id="Path_48779" d="M21.076 388.757c-2.346 0-4.248 1.354-4.248 3.026s1.9 3.025 4.248 3.025 4.248-1.354 4.248-3.025-1.902-3.026-4.248-3.026zm0 4.31c-1 0-1.8-.575-1.8-1.284s.807-1.284 1.8-1.284 1.8.575 1.8 1.284-.804 1.284-1.8 1.284z" class="cls-42" transform="translate(-13.236 -313.002)"/>
    <g id="Group_18137" transform="translate(21.755 32.52)">
        <ellipse id="Ellipse_58" cx="9.306" cy="6.557" class="cls-32" rx="9.306" ry="6.557"/>
        <g id="Group_18136" transform="translate(4.384 1.108)">
            <circle id="Ellipse_59" cx="1.487" cy="1.487" r="1.487" fill="url(#linear-gradient-52)" transform="translate(2.448)"/>
            <circle id="Ellipse_60" cx="1.174" cy="1.174" r="1.174" fill="url(#linear-gradient-53)" transform="translate(0 4.158)"/>
            <circle id="Ellipse_61" cx=".708" cy=".708" r=".708" fill="url(#linear-gradient-54)" transform="translate(5.583 5.609)"/>
        </g>
    </g>
    <path id="Path_48780" d="M280.162 136.8a4.6 4.6 0 0 0-5.026 1.127c-.2.257-.111.558.166.867a.681.681 0 0 1-.224 1.067l-.071.046c-.543.355-.419.982.242 1.219l2.631.943c.661.237 1.456-.061 1.545-.579a1.09 1.09 0 0 1 1.1-.732 1.3 1.3 0 0 0 1-.365c1.012-1.299.401-2.908-1.363-3.593z" class="cls-31" transform="translate(-216.034 -114.593)"/>
    <path id="Path_48781" fill="url(#linear-gradient-56)" d="M198.325 48.913c7.984 3.035 15.535 7.541 25.207 14.645s17.113 17.742 22.634 24.626c2.966 3.7 11.131 3.026 13.827-1.187 1.8-2.814 1.806-8.5-.029-11.1-5.414-7.678-14.531-16.7-25.792-24.97s-22.4-14.13-31.038-16.772a7.062 7.062 0 0 0-7.938 3.232c-2.696 4.213-1.16 9.896 3.129 11.526z" transform="translate(-152.474 -33.875)"/>
</svg>
