<svg xmlns="http://www.w3.org/2000/svg" width="18.726" height="19.319" viewBox="0 0 18.726 19.319">
  <g id="noun_landscape_2254049" transform="translate(-2.025 -0.536)">
    <g id="Group_23303" data-name="Group 23303" transform="translate(2.025 0.536)">
      <path id="Path_48782" data-name="Path 48782" d="M40.73,30.418A1.283,1.283,0,1,0,39.447,31.7,1.285,1.285,0,0,0,40.73,30.418Z" transform="translate(-30.962 -23.434)" fill="#1fae93"/>
      <rect id="Rectangle_4438" data-name="Rectangle 4438" width="0.399" height="0.812" transform="translate(8.286 4.257)" fill="#1fae93"/>
      <rect id="Rectangle_4439" data-name="Rectangle 4439" width="0.812" height="0.399" transform="translate(7.296 4.523) rotate(60.002)" fill="#1fae93"/>
      <rect id="Rectangle_4440" data-name="Rectangle 4440" width="0.812" height="0.399" transform="matrix(0.866, 0.5, -0.5, 0.866, 6.226, 5.448)" fill="#1fae93"/>
      <rect id="Rectangle_4441" data-name="Rectangle 4441" width="0.812" height="0.399" transform="translate(5.761 6.784)" fill="#1fae93"/>
      <rect id="Rectangle_4442" data-name="Rectangle 4442" width="0.399" height="0.812" transform="translate(6.226 8.518) rotate(-119.993)" fill="#1fae93"/>
      <rect id="Rectangle_4443" data-name="Rectangle 4443" width="0.399" height="0.812" transform="translate(7.295 9.443) rotate(-150.007)" fill="#1fae93"/>
      <rect id="Rectangle_4444" data-name="Rectangle 4444" width="0.399" height="0.812" transform="translate(8.286 8.896)" fill="#1fae93"/>
      <rect id="Rectangle_4445" data-name="Rectangle 4445" width="0.812" height="0.399" transform="matrix(0.5, 0.866, -0.866, 0.5, 9.615, 8.54)" fill="#1fae93"/>
      <rect id="Rectangle_4446" data-name="Rectangle 4446" width="0.399" height="0.812" transform="translate(10.945 8.173) rotate(119.993)" fill="#1fae93"/>
      <rect id="Rectangle_4447" data-name="Rectangle 4447" width="0.812" height="0.399" transform="translate(10.399 6.784)" fill="#1fae93"/>
      <rect id="Rectangle_4448" data-name="Rectangle 4448" width="0.399" height="0.812" transform="translate(10.746 5.448) rotate(60.007)" fill="#1fae93"/>
      <rect id="Rectangle_4449" data-name="Rectangle 4449" width="0.812" height="0.399" transform="translate(9.269 5.227) rotate(-59.991)" fill="#1fae93"/>
      <path id="Path_48783" data-name="Path 48783" d="M5.684,10.1l.887,1.471H8.514v-.2a1.059,1.059,0,0,0-1.06-1.058,1.118,1.118,0,0,0-.183.016,1.375,1.375,0,0,0-2.647-.2,1.184,1.184,0,0,0-1.509,1.244v.2H4.8Z" transform="translate(-2.898 -7.484)" fill="#1fae93"/>
      <path id="Path_48784" data-name="Path 48784" d="M79.12,13.563v-.2a.938.938,0,0,0-.937-.937,1.009,1.009,0,0,0-.136.01,1.212,1.212,0,0,0-1.182-.953,1.183,1.183,0,0,0-.47.1l1.2,1.981Z" transform="translate(-61.572 -9.302)" fill="#1fae93"/>
      <path id="Path_48785" data-name="Path 48785" d="M56.216,10.51a.223.223,0,0,0,.213.16h0a.223.223,0,0,0,.214-.159.983.983,0,0,1,.715-.663l-.086-.389a1.387,1.387,0,0,0-.842.583,1.386,1.386,0,0,0-.842-.583l-.086.389A.982.982,0,0,1,56.216,10.51Z" transform="translate(-44.842 -7.68)" fill="#1fae93"/>
      <path id="Path_48786" data-name="Path 48786" d="M45.454,1.588a.222.222,0,0,0,.427,0A.983.983,0,0,1,46.6.925L46.51.536a1.386,1.386,0,0,0-.842.583,1.387,1.387,0,0,0-.842-.583l-.086.389A.983.983,0,0,1,45.454,1.588Z" transform="translate(-36.225 -0.536)" fill="#1fae93"/>
      <path id="Path_48787" data-name="Path 48787" d="M36.318,10.671a.219.219,0,0,0,.209.157h0a.22.22,0,0,0,.21-.157.83.83,0,0,1,.6-.56l-.086-.389a1.232,1.232,0,0,0-.728.488,1.231,1.231,0,0,0-.728-.488l-.086.389A.83.83,0,0,1,36.318,10.671Z" transform="translate(-29 -7.891)" fill="#1fae93"/>
      <path id="Path_48788" data-name="Path 48788" d="M60.556,15.851H61.5l-1.467,2.424h.891l-1.1,1.824h.078v0h5.461l-1.1-1.82h.893l-1.469-2.424h.941l-1.06-1.75h.66l-1.63-2.7-1.628,2.7h.658Z" transform="translate(-48.297 -9.238)" fill="#1fae93"/>
      <path id="Path_48789" data-name="Path 48789" d="M20.619,59.293l-.088-.056c-1.674-1.052-7.8-3.456-10.283-2.513a4.081,4.081,0,0,1-3.273-.255,7.431,7.431,0,0,1,7.349-1.02c2.95,1.192,6.043-2.051,6.173-2.19l-.291-.273a9.139,9.139,0,0,1-2.8,1.945q-.111-.577-.189-1.144h-1.8c-.068.48-.153.971-.259,1.481a3.077,3.077,0,0,1-.682-.187,7.829,7.829,0,0,0-7.887,1.186,4.38,4.38,0,0,0-.664-.277A.113.113,0,0,0,5.9,55.98q-.12-.6-.205-1.206H3.926c-.05.339-.106.682-.169,1.022a3.761,3.761,0,0,0-1.656.65l-.076.06V61.85H20.751Zm-18.2,2.159v-1.7c.911-.269,6.318-1.678,9.551,1.7Zm11.373,0H12.513C9.274,57.694,3.689,58.98,2.424,59.334V56.705A3.97,3.97,0,0,1,5.8,56.367a4.7,4.7,0,0,1,.813.363,4.521,4.521,0,0,0,3.775.367c2.083-.791,6.912,1.007,8.957,1.969A6.627,6.627,0,0,0,13.8,61.451Zm.516,0a6.209,6.209,0,0,1,5.922-1.878l.1,1.878Z" transform="translate(-2.025 -42.53)" fill="#1fae93"/>
      <path id="Path_48790" data-name="Path 48790" d="M7.852,25.989l-1.07-1.768h.865L6.224,21.867h.911l-1.028-1.7h.64L5.156,17.534,3.563,20.169H4.2l-1.028,1.7h.911L2.662,24.221h.865L2.455,25.989l2.91,0C5.754,25.989,6.5,25.989,7.852,25.989Z" transform="translate(-2.369 -14.146)" fill="#1fae93"/>
    </g>
  </g>
</svg>
