<svg xmlns="http://www.w3.org/2000/svg" width="19.998" height="20.124" viewBox="0 0 19.998 20.124">
  <g id="noun_concierge_1516452" transform="translate(-5.467 -5)">
    <g id="Group_23301" data-name="Group 23301" transform="translate(5.467 5)">
      <path id="Path_48775" data-name="Path 48775" d="M89.837,122.612H88.085a.244.244,0,0,0-.244.244v.326a.244.244,0,0,0,.244.244h1.751a.244.244,0,0,0,.244-.244v-.326A.244.244,0,0,0,89.837,122.612Z" transform="translate(-76.79 -106.834)" fill="#1fae93"/>
      <path id="Path_48776" data-name="Path 48776" d="M16.251,18.485a1.575,1.575,0,0,1,.8-1.373v.17a.335.335,0,1,0,.671,0v-.4l.184-.053v.451a.335.335,0,1,0,.671,0v-.642l.184-.053v.695a.335.335,0,1,0,.671,0V16.4l.394-.112A17.838,17.838,0,0,0,21.3,23.715h1.918A17.836,17.836,0,0,0,24.7,16.283l.358.1v.9a.335.335,0,1,0,.671,0v-.705l.184.053v.653a.335.335,0,0,0,.671,0v-.462l.184.053v.409a.335.335,0,1,0,.671,0V17.09a1.575,1.575,0,0,1,.84,1.395v2.949a2.749,2.749,0,0,1,.939-.611V18.485a2.506,2.506,0,0,0-1.964-2.451l-2.814-.8v-1a2.68,2.68,0,0,0,.864-1.361c.053-.2.092-.351.122-.465a.878.878,0,0,0,.731-.733l.168-1.054a.984.984,0,0,0-.226-.792,1,1,0,0,0-.165-.153,3.351,3.351,0,0,0,.125-.882s0-.008,0-.013a3.6,3.6,0,0,0-1.236-2.658.47.47,0,0,0-.184-.369A3.644,3.644,0,0,0,22.431,5h-.337a3.255,3.255,0,0,0-1.795.668.47.47,0,0,0-.41.08,4.067,4.067,0,0,0-1.418,3.038,3.317,3.317,0,0,0,.127.881,1,1,0,0,0-.167.155.987.987,0,0,0-.226.794l.166,1.054a.884.884,0,0,0,.733.731c.03.114.069.265.122.465a2.676,2.676,0,0,0,.864,1.361v1l-2.814.8a2.506,2.506,0,0,0-1.964,2.451v5.23h.939v-5.23Zm5.141,2.691a16.913,16.913,0,0,1-.582-3.323l.377-.247.375.631A23.1,23.1,0,0,0,21.393,21.175Zm-.621-4.1q-.016-.574.008-1.148l.01-.01.866.58Zm.257-1.806V14.8a2.658,2.658,0,0,0,2.468,0v.476l-1.234.827Zm1.309,8.123c-.025.057-.049.115-.075.172-.026-.058-.05-.116-.076-.174a22.455,22.455,0,0,1,.021-4.9h.108A22.461,22.461,0,0,1,22.338,23.394Zm.088-5.568H22.1l-.349-.588.513-.336.512.336Zm.707,3.349a23.1,23.1,0,0,0-.17-2.939l.375-.631.377.247A16.936,16.936,0,0,1,23.132,21.176Zm.621-4.1L22.87,16.5l.866-.58.009.009Q23.768,16.5,23.753,17.076ZM20.136,6.807a.467.467,0,0,0,.325-.1,3.072,3.072,0,0,1,1.633-.773h.337a2.7,2.7,0,0,1,1.45.426.47.47,0,0,0,.183.347,2.671,2.671,0,0,1,1.051,2.073,2.418,2.418,0,0,1-.044.433l-.334-.524a.336.336,0,0,0-.379-.141,2.415,2.415,0,0,1-2.067-.326l-.634-.435a.335.335,0,0,0-.425.037L21.058,8a1,1,0,0,1-.97.25.335.335,0,0,0-.395.183l-.267.582c-.008-.076-.014-.151-.015-.226A3.306,3.306,0,0,1,20.136,6.807Zm-.2,5.053a.47.47,0,0,0-.462-.386h-.182l-.159-1a.045.045,0,0,1,.011-.038.057.057,0,0,1,.045-.02A.473.473,0,0,0,19.3,10.4h.013a.335.335,0,0,0,.3-.2l.577-1.255A1.673,1.673,0,0,0,21.507,8.5l.406.279a3.083,3.083,0,0,0,2.389.479l.629.988a.335.335,0,0,0,.294.154.472.472,0,0,0,.111.014.058.058,0,0,1,.046.02.044.044,0,0,1,.011.035l-.16,1.006h-.18a.463.463,0,0,0-.461.378c0,.023-.034.145-.2.774a1.735,1.735,0,0,1-.856,1.084l-.456.244a1.727,1.727,0,0,1-1.633,0l-.456-.244a1.735,1.735,0,0,1-.856-1.084C19.964,11.983,19.938,11.872,19.935,11.86Z" transform="translate(-13.991 -5)" fill="#1fae93"/>
      <path id="Path_48777" data-name="Path 48777" d="M25,125.541H24.11a1.281,1.281,0,0,1-.166-.625v-.183a2.274,2.274,0,0,0-1.937-2.244V122.4a.335.335,0,1,0-.671,0v.092a2.274,2.274,0,0,0-1.937,2.244v.183a1.281,1.281,0,0,1-.166.625H5.937a.47.47,0,0,0,0,.939H25a.47.47,0,0,0,0-.939Zm-3.323-2.409a1.6,1.6,0,0,1,1.594,1.449H20.078A1.6,1.6,0,0,1,21.672,123.132Zm1.7,2.406H19.97a1.953,1.953,0,0,0,.073-.287H23.3A1.936,1.936,0,0,0,23.375,125.538Z" transform="translate(-5.467 -106.356)" fill="#1fae93"/>
    </g>
  </g>
</svg>
