<svg xmlns="http://www.w3.org/2000/svg" width="20.509" height="20.509" viewBox="0 0 20.509 20.509">
  <g id="noun_floor_plan_1178862" data-name="noun_floor plan_1178862" transform="translate(-10 -10)">
    <path id="Path_48778" data-name="Path 48778" d="M30,10H10.513a.513.513,0,0,0-.513.513V30a.513.513,0,0,0,.513.513H26.664A.513.513,0,0,0,27.177,30V21.024H30a.513.513,0,0,0,.513-.513v-10A.513.513,0,0,0,30,10ZM11.025,23.844H14.1v3.589a.513.513,0,0,0,.513.513h4.615a.513.513,0,0,0,.513-.513V20.767H21.28v8.716H11.025ZM26.664,20a.513.513,0,0,0-.513.513v8.973H22.306V20.255a.513.513,0,0,0-.513-.513H19.229a.513.513,0,0,0-.513.513V26.92H15.127V23.331a.513.513,0,0,0-.513-.513H11.025V16.409h1.538a.513.513,0,0,0,0-1.025H11.025V11.025h10v4.358H15.64a.513.513,0,0,0,0,1.025h9.229a.513.513,0,1,0,0-1.025h-2.82V11.025h7.435v4.358H27.946a.513.513,0,1,0,0,1.025h1.538V20Z" fill="#1fae93"/>
  </g>
</svg>
