<svg xmlns="http://www.w3.org/2000/svg" width="21.427" height="20.657" viewBox="0 0 21.427 20.657">
  <g id="noun_Bathroom_1760193" transform="translate(0 0)">
    <g id="Group_23159" data-name="Group 23159" transform="translate(0 -0.001)">
      <path id="Path_48721" data-name="Path 48721" d="M20.141,10.567H17.985V2.66A2.661,2.661,0,0,0,13.38.843l-.635.679a2.374,2.374,0,0,0-2.177,2.362A.429.429,0,0,0,11,4.313h3.887a.429.429,0,0,0,.429-.429,2.374,2.374,0,0,0-1.532-2.216l.225-.241A1.8,1.8,0,0,1,17.128,2.66v7.907H1.286A1.287,1.287,0,0,0,0,11.853v.881a.428.428,0,0,0,.429.429h.748L1.57,14.5A5.465,5.465,0,0,0,4.4,17.843a4.186,4.186,0,0,0-.755,2.385.429.429,0,0,0,.857,0,3.368,3.368,0,0,1,.713-2.055l0,0a5.373,5.373,0,0,0,1.577.241h7.74a5.5,5.5,0,0,0,1.664-.261l.037.057a3.327,3.327,0,0,1,.691,2.023.429.429,0,0,0,.857,0,4.156,4.156,0,0,0-.773-2.409,5.6,5.6,0,0,0,2.874-3.412l.366-1.244H21a.428.428,0,0,0,.429-.429v-.881A1.287,1.287,0,0,0,20.141,10.567ZM14.394,3.456H11.487a1.516,1.516,0,0,1,2.907,0Zm4.668,10.708a4.747,4.747,0,0,1-4.528,3.388H6.794a4.614,4.614,0,0,1-4.4-3.294l-.322-1.1H19.357Zm1.507-1.859H.857v-.452a.429.429,0,0,1,.429-.429H20.141a.429.429,0,0,1,.429.429Z" transform="translate(0 0.001)" fill="#1fae93"/>
      <path id="Path_48722" data-name="Path 48722" d="M49.606,39.51a.429.429,0,0,0,.857,0v-.429a.429.429,0,0,0-.857,0Z" transform="translate(-38.977 -30.371)" fill="#1fae93"/>
      <path id="Path_48723" data-name="Path 48723" d="M49.606,31.51a.429.429,0,0,0,.857,0v-.429a.429.429,0,0,0-.857,0Z" transform="translate(-38.977 -24.085)" fill="#1fae93"/>
      <path id="Path_48724" data-name="Path 48724" d="M50.035,23.939a.428.428,0,0,0,.429-.429v-.429a.429.429,0,0,0-.857,0v.429A.429.429,0,0,0,50.035,23.939Z" transform="translate(-38.977 -17.799)" fill="#1fae93"/>
      <path id="Path_48725" data-name="Path 48725" d="M66.614,39.51a.429.429,0,1,0,.857,0v-.429a.429.429,0,1,0-.857,0Z" transform="translate(-52.341 -30.371)" fill="#1fae93"/>
      <path id="Path_48726" data-name="Path 48726" d="M67.043,23.939a.428.428,0,0,0,.429-.429v-.429a.429.429,0,1,0-.857,0v.429A.428.428,0,0,0,67.043,23.939Z" transform="translate(-52.341 -17.799)" fill="#1fae93"/>
      <path id="Path_48727" data-name="Path 48727" d="M66.614,31.51a.429.429,0,1,0,.857,0v-.429a.429.429,0,1,0-.857,0Z" transform="translate(-52.341 -24.085)" fill="#1fae93"/>
      <path id="Path_48728" data-name="Path 48728" d="M58.256,23.939a.428.428,0,0,0,.429-.429v-.429a.429.429,0,1,0-.857,0v.429A.428.428,0,0,0,58.256,23.939Z" transform="translate(-45.437 -17.799)" fill="#1fae93"/>
      <path id="Path_48729" data-name="Path 48729" d="M57.827,39.51a.429.429,0,1,0,.857,0v-.429a.429.429,0,1,0-.857,0Z" transform="translate(-45.437 -30.371)" fill="#1fae93"/>
      <path id="Path_48730" data-name="Path 48730" d="M57.827,31.51a.429.429,0,0,0,.857,0v-.429a.429.429,0,1,0-.857,0Z" transform="translate(-45.437 -24.085)" fill="#1fae93"/>
    </g>
  </g>
</svg>
