<svg id="Group_23306" data-name="Group 23306" xmlns="http://www.w3.org/2000/svg" width="21.668" height="21.883" viewBox="0 0 21.668 21.883">
  <path id="Path_48747" data-name="Path 48747" d="M41.31,130.028h.024a1.2,1.2,0,1,0-1.26-1.2h.894a.367.367,0,1,1,.367.35v.016H22.186v-.016a.35.35,0,1,1,.366-.35h.894a1.261,1.261,0,1,0-1.26,1.2h.024a8.453,8.453,0,0,1-.3,1.225,12.579,12.579,0,0,0-.669,2.971,3.269,3.269,0,0,0,.414,1.441c.042.091.086.186.131.287.13.292.279.691.374.953v2.369H41.356V136.9c.094-.262.243-.661.373-.953.045-.1.089-.2.131-.287a3.268,3.268,0,0,0,.414-1.441,12.577,12.577,0,0,0-.668-2.971A8.468,8.468,0,0,1,41.31,130.028Zm-2.911,1.5a13.769,13.769,0,0,1,.466,2.7,4.424,4.424,0,0,1-.347,1.431,7.512,7.512,0,0,0-.323,1.056H36.808a4.744,4.744,0,0,1,.142-.683,7.165,7.165,0,0,0,.291-1.8A18.411,18.411,0,0,0,36.9,131.3a6.849,6.849,0,0,1-.149-1.25h1.38A7.486,7.486,0,0,0,38.4,131.528Zm-13.074,5.186A7.515,7.515,0,0,0,25,135.657a4.424,4.424,0,0,1-.347-1.431,13.776,13.776,0,0,1,.466-2.7,7.485,7.485,0,0,0,.271-1.483h1.38a6.855,6.855,0,0,1-.149,1.25,18.422,18.422,0,0,0-.344,2.934,7.169,7.169,0,0,0,.291,1.8,4.754,4.754,0,0,1,.142.683H25.325Zm2.291,0a5.4,5.4,0,0,0-.223-1.017,7.089,7.089,0,0,1-.219-1.467,18.714,18.714,0,0,1,.3-2.68,7.492,7.492,0,0,0,.191-1.5h1.377a12.657,12.657,0,0,1-.068,1.28c-.118.393-.18,2.884-.18,2.908a12.838,12.838,0,0,0,.149,1.8c.018.078.045.363.069.682Zm2.295,0a4.157,4.157,0,0,0-.118-.951c-.046-.213-.1-1.34-.1-1.53,0-.225.078-2.383.144-2.67a9.234,9.234,0,0,0,.1-1.518h1.375v6.669Zm2.3-6.669h1.375a9.227,9.227,0,0,0,.1,1.518c.067.287.144,2.445.144,2.67,0,.19-.057,1.318-.1,1.53a4.145,4.145,0,0,0-.118.951h-1.4v-6.669Zm2.337,1.28a12.618,12.618,0,0,1-.068-1.28h1.377a7.5,7.5,0,0,0,.191,1.5,18.7,18.7,0,0,1,.3,2.68,7.087,7.087,0,0,1-.219,1.467,5.4,5.4,0,0,0-.224,1.017h-1.4c.024-.32.05-.6.069-.682a12.859,12.859,0,0,0,.149-1.8C34.724,134.209,34.662,131.718,34.544,131.325Zm-11.778.182a9.311,9.311,0,0,0,.345-1.462h1.383a6.419,6.419,0,0,1-.226,1.229,14.093,14.093,0,0,0-.507,2.953,5.15,5.15,0,0,0,.418,1.764,5.629,5.629,0,0,1,.225.723H23.04c-.094-.264-.27-.742-.427-1.1-.047-.1-.093-.2-.136-.3a2.547,2.547,0,0,1-.338-1.1A11.777,11.777,0,0,1,22.766,131.507Zm17.7,6.915h-17.4v-.855h17.4Zm.581-3.1c-.044.094-.09.193-.136.3-.158.354-.333.832-.427,1.1H39.115a5.611,5.611,0,0,1,.226-.723,5.15,5.15,0,0,0,.418-1.764,14.1,14.1,0,0,0-.506-2.953,6.423,6.423,0,0,1-.226-1.229h1.383a9.312,9.312,0,0,0,.345,1.462,11.772,11.772,0,0,1,.628,2.717A2.545,2.545,0,0,1,41.044,135.32Z" transform="translate(-20.926 -117.39)" fill="#1fae93"/>
  <path id="Path_48748" data-name="Path 48748" d="M79.556,25.089h4.5v4.629h.931V25.089h4.5v4.629h.931V19.668h-11.8v10.05h.931Zm5.433-4.568h4.5v3.716h-4.5Zm-5.433,0h4.5v3.716h-4.5Z" transform="translate(-73.689 -19.668)" fill="#1fae93"/>
</svg>
