<svg xmlns="http://www.w3.org/2000/svg" width="20.657" height="21.409" viewBox="0 0 20.657 21.409">
  <g id="noun_Home_3578340" transform="translate(-7.819 -4.609)">
    <path id="Path_48751" data-name="Path 48751" d="M8.1,17.943a.469.469,0,0,0,.507-.089l.829-.782V25.55a.469.469,0,0,0,.469.469H26.389a.469.469,0,0,0,.469-.469V17.072l.829.782a.469.469,0,0,0,.79-.341V14.378a.469.469,0,0,0-.147-.341l-2.4-2.259a.465.465,0,0,0,.04-.189V6.849a.469.469,0,0,0-.469-.469H22.857a.469.469,0,0,0-.469.469V8.434l-3.919-3.7a.469.469,0,0,0-.643,0l-9.86,9.3a.469.469,0,0,0-.147.341v3.135a.468.468,0,0,0,.283.43Zm11.851,7.138h-3.48V20.22h3.48Zm5.967-8.888v8.888H20.89V19.752a.469.469,0,0,0-.469-.469H16a.469.469,0,0,0-.469.469v5.329H10.375V16.188l7.773-7.331,7.773,7.331S25.92,16.191,25.92,16.193ZM23.325,7.318h1.712v3.615L23.325,9.318ZM8.756,14.58l9.391-8.857,9.391,8.858v1.847l-9.07-8.554a.469.469,0,0,0-.643,0l-9.07,8.554Z" transform="translate(0)" fill="#1fae93"/>
  </g>
</svg>
