<svg xmlns="http://www.w3.org/2000/svg" width="16.73" height="21.762" viewBox="0 0 16.73 21.762">
  <g id="noun_maid_496897" transform="translate(-16.27 -5.282)">
    <path id="Path_48791" data-name="Path 48791" d="M29,19.644A5.4,5.4,0,0,0,30.079,16.4V13.1a5.392,5.392,0,0,0-.82-2.86l-.055-.36a1.774,1.774,0,0,0-1.578-1.62,1.39,1.39,0,0,0-.275-.9,1.436,1.436,0,0,0-1.058-.493,1.688,1.688,0,0,0-1.4-1.547l-.24-.032a1.664,1.664,0,0,0-1.67,1.569,1.436,1.436,0,0,0-1.057.493,1.39,1.39,0,0,0-.275.9,1.778,1.778,0,0,0-1.582,1.644l-.057.4a5.4,5.4,0,0,0-.786,2.806v3.3A5.4,5.4,0,0,0,20.3,19.64a4.525,4.525,0,0,0-4.034,4.209v3.195H33V23.849A4.521,4.521,0,0,0,29,19.644ZM20.7,13.487c4.535-.281,6.037-2.942,6.037-2.942a9.085,9.085,0,0,0,2.009,2.966c0,.092.012.184.012.278,0,2.744-1.81,4.977-4.035,4.977s-4.035-2.232-4.035-4.977C20.69,13.687,20.7,13.587,20.7,13.487Zm.819,6.552h6.331V23.6H21.521Zm.393-11.327h.3l-.067-.294a1.04,1.04,0,0,1,.151-.775,1.1,1.1,0,0,1,.9-.321h.236l0-.236c0-.051.032-1.185,1.021-1.312l.182,0c1.139.018,1.183,1.268,1.184,1.32l0,.236h.236a1.1,1.1,0,0,1,.9.319,1.038,1.038,0,0,1,.154.778l-.067.294h.3a1.227,1.227,0,0,1,1.26.808,12.305,12.305,0,0,0-7.976.011A1.226,1.226,0,0,1,21.914,8.712ZM16.751,23.849a3.8,3.8,0,0,1,2.474-3.394v6.107H16.751Zm15.768,2.714h-2.37V20.5a3.78,3.78,0,0,1,2.37,3.351Z" fill="#1fae93"/>
  </g>
</svg>
