<svg xmlns="http://www.w3.org/2000/svg" width="21.665" height="21.064" viewBox="0 0 21.665 21.064">
  <g id="noun_Pet_2854189" transform="translate(-2 -3.662)">
    <g id="Group_23287" data-name="Group 23287" transform="translate(2 3.662)">
      <path id="Path_48758" data-name="Path 48758" d="M20.722,21.805a1.083,1.083,0,0,1,.722-1.017v.295a.361.361,0,1,0,.722,0v-.295a1.083,1.083,0,0,1,.722,1.017.361.361,0,0,0,.722,0,1.805,1.805,0,1,0-3.611,0,.361.361,0,0,0,.722,0Z" transform="translate(-13.501 -14.101)" fill="#1fae93"/>
      <path id="Path_48759" data-name="Path 48759" d="M20.1,17.6a.381.381,0,0,0,.256.1.362.362,0,1,0-.256-.617.415.415,0,0,0-.076.119.34.34,0,0,0,0,.274A.378.378,0,0,0,20.1,17.6Z" transform="translate(-13.501 -12.174)" fill="#1fae93"/>
      <path id="Path_48760" data-name="Path 48760" d="M28.1,17.6a.381.381,0,0,0,.256.1.362.362,0,1,0-.256-.617.415.415,0,0,0-.076.119.34.34,0,0,0,0,.274A.378.378,0,0,0,28.1,17.6Z" transform="translate(-18.612 -12.174)" fill="#1fae93"/>
      <path id="Path_48761" data-name="Path 48761" d="M23.3,14.255a.361.361,0,0,0,0-.722h-.361V11.516a.722.722,0,0,0-1.233-.511l-1.019,1.018a1.994,1.994,0,0,0-1.274,0L18.4,11.006a.722.722,0,0,0-1.233.511v2.017H16.8a.361.361,0,0,0,0,.722h.361v.722H16.8a.361.361,0,0,0,0,.722h.4a1.8,1.8,0,0,0,.425.845,3.985,3.985,0,0,0-2.471,1.89,2.511,2.511,0,0,0-1.122-1.047l.427-1.523a2.53,2.53,0,0,0,.011-1.315,2.336,2.336,0,0,0-1.611-1.629,2.522,2.522,0,0,0,.608-1.864L13.2,7.782l.217-.916a2.538,2.538,0,0,0-.008-1.192l-.366-1.467a.722.722,0,0,0-1.326-.183L11,5.272a2.531,2.531,0,0,0-.333,1.254v.147H9.944V6.645a2.513,2.513,0,0,0-.469-1.469L8.608,3.965a.722.722,0,0,0-1.3.33l-.2,1.57a2.518,2.518,0,0,0,.056.928l.248.994-.273,3.272a2.522,2.522,0,0,0,.607,1.862,2.338,2.338,0,0,0-1.61,1.63,2.532,2.532,0,0,0,.011,1.315l.428,1.527a2.531,2.531,0,0,0-1.432,2.544l.087.83L5.063,20.7a1.1,1.1,0,0,1-.69-.821l-.379-2.1a1.658,1.658,0,0,0-1.633-1.361A.361.361,0,0,0,2,16.783v3.08a3.261,3.261,0,0,0,1.547,2.766l.429.265A1.436,1.436,0,0,0,3.444,24v.361a.361.361,0,0,0,.361.361H9.583a1.079,1.079,0,0,0,.722-.277,1.079,1.079,0,0,0,.722.277H18.97a2.519,2.519,0,0,0,1.846-.806,1.083,1.083,0,0,0,1.043.806h.722a1.074,1.074,0,0,0,.766-.318,1.1,1.1,0,0,0,.317-.787,1.059,1.059,0,0,0-.722-1.005V15.7H23.3a.361.361,0,0,0,0-.722h-.361v-.722Zm-8.557,5.236a3.962,3.962,0,0,0-.108.9v1.744a1.085,1.085,0,0,1-.722-1.021V18.227c0-.029-.006-.055-.008-.083a1.811,1.811,0,0,1,.839,1.347ZM11.626,5.63l.713-1.247L12.7,5.85a1.815,1.815,0,0,1,.006.851l-.133.564-1.189-.476V6.526A1.808,1.808,0,0,1,11.626,5.63Zm-3.8.325.2-1.57L8.885,5.6a1.8,1.8,0,0,1,.336,1.049v.144l-1.194.478-.162-.65a1.808,1.808,0,0,1-.04-.662Zm-3.9,16.058a2.537,2.537,0,0,1-1.2-2.151V17.216a.935.935,0,0,1,.562.7l.379,2.1a1.832,1.832,0,0,0,1.146,1.365l.506.189.1.989h-.53c-.023,0-.045.006-.069.007Zm.963,1.268H5.82a.361.361,0,0,0,.359-.4l-.316-3.024A1.809,1.809,0,0,1,6.776,18.1l1.266,4.52A1.809,1.809,0,0,0,6.734,24H4.166A.722.722,0,0,1,4.889,23.282ZM11.027,24a.361.361,0,0,1-.361-.361V18.949a.361.361,0,1,0-.722,0v4.694A.361.361,0,0,1,9.583,24h-2.1A1.085,1.085,0,0,1,8.5,23.282a.361.361,0,0,0,.348-.459l-2-7.152a1.805,1.805,0,0,1-.008-.939,1.7,1.7,0,0,1,1.664-1.2.361.361,0,0,0,.255-.616l-.373-.373a1.8,1.8,0,0,1-.522-1.427l.259-3.109,1.534-.613h1.3l1.534.614.259,3.109a1.8,1.8,0,0,1-.522,1.427l-.373.373a.361.361,0,0,0-.072.394.369.369,0,0,0,.339.223,1.7,1.7,0,0,1,1.654,1.2,1.808,1.808,0,0,1-.008.939l-.447,1.594a1.069,1.069,0,0,0-.489-.121,1.083,1.083,0,0,0-1.083,1.083v2.889a3.6,3.6,0,0,0,1.345,2.807c.013.027.026.053.037.081Zm9.027-.37a1.083,1.083,0,0,0-.722-1.011v-2.23a.361.361,0,0,1,.361-.361h.722a.361.361,0,0,1,.361.361V22.2A1.8,1.8,0,0,1,20.054,23.635Zm2.166-8.657h-.361a.361.361,0,0,0,0,.722h.361v7.221a.37.37,0,0,0,.116.256.385.385,0,0,0,.265.105h0a.338.338,0,0,1,.24.1.348.348,0,0,1,.1.258.364.364,0,0,1-.106.259.356.356,0,0,1-.255.105h-.722a.361.361,0,0,1-.361-.361v-3.25a1.083,1.083,0,0,0-1.083-1.083h-.722a1.083,1.083,0,0,0-1.083,1.083v2.528a.361.361,0,0,0,.361.361.361.361,0,0,1,0,.722h-.722a.361.361,0,0,1-.361-.361V21.477a.361.361,0,0,0-.722,0v2.166a1.071,1.071,0,0,0,.066.361H15.36a2.892,2.892,0,0,1-2.889-2.889V18.227a.361.361,0,0,1,.722,0v2.889A1.808,1.808,0,0,0,15,22.921a.361.361,0,0,0,.361-.361V20.394a3.254,3.254,0,0,1,3.25-3.25h.361a.361.361,0,0,0,0-.722,1.083,1.083,0,0,1-1.017-.722h.295a.361.361,0,0,0,0-.722h-.361v-.722h.361a.361.361,0,0,0,0-.722h-.361V11.516l1.189,1.189a.361.361,0,0,0,.417.068,1.257,1.257,0,0,1,1.119,0,.361.361,0,0,0,.417-.068l1.191-1.189v2.017h-.361a.361.361,0,0,0,0,.722h.361Z" transform="translate(-2 -3.662)" fill="#1fae93"/>
      <circle id="Ellipse_22" data-name="Ellipse 22" cx="0.361" cy="0.361" r="0.361" transform="translate(16.97 9.871)" fill="#1fae93"/>
      <circle id="Ellipse_23" data-name="Ellipse 23" cx="0.361" cy="0.361" r="0.361" transform="translate(17.693 10.954)" fill="#1fae93"/>
      <circle id="Ellipse_24" data-name="Ellipse 24" cx="0.361" cy="0.361" r="0.361" transform="translate(18.415 9.871)" fill="#1fae93"/>
      <path id="Path_48762" data-name="Path 48762" d="M22.193,35.478a.361.361,0,0,0,.217-.263l.361-1.805a.361.361,0,1,0-.708-.142l-.255,1.277-.635-.423a.361.361,0,0,0-.51.114l-.775,1.289-.774-1.289a.361.361,0,0,0-.565-.069l-.335.335-.519-1.3a.361.361,0,1,0-.671.269l.722,1.805a.361.361,0,0,0,.591.121l.395-.4.846,1.408a.361.361,0,0,0,.619,0l.889-1.48.768.512A.361.361,0,0,0,22.193,35.478Z" transform="translate(-11.583 -22.385)" fill="#1fae93"/>
    </g>
  </g>
</svg>
