<svg xmlns="http://www.w3.org/2000/svg" width="21.2" height="15.9" viewBox="0 0 21.2 15.9">
  <g id="noun_bedroom_3321657" transform="translate(-8 -14)">
    <path id="Path_48731" data-name="Path 48731" d="M28.759,35.95H8.442A.442.442,0,0,1,8,35.508v-5.3A2.208,2.208,0,0,1,10.208,28H26.992A2.208,2.208,0,0,1,29.2,30.208v5.3A.442.442,0,0,1,28.759,35.95ZM8.883,35.067H28.317V30.208a1.325,1.325,0,0,0-1.325-1.325H10.208a1.325,1.325,0,0,0-1.325,1.325Z" transform="translate(0 -7.817)" fill="#1fae93"/>
    <path id="Path_48732" data-name="Path 48732" d="M29.225,21.067H12.442A.442.442,0,0,1,12,20.625V14.442A.442.442,0,0,1,12.442,14H29.225a.442.442,0,0,1,.442.442v6.183A.442.442,0,0,1,29.225,21.067Zm-16.342-.883h15.9v-5.3h-15.9Z" transform="translate(-2.233 0)" fill="#1fae93"/>
    <path id="Path_48733" data-name="Path 48733" d="M28.759,35.883H8.442a.442.442,0,0,1,0-.883H28.759a.442.442,0,0,1,0,.883Z" transform="translate(0 -11.725)" fill="#1fae93"/>
    <path id="Path_48734" data-name="Path 48734" d="M10.208,46.65H8.442A.442.442,0,0,1,8,46.208V44.442A.442.442,0,0,1,8.442,44h1.767a.442.442,0,0,1,.442.442v1.767A.442.442,0,0,1,10.208,46.65Zm-1.325-.883h.883v-.883H8.883Z" transform="translate(0 -16.75)" fill="#1fae93"/>
    <path id="Path_48735" data-name="Path 48735" d="M52.208,46.65H50.442A.442.442,0,0,1,50,46.208V44.442A.442.442,0,0,1,50.442,44h1.767a.442.442,0,0,1,.442.442v1.767A.442.442,0,0,1,52.208,46.65Zm-1.325-.883h.883v-.883h-.883Z" transform="translate(-23.45 -16.75)" fill="#1fae93"/>
    <path id="Path_48736" data-name="Path 48736" d="M22.3,25.533H17.442A.442.442,0,0,1,17,25.092V23.325A1.325,1.325,0,0,1,18.325,22h3.092a1.325,1.325,0,0,1,1.325,1.325v1.767A.442.442,0,0,1,22.3,25.533Zm-4.417-.883h3.975V23.325a.442.442,0,0,0-.442-.442H18.325a.442.442,0,0,0-.442.442Z" transform="translate(-5.025 -4.467)" fill="#1fae93"/>
    <path id="Path_48737" data-name="Path 48737" d="M39.3,25.533H34.442A.442.442,0,0,1,34,25.092V23.325A1.325,1.325,0,0,1,35.325,22h3.092a1.325,1.325,0,0,1,1.325,1.325v1.767A.442.442,0,0,1,39.3,25.533Zm-4.417-.883h3.975V23.325a.442.442,0,0,0-.442-.442H35.325a.442.442,0,0,0-.442.442Z" transform="translate(-14.517 -4.467)" fill="#1fae93"/>
  </g>
</svg>
