<svg xmlns="http://www.w3.org/2000/svg" width="16.031" height="19.884" viewBox="0 0 16.031 19.884">
  <g id="noun_Security_957678" transform="translate(937.7 -953)">
    <g id="Group_23299" data-name="Group 23299" transform="translate(-937.7 953)">
      <path id="Path_48768" data-name="Path 48768" d="M-929.684,953l-8.016,2.527v4.909a13.17,13.17,0,0,0,5.592,10.75l2.423,1.7,2.423-1.7a13.113,13.113,0,0,0,5.592-10.75v-4.909Zm6.9,7.436a11.957,11.957,0,0,1-5.116,9.818l-1.781,1.243-1.781-1.243a11.986,11.986,0,0,1-5.116-9.818v-4.1l6.9-2.175,6.9,2.175Z" transform="translate(937.7 -953)" fill="#1fae93"/>
      <path id="Path_48769" data-name="Path 48769" d="M-913.63,974.64v1.119h-.87v5.2h6.421v-5.2h-.87V974.64a2.351,2.351,0,0,0-2.341-2.34A2.351,2.351,0,0,0-913.63,974.64Zm2.879,5.054h-1.077l.186-1.388a.68.68,0,0,1-.311-.559.654.654,0,0,1,.663-.663.654.654,0,0,1,.663.663.68.68,0,0,1-.311.559Zm-1.905-5.054a1.366,1.366,0,0,1,1.367-1.367,1.366,1.366,0,0,1,1.367,1.367v1.119h-2.734Z" transform="translate(919.305 -968.303)" fill="#1fae93"/>
    </g>
  </g>
</svg>
