<svg xmlns="http://www.w3.org/2000/svg" width="18.133" height="19.558" viewBox="0 0 18.133 19.558">
  <g id="noun_Pool_2872002" transform="translate(-56.277 -20.938)">
    <g id="Group_23298" data-name="Group 23298" transform="translate(56.277 20.938)">
      <g id="Group_23289" data-name="Group 23289" transform="translate(0 14.082)">
        <g id="Group_23288" data-name="Group 23288">
          <path id="Path_48763" data-name="Path 48763" d="M57.182,729.844a2.861,2.861,0,0,1,.589-.342l-.143.06a2.888,2.888,0,0,1,.729-.2l-.159.022a2.96,2.96,0,0,1,.751,0l-.159-.022a2.888,2.888,0,0,1,.729.2l-.143-.06a2.854,2.854,0,0,1,.448.243c.135.09.261.193.4.275a3.275,3.275,0,0,0,1.053.4,3.47,3.47,0,0,0,2.31-.344,4.358,4.358,0,0,0,.444-.293,2.822,2.822,0,0,1,.514-.287l-.143.06a2.888,2.888,0,0,1,.729-.2l-.159.022a2.96,2.96,0,0,1,.751,0l-.159-.022a2.888,2.888,0,0,1,.729.2l-.143-.06a2.859,2.859,0,0,1,.448.243c.135.09.261.193.4.275a3.275,3.275,0,0,0,1.053.4,3.471,3.471,0,0,0,2.31-.344,4.388,4.388,0,0,0,.444-.293,2.823,2.823,0,0,1,.514-.287l-.143.06a2.891,2.891,0,0,1,.729-.2l-.159.022a2.96,2.96,0,0,1,.751,0l-.159-.022a2.891,2.891,0,0,1,.729.2l-.143-.06a2.953,2.953,0,0,1,.589.343.59.59,0,0,0,.46.06.6.6,0,0,0,.416-.735.7.7,0,0,0-.275-.356,3.418,3.418,0,0,0-3.745-.167c-.135.082-.257.181-.388.267a2.951,2.951,0,0,1-.448.243l.143-.06a2.893,2.893,0,0,1-.729.2l.159-.022a2.96,2.96,0,0,1-.751,0l.159.022a2.893,2.893,0,0,1-.729-.2l.143.06a2.859,2.859,0,0,1-.448-.243c-.135-.09-.261-.193-.4-.275a3.275,3.275,0,0,0-1.053-.4,3.471,3.471,0,0,0-2.31.344,4.378,4.378,0,0,0-.444.293,2.822,2.822,0,0,1-.514.287l.143-.06a2.888,2.888,0,0,1-.729.2l.159-.022a2.96,2.96,0,0,1-.751,0l.159.022a2.888,2.888,0,0,1-.729-.2l.143.06a4.7,4.7,0,0,1-.731-.444,3.389,3.389,0,0,0-2.845-.4,3.332,3.332,0,0,0-1.006.5.662.662,0,0,0-.275.356.6.6,0,0,0,.416.735.587.587,0,0,0,.468-.058Z" transform="translate(-56.277 -728.158)" fill="#1fae93"/>
        </g>
      </g>
      <g id="Group_23291" data-name="Group 23291" transform="translate(2.775 0)">
        <g id="Group_23290" data-name="Group 23290">
          <path id="Path_48764" data-name="Path 48764" d="M201.781,23.992a3.082,3.082,0,0,0-1.774-2.774,3.173,3.173,0,0,0-1.8-.241,2.884,2.884,0,0,0-1.28.542,3.066,3.066,0,0,0-.956,1.135A3.164,3.164,0,0,0,195.656,24c0,.422,0,.846,0,1.268v7.993a.6.6,0,1,0,1.195,0V26.085c0-.7,0-1.392,0-2.089a2.7,2.7,0,0,1,.022-.335c-.008.054-.014.106-.022.159a2.572,2.572,0,0,1,.169-.619l-.06.143a2.5,2.5,0,0,1,.219-.406c.022-.032.046-.064.068-.1.046-.066-.046.056-.046.058s.032-.04.042-.052c.05-.06.1-.117.159-.173s.108-.1.163-.149c.016-.014.034-.028.052-.042.052-.044-.115.084-.058.046l.1-.068a2.542,2.542,0,0,1,.416-.225l-.143.06a2.484,2.484,0,0,1,.619-.169l-.159.022a2.655,2.655,0,0,1,.653,0l-.159-.022a2.526,2.526,0,0,1,.635.173l-.143-.06a2.572,2.572,0,0,1,.406.219c.034.022.068.048.1.07.05.036.032.024-.048-.038l.048.038c.054.046.108.094.157.145s.1.1.145.157c.014.016.026.032.038.048-.062-.082-.074-.1-.038-.048.024.034.048.066.07.1a2.573,2.573,0,0,1,.219.406l-.06-.143a2.589,2.589,0,0,1,.173.635c-.008-.054-.014-.106-.022-.159a2.925,2.925,0,0,1,.022.323.6.6,0,0,0,1.2,0Z" transform="translate(-195.656 -20.938)" fill="#1fae93"/>
        </g>
      </g>
      <g id="Group_23293" data-name="Group 23293" transform="translate(10.869 0)">
        <g id="Group_23292" data-name="Group 23292">
          <path id="Path_48765" data-name="Path 48765" d="M608.281,23.992a3.082,3.082,0,0,0-1.774-2.774,3.173,3.173,0,0,0-1.8-.241,2.884,2.884,0,0,0-1.28.542,3.065,3.065,0,0,0-.956,1.135A3.164,3.164,0,0,0,602.156,24c0,.424,0,.85,0,1.274v7.987a.6.6,0,1,0,1.195,0V26.091c0-.7,0-1.4,0-2.1a2.7,2.7,0,0,1,.022-.335c-.008.054-.014.106-.022.159a2.573,2.573,0,0,1,.169-.619l-.06.143a2.5,2.5,0,0,1,.219-.406c.022-.032.046-.064.068-.1.046-.066-.046.056-.046.058s.032-.04.042-.052c.05-.06.1-.117.159-.173s.107-.1.163-.149c.016-.014.034-.028.052-.042.052-.044-.115.084-.058.046l.1-.068a2.547,2.547,0,0,1,.416-.225l-.143.06a2.484,2.484,0,0,1,.619-.169l-.159.022a2.654,2.654,0,0,1,.653,0l-.159-.022a2.526,2.526,0,0,1,.635.173l-.143-.06a2.572,2.572,0,0,1,.406.219c.034.022.068.048.1.07.05.036.032.024-.048-.038l.048.038c.054.046.107.094.157.145s.1.1.145.157c.014.016.026.032.038.048-.062-.082-.074-.1-.038-.048.024.034.048.066.07.1a2.575,2.575,0,0,1,.219.406l-.06-.143a2.59,2.59,0,0,1,.173.635c-.008-.054-.014-.106-.022-.159a2.922,2.922,0,0,1,.022.323.6.6,0,0,0,1.2,0Z" transform="translate(-602.156 -20.938)" fill="#1fae93"/>
        </g>
      </g>
      <g id="Group_23295" data-name="Group 23295" transform="translate(2.774 5.45)">
        <g id="Group_23294" data-name="Group 23294" transform="translate(0 0)">
          <path id="Path_48766" data-name="Path 48766" d="M203.7,295.267V299.5l.6-.6h-7.1c-.329,0-.657-.01-.986,0H196.2l.6.6v-4.233l-.6.6h7.1c.329,0,.657.006.986,0h.014a.6.6,0,1,0,0-1.195h-7.1c-.329,0-.657-.006-.986,0H196.2a.606.606,0,0,0-.6.6V299.5a.606.606,0,0,0,.6.6h7.1c.329,0,.657.006.986,0h.014a.606.606,0,0,0,.6-.6v-4.233a.6.6,0,0,0-1.195,0Z" transform="translate(-195.6 -294.667)" fill="#1fae93"/>
        </g>
      </g>
      <g id="Group_23297" data-name="Group 23297" transform="translate(0 17.228)">
        <g id="Group_23296" data-name="Group 23296">
          <path id="Path_48767" data-name="Path 48767" d="M57.182,887.844a2.859,2.859,0,0,1,.589-.343l-.143.06a2.893,2.893,0,0,1,.729-.2l-.159.022a2.96,2.96,0,0,1,.751,0l-.159-.022a2.893,2.893,0,0,1,.729.2l-.143-.06a2.859,2.859,0,0,1,.448.243c.135.09.261.193.4.275a3.274,3.274,0,0,0,1.053.4,3.471,3.471,0,0,0,2.31-.344,4.388,4.388,0,0,0,.444-.293,2.823,2.823,0,0,1,.514-.287l-.143.06a2.888,2.888,0,0,1,.729-.2l-.159.022a2.96,2.96,0,0,1,.751,0l-.159-.022a2.888,2.888,0,0,1,.729.2l-.143-.06a2.854,2.854,0,0,1,.448.243c.135.09.261.193.4.275a3.277,3.277,0,0,0,1.053.4,3.47,3.47,0,0,0,2.31-.344,4.378,4.378,0,0,0,.444-.293,2.822,2.822,0,0,1,.514-.287l-.143.06a2.891,2.891,0,0,1,.729-.2l-.159.022a2.954,2.954,0,0,1,.751,0l-.159-.022a2.891,2.891,0,0,1,.729.2l-.143-.06a2.955,2.955,0,0,1,.589.342.589.589,0,0,0,.46.06.6.6,0,0,0,.416-.735.7.7,0,0,0-.275-.356,3.418,3.418,0,0,0-3.745-.167c-.135.082-.257.181-.388.267a2.946,2.946,0,0,1-.448.243l.143-.06a2.891,2.891,0,0,1-.729.2l.159-.022a2.96,2.96,0,0,1-.751,0l.159.022a2.891,2.891,0,0,1-.729-.2l.143.06a2.854,2.854,0,0,1-.448-.243c-.135-.09-.261-.193-.4-.275a3.275,3.275,0,0,0-1.053-.4,3.471,3.471,0,0,0-2.31.344,4.378,4.378,0,0,0-.444.293,2.822,2.822,0,0,1-.514.287l.143-.06a2.888,2.888,0,0,1-.729.2l.159-.022a2.96,2.96,0,0,1-.751,0l.159.022a2.888,2.888,0,0,1-.729-.2l.143.06a4.7,4.7,0,0,1-.731-.444,3.39,3.39,0,0,0-2.845-.4,3.334,3.334,0,0,0-1.006.5.662.662,0,0,0-.275.356.6.6,0,0,0,.416.735.587.587,0,0,0,.468-.058Z" transform="translate(-56.277 -886.158)" fill="#1fae93"/>
        </g>
      </g>
    </g>
  </g>
</svg>
