<svg xmlns="http://www.w3.org/2000/svg" width="16" height="16" viewBox="0 0 16 16">
  <g id="noun_Check_Box_3190881" data-name="noun_Check Box_3190881" transform="translate(-1 -2)">
    <path id="Path_48798" data-name="Path 48798" d="M16.238,2H1.762A.762.762,0,0,0,1,2.762V17.238A.762.762,0,0,0,1.762,18H16.238A.762.762,0,0,0,17,17.238V2.762A.762.762,0,0,0,16.238,2ZM12.97,7.874l-2.5,2.5-.941.941L8.4,12.446a.762.762,0,0,1-1.074,0L6.047,11.169,5.038,10.16A.762.762,0,0,1,6.112,9.086L7.857,10.83l4.03-4.03a.762.762,0,0,1,1.074,1.074Z" fill="#16135a"/>
  </g>
</svg>
