<svg xmlns="http://www.w3.org/2000/svg" width="16.084" height="12.063" viewBox="0 0 16.084 12.063">
  <g id="noun_bedroom_3321657" transform="translate(-8 -14)">
    <path id="Path_48731" data-name="Path 48731" d="M23.749,34.031H8.335A.335.335,0,0,1,8,33.7V29.675A1.675,1.675,0,0,1,9.675,28H22.408a1.675,1.675,0,0,1,1.675,1.675V33.7A.335.335,0,0,1,23.749,34.031ZM8.67,33.361H23.414V29.675a1,1,0,0,0-1.005-1.005H9.675A1,1,0,0,0,8.67,29.675Z" transform="translate(0 -9.309)"/>
    <path id="Path_48732" data-name="Path 48732" d="M25.068,19.361H12.335A.335.335,0,0,1,12,19.026V14.335A.335.335,0,0,1,12.335,14H25.068a.335.335,0,0,1,.335.335v4.691A.335.335,0,0,1,25.068,19.361Zm-12.4-.67H24.733V14.67H12.67Z" transform="translate(-2.66)"/>
    <path id="Path_48733" data-name="Path 48733" d="M23.749,35.67H8.335a.335.335,0,0,1,0-.67H23.749a.335.335,0,0,1,0,.67Z" transform="translate(0 -13.963)"/>
    <path id="Path_48734" data-name="Path 48734" d="M9.675,46.01H8.335A.335.335,0,0,1,8,45.675v-1.34A.335.335,0,0,1,8.335,44h1.34a.335.335,0,0,1,.335.335v1.34A.335.335,0,0,1,9.675,46.01ZM8.67,45.34h.67v-.67H8.67Z" transform="translate(0 -19.948)"/>
    <path id="Path_48735" data-name="Path 48735" d="M51.675,46.01h-1.34A.335.335,0,0,1,50,45.675v-1.34A.335.335,0,0,1,50.335,44h1.34a.335.335,0,0,1,.335.335v1.34A.335.335,0,0,1,51.675,46.01Zm-1.005-.67h.67v-.67h-.67Z" transform="translate(-27.927 -19.948)"/>
    <path id="Path_48736" data-name="Path 48736" d="M21.021,24.681H17.335A.335.335,0,0,1,17,24.346v-1.34A1,1,0,0,1,18.005,22h2.346a1,1,0,0,1,1.005,1.005v1.34A.335.335,0,0,1,21.021,24.681Zm-3.351-.67h3.016V23.005a.335.335,0,0,0-.335-.335H18.005a.335.335,0,0,0-.335.335Z" transform="translate(-5.984 -5.319)"/>
    <path id="Path_48737" data-name="Path 48737" d="M38.021,24.681H34.335A.335.335,0,0,1,34,24.346v-1.34A1,1,0,0,1,35.005,22h2.346a1,1,0,0,1,1.005,1.005v1.34A.335.335,0,0,1,38.021,24.681Zm-3.351-.67h3.016V23.005a.335.335,0,0,0-.335-.335H35.005a.335.335,0,0,0-.335.335Z" transform="translate(-17.288 -5.319)"/>
  </g>
</svg>
