<svg xmlns="http://www.w3.org/2000/svg" width="17.352" height="16.729" viewBox="0 0 17.352 16.729">
  <g id="noun_Bathroom_1760193" transform="translate(0 0)">
    <g id="Group_23159" data-name="Group 23159" transform="translate(0 -0.001)">
      <path id="Path_48721" data-name="Path 48721" d="M16.311,8.558H14.565v-6.4A2.155,2.155,0,0,0,10.836.683l-.514.55A1.923,1.923,0,0,0,8.559,3.146a.347.347,0,0,0,.347.347h3.148a.347.347,0,0,0,.347-.347,1.923,1.923,0,0,0-1.24-1.794l.182-.2a1.46,1.46,0,0,1,2.528,1v6.4H1.041A1.042,1.042,0,0,0,0,9.6v.713a.347.347,0,0,0,.347.347H.953l.319,1.084A4.425,4.425,0,0,0,3.562,14.45a3.39,3.39,0,0,0-.611,1.931.347.347,0,1,0,.694,0,2.727,2.727,0,0,1,.577-1.664l0,0a4.351,4.351,0,0,0,1.277.2H11.77a4.457,4.457,0,0,0,1.347-.212l.03.046a2.7,2.7,0,0,1,.559,1.638.347.347,0,1,0,.694,0,3.366,3.366,0,0,0-.626-1.951A4.533,4.533,0,0,0,16.1,11.667l.3-1.008h.606a.347.347,0,0,0,.347-.347V9.6A1.042,1.042,0,0,0,16.311,8.558ZM11.657,2.8H9.3a1.227,1.227,0,0,1,2.354,0Zm3.781,8.672a3.844,3.844,0,0,1-3.667,2.744H5.5a3.737,3.737,0,0,1-3.565-2.668l-.261-.888h14Zm1.221-1.506H.694V9.6a.347.347,0,0,1,.347-.347h15.27a.347.347,0,0,1,.347.347Z" transform="translate(0 0.001)"/>
      <path id="Path_48722" data-name="Path 48722" d="M49.606,39.347a.347.347,0,0,0,.694,0V39a.347.347,0,0,0-.694,0Z" transform="translate(-40.998 -31.946)"/>
      <path id="Path_48723" data-name="Path 48723" d="M49.606,31.347a.347.347,0,0,0,.694,0V31a.347.347,0,0,0-.694,0Z" transform="translate(-40.998 -25.334)"/>
      <path id="Path_48724" data-name="Path 48724" d="M49.953,23.694a.347.347,0,0,0,.347-.347V23a.347.347,0,0,0-.694,0v.347A.347.347,0,0,0,49.953,23.694Z" transform="translate(-40.998 -18.722)"/>
      <path id="Path_48725" data-name="Path 48725" d="M66.614,39.347a.347.347,0,1,0,.694,0V39a.347.347,0,1,0-.694,0Z" transform="translate(-55.055 -31.946)"/>
      <path id="Path_48726" data-name="Path 48726" d="M66.961,23.694a.347.347,0,0,0,.347-.347V23a.347.347,0,1,0-.694,0v.347A.347.347,0,0,0,66.961,23.694Z" transform="translate(-55.055 -18.722)"/>
      <path id="Path_48727" data-name="Path 48727" d="M66.614,31.347a.347.347,0,1,0,.694,0V31a.347.347,0,1,0-.694,0Z" transform="translate(-55.055 -25.334)"/>
      <path id="Path_48728" data-name="Path 48728" d="M58.174,23.694a.347.347,0,0,0,.347-.347V23a.347.347,0,1,0-.694,0v.347A.347.347,0,0,0,58.174,23.694Z" transform="translate(-47.793 -18.722)"/>
      <path id="Path_48729" data-name="Path 48729" d="M57.827,39.347a.347.347,0,0,0,.694,0V39a.347.347,0,1,0-.694,0Z" transform="translate(-47.793 -31.946)"/>
      <path id="Path_48730" data-name="Path 48730" d="M57.827,31.347a.347.347,0,0,0,.694,0V31a.347.347,0,1,0-.694,0Z" transform="translate(-47.793 -25.334)"/>
    </g>
  </g>
</svg>
