<svg xmlns="http://www.w3.org/2000/svg" width="20.301" height="20.302" viewBox="0 0 20.301 20.302">
  <g id="noun_Category_3492490" transform="translate(-13.66 -13.66)">
    <g id="Layer_6" data-name="Layer 6" transform="translate(13.66 13.66)">
      <path id="Path_48794" data-name="Path 48794" d="M22.8,23.361H14.219a.559.559,0,0,1-.559-.559V17.274a3.631,3.631,0,0,1,3.614-3.614H22.8a.559.559,0,0,1,.559.559V22.8A.559.559,0,0,1,22.8,23.361Zm-8.025-1.117h7.466V14.777H17.274a2.514,2.514,0,0,0-2.5,2.5Z" transform="translate(-13.66 -13.66)" fill="#1fae93"/>
      <path id="Path_48795" data-name="Path 48795" d="M60.752,23.361H52.169a.559.559,0,0,1-.559-.559V14.219a.559.559,0,0,1,.559-.559H57.7a3.631,3.631,0,0,1,3.614,3.614V22.8A.559.559,0,0,1,60.752,23.361Zm-8.025-1.117h7.466V17.274a2.514,2.514,0,0,0-2.5-2.5H52.727Z" transform="translate(-41.01 -13.66)" fill="#1fae93"/>
      <path id="Path_48796" data-name="Path 48796" d="M22.8,61.311H17.274A3.631,3.631,0,0,1,13.66,57.7V52.169a.559.559,0,0,1,.559-.559H22.8a.559.559,0,0,1,.559.559v8.584A.559.559,0,0,1,22.8,61.311Zm-8.025-8.584V57.7a2.514,2.514,0,0,0,2.5,2.5h4.969V52.727Z" transform="translate(-13.66 -41.01)" fill="#1fae93"/>
      <path id="Path_48797" data-name="Path 48797" d="M56.46,61.3A4.852,4.852,0,1,1,61.3,56.46,4.852,4.852,0,0,1,56.46,61.3Zm0-8.584a3.735,3.735,0,1,0,3.726,3.74,3.735,3.735,0,0,0-3.726-3.74Z" transform="translate(-41.002 -41.002)" fill="#1fae93"/>
    </g>
  </g>
</svg>
