<svg id="Group_23304" data-name="Group 23304" xmlns="http://www.w3.org/2000/svg" width="20.629" height="15.472" viewBox="0 0 20.629 15.472">
  <path id="Path_48792" data-name="Path 48792" d="M21.408,4a1.231,1.231,0,0,1,1.221,1.245V18.227a1.26,1.26,0,0,1-1.221,1.245H3.221A1.26,1.26,0,0,1,2,18.227V5.245A1.26,1.26,0,0,1,3.221,4Zm-.068,6.447H3.289v7.329a.4.4,0,0,0,.333.407H21.006a.4.4,0,0,0,.333-.407ZM10.38,15.6a.645.645,0,1,1,0,1.289H5.223a.645.645,0,0,1,0-1.289Zm7.091-3.868a2.579,2.579,0,1,1-1.289,4.812,2.579,2.579,0,1,1,0-4.466A2.55,2.55,0,0,1,17.472,11.736Zm0,1.289a1.292,1.292,0,0,0-.322.041,2.583,2.583,0,0,1,0,2.5,1.238,1.238,0,0,0,.321.042,1.289,1.289,0,1,0,0-2.579Zm-2.579,0a1.289,1.289,0,1,0,1.289,1.289A1.289,1.289,0,0,0,14.893,13.025Zm-7.091,0a.645.645,0,1,1,0,1.289H5.223a.645.645,0,1,1,0-1.289ZM21.34,7.868H3.289V9.157H21.34Zm-.333-2.579H3.623a.4.4,0,0,0-.333.407v.883H21.34V5.7A.4.4,0,0,0,21.006,5.289Z" transform="translate(-2 -4)" fill="#1fae93"/>
</svg>
