<svg xmlns="http://www.w3.org/2000/svg" width="17.68" height="23.08" viewBox="0 0 17.68 23.08">
  <g id="noun_furniture_1884613" transform="translate(-16.591 -7)">
    <g id="Group_23302" data-name="Group 23302" transform="translate(16.591 7)">
      <path id="Path_48779" data-name="Path 48779" d="M33.553,17.282V7h-1.34v3.332H18.649V7h-1.34V17.282h-.718V29.1h.553v.976h.988L18.7,29.1H32.167l.563.976h.988V29.1h.553V17.282Zm-.777-9.719h.214v9.719h-.214ZM18.649,10.895H32.213V13.33H18.649Zm0,3H32.213v3.389H18.649Zm-.777-6.33h.214v9.719h-.214Zm-.065,21.954h-.1V29.1h.338Zm7.342-.976h-8v-10.7h8Zm8.005.976h-.1l-.239-.413h.338v.413Zm.553-.976h-8v-10.7h8Z" transform="translate(-16.591 -7)" fill="#1fae93"/>
      <path id="Path_48780" data-name="Path 48780" d="M41.3,63.378h.141v-.563H41.3a.178.178,0,0,1,0-.357h.141V61.9H41.3a.741.741,0,0,0,0,1.482Z" transform="translate(-33.813 -46.445)" fill="#1fae93"/>
      <path id="Path_48781" data-name="Path 48781" d="M53.188,62.637a.742.742,0,0,0-.741-.741h-.141v.563h.141a.178.178,0,0,1,0,.357h-.141v.563h.141A.742.742,0,0,0,53.188,62.637Z" transform="translate(-42.254 -46.445)" fill="#1fae93"/>
    </g>
  </g>
</svg>
