<svg xmlns="http://www.w3.org/2000/svg" width="14.063" height="22.442" viewBox="0 0 14.063 22.442">
  <g id="noun_bbq_2040958" transform="translate(-21.801 -5)">
    <g id="Group_23300" data-name="Group 23300" transform="translate(21.801 5)">
      <path id="Path_48770" data-name="Path 48770" d="M21.8,43.66v.17a7.021,7.021,0,0,0,.112,1.241c0,.007,0,.015,0,.022a7.052,7.052,0,0,0,4.3,5.262L24.7,55.114a.374.374,0,0,0,.243.47.366.366,0,0,0,.113.018.374.374,0,0,0,.356-.261l.717-2.248h2.329v2.134a.374.374,0,0,0,.748,0V53.094h2.329l.717,2.248a.374.374,0,0,0,.713-.227l-1.517-4.759a7.052,7.052,0,0,0,4.3-5.266s0-.008,0-.013a7.04,7.04,0,0,0,.113-1.247v-.17a1.146,1.146,0,0,0-1.145-1.145H22.946A1.146,1.146,0,0,0,21.8,43.66Zm4.567,8.686.558-1.749a6.99,6.99,0,0,0,1.533.255v1.494H26.368Zm4.93,0H29.206V50.852A6.993,6.993,0,0,0,30.74,50.6Zm3.819-8.686v.17a6.311,6.311,0,0,1-.053.805H33.1a.374.374,0,0,0,0,.748h1.822a6.284,6.284,0,0,1-12.177,0h8.937a.374.374,0,0,0,0-.748H22.6a6.313,6.313,0,0,1-.053-.805v-.17a.4.4,0,0,1,.4-.4H34.719A.4.4,0,0,1,35.116,43.66Z" transform="translate(-21.801 -33.161)" fill="#1fae93"/>
      <path id="Path_48771" data-name="Path 48771" d="M39.331,14.1c-.018.1-.031.208-.04.317a3.44,3.44,0,0,0,1.535,3.121.374.374,0,1,0,.413-.623,2.691,2.691,0,0,1-1.2-2.441,2.438,2.438,0,0,1,.03-.245.374.374,0,0,0-.737-.129Z" transform="translate(-34.923 -11.596)" fill="#1fae93"/>
      <path id="Path_48772" data-name="Path 48772" d="M41.949,6.552a.374.374,0,0,0,.525-.067,3.053,3.053,0,0,1,.892-.78.374.374,0,1,0-.349-.662,3.813,3.813,0,0,0-1.134.984A.374.374,0,0,0,41.949,6.552Z" transform="translate(-36.816 -5)" fill="#1fae93"/>
      <path id="Path_48773" data-name="Path 48773" d="M53.17,31.076a2.7,2.7,0,0,1-.807.833.374.374,0,1,0,.413.623,3.443,3.443,0,0,0,1.03-1.063.374.374,0,1,0-.636-.394Z" transform="translate(-44.616 -24.441)" fill="#1fae93"/>
      <path id="Path_48774" data-name="Path 48774" d="M53.134,17.387a.374.374,0,0,0,.372-.336,3.363,3.363,0,0,0,.007-.6,3.63,3.63,0,0,0-1.832-2.774.374.374,0,1,0-.348.662,2.84,2.84,0,0,1,1.434,2.169,2.627,2.627,0,0,1-.005.465.374.374,0,0,0,.334.41Z" transform="translate(-43.819 -11.483)" fill="#1fae93"/>
    </g>
  </g>
</svg>
