<svg xmlns="http://www.w3.org/2000/svg" width="17.195" height="16.345" viewBox="0 0 17.195 16.345">
  <path id="Path_48718" data-name="Path 48718" d="M20.994,10.559a1.5,1.5,0,1,0-2,1.421V14.6a4.5,4.5,0,1,1-9,0v-.53a5.528,5.528,0,0,0,5-5.524V6.018A2.009,2.009,0,0,0,13,4H11V5.009h2a1.006,1.006,0,0,1,1,1.009V8.541a4.5,4.5,0,1,1-9,0V6.018A1.006,1.006,0,0,1,6,5.009H8V4H6A2.009,2.009,0,0,0,4,6.018V8.541a5.528,5.528,0,0,0,5,5.524v.53a5.5,5.5,0,1,0,11,0V11.98a1.508,1.508,0,0,0,1-1.421Z" transform="translate(-3.9 -3.9)" stroke="#000" stroke-width="0.2"/>
</svg>
