<svg xmlns="http://www.w3.org/2000/svg" xmlns:xlink="http://www.w3.org/1999/xlink" width="101.241" height="101.241" viewBox="0 0 101.241 101.241">
    <defs>
        <linearGradient id="4q8bu8bnia" x1=".644" x2="1.43" y1=".57" y2=".784" gradientUnits="objectBoundingBox">
            <stop offset="0" stop-color="#ffe548"/>
            <stop offset=".176" stop-color="#ffde50"/>
            <stop offset=".445" stop-color="#ffca65"/>
            <stop offset=".771" stop-color="#ffaa87"/>
            <stop offset="1" stop-color="#ff90a4"/>
        </linearGradient>
        <linearGradient id="tuj44r6d6c" x1="1.179" x2=".759" y1=".676" y2=".676" xlink:href="#4q8bu8bnia"/>
        <linearGradient id="5huonxrj9d" x1="1.024" x2="1.203" y1=".66" y2=".66" xlink:href="#4q8bu8bnia"/>
        <linearGradient id="ewnfk2p8he" x1="1.81" x2=".73" y1=".775" y2=".139" gradientUnits="objectBoundingBox">
            <stop offset="0" stop-color="#fba5c2" stop-opacity="0"/>
            <stop offset=".386" stop-color="#fca0ba" stop-opacity=".384"/>
            <stop offset=".974" stop-color="#ff91a5" stop-opacity=".973"/>
            <stop offset="1" stop-color="#ff90a4"/>
        </linearGradient>
        <linearGradient id="q4agpgud5b" x1=".081" x2=".587" y1=".125" y2=".555" gradientUnits="objectBoundingBox">
            <stop offset="0" stop-color="#4f4a72"/>
            <stop offset="1" stop-color="#3b395f"/>
        </linearGradient>
        <linearGradient id="n6o2n3icef" x1="-.512" x2="0" y1="-.329" y2=".106" xlink:href="#q4agpgud5b"/>
        <linearGradient id="ugyww0r4sg" x1=".607" x2="-.073" y1=".348" y2=".013" gradientUnits="objectBoundingBox">
            <stop offset="0" stop-color="#3b395f" stop-opacity="0"/>
            <stop offset="1" stop-color="#3b395f"/>
        </linearGradient>
        <linearGradient id="h488kajyoh" x1="-.324" x2=".188" y1="-.003" y2=".431" xlink:href="#q4agpgud5b"/>
        <linearGradient id="wlzswzvcpi" x1="-.541" x2=".158" y1="-1.482" y2="-.784" xlink:href="#q4agpgud5b"/>
        <linearGradient id="q01go0zyyj" x1=".531" x2="1.229" y1=".565" y2="1.263" gradientUnits="objectBoundingBox">
            <stop offset="0" stop-color="#ff4974"/>
            <stop offset=".223" stop-color="#fb3f6c"/>
            <stop offset=".608" stop-color="#f12357"/>
            <stop offset="1" stop-color="#e4003d"/>
        </linearGradient>
        <linearGradient id="7e5qjblzyk" x1="-2.933" x2="-2.235" y1="-2.473" y2="-1.775" xlink:href="#q4agpgud5b"/>
        <linearGradient id="j3dar8g1tl" x1="1.055" x2="1.754" y1="-.702" y2="-.004" gradientUnits="objectBoundingBox">
            <stop offset="0" stop-color="#c4f8b6"/>
            <stop offset="1" stop-color="#3b8eac"/>
        </linearGradient>
        <linearGradient id="q17syq2vcm" x1="-.795" x2="-.072" y1="-.624" y2=".1" gradientUnits="objectBoundingBox">
            <stop offset="0" stop-color="#d4f7ff"/>
            <stop offset="1" stop-color="#a2e3e9"/>
        </linearGradient>
    </defs>
    <path fill="url(#4q8bu8bnia)" d="M26.441 260.641a1.671 1.671 0 0 0 1.671-1.671 1.671 1.671 0 0 1 1.671-1.671 1.671 1.671 0 0 0 1.671-1.671 1.671 1.671 0 0 1 1.671-1.671h1.347a1.671 1.671 0 0 0 1.181-.489l23.036-23.035-16.067-16.066L19.586 237.4a1.671 1.671 0 0 0-.489 1.181v1.347a1.671 1.671 0 0 1-1.671 1.671 1.671 1.671 0 0 0-1.671 1.671 1.671 1.671 0 0 1-1.671 1.671 1.671 1.671 0 0 0-1.671 1.671 1.671 1.671 0 0 1-1.671 1.671H9.4a1.671 1.671 0 0 0-1.181.489l-5.387 5.387a7.287 7.287 0 0 0-2.115 4.624l-.7 9.63a4.324 4.324 0 0 0 4.627 4.627l9.63-.7a7.288 7.288 0 0 0 4.624-2.115l5.387-5.388a1.671 1.671 0 0 0 .489-1.181v-1.347a1.67 1.67 0 0 1 1.667-1.668z" transform="translate(-.001 -171.813)"/>
    <path fill="url(#tuj44r6d6c)" d="M14.607 282.971l-7.78 2.55c-2.125.7-3.406-.585-2.71-2.71l2.55-7.78a10.753 10.753 0 0 1 2.635-4.1L49.1 231.132l9.41 9.41-39.799 39.794a10.756 10.756 0 0 1-4.1 2.635z" transform="translate(-3.147 -185.25)"/>
    <path fill="url(#5huonxrj9d)" d="M24.081 290.779l-5.832 3.94c-1.593 1.076-2.056.613-.98-.98l3.94-5.832a24.736 24.736 0 0 1 2.922-3.454l38.195-38.195 3.4 3.4-38.195 38.2a24.755 24.755 0 0 1-3.454 2.922z" transform="translate(-13.373 -197.374)"/>
    <path fill="url(#ewnfk2p8he)" d="M180.071 221.241v32.132l22.941-22.941-16.066-16.066z" transform="translate(-144.325 -171.812)"/>
    <path fill="url(#q4agpgud5b)" d="M225.344 17.844L213.011 5.511a18.811 18.811 0 0 0-26.6 0l-19.18 19.18a18.812 18.812 0 0 0 0 26.6l12.333 12.333a18.812 18.812 0 0 0 26.6 0l19.18-19.18a18.811 18.811 0 0 0 0-26.6zm-7.525 1.83a1.736 1.736 0 0 1-1.232-.511l-4.9-4.9a1.74 1.74 0 1 1 2.461-2.461l4.9 4.9a1.74 1.74 0 0 1-1.229 2.972z" transform="translate(-129.614)"/>
    <path fill="url(#n6o2n3icef)" d="M290.126 63.334l7.418 7.418a11.315 11.315 0 0 1 0 16l-6.888 6.888a11.315 11.315 0 0 1-16 0l-7.418-7.418a11.315 11.315 0 0 1 0-16l6.888-6.888a11.314 11.314 0 0 1 16 0z" transform="translate(-211.532 -48.105)"/>
    <path fill="url(#ugyww0r4sg)" d="M293.163 139.964a18.8 18.8 0 0 0 18.34-4.821l6.954-6.954V102.63a7.741 7.741 0 0 0-2.252-6.04l-5.088-5.09a7.762 7.762 0 0 0-10.977 0l-4.725 4.725a7.742 7.742 0 0 0-2.252 6.04z" transform="translate(-234.951 -71.515)"/>
    <path fill="url(#h488kajyoh)" d="M300.5 112.293l-5.089-5.089a7.761 7.761 0 0 1 0-10.977l4.725-4.725a7.762 7.762 0 0 1 10.977 0l5.089 5.089a7.762 7.762 0 0 1 0 10.977l-4.725 4.725a7.762 7.762 0 0 1-10.977 0z" transform="translate(-234.942 -71.516)"/>
    <circle cx="6.124" cy="6.124" r="6.124" fill="url(#wlzswzvcpi)" transform="translate(40.261 36.598)"/>
    <circle cx="4.789" cy="4.789" r="4.789" fill="url(#q01go0zyyj)" transform="translate(41.596 37.932)"/>
    <circle cx="6.124" cy="6.124" r="6.124" fill="url(#7e5qjblzyk)" transform="translate(52.396 48.733)"/>
    <circle cx="4.789" cy="4.789" r="4.789" fill="url(#j3dar8g1tl)" transform="translate(53.731 50.067)"/>
    <path fill="url(#q17syq2vcm)" d="M332.326 133.761l-3.726-3.726 1.375-1.375a2.107 2.107 0 0 1 2.98 2.98.549.549 0 1 0 .777.777 3.205 3.205 0 0 0-4.533-4.533l-1.376 1.376a1.1 1.1 0 0 0-1.524.03l-3.292 3.292a1.1 1.1 0 0 0 0 1.555l4.472 4.472a1.1 1.1 0 0 0 1.555 0l3.292-3.292a1.1 1.1 0 0 0 0-1.556zm-4.446.7a.589.589 0 0 0-.5.172l-.261.261a.281.281 0 0 1-.4 0 .287.287 0 0 1 .01-.4l.247-.247a.609.609 0 0 0 .177-.51.855.855 0 1 1 .724.729z" transform="translate(-258.628 -101.746)"/>
</svg>
