<svg xmlns="http://www.w3.org/2000/svg" width="25.699" height="19.962" viewBox="0 0 25.699 19.962">
  <g id="friends" transform="translate(0 -57.142)">
    <g id="Group_24133" data-name="Group 24133" transform="translate(3.106 57.142)">
      <g id="Group_24132" data-name="Group 24132" transform="translate(0 0)">
        <path id="Path_49525" data-name="Path 49525" d="M66.564,57.142a4.982,4.982,0,1,0,4.691,4.973A4.844,4.844,0,0,0,66.564,57.142Z" transform="translate(-61.873 -57.142)" fill="#242424"/>
      </g>
    </g>
    <g id="Group_24135" data-name="Group 24135" transform="translate(14.437 57.854)">
      <g id="Group_24134" data-name="Group 24134" transform="translate(0 0)">
        <path id="Path_49526" data-name="Path 49526" d="M291.66,71.321h-.032a3.891,3.891,0,0,0-2.855,1.291,4.442,4.442,0,0,0,.049,5.989,3.892,3.892,0,0,0,2.843,1.243h.032a3.891,3.891,0,0,0,2.855-1.291,4.367,4.367,0,0,0,1.137-3A4.156,4.156,0,0,0,291.66,71.321Z" transform="translate(-287.637 -71.321)" fill="#242424"/>
      </g>
    </g>
    <g id="Group_24137" data-name="Group 24137" transform="translate(13.55 67.191)">
      <g id="Group_24136" data-name="Group 24136" transform="translate(0 0)">
        <path id="Path_49527" data-name="Path 49527" d="M275.069,257.358h-.389a7.014,7.014,0,0,0-4.719,1.82A9.056,9.056,0,0,1,273.5,265.9h8.613v-1.5A7.048,7.048,0,0,0,275.069,257.358Z" transform="translate(-269.96 -257.358)" fill="#242424"/>
      </g>
    </g>
    <g id="Group_24139" data-name="Group 24139" transform="translate(0 68.645)">
      <g id="Group_24138" data-name="Group 24138" transform="translate(0 0)">
        <path id="Path_49528" data-name="Path 49528" d="M15.577,293.4a7.561,7.561,0,0,0-7.546-7.085H7.562A7.562,7.562,0,0,0,0,293.88v.9H15.592v-.9Q15.592,293.64,15.577,293.4Z" transform="translate(0 -286.318)" fill="#242424"/>
      </g>
    </g>
  </g>
</svg>
