<svg id="Group_24166" data-name="Group 24166" xmlns="http://www.w3.org/2000/svg" width="24" height="24" viewBox="0 0 24 24">
  <path id="Path_49541" data-name="Path 49541" d="M21.367,23.366H2.852V4.851H13.96V3H2.852A1.852,1.852,0,0,0,1,4.851V23.366a1.852,1.852,0,0,0,1.852,1.851H21.367a1.852,1.852,0,0,0,1.851-1.851V12.257H21.367Z" transform="translate(-1 -1.218)" fill="#16135a"/>
  <path id="Path_49542" data-name="Path 49542" d="M5,16.661H8.75L17.84,7.572,14.061,3.793,5,12.854Z" transform="translate(2.966 -0.598)" fill="#16135a"/>
  <path id="Path_49543" data-name="Path 49543" d="M15.984,3.782l-1.26-1.26a1.78,1.78,0,0,0-2.519,0L10.793,3.935l3.779,3.779L15.984,6.3A1.78,1.78,0,0,0,15.984,3.782Z" transform="translate(7.493 -2)" fill="#16135a"/>
</svg>
