<svg xmlns="http://www.w3.org/2000/svg" width="20" height="20" viewBox="0 0 20 20">
  <g id="noun_blocked_2727594" transform="translate(-0.815 -1.648)">
    <g id="Group_24155" data-name="Group 24155" transform="translate(0.815 1.648)">
      <path id="Path_49538" data-name="Path 49538" d="M17.867,18.68a9.863,9.863,0,0,1-14.022.082A10.046,10.046,0,0,1,3.559,4.677a10.232,10.232,0,0,1,14.388-.144A10.059,10.059,0,0,1,17.867,18.68ZM4.8,5.909A8.288,8.288,0,0,0,5.065,17.53a8.142,8.142,0,0,0,11.58-.082,8.319,8.319,0,0,0,.081-11.683A8.6,8.6,0,0,0,4.8,5.909Z" transform="translate(-0.815 -1.648)" fill="#16135a"/>
      <path id="Path_49539" data-name="Path 49539" d="M28.156,28.382a.8.8,0,0,1-1.158,0L15.071,16.28a.824.824,0,0,1,0-1.175.813.813,0,0,1,1.158,0l11.927,12.1A.824.824,0,0,1,28.156,28.382Z" transform="translate(-11.603 -11.823)" fill="#16135a"/>
    </g>
  </g>
</svg>
