<svg xmlns="http://www.w3.org/2000/svg" width="17" height="17" viewBox="0 0 17 17">
  <g id="noun_Add_Users_1160712" data-name="noun_Add Users_1160712" transform="translate(-10 -10)">
    <path id="Path_49554" data-name="Path 49554" d="M41.248,36.667a2.283,2.283,0,0,0-2.324,2.743l.382,2.285a1.969,1.969,0,0,0,3.886,0l.381-2.285A2.283,2.283,0,0,0,41.248,36.667Z" transform="translate(-22.748 -21)" fill="#16135a"/>
    <path id="Path_49555" data-name="Path 49555" d="M33.771,69.751l-2.662-.887a2.931,2.931,0,0,1-4.217,0l-2.662.887a1.4,1.4,0,0,0-.9,1.244v2.361H34.666V70.995A1.4,1.4,0,0,0,33.771,69.751Z" transform="translate(-10.5 -46.355)" fill="#16135a"/>
    <path id="Path_49556" data-name="Path 49556" d="M74.25,11.417H72.833V10H71.417v1.417H70v1.417h1.417V14.25h1.417V12.833H74.25Z" transform="translate(-47.25)" fill="#16135a"/>
    <path id="Path_49557" data-name="Path 49557" d="M57.453,30a2.382,2.382,0,0,0-1.587.577,3.294,3.294,0,0,1,1.394.959,3.434,3.434,0,0,1,.731,2.8l-.381,2.285c0,.014-.008.027-.011.041a2.045,2.045,0,0,0,1.8-1.632l.38-2.285A2.283,2.283,0,0,0,57.453,30Z" transform="translate(-36.119 -15.75)" fill="#16135a"/>
    <path id="Path_49558" data-name="Path 49558" d="M28.107,21.036a3.368,3.368,0,0,1,2.049-1.129l.082-.5a2.356,2.356,0,1,0-4.648,0l.382,2.285a2.048,2.048,0,0,0,1.358,1.542A3.369,3.369,0,0,1,28.107,21.036Z" transform="translate(-12.248 -5.25)" fill="#16135a"/>
    <path id="Path_49559" data-name="Path 49559" d="M13.392,52.994l2.357-.784a2.831,2.831,0,0,1-.241-.734l-.294-1.764a3.119,3.119,0,0,1-1.657-.847l-2.662.887A1.4,1.4,0,0,0,10,51v2.361h2.73A2.229,2.229,0,0,1,13.392,52.994Z" transform="translate(0 -30.606)" fill="#16135a"/>
    <path id="Path_49560" data-name="Path 49560" d="M70.834,63.084,68.172,62.2a3.157,3.157,0,0,1-1.372.784l1.536.512a2.467,2.467,0,0,1,1.623,2.252v.944H71.73v-2.36A1.4,1.4,0,0,0,70.834,63.084Z" transform="translate(-44.73 -41.105)" fill="#16135a"/>
  </g>
</svg>
