<svg id="kit" xmlns="http://www.w3.org/2000/svg" width="32.934" height="34.316" viewBox="0 0 32.934 34.316">
  <path id="Path_48841" data-name="Path 48841" d="M133.968,205.43h-2.461a.766.766,0,0,0-.345,1.451.752.752,0,0,0,.345.082h2.461a.759.759,0,0,0,.344-.081.767.767,0,0,0-.344-1.452Z" transform="translate(-123.38 -191.949)" fill="#edb740"/>
  <path id="Path_48842" data-name="Path 48842" d="M135.058,227.052l-.252.506H131.22c.113-.7.263-1.36.387-2.168a.753.753,0,0,0,.345.082h2.461a.759.759,0,0,0,.344-.081C134.852,226,134.961,226.529,135.058,227.052Z" transform="translate(-123.825 -210.458)" fill="#d8a43d"/>
  <path id="Path_48843" data-name="Path 48843" d="M145.007,26.951l-.633,12.094h-1.035l-.578-12.094L143.883,26Z" transform="translate(-134.526 -25.564)" fill="#ccd3df"/>
  <path id="Path_48844" data-name="Path 48844" d="M359.73,183.18h3.53v1.29h-3.53Z" transform="translate(-335.722 -171.316)" fill="#edb740"/>
  <path id="Path_48845" data-name="Path 48845" d="M364.687,204.867h-3.3c.085-1.394.146-2.526.164-3.947h2.9C364.49,202.333,364.586,203.468,364.687,204.867Z" transform="translate(-337.261 -187.767)" fill="#d8a43d"/>
  <path id="Path_48846" data-name="Path 48846" d="M363.46,161.66h2.92c-.012.332-.019,1.224-.02,1.565h-2.883C363.475,162.885,363.469,161.992,363.46,161.66Z" transform="translate(-339.18 -151.361)" fill="#b0b5ca"/>
  <path id="Path_48847" data-name="Path 48847" d="M322.2,98.75V102.8a7.373,7.373,0,0,0-2.649,0V98.75A7.406,7.406,0,0,0,322.2,98.75Z" transform="translate(-298.463 -93.025)" fill="#b0b5ca"/>
  <path id="Path_48848" data-name="Path 48848" d="M414.689,98.75V102.8a7.369,7.369,0,0,0-2.649,0V98.75A7.4,7.4,0,0,0,414.689,98.75Z" transform="translate(-384.228 -93.025)" fill="#b0b5ca"/>
  <g id="Group_18148" data-name="Group 18148" transform="translate(0.715 4.707)">
    <path id="Path_48849" data-name="Path 48849" d="M450.508,85.77v4.05a1.019,1.019,0,0,1-2.038,0V85.768a1.019,1.019,0,1,1,2.038,0Z" transform="translate(-418.724 -84.75)" fill="#ccd3df"/>
    <path id="Path_48850" data-name="Path 48850" d="M355.99,91.6h4.075v5.094H355.99Z" transform="translate(-332.968 -91.102)" fill="#ccd3df"/>
    <path id="Path_48851" data-name="Path 48851" d="M293.567,85.775v4.052a1.019,1.019,0,1,1-2.037,0v-4.05a1.019,1.019,0,0,1,2.037,0Z" transform="translate(-273.194 -84.755)" fill="#ccd3df"/>
    <path id="Path_48852" data-name="Path 48852" d="M39.33,116.22h6.389a37.5,37.5,0,0,1-1.384,10.1,14.863,14.863,0,0,1-1.21,3.109h-1.2a11.006,11.006,0,0,1-1.006-2.372A37.348,37.348,0,0,1,39.33,116.22Z" transform="translate(-39.33 -113.932)" fill="#ccd3df"/>
  </g>
  <path id="Path_48853" data-name="Path 48853" d="M45.517,265.34h0A2.823,2.823,0,0,0,44.6,267.2l-.309,3.659a2.834,2.834,0,0,1,1.645-2.04l.588-1.1A11.008,11.008,0,0,1,45.517,265.34Z" transform="translate(-43.215 -247.503)" fill="#4a5160"/>
  <path id="Path_48854" data-name="Path 48854" d="M118.58,257.8a2.832,2.832,0,0,0-2.821-2.593H92.75a14.861,14.861,0,0,1-1.21,3.109l.3.868h24.275a2.832,2.832,0,0,1,2.776,2.272Z" transform="translate(-87.03 -238.11)" fill="#6d7486"/>
  <path id="Path_48855" data-name="Path 48855" d="M67.553,364.83l-.522-6.19h-31l-.522,6.19a2.831,2.831,0,0,0,2.821,3.069h26.4a2.831,2.831,0,0,0,2.821-3.069Z" transform="translate(-35.066 -334.02)" fill="#5fa8ed"/>
  <path id="Path_48856" data-name="Path 48856" d="M44.571,313.716v-.566a2.833,2.833,0,0,0-1.645,2.04l-.107,1.267h3.773l.028-2.742Z" transform="translate(-41.852 -291.837)" fill="#5fa8ed"/>
  <path id="Path_48857" data-name="Path 48857" d="M120.622,312.182a2.832,2.832,0,0,0-2.776-2.272H93.5l-.089,3.543H120.73Z" transform="translate(-88.764 -288.833)" fill="#4689d3"/>
  <path id="Path_48858" data-name="Path 48858" d="M37.693,364.83l.522-6.19H36.034l-.522,6.19a2.831,2.831,0,0,0,2.821,3.069h2.181a2.831,2.831,0,0,1-2.821-3.069Z" transform="translate(-35.066 -334.02)" fill="#4689d3"/>
  <path id="Path_48859" data-name="Path 48859" d="M42.371,127.061a37.347,37.347,0,0,1-1.587-10.841H39.33a37.348,37.348,0,0,0,1.587,10.841,11.006,11.006,0,0,0,1.006,2.372h1.2c.04-.068.08-.142.121-.22A12.454,12.454,0,0,1,42.371,127.061Z" transform="translate(-38.615 -109.225)" fill="#b0b5ca"/>
  <path id="Path_48860" data-name="Path 48860" d="M185.9,309.91h10.193v9.347H185.9Z" transform="translate(-174.529 -288.833)" fill="#fea92a"/>
  <path id="Path_48861" data-name="Path 48861" d="M66.91,297.97h2.379v1.669H66.91Z" transform="translate(-64.19 -277.761)" fill="#edb740"/>
  <path id="Path_48862" data-name="Path 48862" d="M69.951,323.672H67.72a21.184,21.184,0,0,0,.246-2.742h1.762A21.97,21.97,0,0,0,69.951,323.672Z" transform="translate(-64.941 -299.052)" fill="#d8a43d"/>
  <path id="Path_48863" data-name="Path 48863" d="M57.313,30.736a.436.436,0,0,0,.436-.436v-.167a10.711,10.711,0,0,1,1.824.007,1.454,1.454,0,0,0,2.863-.361v-4.05a1.454,1.454,0,0,0-2.863-.361,10.749,10.749,0,0,1-1.824.007v-.168a.436.436,0,0,0-.436-.436H53.238a.436.436,0,0,0-.436.436v.167a10.694,10.694,0,0,1-1.824-.007,1.454,1.454,0,0,0-2.863.361v4.05a1.454,1.454,0,0,0,2.863.361,10.733,10.733,0,0,1,1.824-.007V30.3a.436.436,0,0,0,.436.436h.115c0,.229.005.493.007.719a.436.436,0,0,0-.285.409v1.29a.436.436,0,0,0,.278.406c-.022,1.118-.07,2.066-.132,3.1h-1.5l-.63-1.267a3.266,3.266,0,0,0-3.083-2.187H43.926a3.267,3.267,0,0,0-2.7,1.428,1.2,1.2,0,0,0-1.136-1.595h-.281l.609-11.634a.436.436,0,0,0-.154-.356L39.141,20.1a.436.436,0,0,0-.564,0l-1.123.951a.436.436,0,0,0-.154.354l.556,11.637h-.227a1.2,1.2,0,0,0-.818,2.082c-.055.333-.114.644-.172.947-.038.2-.075.4-.11.59H35.8c.119-.443.233-.9.338-1.378A38.8,38.8,0,0,0,37.041,27a.436.436,0,0,0-.436-.436H30.216A.436.436,0,0,0,29.78,27a37.634,37.634,0,0,0,1.526,10.72,3.256,3.256,0,0,0-.855,1.941l-.938,11.116a3.267,3.267,0,0,0,3.256,3.543h26.4a3.267,3.267,0,0,0,3.256-3.542l-.938-11.116a3.287,3.287,0,0,0-3.256-2.993h-.9l-.018-.238c-.073-.987-.136-1.857-.171-2.85a.436.436,0,0,0,.333-.423v-1.29a.436.436,0,0,0-.357-.429c0-.231,0-.483.008-.7ZM60.4,25.767a.435.435,0,0,0,0-.069.582.582,0,0,1,1.164.03v4.05a.583.583,0,0,1-1.165,0Zm-2.649.478c.265.026.576.039.888.039s.624-.013.888-.039v3.016a10.157,10.157,0,0,0-1.776,0Zm-7.6,3.494a.425.425,0,0,0,0,.069.582.582,0,0,1-1.164-.03v-4.05a.583.583,0,1,1,1.165,0Zm2.649-.478a10.158,10.158,0,0,0-1.776,0V26.244c.265.026.576.039.888.039s.624-.013.888-.039Zm.872.528v-4.03a.423.423,0,0,0,0-.064v-.053h3.2v.075a.011.011,0,0,0,0,0v4.028a.424.424,0,0,0,0,.064v.053h-3.2Zm.272,2.929V32.3H56.6v.418Zm2.512,3.947H54.093c.059-1,.109-1.966.13-3.075h2.048c.035,1.016.1,1.9.174,2.9l.013.174Zm-2.234-5.929h2.031c0,.227-.006.482-.008.692H54.231C54.229,31.209,54.227,30.957,54.224,30.736ZM41.636,35.761a.428.428,0,0,0,.022-.054,2.394,2.394,0,0,1,2.267-1.624h4.086a2.394,2.394,0,0,1,2.268,1.624.427.427,0,0,0,.022.053l.449.9H41.187Zm-.644-.72c-.026.052-.049.105-.072.159l-.012-.073A1.179,1.179,0,0,0,40.992,35.041ZM38.859,21.008l.676.573-.6,11.464h-.205l-.547-11.464Zm-1.23,12.91h2.461a.331.331,0,1,1,0,.661H37.628a.331.331,0,1,1,0-.661Zm2.65,2.614-.066.133h-2.8c.026-.141.053-.282.08-.427.048-.253.1-.512.145-.786h2.437c.048.274.1.533.145.786C40.242,36.337,40.26,36.434,40.278,36.532Zm-9.624-9.1h5.511a37.039,37.039,0,0,1-1.342,9.49.432.432,0,0,0-.034.115,15.56,15.56,0,0,1-1.036,2.736h-.7a11.681,11.681,0,0,1-.83-2.028.436.436,0,0,0-.026-.082A37.033,37.033,0,0,1,30.655,27.432Zm3.509,13.646v.364H32.657v-.8h1.506v.433Zm-.146,3.106H32.777c.083-.648.151-1.277.175-1.869h.908c.02.577.077,1.186.158,1.869Zm-2.7-4.453a2.389,2.389,0,0,1,.323-1.015c.151.41.3.771.446,1.077a.436.436,0,0,0-.3.416v.834a3.268,3.268,0,0,0-.612.433Zm-.311,3.69a2.392,2.392,0,0,1,.818-1.358.437.437,0,0,0,.254.228c-.022.536-.085,1.125-.184,1.893h-.953ZM45.532,53.444H32.769a2.4,2.4,0,0,1-2.387-2.6l.489-5.791h9.565v5.368a.436.436,0,0,0,.436.436h4.66Zm-10.8-11.149a.436.436,0,0,0,.3-.416v-.365h5.4v2.67H34.9C34.812,43.485,34.753,42.87,34.732,42.294Zm6.576,7.694V41.514h9.32v8.474Zm20.246.859a2.4,2.4,0,0,1-2.386,2.6H46.4V50.86h4.66a.436.436,0,0,0,.436-.436V45.057h9.565Zm-.562-6.663H51.5v-2.67h7.083a2.412,2.412,0,0,1,2.344,1.908Zm-2.763-6.647a2.41,2.41,0,0,1,2.387,2.194l.148,1.755a3.258,3.258,0,0,0-2.181-.845H35.036v-.432a.436.436,0,0,0-.319-.42,17.95,17.95,0,0,0,.829-2.252H58.23Z" transform="translate(-29.501 -20)" fill="#284268"/>
</svg>
