<svg xmlns="http://www.w3.org/2000/svg" width="28.93" height="22.472" viewBox="0 0 28.93 22.472">
  <g id="friends" transform="translate(0 -57.142)">
    <g id="Group_24133" data-name="Group 24133" transform="translate(3.496 57.142)">
      <g id="Group_24132" data-name="Group 24132" transform="translate(0 0)">
        <path id="Path_49525" data-name="Path 49525" d="M67.153,57.142a5.608,5.608,0,1,0,5.281,5.6A5.453,5.453,0,0,0,67.153,57.142Z" transform="translate(-61.873 -57.142)" fill="#1fae93"/>
      </g>
    </g>
    <g id="Group_24135" data-name="Group 24135" transform="translate(16.252 57.943)">
      <g id="Group_24134" data-name="Group 24134" transform="translate(0 0)">
        <path id="Path_49526" data-name="Path 49526" d="M292.166,71.321h-.036a4.38,4.38,0,0,0-3.214,1.453,5,5,0,0,0,.056,6.742,4.382,4.382,0,0,0,3.2,1.4h.036a4.381,4.381,0,0,0,3.214-1.453,4.916,4.916,0,0,0,1.279-3.382A4.679,4.679,0,0,0,292.166,71.321Z" transform="translate(-287.637 -71.321)" fill="#1fae93"/>
      </g>
    </g>
    <g id="Group_24137" data-name="Group 24137" transform="translate(15.254 68.455)">
      <g id="Group_24136" data-name="Group 24136" transform="translate(0 0)">
        <path id="Path_49527" data-name="Path 49527" d="M275.711,257.358h-.438a7.9,7.9,0,0,0-5.312,2.049,10.195,10.195,0,0,1,3.981,7.564h9.7v-1.688A7.934,7.934,0,0,0,275.711,257.358Z" transform="translate(-269.96 -257.358)" fill="#1fae93"/>
      </g>
    </g>
    <g id="Group_24139" data-name="Group 24139" transform="translate(0 70.091)">
      <g id="Group_24138" data-name="Group 24138" transform="translate(0 0)">
        <path id="Path_49528" data-name="Path 49528" d="M17.536,294.294a8.511,8.511,0,0,0-8.5-7.976H8.513A8.513,8.513,0,0,0,0,294.831v1.01H17.553v-1.01Q17.553,294.56,17.536,294.294Z" transform="translate(0 -286.318)" fill="#1fae93"/>
      </g>
    </g>
  </g>
</svg>
