<svg xmlns="http://www.w3.org/2000/svg" width="24.835" height="21.686" viewBox="0 0 24.835 21.686">
  <g id="noun_messages_680440" transform="translate(0 0)">
    <path id="Path_49520" data-name="Path 49520" d="M21.6,167H3.24A3.25,3.25,0,0,0,0,170.252v10.255a3.23,3.23,0,0,0,3.24,3.229H5.808v3.641c0,1.471.77,1.744,1.712.611l3.538-4.253H21.6a3.23,3.23,0,0,0,3.24-3.229V170.252A3.25,3.25,0,0,0,21.6,167ZM6.087,177.1a1.648,1.648,0,1,1,1.648-1.648A1.648,1.648,0,0,1,6.087,177.1Zm6.33,0a1.648,1.648,0,1,1,1.648-1.648A1.648,1.648,0,0,1,12.418,177.1Zm6.33,0a1.648,1.648,0,1,1,1.648-1.648,1.648,1.648,0,0,1-1.648,1.648Z" transform="translate(0 -167)" fill="#16135a"/>
  </g>
</svg>
