<svg id="noun_Information_3629723" xmlns="http://www.w3.org/2000/svg" width="24" height="24" viewBox="0 0 24 24">
  <g id="Group_24227" data-name="Group 24227">
    <g id="Group_24226" data-name="Group 24226">
      <path id="Path_49551" data-name="Path 49551" d="M522,121a12,12,0,1,1-12,12A12,12,0,0,1,522,121Zm0,2.4a9.6,9.6,0,1,0,9.6,9.6A9.6,9.6,0,0,0,522,123.4Zm1.738,6.665-1.352,6.809a1.7,1.7,0,0,0-.059.328c-.009.108-.014.213-.014.319a.752.752,0,0,0,.184.582.869.869,0,0,0,.579.161,1.371,1.371,0,0,0,.387-.039,2.118,2.118,0,0,0,.22-.088,2.492,2.492,0,0,1-.225.925,2.078,2.078,0,0,1-.474.64,1.859,1.859,0,0,1-.644.377,2.247,2.247,0,0,1-.726.122,2.271,2.271,0,0,1-.791-.136,1.644,1.644,0,0,1-.639-.431,2.085,2.085,0,0,1-.427-.743,3.32,3.32,0,0,1-.156-1.086,5.431,5.431,0,0,1,.037-.6q.025-.218.065-.461l.045-.248,1.279-6.427Zm-.846-4.265a1.353,1.353,0,0,1,.584.127,1.57,1.57,0,0,1,.478.348,1.665,1.665,0,0,1,.327.509,1.672,1.672,0,0,1,0,1.242,1.547,1.547,0,0,1-.8.831,1.455,1.455,0,0,1-1.167,0,1.5,1.5,0,0,1-.474-.333,1.539,1.539,0,0,1-.317-.5,1.737,1.737,0,0,1,0-1.242,1.641,1.641,0,0,1,.317-.509,1.517,1.517,0,0,1,.474-.348A1.353,1.353,0,0,1,522.892,125.8Z" transform="translate(-510 -121)" fill="#16135a"/>
    </g>
  </g>
</svg>
