<svg id="noun_View_2462850" xmlns="http://www.w3.org/2000/svg" width="23.239" height="12.647" viewBox="0 0 23.239 12.647">
  <path id="Path_49537" data-name="Path 49537" d="M16.62,25.51c-5.559,0-10.221,4.6-11.474,5.951a.546.546,0,0,0,0,.742c1.253,1.355,5.915,5.954,11.474,5.954s10.221-4.6,11.474-5.954a.546.546,0,0,0,0-.742C26.841,30.107,22.178,25.51,16.62,25.51Zm0,10.376a4.053,4.053,0,1,1,4.053-4.053,4.053,4.053,0,0,1-4.053,4.053Z" transform="translate(-5 -25.51)" fill="#242424"/>
  <circle id="Ellipse_170" data-name="Ellipse 170" cx="2.504" cy="2.504" r="2.504" transform="translate(9.116 3.82)" fill="#242424"/>
</svg>
