<svg xmlns="http://www.w3.org/2000/svg" xmlns:xlink="http://www.w3.org/1999/xlink" width="40" height="41" viewBox="0 0 40 41">
  <defs>
    <linearGradient id="linear-gradient" x1="0.308" y1="0.308" x2="0.828" y2="0.828" gradientUnits="objectBoundingBox">
      <stop offset="0" stop-color="#7faef4"/>
      <stop offset="1" stop-color="#4c8df1"/>
    </linearGradient>
    <linearGradient id="linear-gradient-2" x1="0.821" y1="0.821" x2="0.126" y2="0.126" xlink:href="#linear-gradient"/>
    <linearGradient id="linear-gradient-3" x1="0.428" y1="0.45" x2="-0.035" y2="0.205" gradientUnits="objectBoundingBox">
      <stop offset="0" stop-color="#4c8df1" stop-opacity="0"/>
      <stop offset="0.563" stop-color="#466cc8" stop-opacity="0.565"/>
      <stop offset="1" stop-color="#4256ac"/>
    </linearGradient>
    <linearGradient id="linear-gradient-4" x1="0.608" y1="0.634" x2="-0.093" y2="0.449" xlink:href="#linear-gradient-3"/>
    <linearGradient id="linear-gradient-5" x1="0.464" y1="0.418" x2="1.086" y2="0.86" gradientUnits="objectBoundingBox">
      <stop offset="0" stop-color="#ffd833"/>
      <stop offset="1" stop-color="#f2b631"/>
    </linearGradient>
    <linearGradient id="linear-gradient-6" x1="0.801" y1="0.671" x2="0.39" y2="-0.096" gradientUnits="objectBoundingBox">
      <stop offset="0" stop-color="#f9a126" stop-opacity="0"/>
      <stop offset="1" stop-color="#ec4437"/>
    </linearGradient>
    <linearGradient id="linear-gradient-7" x1="0.317" y1="0.252" x2="0.97" y2="0.967" xlink:href="#linear-gradient-5"/>
    <linearGradient id="linear-gradient-8" x1="0.875" y1="0.78" x2="-0.125" y2="-0.215" xlink:href="#linear-gradient-5"/>
  </defs>
  <g id="Group_23127" data-name="Group 23127" transform="translate(0 1)">
    <rect id="Rectangle_4426" data-name="Rectangle 4426" width="40" height="40" fill="#fff"/>
    <g id="google" transform="translate(0.721 -1)">
      <path id="Path_49017" data-name="Path 49017" d="M54.986,22.6V15.722a1.758,1.758,0,0,0-1.758-1.758h-.543a1.766,1.766,0,0,1-1.629-1.1l-.009-.022a1.767,1.767,0,0,1,.374-1.931l.384-.384a1.758,1.758,0,0,0,0-2.486L46.943,3.181a1.758,1.758,0,0,0-2.486,0l-.384.384a1.767,1.767,0,0,1-1.931.374l-.022-.009a1.766,1.766,0,0,1-1.1-1.629V1.758A1.758,1.758,0,0,0,39.264,0H32.388A1.758,1.758,0,0,0,30.63,1.758V2.3a1.766,1.766,0,0,1-1.1,1.629l-.022.009a1.767,1.767,0,0,1-1.931-.374l-.384-.384a1.758,1.758,0,0,0-2.486,0L19.847,8.043a1.758,1.758,0,0,0,0,2.486l.384.384a1.767,1.767,0,0,1,.374,1.931l-.009.022a1.766,1.766,0,0,1-1.629,1.1h-.543a1.758,1.758,0,0,0-1.758,1.758V22.6a1.758,1.758,0,0,0,1.758,1.758h.543a1.766,1.766,0,0,1,1.629,1.1l.009.022a1.767,1.767,0,0,1-.374,1.931l-.384.384a1.758,1.758,0,0,0,0,2.486l4.862,4.862a1.758,1.758,0,0,0,2.486,0l.384-.384a1.767,1.767,0,0,1,1.931-.374l.022.009a1.766,1.766,0,0,1,1.1,1.629v.543a1.758,1.758,0,0,0,1.758,1.758h6.876a1.758,1.758,0,0,0,1.758-1.758V36.02a1.766,1.766,0,0,1,1.1-1.629l.022-.009a1.767,1.767,0,0,1,1.931.374l.384.384a1.758,1.758,0,0,0,2.486,0l4.862-4.862a1.758,1.758,0,0,0,0-2.486l-.384-.384a1.767,1.767,0,0,1-.374-1.931l.009-.022a1.766,1.766,0,0,1,1.629-1.1h.543A1.758,1.758,0,0,0,54.986,22.6Z" transform="translate(-16.666 0)" fill="url(#linear-gradient)"/>
      <ellipse id="Ellipse_122" data-name="Ellipse 122" cx="13.34" cy="13.34" rx="13.34" ry="13.34" transform="translate(5.821 5.821)" fill="url(#linear-gradient-2)"/>
      <path id="Path_49018" data-name="Path 49018" d="M150.374,137.973a1.757,1.757,0,0,1-1.748,1.578h-.543a1.766,1.766,0,0,0-1.629,1.1l-.009.022a1.768,1.768,0,0,0,.374,1.931l.385.384a1.758,1.758,0,0,1,0,2.486l-4.863,4.862a1.757,1.757,0,0,1-2.486,0l-.384-.384a1.768,1.768,0,0,0-1.931-.374l-.022.009a1.766,1.766,0,0,0-1.1,1.629v.543a1.757,1.757,0,0,1-1.587,1.749l-11.084-11.089a10.814,10.814,0,0,1-3.346-8.043,10.514,10.514,0,0,1,4.431-8.794c.346-.248.785-.324,1.023-.038.079.1,9.544,9.544,9.651,9.647a2.467,2.467,0,0,0,.912-1.914V126.02a.753.753,0,0,1,1.187-.615,11.085,11.085,0,0,1,1.694,1.5Z" transform="translate(-112.063 -115.194)" fill="url(#linear-gradient-3)"/>
      <path id="Path_49019" data-name="Path 49019" d="M320.622,153.387l-.384-.384a1.767,1.767,0,0,1-.374-1.931l.009-.022a1.766,1.766,0,0,1,1.629-1.1h.543a1.758,1.758,0,0,0,1.748-1.577L312.72,137.3q-.352-.382-.738-.726a10.994,10.994,0,0,1-3,17.013v10.077a1.755,1.755,0,0,0,.856-1.507v-.543a1.766,1.766,0,0,1,1.1-1.629l.022-.009a1.767,1.767,0,0,1,1.931.374l.384.384a1.758,1.758,0,0,0,2.486,0l4.862-4.862A1.758,1.758,0,0,0,320.622,153.387Z" transform="translate(-285.482 -125.595)" fill="url(#linear-gradient-4)"/>
      <path id="Path_49020" data-name="Path 49020" d="M199.217,336.957a22.539,22.539,0,0,0,.351-3.964v-9.075h-10.62v9.075a22.539,22.539,0,0,0,.351,3.964,2.357,2.357,0,0,0,2.336,1.921h5.246A2.357,2.357,0,0,0,199.217,336.957Z" transform="translate(-175.098 -297.878)" fill="url(#linear-gradient-5)"/>
      <path id="Path_49021" data-name="Path 49021" d="M188.948,326.729,199.243,336.8a22.533,22.533,0,0,0,.326-3.81v-9.075h-10.62Z" transform="translate(-175.098 -297.877)" fill="url(#linear-gradient-6)"/>
      <path id="Path_49022" data-name="Path 49022" d="M140.256,134.357a10.992,10.992,0,1,1-17.381-8.945.753.753,0,0,1,1.193.611v7.255a2.47,2.47,0,0,0,1.235,2.139l2.726,1.574a2.47,2.47,0,0,0,2.47,0l2.726-1.574a2.47,2.47,0,0,0,1.235-2.139v-7.255a.752.752,0,0,1,1.187-.615A10.977,10.977,0,0,1,140.256,134.357Z" transform="translate(-110.104 -115.196)" fill="url(#linear-gradient-7)"/>
      <path id="Path_49023" data-name="Path 49023" d="M153.814,135.283a3.866,3.866,0,0,0,1.933,3.348l4.268,2.464a3.866,3.866,0,0,0,3.867,0l4.268-2.464a3.866,3.866,0,0,0,1.933-3.348v-8.317a11.044,11.044,0,0,0-1.751-1.558.752.752,0,0,0-1.187.615v7.255a2.47,2.47,0,0,1-1.235,2.139l-2.726,1.574a2.47,2.47,0,0,1-2.47,0l-2.726-1.574a2.47,2.47,0,0,1-1.235-2.139v-7.255a.753.753,0,0,0-1.193-.611,11.052,11.052,0,0,0-1.745,1.554v8.317Z" transform="translate(-142.788 -115.197)" fill="url(#linear-gradient-8)"/>
    </g>
  </g>
</svg>
