<svg xmlns="http://www.w3.org/2000/svg" width="24.5" height="24.5" viewBox="0 0 24.5 24.5">
  <g id="noun_blocked_2727594" transform="translate(-0.565 -1.397)">
    <g id="Group_24155" data-name="Group 24155" transform="translate(0.815 1.648)">
      <path id="Path_49538" data-name="Path 49538" d="M21.277,22.087a11.836,11.836,0,0,1-16.827.1,12.055,12.055,0,0,1-.342-16.9A12.279,12.279,0,0,1,21.375,5.11,12.07,12.07,0,0,1,21.277,22.087ZM5.6,6.761a9.945,9.945,0,0,0,.317,13.946,9.771,9.771,0,0,0,13.9-.1,9.983,9.983,0,0,0,.1-14.02A10.324,10.324,0,0,0,5.6,6.761Z" transform="translate(-0.815 -1.648)" fill="red" stroke="red" stroke-width="0.5"/>
      <path id="Path_49539" data-name="Path 49539" d="M32.084,32.309a1.033,1.033,0,0,1-1.5,0L15.144,16.691a1.066,1.066,0,1,1,1.5-1.516L32.084,30.793A1.061,1.061,0,0,1,32.084,32.309Z" transform="translate(-11.603 -11.823)" fill="red" stroke="red" stroke-width="0.5"/>
    </g>
  </g>
</svg>
