<svg id="Group_24117" data-name="Group 24117" xmlns="http://www.w3.org/2000/svg" width="40" height="40" viewBox="0 0 40 40">
  <rect id="Rectangle_4600" data-name="Rectangle 4600" width="40" height="40" fill="#fff"/>
  <g id="noun_Location_1605381" transform="translate(11 7)">
    <path id="Path_49521" data-name="Path 49521" d="M24.819,2.554A9.175,9.175,0,0,0,15.1,11.72,9.044,9.044,0,0,0,16.338,16.3L23.213,26.97a1.3,1.3,0,0,0,2.186,0L32.273,16.3a9,9,0,0,0,1.212-4.82A9.236,9.236,0,0,0,24.819,2.554ZM24.293,16.2a4.5,4.5,0,1,1,4.5-4.5A4.5,4.5,0,0,1,24.293,16.2Z" transform="translate(-15.1 -2.537)" fill="#9b9b9b"/>
  </g>
</svg>
