<svg id="Group_24312" data-name="Group 24312" xmlns="http://www.w3.org/2000/svg" width="29.765" height="22" viewBox="0 0 29.765 22">
  <path id="Path_49574" data-name="Path 49574" d="M18.882,968.362a8.97,8.97,0,0,0-8.857,7.289,7.422,7.422,0,0,0,1.415,14.711H27.294a6.453,6.453,0,0,0,.586-12.881,8.96,8.96,0,0,0-9-9.119Zm0,1.941a7.048,7.048,0,0,1,5.025,2.073,7.122,7.122,0,0,1,2.042,5.894.971.971,0,0,0,.96,1.092h.384a4.529,4.529,0,1,1,0,9.059H11.441a5.5,5.5,0,0,1-.506-10.98.971.971,0,0,0,.869-.849,7.1,7.1,0,0,1,7.077-6.289Zm0,6.147a.869.869,0,0,0-.657.253l-3.559,3.235a.979.979,0,0,0-.061,1.375,1.015,1.015,0,0,0,1.375.061l1.931-1.759v5.571a.971.971,0,0,0,1.941,0v-5.571l1.931,1.759a1.037,1.037,0,0,0,1.375-.061.977.977,0,0,0-.061-1.375L19.54,976.7A.818.818,0,0,0,18.882,976.45Z" transform="translate(-4 -968.362)" fill="#1fae93"/>
</svg>
