<svg id="noun_Add_Friend_471366" data-name="noun_Add Friend_471366" xmlns="http://www.w3.org/2000/svg" width="24.209" height="22.686" viewBox="0 0 24.209 22.686">
  <path id="Path_49518" data-name="Path 49518" d="M22.115,61.248a1.579,1.579,0,0,0,1.593-1.593V59.6c0-5.536-4.159-10.1-9.318-10.1S5.1,54.118,5.1,59.655v.027a1.6,1.6,0,0,0,1.593,1.593l15.421-.027Z" transform="translate(-5.1 -38.589)" fill="#1fae93"/>
  <circle id="Ellipse_168" data-name="Ellipse 168" cx="5.05" cy="5.05" r="5.05" transform="translate(4.267)" fill="#1fae93"/>
  <g id="noun_Check_45904" transform="translate(16 -0.773)">
    <path id="Path_49546" data-name="Path 49546" d="M7.1.25,6.583.8,2.95,4.657,1.86,3.567,1.323,3.03.249,4.1l.537.537L2.429,6.283l.553.553.537-.569,4.17-4.422.521-.553Z" transform="translate(0 2)" fill="#1fae93"/>
  </g>
</svg>
