<svg xmlns="http://www.w3.org/2000/svg" width="40" height="40.823" viewBox="0 0 40 40.823">
  <g id="Group_23127" data-name="Group 23127" transform="translate(0 0.823)">
    <rect id="Rectangle_4426" data-name="Rectangle 4426" width="40" height="40" fill="#fff"/>
    <g id="shop-bag" transform="translate(1.661 -0.823)">
      <path id="Path_48921" data-name="Path 48921" d="M2.436,100.974l-2.411,22.1a4.323,4.323,0,0,0,4.3,4.792H25.2a4.323,4.323,0,0,0,4.3-4.792l-2.411-22.1A1.768,1.768,0,0,0,25.334,99.4H4.194A1.768,1.768,0,0,0,2.436,100.974Zm0,0" transform="translate(0 -91.534)" fill="#ed5176"/>
      <path id="Path_48922" data-name="Path 48922" d="M299.014,123.073l-2.411-22.1a1.767,1.767,0,0,0-1.757-1.576H292.8a1.768,1.768,0,0,1,1.757,1.576l2.411,22.1a4.323,4.323,0,0,1-4.3,4.792h2.048A4.323,4.323,0,0,0,299.014,123.073Zm0,0" transform="translate(-269.512 -91.534)" fill="#ba365f"/>
      <path id="Path_48923" data-name="Path 48923" d="M.012,405.023a4.323,4.323,0,0,0,4.323,4.286H25.215a4.324,4.324,0,0,0,4.323-4.286Zm0,0" transform="translate(-0.011 -372.978)" fill="#ff76a4"/>
      <path id="Path_48924" data-name="Path 48924" d="M296.991,405.023a4.324,4.324,0,0,1-4.323,4.286h2.051c.077,0,.153,0,.229-.006l.077-.006c.051,0,.1-.007.151-.012l.091-.012c.045-.006.09-.011.134-.018l.1-.017c.042-.008.084-.015.125-.024l.1-.022.12-.03.1-.028.115-.035.1-.033.11-.04.1-.038.106-.045.095-.043.1-.05.093-.048.1-.054.092-.053.092-.057.091-.058.085-.06c.031-.021.061-.042.091-.065l.076-.06c.031-.024.062-.048.093-.073l.049-.043c.083-.07.163-.143.241-.22l.019-.018c.034-.034.067-.07.1-.1.016-.016.032-.032.047-.049.031-.034.061-.069.09-.1l.049-.057c.029-.035.056-.071.084-.107l.046-.06c.027-.036.053-.074.079-.111l.043-.063c.025-.038.05-.076.074-.115l.04-.064c.024-.039.047-.079.069-.12l.035-.065c.022-.041.044-.083.065-.125l.031-.064c.02-.043.04-.087.059-.131l.026-.062c.019-.045.037-.091.055-.138.007-.019.014-.039.021-.058.018-.048.035-.1.05-.146.006-.017.01-.034.016-.051.016-.052.031-.1.046-.158l.009-.036c.015-.058.029-.117.041-.176h0a4.317,4.317,0,0,0,.092-.855Zm0,0" transform="translate(-269.512 -372.978)" fill="#ed5176"/>
      <path id="Path_48925" data-name="Path 48925" d="M214.223,254.367l-.281-6.924a1.883,1.883,0,0,0-1.805-1.805l-6.924-.281a1.883,1.883,0,0,0-1.408.55l-10.077,10.077a2.051,2.051,0,0,0,0,2.9l6.968,6.968a2.05,2.05,0,0,0,2.9,0l10.077-10.077A1.882,1.882,0,0,0,214.223,254.367Zm-5.017-3.993a1.29,1.29,0,1,1,1.824,0A1.29,1.29,0,0,1,209.207,250.374Zm0,0" transform="translate(-177.848 -225.943)" fill="#ffcd34"/>
      <path id="Path_48926" data-name="Path 48926" d="M288.553,260.339l-.281-6.924a1.882,1.882,0,0,0-.976-1.574,1.568,1.568,0,0,1,.157.755l-.225,6.418a2.036,2.036,0,0,1-.61,1.348L276.54,270.438a1.923,1.923,0,0,1-2.7.2l1.182,1.182a2.051,2.051,0,0,0,2.9,0L288,261.746A1.883,1.883,0,0,0,288.553,260.339Zm0,0" transform="translate(-252.177 -231.914)" fill="#e69012"/>
      <g id="Group_18180" data-name="Group 18180" transform="translate(8.397)">
        <path id="Path_48927" data-name="Path 48927" d="M118.282,11.071a.585.585,0,0,1-.585-.585V6.367a5.2,5.2,0,0,0-10.394,0v4.12a.585.585,0,0,1-1.17,0V6.367a6.367,6.367,0,1,1,12.733,0v4.12A.585.585,0,0,1,118.282,11.071Zm0,0" transform="translate(-106.133 0)" fill="#252d4c"/>
        <path id="Path_48928" data-name="Path 48928" d="M278.673,319.557a2.075,2.075,0,1,1,2.075-2.075A2.078,2.078,0,0,1,278.673,319.557Zm0-2.981a.906.906,0,1,0,.906.906A.907.907,0,0,0,278.673,316.576Zm0,0" transform="translate(-263.11 -290.451)" fill="#252d4c"/>
        <path id="Path_48929" data-name="Path 48929" d="M325.916,393.635a2.075,2.075,0,1,1,2.075-2.075A2.078,2.078,0,0,1,325.916,393.635Zm0-2.981a.906.906,0,1,0,.906.906A.907.907,0,0,0,325.916,390.654Zm0,0" transform="translate(-306.615 -358.668)" fill="#252d4c"/>
        <path id="Path_48930" data-name="Path 48930" d="M280.814,339.77a.585.585,0,0,1-.414-1l6.144-6.144a.585.585,0,0,1,.827.827l-6.144,6.144A.583.583,0,0,1,280.814,339.77Zm0,0" transform="translate(-266.455 -306.152)" fill="#252d4c"/>
      </g>
    </g>
  </g>
</svg>
