<svg id="Group_23127" data-name="Group 23127" xmlns="http://www.w3.org/2000/svg" xmlns:xlink="http://www.w3.org/1999/xlink" width="40" height="40" viewBox="0 0 40 40">
  <defs>
    <radialGradient id="radial-gradient" cx="0.333" cy="0.26" r="0.66" gradientTransform="translate(-0.099) scale(1.198 1)" gradientUnits="objectBoundingBox">
      <stop offset="0" stop-color="#ffda45"/>
      <stop offset="0.304" stop-color="#ffce3e"/>
      <stop offset="0.856" stop-color="#ffae2b"/>
      <stop offset="1" stop-color="#ffa425"/>
    </radialGradient>
    <linearGradient id="linear-gradient" x1="0.56" y1="0.56" x2="0.018" y2="0.018" gradientUnits="objectBoundingBox">
      <stop offset="0" stop-color="#ffda45" stop-opacity="0"/>
      <stop offset="1" stop-color="#fcee21"/>
    </linearGradient>
    <linearGradient id="linear-gradient-2" x1="0.554" y1="0.897" x2="0.405" y2="-0.195" gradientUnits="objectBoundingBox">
      <stop offset="0" stop-color="#ffda45" stop-opacity="0"/>
      <stop offset="1" stop-color="#fff"/>
    </linearGradient>
    <linearGradient id="linear-gradient-3" x1="0.49" y1="0.674" x2="1.216" y2="-0.675" gradientUnits="objectBoundingBox">
      <stop offset="0" stop-color="#ffda45" stop-opacity="0"/>
      <stop offset="1" stop-color="#b53759"/>
    </linearGradient>
    <radialGradient id="radial-gradient-2" cx="0.5" cy="0.5" r="0.5" gradientUnits="objectBoundingBox">
      <stop offset="0" stop-color="#fcee21" stop-opacity="0.6"/>
      <stop offset="0.326" stop-color="#fdea28" stop-opacity="0.404"/>
      <stop offset="0.786" stop-color="#fee03a" stop-opacity="0.129"/>
      <stop offset="1" stop-color="#ffda45" stop-opacity="0"/>
    </radialGradient>
    <linearGradient id="linear-gradient-4" y1="0.5" x2="1" y2="0.5" gradientUnits="objectBoundingBox">
      <stop offset="0" stop-color="#7e8595"/>
      <stop offset="1" stop-color="#555a66"/>
    </linearGradient>
    <linearGradient id="linear-gradient-5" x1="0.499" y1="0.934" x2="0.501" y2="-0.253" gradientUnits="objectBoundingBox">
      <stop offset="0" stop-color="#555a66" stop-opacity="0"/>
      <stop offset="1" stop-color="#555a66"/>
    </linearGradient>
    <linearGradient id="linear-gradient-7" x1="0.498" y1="0.934" x2="0.5" y2="-0.251" xlink:href="#linear-gradient-5"/>
    <linearGradient id="linear-gradient-8" x1="0.5" y1="0.363" x2="0.5" y2="-0.156" xlink:href="#linear-gradient"/>
    <linearGradient id="linear-gradient-9" x1="0.5" y1="0.468" x2="0.5" y2="1.086" xlink:href="#linear-gradient-3"/>
    <linearGradient id="linear-gradient-10" x1="0.498" y1="0.145" x2="0.503" y2="1.019" gradientUnits="objectBoundingBox">
      <stop offset="0" stop-color="#f9f7fc"/>
      <stop offset="1" stop-color="#f0ddfc"/>
    </linearGradient>
    <linearGradient id="linear-gradient-11" x1="0.498" y1="0.145" x2="0.503" y2="1.019" xlink:href="#linear-gradient-4"/>
    <linearGradient id="linear-gradient-12" x1="0.498" y1="0.145" x2="0.503" y2="1.019" xlink:href="#linear-gradient-4"/>
    <linearGradient id="linear-gradient-13" x1="0.493" y1="0.141" x2="0.533" y2="1.894" xlink:href="#linear-gradient-10"/>
    <linearGradient id="linear-gradient-14" x1="0.5" y1="0.384" x2="0.5" y2="1.412" gradientUnits="objectBoundingBox">
      <stop offset="0" stop-color="#92f37f"/>
      <stop offset="1" stop-color="#4ab272"/>
    </linearGradient>
    <linearGradient id="linear-gradient-16" x1="-7.022" y1="4.128" x2="-7.022" y2="4.633" xlink:href="#linear-gradient-14"/>
    <linearGradient id="linear-gradient-17" x1="-0.303" y1="3.962" x2="-0.303" y2="4.555" xlink:href="#linear-gradient-14"/>
    <linearGradient id="linear-gradient-18" x1="-8.014" y1="3.962" x2="-8.014" y2="4.555" xlink:href="#linear-gradient-14"/>
  </defs>
  <rect id="Rectangle_4426" data-name="Rectangle 4426" width="40" height="40" fill="#fff"/>
  <g id="idea" transform="translate(-39.119 2.486)">
    <path id="Path_49024" data-name="Path 49024" d="M118.855,62.23A10.868,10.868,0,1,0,100.2,69.812a9.687,9.687,0,0,1,2.769,6.755V77.4H113v-.832a9.612,9.612,0,0,1,2.745-6.73A10.831,10.831,0,0,0,118.855,62.23Z" transform="translate(-49.351 -47.826)" fill="url(#radial-gradient)"/>
    <circle id="Ellipse_123" data-name="Ellipse 123" cx="10.167" cy="10.167" r="10.167" transform="translate(48.469 4.237)" fill="url(#linear-gradient)"/>
    <ellipse id="Ellipse_124" data-name="Ellipse 124" cx="6.595" cy="3.833" rx="6.595" ry="3.833" transform="translate(52.041 4.501)" fill="url(#linear-gradient-2)"/>
    <path id="Path_49025" data-name="Path 49025" d="M128.353,68.013A10.871,10.871,0,0,1,113.769,82.6a10.869,10.869,0,1,0,14.584-14.584Z" transform="translate(-64.855 -63.331)" fill="url(#linear-gradient-3)"/>
    <circle id="Ellipse_125" data-name="Ellipse 125" cx="6.595" cy="6.595" r="6.595" transform="translate(52.041 13.664)" fill="url(#radial-gradient-2)"/>
    <path id="Path_49026" data-name="Path 49026" d="M191.045,400.759a9.17,9.17,0,0,1-7.913,0,1.871,1.871,0,0,1-1.064-1.688v-5.424h10.041v5.424A1.871,1.871,0,0,1,191.045,400.759Z" transform="translate(-128.453 -366.549)" fill="url(#linear-gradient-4)"/>
    <path id="Path_49027" data-name="Path 49027" d="M182.068,410.5l1,1h9.045v-1H182.068Z" transform="translate(-128.453 -382.236)" fill="url(#linear-gradient-5)"/>
    <path id="Path_49028" data-name="Path 49028" d="M182.068,446.443l1,1h9.045v-1H182.068Z" transform="translate(-128.453 -415.703)" fill="url(#linear-gradient-5)"/>
    <path id="Path_49029" data-name="Path 49029" d="M183.37,480.7q.025.079.057.155l.849.849h8.186a1.87,1.87,0,0,0,.769-1Z" transform="translate(-129.665 -447.612)" fill="url(#linear-gradient-7)"/>
    <path id="Path_49030" data-name="Path 49030" d="M199.745,294.292h-.2a1.467,1.467,0,0,0-1.465,1.465v.472h-2.318v-.472a1.467,1.467,0,0,0-1.465-1.465h-.2a1.465,1.465,0,1,0,0,2.931h.676v3.791h.993v-3.791h2.318v3.791h.993v-3.791h.676a1.465,1.465,0,0,0,0-2.931Zm-4.981,1.938h-.676a.472.472,0,0,1,0-.944h.2a.473.473,0,0,1,.472.472Zm4.981,0h-.676v-.472a.473.473,0,0,1,.472-.472h.2a.472.472,0,0,1,0,.944Z" transform="translate(-138.281 -274.033)" fill="url(#linear-gradient-8)"/>
    <path id="Path_49031" data-name="Path 49031" d="M199.745,294.292h-.2a1.467,1.467,0,0,0-1.465,1.465v.472h-2.318v-.472a1.467,1.467,0,0,0-1.465-1.465h-.2a1.465,1.465,0,1,0,0,2.931h.676v3.791h.993v-3.791h2.318v3.791h.993v-3.791h.676a1.465,1.465,0,0,0,0-2.931Zm-4.981,1.938h-.676a.472.472,0,0,1,0-.944h.2a.473.473,0,0,1,.472.472Zm4.981,0h-.676v-.472a.473.473,0,0,1,.472-.472h.2a.472.472,0,0,1,0,.944Z" transform="translate(-138.281 -274.033)" fill="url(#linear-gradient-9)"/>
    <path id="Path_49032" data-name="Path 49032" d="M183.9,387.895H174.4a.861.861,0,1,1,0-1.722H183.9a.861.861,0,0,1,0,1.722Z" transform="translate(-120.515 -359.59)" fill="url(#linear-gradient-10)"/>
    <path id="Path_49033" data-name="Path 49033" d="M183.9,423.863H174.4a.861.861,0,1,1,0-1.722H183.9a.861.861,0,0,1,0,1.722Z" transform="translate(-120.515 -393.082)" fill="url(#linear-gradient-11)"/>
    <path id="Path_49034" data-name="Path 49034" d="M183.9,459.83H174.4a.861.861,0,1,1,0-1.722H183.9a.861.861,0,1,1,0,1.722Z" transform="translate(-120.515 -426.573)" fill="url(#linear-gradient-12)"/>
    <path id="Path_49035" data-name="Path 49035" d="M214.05,494.568a11.075,11.075,0,0,0-6.538,0,9.17,9.17,0,0,0,6.538,0Z" transform="translate(-152.145 -460.064)" fill="url(#linear-gradient-13)"/>
    <path id="Path_49036" data-name="Path 49036" d="M46.252,202.212H44.811a.692.692,0,1,1,0-1.384h1.441a.692.692,0,1,1,0,1.384Z" transform="translate(0 -187.003)" fill="url(#linear-gradient-14)"/>
    <path id="Path_49037" data-name="Path 49037" d="M426.972,202.212h-1.441a.692.692,0,1,1,0-1.384h1.441a.692.692,0,0,1,0,1.384Z" transform="translate(-354.512 -187.003)" fill="url(#linear-gradient-14)"/>
    <path id="Path_49038" data-name="Path 49038" d="M246.33,2.133V.692a.692.692,0,1,0-1.384,0V2.133a.692.692,0,1,0,1.384,0Z" transform="translate(-187.002)" fill="url(#linear-gradient-16)"/>
    <path id="Path_49039" data-name="Path 49039" d="M104.161,61.021,103.142,60a.692.692,0,1,1,.979-.979l1.019,1.019a.692.692,0,0,1-.979.979Z" transform="translate(-54.771 -54.771)" fill="url(#linear-gradient-17)"/>
    <path id="Path_49040" data-name="Path 49040" d="M373.331,61.021,374.35,60a.692.692,0,1,0-.979-.979l-1.019,1.019a.692.692,0,0,0,.979.979Z" transform="translate(-305.449 -54.771)" fill="url(#linear-gradient-18)"/>
  </g>
</svg>
