<svg id="image" xmlns="http://www.w3.org/2000/svg" width="24.431" height="22.396" viewBox="0 0 24.431 22.396">
  <path id="Path_48982" data-name="Path 48982" d="M6.362,159.133a3.812,3.812,0,0,1-3.606-2.6l-.036-.117a3.716,3.716,0,0,1-.176-1.1v-6.941l-2.47,8.244a2.312,2.312,0,0,0,1.621,2.8l15.741,4.216a2.336,2.336,0,0,0,.586.075,2.27,2.27,0,0,0,2.2-1.665l.917-2.916Zm0,0" transform="translate(0 -141.318)" fill="#a3a3a3"/>
  <path id="Path_48983" data-name="Path 48983" d="M151.356,68.564a2.036,2.036,0,1,0-2.036-2.036A2.038,2.038,0,0,0,151.356,68.564Zm0,0" transform="translate(-142.195 -61.438)" fill="#a3a3a3"/>
  <path id="Path_48984" data-name="Path 48984" d="M103.135.492H87.865A2.549,2.549,0,0,0,85.32,3.037v11.2a2.549,2.549,0,0,0,2.545,2.545h15.27a2.549,2.549,0,0,0,2.545-2.545V3.037A2.549,2.549,0,0,0,103.135.492ZM87.865,2.528h15.27a.509.509,0,0,1,.509.509v7.227l-3.216-3.752a1.823,1.823,0,0,0-1.365-.626,1.779,1.779,0,0,0-1.36.642l-3.781,4.538L92.69,9.837a1.787,1.787,0,0,0-2.525,0l-2.81,2.809V3.037A.509.509,0,0,1,87.865,2.528Zm0,0" transform="translate(-81.249 -0.492)" fill="#a3a3a3"/>
</svg>
