<svg xmlns="http://www.w3.org/2000/svg" width="16" height="16" viewBox="0 0 16 16">
  <g id="noun_Close_3129515" transform="translate(192 15)">
    <g id="Group_24179" data-name="Group 24179" transform="translate(-192 -15)">
      <path id="Path_49545" data-name="Path 49545" d="M21,29a8,8,0,1,0-8-8A8.01,8.01,0,0,0,21,29Zm-2.876-9.946a.657.657,0,0,1,.93-.93L21,20.07l1.946-1.946a.657.657,0,1,1,.93.93L21.93,21l1.946,1.946a.657.657,0,0,1-.93.93L21,21.93l-1.946,1.946a.657.657,0,0,1-.93-.93L20.07,21Z" transform="translate(-13 -13)"/>
    </g>
  </g>
</svg>
