<svg id="Group_24140" data-name="Group 24140" xmlns="http://www.w3.org/2000/svg" width="44.557" height="22" viewBox="0 0 44.557 22">
  <path id="Path_49529" data-name="Path 49529" d="M42.619,35.4a7.084,7.084,0,0,1-7.055,0,10.06,10.06,0,0,0-1.764.743c3.342,3.62,2.135,7.612,2.414,10.025h11.7v-3.9A7.158,7.158,0,0,0,42.619,35.4Z" transform="translate(-3.353 -24.261)" fill="#16135a"/>
  <path id="Path_49530" data-name="Path 49530" d="M13.253,35.4a6.87,6.87,0,0,1-7.055,0A7.211,7.211,0,0,0,1,42.362v3.9H12.7c.278-2.413-.928-6.405,2.414-10.025A6.7,6.7,0,0,0,13.253,35.4Z" transform="translate(-1 -24.261)" fill="#16135a"/>
  <path id="Path_49532" data-name="Path 49532" d="M27.846,35.4a6.87,6.87,0,0,1-7.055,0A7.185,7.185,0,0,0,15.5,42.362v3.9H33.044C32.859,45.054,34.622,37.349,27.846,35.4Z" transform="translate(-2.04 -24.261)" fill="#16135a"/>
  <path id="Path_49533" data-name="Path 49533" d="M19.5,28.505a5.105,5.105,0,0,0,10.211,0,5.105,5.105,0,1,0-10.211,0Z" transform="translate(-2.327 -23.4)" fill="#16135a"/>
  <path id="Path_49534" data-name="Path 49534" d="M39.205,33.711a5.091,5.091,0,0,0,5.105-5.105,5.105,5.105,0,1,0-10.211,0A5.091,5.091,0,0,0,39.205,33.711Z" transform="translate(-3.374 -23.407)" fill="#16135a"/>
  <circle id="Ellipse_169" data-name="Ellipse 169" cx="5.105" cy="5.105" r="5.105" transform="translate(3.62)" fill="#16135a"/>
</svg>
