<svg id="Group_24118" data-name="Group 24118" xmlns="http://www.w3.org/2000/svg" width="40" height="40" viewBox="0 0 40 40">
  <rect id="Rectangle_4601" data-name="Rectangle 4601" width="40" height="40" fill="#fff"/>
  <g id="noun_Work_3302957" transform="translate(9 9)">
    <g id="Group_24113" data-name="Group 24113">
      <g id="Group_24112" data-name="Group 24112">
        <path id="Path_49522" data-name="Path 49522" d="M4625.867,5801.615v6.427a2.855,2.855,0,0,1-2.858,2.853h-17.15a2.855,2.855,0,0,1-2.858-2.853v-6.427l9.29,1.271v.639a2.143,2.143,0,0,0,2.144,2.144h0a2.143,2.143,0,0,0,2.144-2.144v-.639Zm0-4.983v3.548l-9.29,1.271v-.2a2.144,2.144,0,1,0-4.287,0v.2l-9.29-1.271v-3.548a2.855,2.855,0,0,1,2.858-2.853h1.429v-2.853a2.855,2.855,0,0,1,2.858-2.853h8.575a2.855,2.855,0,0,1,2.858,2.853v2.853h1.429A2.855,2.855,0,0,1,4625.867,5796.631Zm-11.434,4.417a.635.635,0,0,1,.635.635v1.906a.635.635,0,1,1-1.27,0v-1.906A.635.635,0,0,1,4614.434,5801.049Zm-5.27-7.27H4619.7v-2.407a1.43,1.43,0,0,0-1.43-1.427h-7.682a1.43,1.43,0,0,0-1.429,1.427Z" transform="translate(-4603 -5788.074)" fill="#9b9b9b" fill-rule="evenodd"/>
      </g>
    </g>
  </g>
</svg>
