<svg id="noun_Settings_2650525" xmlns="http://www.w3.org/2000/svg" width="24" height="24" viewBox="0 0 24 24">
  <path id="Path_49606" data-name="Path 49606" d="M23.626,10.5c-.192-.122-1.706-1.027-2.306-1.3l-.744-1.8c.221-.6.646-2.263.72-2.554a.8.8,0,0,0-.216-.744L19.906,2.928a.8.8,0,0,0-.744-.216c-.221.05-1.92.48-2.554.72l-1.8-.744C14.546,2.112,13.666.636,13.5.382A.8.8,0,0,0,12.826,0H11.174A.8.8,0,0,0,10.5.374c-.122.192-1.027,1.706-1.3,2.306l-1.8.744C6.8,3.2,5.129,2.779,4.838,2.7a.8.8,0,0,0-.744.216L2.928,4.094a.8.8,0,0,0-.216.744c.05.221.48,1.92.72,2.554l-.744,1.8C2.112,9.454.636,10.334.382,10.5A.8.8,0,0,0,0,11.174v1.649a.8.8,0,0,0,.374.679c.192.122,1.706,1.027,2.306,1.3l.744,1.8c-.221.6-.646,2.263-.72,2.554a.8.8,0,0,0,.216.744L4.087,21.07a.8.8,0,0,0,.744.216c.221-.05,1.92-.48,2.554-.72l1.8.744c.262.576,1.142,2.052,1.3,2.306a.8.8,0,0,0,.686.384h1.649a.8.8,0,0,0,.679-.374c.122-.192,1.027-1.706,1.3-2.306l1.8-.744c.6.221,2.263.646,2.554.72a.8.8,0,0,0,.744-.216l1.166-1.166a.8.8,0,0,0,.216-.744c-.05-.221-.48-1.92-.72-2.554l.744-1.8c.576-.262,2.052-1.142,2.306-1.3A.8.8,0,0,0,24,12.826V11.174a.792.792,0,0,0-.374-.679ZM12,17.225A5.23,5.23,0,1,1,17.234,12,5.23,5.23,0,0,1,12,17.225Z" fill="#16135a"/>
</svg>
