<svg id="noun_Close_3577939" xmlns="http://www.w3.org/2000/svg" width="25" height="25" viewBox="0 0 25 25">
  <g id="Group_23373" data-name="Group 23373">
    <path id="Path_48799" data-name="Path 48799" d="M14.5,2A12.5,12.5,0,1,0,27,14.5,12.514,12.514,0,0,0,14.5,2Zm6.313,17.55a.893.893,0,1,1-1.263,1.263L14.5,15.763,9.449,20.813a.893.893,0,0,1-1.262-1.263L13.238,14.5,8.187,9.45A.893.893,0,0,1,9.449,8.188l5.051,5.05,5.051-5.05A.893.893,0,0,1,20.813,9.45L15.763,14.5Z" transform="translate(-2 -2)" fill="#16135a"/>
  </g>
</svg>
