<svg id="Group_23127" data-name="Group 23127" xmlns="http://www.w3.org/2000/svg" xmlns:xlink="http://www.w3.org/1999/xlink" width="40" height="40" viewBox="0 0 40 40">
  <defs>
    <linearGradient id="linear-gradient" x1="0.395" y1="0.156" x2="1.126" y2="-0.576" gradientUnits="objectBoundingBox">
      <stop offset="0" stop-color="#a7f3ce"/>
      <stop offset="1" stop-color="#61db99"/>
    </linearGradient>
    <linearGradient id="linear-gradient-2" x1="0.634" y1="-0.084" x2="0.324" y2="0.227" gradientUnits="objectBoundingBox">
      <stop offset="0" stop-color="#61db99" stop-opacity="0"/>
      <stop offset="1" stop-color="#009e74"/>
    </linearGradient>
    <linearGradient id="linear-gradient-3" x1="0.316" y1="0.784" x2="0.949" y2="0.15" gradientUnits="objectBoundingBox">
      <stop offset="0" stop-color="#62e1fb"/>
      <stop offset="1" stop-color="#00a2f3"/>
    </linearGradient>
    <linearGradient id="linear-gradient-4" x1="0.761" y1="0.176" x2="-0.265" y2="1.201" gradientUnits="objectBoundingBox">
      <stop offset="0" stop-color="#00a2f3" stop-opacity="0"/>
      <stop offset="1" stop-color="#0075cd"/>
    </linearGradient>
    <linearGradient id="linear-gradient-5" x1="0.758" y1="0.176" x2="-0.267" y2="1.201" xlink:href="#linear-gradient-4"/>
    <linearGradient id="linear-gradient-6" x1="0.756" y1="0.176" x2="-0.27" y2="1.201" xlink:href="#linear-gradient-4"/>
  </defs>
  <rect id="Rectangle_4426" data-name="Rectangle 4426" width="40" height="40" fill="#fff"/>
  <g id="chat" transform="translate(1.097 2.273)">
    <path id="Path_48967" data-name="Path 48967" d="M186.271,164.114a12.479,12.479,0,0,1,12.371,15.164,22.612,22.612,0,0,0-.563,4.869v3.169a.879.879,0,0,1-.879.879h-3.169a22.614,22.614,0,0,0-4.869.563,12.47,12.47,0,1,1-2.891-24.644Z" transform="translate(-161.158 -152.733)" fill="url(#linear-gradient)"/>
    <path id="Path_48968" data-name="Path 48968" d="M186.271,164.114a12.479,12.479,0,0,1,12.371,15.164,22.612,22.612,0,0,0-.563,4.869v3.169a.879.879,0,0,1-.879.879h-3.169a22.614,22.614,0,0,0-4.869.563,12.47,12.47,0,1,1-2.891-24.644Z" transform="translate(-161.158 -152.733)" fill="url(#linear-gradient-2)"/>
    <path id="Path_48969" data-name="Path 48969" d="M15.427,9.886A15.2,15.2,0,0,0,.356,28.36a27.552,27.552,0,0,1,.686,5.932v3.86a1.071,1.071,0,0,0,1.071,1.071h3.86a27.553,27.553,0,0,1,5.932.686A15.192,15.192,0,1,0,15.427,9.886Z" transform="translate(0 -9.884)" fill="url(#linear-gradient-3)"/>
    <path id="Path_48970" data-name="Path 48970" d="M81.161,195.42a2.351,2.351,0,1,0-3.323,3.323l5.076,5.076a2.351,2.351,0,1,0,3.323-3.323Z" transform="translate(-71.408 -181.044)" fill="url(#linear-gradient-4)"/>
    <ellipse id="Ellipse_119" data-name="Ellipse 119" cx="2.353" cy="2.353" rx="2.353" ry="2.353" transform="translate(5.688 13.634)" fill="#fff"/>
    <path id="Path_48971" data-name="Path 48971" d="M171.351,195.42a2.351,2.351,0,1,0-3.323,3.323l5.076,5.076a2.351,2.351,0,1,0,3.323-3.323Z" transform="translate(-154.943 -181.044)" fill="url(#linear-gradient-5)"/>
    <ellipse id="Ellipse_120" data-name="Ellipse 120" cx="2.353" cy="2.353" rx="2.353" ry="2.353" transform="translate(12.343 13.634)" fill="#fff"/>
    <path id="Path_48972" data-name="Path 48972" d="M261.54,195.42a2.351,2.351,0,1,0-3.323,3.323l5.076,5.076a2.351,2.351,0,1,0,3.323-3.323Z" transform="translate(-238.478 -181.044)" fill="url(#linear-gradient-6)"/>
    <ellipse id="Ellipse_121" data-name="Ellipse 121" cx="2.353" cy="2.353" rx="2.353" ry="2.353" transform="translate(18.997 13.634)" fill="#fff"/>
  </g>
</svg>
