<svg xmlns="http://www.w3.org/2000/svg" width="22" height="22" viewBox="0 0 22 22">
  <path id="Path_48641" data-name="Path 48641" d="M929.205,1169.053a9.053,9.053,0,0,1-1.245,4.453.769.769,0,0,0,.157,1.079c1.522,1.5,3.028,3.022,4.546,4.53a1.691,1.691,0,1,1-2.341,2.435c-1.487-1.455-2.948-2.937-4.42-4.407-.649-.648-.649-.648-1.433-.214a8.964,8.964,0,1,1,4.464-9.831C929.079,1167.737,929.117,1168.4,929.205,1169.053Zm-8.969,5.978a5.977,5.977,0,1,0-6.023-5.936A6.012,6.012,0,0,0,920.236,1175.031Z" transform="translate(-911.243 -1160.084)" fill="#16135a"/>
</svg>
