<svg id="Group_23127" data-name="Group 23127" xmlns="http://www.w3.org/2000/svg" xmlns:xlink="http://www.w3.org/1999/xlink" width="40" height="40" viewBox="0 0 40 40">
  <defs>
    <linearGradient id="linear-gradient" x1="0.586" y1="0.586" x2="1.026" y2="0.908" gradientUnits="objectBoundingBox">
      <stop offset="0" stop-color="#edf5ff"/>
      <stop offset="1" stop-color="#d5e8fe"/>
    </linearGradient>
    <linearGradient id="linear-gradient-2" x1="0.787" y1="0.5" x2="-0.655" y2="0.5" gradientUnits="objectBoundingBox">
      <stop offset="0" stop-color="#07485e" stop-opacity="0"/>
      <stop offset="0.271" stop-color="#074459" stop-opacity="0.271"/>
      <stop offset="0.597" stop-color="#05394a" stop-opacity="0.596"/>
      <stop offset="0.951" stop-color="#032632" stop-opacity="0.953"/>
      <stop offset="1" stop-color="#03232e"/>
    </linearGradient>
    <linearGradient id="linear-gradient-3" x1="0.256" y1="0.303" x2="0.898" y2="0.909" xlink:href="#linear-gradient"/>
    <linearGradient id="linear-gradient-4" x1="0.5" y1="0.482" x2="0.5" y2="1.287" xlink:href="#linear-gradient-2"/>
    <linearGradient id="linear-gradient-5" x1="0.445" y1="-0.204" x2="0.572" y2="1.426" gradientUnits="objectBoundingBox">
      <stop offset="0" stop-color="#7faef4"/>
      <stop offset="1" stop-color="#4c8df1"/>
    </linearGradient>
    <linearGradient id="linear-gradient-6" x1="0.426" y1="-0.111" x2="0.597" y2="1.303" xlink:href="#linear-gradient-5"/>
    <linearGradient id="linear-gradient-7" x1="0.481" y1="0.447" x2="-0.145" y2="-0.134" xlink:href="#linear-gradient-2"/>
    <linearGradient id="linear-gradient-8" x1="-1.72" y1="-121.341" x2="-1.327" y2="-121.341" gradientUnits="objectBoundingBox">
      <stop offset="0" stop-color="#ff637b"/>
      <stop offset="1" stop-color="#e63950"/>
    </linearGradient>
    <linearGradient id="linear-gradient-9" x1="-3.558" y1="-39.69" x2="-3.164" y2="-39.295" gradientUnits="objectBoundingBox">
      <stop offset="0" stop-color="#ff9690"/>
      <stop offset="1" stop-color="#f9545b"/>
    </linearGradient>
    <linearGradient id="linear-gradient-10" x1="5.07" y1="-16.342" x2="5.578" y2="-16.342" xlink:href="#linear-gradient-8"/>
    <linearGradient id="linear-gradient-11" x1="5.091" y1="-18.873" x2="5.485" y2="-18.479" xlink:href="#linear-gradient-9"/>
    <linearGradient id="linear-gradient-12" x1="-17.668" y1="-42.766" x2="-17.16" y2="-42.766" xlink:href="#linear-gradient-8"/>
    <linearGradient id="linear-gradient-13" x1="-20.521" y1="-49.897" x2="-20.127" y2="-49.503" xlink:href="#linear-gradient-9"/>
    <linearGradient id="linear-gradient-14" x1="-0.167" y1="0.5" x2="1.615" y2="0.5" xlink:href="#linear-gradient-8"/>
    <linearGradient id="linear-gradient-15" x1="0.359" y1="0.359" x2="0.753" y2="0.753" xlink:href="#linear-gradient-9"/>
    <linearGradient id="linear-gradient-16" x1="-112.871" y1="-22.227" x2="-111.089" y2="-22.227" xlink:href="#linear-gradient-8"/>
    <linearGradient id="linear-gradient-17" x1="-35.862" y1="-34.601" x2="-35.468" y2="-34.206" xlink:href="#linear-gradient-9"/>
    <linearGradient id="linear-gradient-18" x1="-22.385" y1="19.106" x2="-21.993" y2="19.106" xlink:href="#linear-gradient-8"/>
    <linearGradient id="linear-gradient-19" x1="-31.946" y1="5.448" x2="-31.552" y2="5.842" xlink:href="#linear-gradient-9"/>
    <linearGradient id="linear-gradient-20" x1="-36.607" y1="-12.113" x2="-36.098" y2="-12.113" xlink:href="#linear-gradient-8"/>
    <linearGradient id="linear-gradient-21" x1="-40.595" y1="-15.369" x2="-40.201" y2="-14.975" xlink:href="#linear-gradient-9"/>
    <linearGradient id="linear-gradient-22" x1="-13.868" y1="14.312" x2="-13.36" y2="14.312" xlink:href="#linear-gradient-8"/>
    <linearGradient id="linear-gradient-23" x1="-14.982" y1="15.656" x2="-14.588" y2="16.05" xlink:href="#linear-gradient-9"/>
    <linearGradient id="linear-gradient-24" x1="0.164" y1="0.164" x2="0.869" y2="0.869" xlink:href="#linear-gradient-9"/>
    <linearGradient id="linear-gradient-25" x1="0.556" y1="0.652" x2="-0.217" y2="-0.124" gradientUnits="objectBoundingBox">
      <stop offset="0" stop-color="#e63950" stop-opacity="0"/>
      <stop offset="0.047" stop-color="#e4354b" stop-opacity="0.047"/>
      <stop offset="0.467" stop-color="#d31822" stop-opacity="0.467"/>
      <stop offset="0.799" stop-color="#c90709" stop-opacity="0.8"/>
      <stop offset="1" stop-color="#c50000"/>
    </linearGradient>
    <linearGradient id="linear-gradient-26" x1="0.545" y1="0.461" x2="0.418" y2="0.109" xlink:href="#linear-gradient-25"/>
    <linearGradient id="linear-gradient-27" x1="7.804" y1="-6.999" x2="8.569" y2="-6.999" xlink:href="#linear-gradient-8"/>
    <linearGradient id="linear-gradient-28" x1="5.705" y1="-10.032" x2="6.099" y2="-9.637" xlink:href="#linear-gradient-9"/>
    <linearGradient id="linear-gradient-29" x1="-9.044" y1="-74.335" x2="-8.629" y2="-74.335" xlink:href="#linear-gradient-8"/>
    <linearGradient id="linear-gradient-30" x1="-13.394" y1="-56.866" x2="-13" y2="-56.472" xlink:href="#linear-gradient-9"/>
    <linearGradient id="linear-gradient-31" x1="3.431" y1="-46.934" x2="3.849" y2="-46.934" xlink:href="#linear-gradient-8"/>
    <linearGradient id="linear-gradient-32" x1="3.767" y1="-36.519" x2="4.161" y2="-36.125" xlink:href="#linear-gradient-9"/>
    <linearGradient id="linear-gradient-33" x1="-46.432" y1="-41.705" x2="-45.684" y2="-41.705" xlink:href="#linear-gradient-8"/>
    <linearGradient id="linear-gradient-34" x1="-35.726" y1="-59.155" x2="-35.332" y2="-58.76" xlink:href="#linear-gradient-9"/>
    <linearGradient id="linear-gradient-35" x1="-67.725" y1="-20.974" x2="-66.96" y2="-20.974" xlink:href="#linear-gradient-8"/>
    <linearGradient id="linear-gradient-36" x1="-50.147" y1="-30.927" x2="-49.753" y2="-30.532" xlink:href="#linear-gradient-9"/>
    <linearGradient id="linear-gradient-37" x1="0.554" y1="0.614" x2="0.363" y2="-0.542" xlink:href="#linear-gradient-25"/>
    <linearGradient id="linear-gradient-38" x1="-23.064" y1="22.023" x2="-22.649" y2="22.023" xlink:href="#linear-gradient-8"/>
    <linearGradient id="linear-gradient-39" x1="-31.048" y1="15.908" x2="-30.654" y2="16.302" xlink:href="#linear-gradient-9"/>
    <linearGradient id="linear-gradient-40" x1="-35.718" y1="-4.147" x2="-35.3" y2="-4.147" xlink:href="#linear-gradient-8"/>
    <linearGradient id="linear-gradient-41" x1="-48.209" y1="-4.439" x2="-47.815" y2="-4.045" xlink:href="#linear-gradient-9"/>
    <linearGradient id="linear-gradient-42" x1="0.68" y1="0.85" x2="-0.526" y2="-0.249" xlink:href="#linear-gradient-25"/>
    <linearGradient id="linear-gradient-43" x1="-12.081" y1="13.576" x2="-11.333" y2="13.576" xlink:href="#linear-gradient-8"/>
    <linearGradient id="linear-gradient-44" x1="-8.716" y1="18.196" x2="-8.322" y2="18.591" xlink:href="#linear-gradient-9"/>
    <linearGradient id="linear-gradient-45" x1="0.359" y1="0.359" x2="0.753" y2="0.753" xlink:href="#linear-gradient-8"/>
  </defs>
  <rect id="Rectangle_4426" data-name="Rectangle 4426" width="40" height="40" fill="#fff"/>
  <g id="covid" transform="translate(2.177 2.465)">
    <g id="Group_18162" data-name="Group 18162" transform="translate(0 0)">
      <path id="Path_48888" data-name="Path 48888" d="M69.814,72.479v28.966H98.706a2.649,2.649,0,0,0,2.649-2.649V72.479a1.487,1.487,0,0,0-2.32-1.232,1.487,1.487,0,0,1-1.667,0l-.745-.5a2.814,2.814,0,0,0-3.153,0h0a2.814,2.814,0,0,1-3.153,0,2.814,2.814,0,0,0-3.154,0,2.814,2.814,0,0,1-3.153,0h0a2.814,2.814,0,0,0-3.153,0h0a2.814,2.814,0,0,1-3.153,0h0a2.814,2.814,0,0,0-3.153,0l-.745.5a1.487,1.487,0,0,1-1.666,0h0a1.487,1.487,0,0,0-2.32,1.232Z" transform="translate(-64.812 -65.551)" fill="url(#linear-gradient)"/>
      <path id="Path_48889" data-name="Path 48889" d="M431.081,71.437a2.807,2.807,0,0,0-.708-.26V102.3h3.057a2.649,2.649,0,0,0,2.649-2.649V76.435Z" transform="translate(-399.535 -66.402)" fill="url(#linear-gradient-2)"/>
      <path id="Path_48890" data-name="Path 48890" d="M31.541,6.751V38.073a2.354,2.354,0,0,0,2.354,2.354H2.649A2.649,2.649,0,0,1,0,37.778V6.751A1.487,1.487,0,0,1,2.32,5.519a1.487,1.487,0,0,0,1.667,0l.745-.5a2.814,2.814,0,0,1,3.153,0h0a2.814,2.814,0,0,0,3.153,0,2.814,2.814,0,0,1,3.154,0,2.814,2.814,0,0,0,3.153,0h0a2.814,2.814,0,0,1,3.153,0h0a2.814,2.814,0,0,0,3.153,0h0a2.814,2.814,0,0,1,3.153,0l.745.5a1.487,1.487,0,0,0,1.666,0h0a1.487,1.487,0,0,1,2.32,1.232Z" transform="translate(0 -4.533)" fill="url(#linear-gradient-3)"/>
      <path id="Path_48891" data-name="Path 48891" d="M0,402.6v4.722a2.649,2.649,0,0,0,2.649,2.649H33.895a2.354,2.354,0,0,1-2.354-2.354V402.6Z" transform="translate(0 -374.08)" fill="url(#linear-gradient-4)"/>
      <g id="Group_18161" data-name="Group 18161" transform="translate(3.445 4.71)">
        <g id="Group_18160" data-name="Group 18160" transform="translate(0 13.435)">
          <g id="Group_18159" data-name="Group 18159">
            <g id="Group_18156" data-name="Group 18156">
              <path id="Path_48892" data-name="Path 48892" d="M58.88,261.2H48.936a.861.861,0,0,1-.861-.861V258.62a.861.861,0,0,1,.861-.861H58.88a.861.861,0,0,1,.861.861v1.723A.861.861,0,0,1,58.88,261.2Z" transform="translate(-48.075 -257.759)" fill="#9ae1d3"/>
              <path id="Path_48893" data-name="Path 48893" d="M248.15,261.2h-9.322a.861.861,0,0,1-.861-.861V258.62a.861.861,0,0,1,.861-.861h9.322a.861.861,0,0,1,.861.861v1.723A.861.861,0,0,1,248.15,261.2Z" transform="translate(-224.36 -257.759)" fill="#9ae1d3"/>
            </g>
            <g id="Group_18157" data-name="Group 18157" transform="translate(0 5.189)">
              <path id="Path_48894" data-name="Path 48894" d="M277.929,333.626h6.521a.861.861,0,0,0,.861-.861v-1.723a.861.861,0,0,0-.861-.861h-6.521a.861.861,0,0,0-.861.861v1.723A.861.861,0,0,0,277.929,333.626Z" transform="translate(-260.66 -330.181)" fill="#9ae1d3"/>
              <path id="Path_48895" data-name="Path 48895" d="M48.936,333.626H61.681a.861.861,0,0,0,.861-.861v-1.723a.861.861,0,0,0-.861-.861H48.936a.861.861,0,0,0-.861.861v1.723A.861.861,0,0,0,48.936,333.626Z" transform="translate(-48.075 -330.181)" fill="#9ae1d3"/>
            </g>
            <g id="Group_18158" data-name="Group 18158" transform="translate(0 10.379)">
              <path id="Path_48896" data-name="Path 48896" d="M58.88,406.047H48.936a.861.861,0,0,1-.861-.861v-1.723a.861.861,0,0,1,.861-.861H58.88a.861.861,0,0,1,.861.861v1.723A.861.861,0,0,1,58.88,406.047Z" transform="translate(-48.075 -402.602)" fill="#9ae1d3"/>
              <path id="Path_48897" data-name="Path 48897" d="M248.15,406.047h-9.322a.861.861,0,0,1-.861-.861v-1.723a.861.861,0,0,1,.861-.861h9.322a.861.861,0,0,1,.861.861v1.723A.861.861,0,0,1,248.15,406.047Z" transform="translate(-224.36 -402.602)" fill="#9ae1d3"/>
            </g>
          </g>
        </g>
        <path id="Path_48898" data-name="Path 48898" d="M251.458,74.144H241.37a.37.37,0,0,1-.37-.37V70.631a.37.37,0,0,1,.37-.37h10.089a.37.37,0,0,1,.37.37v3.144A.37.37,0,0,1,251.458,74.144Z" transform="translate(-227.176 -70.261)" fill="url(#linear-gradient-5)"/>
        <path id="Path_48899" data-name="Path 48899" d="M247.663,148.321H241.3a.3.3,0,0,1-.3-.3v-3.29a.3.3,0,0,1,.3-.3h6.366a.3.3,0,0,1,.3.3v3.29A.3.3,0,0,1,247.663,148.321Z" transform="translate(-227.176 -139.123)" fill="url(#linear-gradient-6)"/>
      </g>
    </g>
    <path id="Path_48900" data-name="Path 48900" d="M50.008,38.849a.823.823,0,0,0-1.159.072.7.7,0,0,0-.083.87l-.18.252-2.946-2.9a.788.788,0,0,0-.7-.354.727.727,0,0,0-.745.782.76.76,0,0,0,.316.7,1.2,1.2,0,0,0,.2.231v.415a5.03,5.03,0,0,0-1,.152,1.084,1.084,0,0,0-.186-.146.643.643,0,0,0-.836-.258.6.6,0,0,0-.311.824c.011.027.025.089.039.114q-.207.122-.4.263c-.007,0-.991-1.014-.991-1.014a.779.779,0,0,0-1.122.075.733.733,0,0,0-.037,1.084s1.047.983,1.051.991a6.028,6.028,0,0,0-.342.513c-.025-.014-.087-.064-.114-.075a.6.6,0,0,0-.818.326.642.642,0,0,0,.263.826,1.053,1.053,0,0,0,.156.2,5.032,5.032,0,0,0-.092.906l-.452.037a1.414,1.414,0,0,0-.231-.24.787.787,0,0,0-.7-.353.757.757,0,0,0-.782.782.788.788,0,0,0,.354.7L41.032,47.6l-.217.145a.819.819,0,0,0-.942.155.736.736,0,0,0,0,1.087L61.26,70.371H69a2.354,2.354,0,0,1-2.354-2.354V55.506Z" transform="translate(-35.103 -34.477)" fill="url(#linear-gradient-7)"/>
    <g id="Group_18179" data-name="Group 18179" transform="translate(2.672 2.274)">
      <g id="Group_18163" data-name="Group 18163" transform="translate(10.856 6.347)">
        <path id="Path_48901" data-name="Path 48901" d="M188.8,132.863a.263.263,0,0,1,.263-.263h1.866a.263.263,0,0,1,0,.527h-1.866A.263.263,0,0,1,188.8,132.863Z" transform="translate(-188.801 -132.044)" fill="url(#linear-gradient-8)"/>
        <ellipse id="Ellipse_95" data-name="Ellipse 95" cx="0.82" cy="0.82" rx="0.82" ry="0.82" transform="translate(1.837)" fill="url(#linear-gradient-9)"/>
      </g>
      <g id="Group_18164" data-name="Group 18164" transform="translate(9.698 1.859)">
        <path id="Path_48902" data-name="Path 48902" d="M172.716,76.937a.263.263,0,0,1,0-.373l1.319-1.32a.263.263,0,0,1,.373.373l-1.32,1.32A.263.263,0,0,1,172.716,76.937Z" transform="translate(-172.639 -74.239)" fill="url(#linear-gradient-10)"/>
        <ellipse id="Ellipse_96" data-name="Ellipse 96" cx="0.82" cy="0.82" rx="0.82" ry="0.82" transform="translate(1.136)" fill="url(#linear-gradient-11)"/>
      </g>
      <g id="Group_18165" data-name="Group 18165" transform="translate(9.698 9.698)">
        <path id="Path_48903" data-name="Path 48903" d="M172.717,171.693a.263.263,0,0,1,.373,0l1.32,1.32a.263.263,0,0,1-.373.373l-1.32-1.319A.264.264,0,0,1,172.717,171.693Z" transform="translate(-172.64 -171.616)" fill="url(#linear-gradient-12)"/>
        <ellipse id="Ellipse_97" data-name="Ellipse 97" cx="0.82" cy="0.82" rx="0.82" ry="0.82" transform="translate(1.136 1.136)" fill="url(#linear-gradient-13)"/>
      </g>
      <g id="Group_18166" data-name="Group 18166" transform="translate(6.347)">
        <path id="Path_48904" data-name="Path 48904" d="M133.887,53.773a.263.263,0,0,1-.263-.263V51.643a.263.263,0,1,1,.527,0v1.866A.263.263,0,0,1,133.887,53.773Z" transform="translate(-133.068 -50.297)" fill="url(#linear-gradient-14)"/>
        <ellipse id="Ellipse_98" data-name="Ellipse 98" cx="0.82" cy="0.82" rx="0.82" ry="0.82" fill="url(#linear-gradient-15)"/>
      </g>
      <g id="Group_18167" data-name="Group 18167" transform="translate(6.347 10.856)">
        <path id="Path_48905" data-name="Path 48905" d="M133.887,187.777a.263.263,0,0,1,.263.263v1.866a.263.263,0,1,1-.527,0V188.04A.263.263,0,0,1,133.887,187.777Z" transform="translate(-133.068 -187.777)" fill="url(#linear-gradient-16)"/>
        <ellipse id="Ellipse_99" data-name="Ellipse 99" cx="0.82" cy="0.82" rx="0.82" ry="0.82" transform="translate(0 1.837)" fill="url(#linear-gradient-17)"/>
      </g>
      <g id="Group_18168" data-name="Group 18168" transform="translate(0 6.347)">
        <path id="Path_48906" data-name="Path 48906" d="M54.8,132.863a.263.263,0,0,1-.263.263H52.666a.263.263,0,1,1,0-.527h1.866A.263.263,0,0,1,54.8,132.863Z" transform="translate(-51.32 -132.044)" fill="url(#linear-gradient-18)"/>
        <ellipse id="Ellipse_100" data-name="Ellipse 100" cx="0.82" cy="0.82" rx="0.82" ry="0.82" fill="url(#linear-gradient-19)"/>
      </g>
      <g id="Group_18169" data-name="Group 18169" transform="translate(1.859 9.698)">
        <path id="Path_48907" data-name="Path 48907" d="M77.961,171.693a.263.263,0,0,1,0,.373l-1.319,1.319a.263.263,0,0,1-.373-.373l1.319-1.32A.263.263,0,0,1,77.961,171.693Z" transform="translate(-75.263 -171.616)" fill="url(#linear-gradient-20)"/>
        <ellipse id="Ellipse_101" data-name="Ellipse 101" cx="0.82" cy="0.82" rx="0.82" ry="0.82" transform="translate(0 1.136)" fill="url(#linear-gradient-21)"/>
      </g>
      <g id="Group_18170" data-name="Group 18170" transform="translate(1.859 1.859)">
        <path id="Path_48908" data-name="Path 48908" d="M77.96,76.937a.263.263,0,0,1-.373,0l-1.32-1.32a.263.263,0,0,1,.373-.373l1.319,1.32A.263.263,0,0,1,77.96,76.937Z" transform="translate(-75.262 -74.239)" fill="url(#linear-gradient-22)"/>
        <ellipse id="Ellipse_102" data-name="Ellipse 102" cx="0.82" cy="0.82" rx="0.82" ry="0.82" fill="url(#linear-gradient-23)"/>
      </g>
      <ellipse id="Ellipse_103" data-name="Ellipse 103" cx="5.047" cy="5.047" rx="5.047" ry="5.047" transform="translate(2.12 2.12)" fill="url(#linear-gradient-24)"/>
      <path id="Path_48909" data-name="Path 48909" d="M155.519,71.68l-.762,1.891a3.015,3.015,0,0,1,1.569,1.487l1.823-.729A5.064,5.064,0,0,0,155.519,71.68Z" transform="translate(-146.34 -69.142)" fill="url(#linear-gradient-25)"/>
      <path id="Path_48910" data-name="Path 48910" d="M77.737,117.4a5.049,5.049,0,0,0,4.7-6.893l-9.3,3.931A5.047,5.047,0,0,0,77.737,117.4Z" transform="translate(-70.571 -105.185)" fill="url(#linear-gradient-26)"/>
      <g id="Group_18171" data-name="Group 18171" transform="translate(8.144 1.79)">
        <path id="Path_48911" data-name="Path 48911" d="M151.074,74.729a.211.211,0,0,1-.117-.275l.561-1.388a.211.211,0,1,1,.392.158l-.561,1.388A.211.211,0,0,1,151.074,74.729Z" transform="translate(-150.942 -72.096)" fill="url(#linear-gradient-27)"/>
        <ellipse id="Ellipse_104" data-name="Ellipse 104" cx="0.657" cy="0.657" rx="0.657" ry="0.657" transform="translate(0.274)" fill="url(#linear-gradient-28)"/>
      </g>
      <g id="Group_18172" data-name="Group 18172" transform="translate(9.895 8.144)">
        <path id="Path_48912" data-name="Path 48912" d="M175.394,150.05a.211.211,0,0,1,.275-.117l1.388.561a.211.211,0,1,1-.158.392l-1.388-.561A.211.211,0,0,1,175.394,150.05Z" transform="translate(-175.378 -149.918)" fill="url(#linear-gradient-29)"/>
        <ellipse id="Ellipse_105" data-name="Ellipse 105" cx="0.657" cy="0.657" rx="0.657" ry="0.657" transform="translate(1.333 0.274)" fill="url(#linear-gradient-30)"/>
      </g>
      <g id="Group_18173" data-name="Group 18173" transform="translate(9.874 4.521)">
        <path id="Path_48913" data-name="Path 48913" d="M175.11,108.769a.211.211,0,0,1,.112-.277l1.378-.584a.211.211,0,1,1,.165.389l-1.378.584A.211.211,0,0,1,175.11,108.769Z" transform="translate(-175.093 -107.28)" fill="url(#linear-gradient-31)"/>
        <ellipse id="Ellipse_106" data-name="Ellipse 106" cx="0.657" cy="0.657" rx="0.657" ry="0.657" transform="translate(1.321)" fill="url(#linear-gradient-32)"/>
      </g>
      <g id="Group_18174" data-name="Group 18174" transform="translate(8.193 9.874)">
        <path id="Path_48914" data-name="Path 48914" d="M151.758,174.087a.211.211,0,0,1,.277.112l.584,1.378a.211.211,0,1,1-.389.165l-.584-1.378A.211.211,0,0,1,151.758,174.087Z" transform="translate(-151.63 -174.07)" fill="url(#linear-gradient-33)"/>
        <ellipse id="Ellipse_107" data-name="Ellipse 107" cx="0.657" cy="0.657" rx="0.657" ry="0.657" transform="translate(0.303 1.321)" fill="url(#linear-gradient-34)"/>
      </g>
      <g id="Group_18175" data-name="Group 18175" transform="translate(4.6 9.895)">
        <path id="Path_48915" data-name="Path 48915" d="M110.78,174.37a.211.211,0,0,1,.117.275l-.561,1.388a.211.211,0,1,1-.392-.158l.561-1.388A.211.211,0,0,1,110.78,174.37Z" transform="translate(-109.323 -174.355)" fill="url(#linear-gradient-35)"/>
        <ellipse id="Ellipse_108" data-name="Ellipse 108" cx="0.657" cy="0.657" rx="0.657" ry="0.657" transform="translate(0 1.333)" fill="url(#linear-gradient-36)"/>
      </g>
      <path id="Path_48916" data-name="Path 48916" d="M69.1,110.278l1.858,1.858s-.176-1.253.285-1.695l-1.929-.8Z" transform="translate(-66.821 -104.385)" fill="url(#linear-gradient-37)"/>
      <g id="Group_18176" data-name="Group 18176" transform="translate(1.79 4.6)">
        <path id="Path_48917" data-name="Path 48917" d="M75.752,109.756a.211.211,0,0,1-.275.117l-1.388-.561a.211.211,0,0,1,.158-.392l1.388.561A.211.211,0,0,1,75.752,109.756Z" transform="translate(-73.119 -108.3)" fill="url(#linear-gradient-38)"/>
        <ellipse id="Ellipse_109" data-name="Ellipse 109" cx="0.657" cy="0.657" rx="0.657" ry="0.657" fill="url(#linear-gradient-39)"/>
      </g>
      <g id="Group_18177" data-name="Group 18177" transform="translate(1.823 8.193)">
        <path id="Path_48918" data-name="Path 48918" d="M76.161,150.735a.211.211,0,0,1-.112.277l-1.378.584a.211.211,0,0,1-.165-.389l1.378-.584A.211.211,0,0,1,76.161,150.735Z" transform="translate(-73.542 -150.606)" fill="url(#linear-gradient-40)"/>
        <ellipse id="Ellipse_110" data-name="Ellipse 110" cx="0.657" cy="0.657" rx="0.657" ry="0.657" transform="translate(0 0.303)" fill="url(#linear-gradient-41)"/>
      </g>
      <path id="Path_48919" data-name="Path 48919" d="M109.943,68.627l.8,1.827a3.471,3.471,0,0,1,1.575-.265l-1.773-1.773A5,5,0,0,0,109.943,68.627Z" transform="translate(-104.737 -66.112)" fill="url(#linear-gradient-42)"/>
      <g id="Group_18178" data-name="Group 18178" transform="translate(4.521 1.822)">
        <path id="Path_48920" data-name="Path 48920" d="M109.793,75.138a.211.211,0,0,1-.277-.112l-.584-1.378a.211.211,0,0,1,.389-.165l.584,1.378A.211.211,0,0,1,109.793,75.138Z" transform="translate(-108.304 -72.519)" fill="url(#linear-gradient-43)"/>
        <ellipse id="Ellipse_111" data-name="Ellipse 111" cx="0.657" cy="0.657" rx="0.657" ry="0.657" fill="url(#linear-gradient-44)"/>
      </g>
      <ellipse id="Ellipse_112" data-name="Ellipse 112" cx="3.215" cy="3.215" rx="3.215" ry="3.215" transform="translate(3.952 3.952)" fill="url(#linear-gradient-45)"/>
    </g>
  </g>
</svg>
