<svg id="Group_24116" data-name="Group 24116" xmlns="http://www.w3.org/2000/svg" width="40" height="40" viewBox="0 0 40 40">
  <rect id="Rectangle_4599" data-name="Rectangle 4599" width="40" height="40" fill="#fff"/>
  <g id="noun_education_3406896" transform="translate(6 12)">
    <g id="Group_24114" data-name="Group 24114">
      <path id="Path_49523" data-name="Path 49523" d="M30.477,52.79a4.834,4.834,0,0,1-1.112-.146L22.4,50.8v5a.943.943,0,0,0,.527.849,17.6,17.6,0,0,0,7.55,1.434,17.144,17.144,0,0,0,7.55-1.434.977.977,0,0,0,.527-.849v-5l-6.965,1.844A4.834,4.834,0,0,1,30.477,52.79Z" transform="translate(-16.554 -43.045)" fill="#9b9b9b"/>
      <path id="Path_49524" data-name="Path 49524" d="M29.868,27.812,16.991,24.388a2.513,2.513,0,0,0-1.317,0L2.8,27.812a.5.5,0,0,0,0,.966L15.675,32.2a2.513,2.513,0,0,0,1.317,0l9.745-2.575v3.541a1.43,1.43,0,0,0-.936,1.317,1.4,1.4,0,0,0,2.809,0,1.39,1.39,0,0,0-.936-1.317v-3.8l2.166-.585A.5.5,0,0,0,29.868,27.812Z" transform="translate(-2.425 -24.3)" fill="#9b9b9b"/>
    </g>
  </g>
</svg>
