<svg xmlns="http://www.w3.org/2000/svg" width="31.549" height="29.577" viewBox="0 0 31.549 29.577">
  <g id="first-aid-kit" transform="translate(0 0)">
    <path id="Path_48814" data-name="Path 48814" d="M137.637,18.773v3.7a.924.924,0,1,1-1.849,0v-3.7a.915.915,0,0,0-.924-.924H123.773a.915.915,0,0,0-.924.924v3.7a.924.924,0,1,1-1.849,0v-3.7A2.769,2.769,0,0,1,123.773,16h11.091A2.769,2.769,0,0,1,137.637,18.773Z" transform="translate(-113.544 -16)" fill="#e2dff4"/>
    <path id="Path_48815" data-name="Path 48815" d="M264.319,18.773v3.7a.924.924,0,0,1-1.849,0v-3.7a.915.915,0,0,0-.924-.924H256V16h5.546A2.769,2.769,0,0,1,264.319,18.773Z" transform="translate(-240.226 -16)" fill="#bebcdd"/>
    <path id="Path_48816" data-name="Path 48816" d="M71,107.849v20.334l-.924,1.849H45.924L45,128.183V107.849L45.924,106H70.079Z" transform="translate(-42.227 -100.454)" fill="#f3f5f9"/>
    <path id="Path_48817" data-name="Path 48817" d="M269,107.849v20.334l-.924,1.849H256V106h12.077Z" transform="translate(-240.226 -100.454)" fill="#e2dff4"/>
    <path id="Path_48818" data-name="Path 48818" d="M157.47,196a6.47,6.47,0,1,0,6.47,6.47A6.477,6.477,0,0,0,157.47,196Z" transform="translate(-141.696 -184.909)" fill="#ff6b6b"/>
    <path id="Path_48819" data-name="Path 48819" d="M262.47,202.47a6.477,6.477,0,0,1-6.47,6.47V196A6.477,6.477,0,0,1,262.47,202.47Z" transform="translate(-240.226 -184.909)" fill="#e62e77"/>
    <path id="Path_48820" data-name="Path 48820" d="M452.924,106H452v24.031h.924a2.776,2.776,0,0,0,2.773-2.773V108.773A2.776,2.776,0,0,0,452.924,106Z" transform="translate(-424.149 -100.454)" fill="#e62e77"/>
    <path id="Path_48821" data-name="Path 48821" d="M2.773,106A2.776,2.776,0,0,0,0,108.773v18.486a2.776,2.776,0,0,0,2.773,2.773H3.7V106Z" transform="translate(0 -100.454)" fill="#ff6b6b"/>
    <path id="Path_48822" data-name="Path 48822" d="M216.546,258.773a.915.915,0,0,1-.924.924H214.7v.924a.924.924,0,0,1-1.849,0V259.7h-.924a.924.924,0,1,1,0-1.849h.924v-.924a.924.924,0,1,1,1.849,0v.924h.924A.915.915,0,0,1,216.546,258.773Z" transform="translate(-197.999 -241.212)" fill="#f3f5f9"/>
    <path id="Path_48823" data-name="Path 48823" d="M258.773,258.773a.915.915,0,0,1-.924.924h-.924v.924a.915.915,0,0,1-.924.924V256a.915.915,0,0,1,.924.924v.924h.924A.915.915,0,0,1,258.773,258.773Z" transform="translate(-240.226 -241.212)" fill="#e2dff4"/>
  </g>
</svg>
