<svg xmlns="http://www.w3.org/2000/svg" width="30.985" height="16.863" viewBox="0 0 30.985 16.863">
  <g id="noun_View_2462850" transform="translate(-5 -25.51)">
    <path id="Path_49537" data-name="Path 49537" d="M20.493,25.51c-7.412,0-13.628,6.129-15.3,7.935a.727.727,0,0,0,0,.99c1.67,1.806,7.887,7.938,15.3,7.938s13.628-6.132,15.3-7.938a.727.727,0,0,0,0-.99C34.121,31.64,27.9,25.51,20.493,25.51Zm0,13.835a5.4,5.4,0,1,1,5.4-5.4,5.4,5.4,0,0,1-5.4,5.4Z" transform="translate(0 0)" fill="#16135a"/>
    <circle id="Ellipse_170" data-name="Ellipse 170" cx="3.338" cy="3.338" r="3.338" transform="translate(17.154 30.603)" fill="#16135a"/>
  </g>
</svg>
