<svg id="pizza" xmlns="http://www.w3.org/2000/svg" xmlns:xlink="http://www.w3.org/1999/xlink" width="36.159" height="31.356" viewBox="0 0 36.159 31.356">
  <defs>
    <linearGradient id="linear-gradient" x1="0.444" y1="0.531" x2="0.5" y2="0.687" gradientUnits="objectBoundingBox">
      <stop offset="0" stop-color="#faa68e"/>
      <stop offset="0.206" stop-color="#fba682"/>
      <stop offset="0.581" stop-color="#fda861"/>
      <stop offset="1" stop-color="#ffa936"/>
    </linearGradient>
    <linearGradient id="linear-gradient-2" x1="0.503" y1="0.506" x2="0.455" y2="0.222" gradientUnits="objectBoundingBox">
      <stop offset="0" stop-color="#f82814" stop-opacity="0"/>
      <stop offset="0.245" stop-color="#f12817" stop-opacity="0.243"/>
      <stop offset="0.605" stop-color="#dd2820" stop-opacity="0.604"/>
      <stop offset="1" stop-color="#c0272d"/>
    </linearGradient>
    <linearGradient id="linear-gradient-3" x1="0.295" y1="0.357" x2="0.538" y2="0.735" gradientUnits="objectBoundingBox">
      <stop offset="0" stop-color="#ffd945"/>
      <stop offset="0.304" stop-color="#ffcd3e"/>
      <stop offset="0.856" stop-color="#ffad2b"/>
      <stop offset="1" stop-color="#ffa325"/>
    </linearGradient>
    <linearGradient id="linear-gradient-4" x1="0.481" y1="0.424" x2="0.603" y2="0.224" gradientUnits="objectBoundingBox">
      <stop offset="0" stop-color="#f82814" stop-opacity="0"/>
      <stop offset="1" stop-color="#c0272d"/>
    </linearGradient>
    <linearGradient id="linear-gradient-5" x1="0.528" y1="0.448" x2="-0.226" y2="-0.64" xlink:href="#linear-gradient-4"/>
    <linearGradient id="linear-gradient-6" x1="0.475" y1="0.467" x2="0.055" y2="-0.508" xlink:href="#linear-gradient-4"/>
    <linearGradient id="linear-gradient-7" x1="0.551" y1="0.508" x2="0.169" y2="-0.353" xlink:href="#linear-gradient-4"/>
    <linearGradient id="linear-gradient-8" x1="0.615" y1="0.608" x2="0.258" y2="-0.125" xlink:href="#linear-gradient-4"/>
    <linearGradient id="linear-gradient-9" x1="0.393" y1="0.133" x2="0.607" y2="0.869" gradientUnits="objectBoundingBox">
      <stop offset="0" stop-color="#bada00"/>
      <stop offset="0.227" stop-color="#b0ce00"/>
      <stop offset="0.638" stop-color="#95ae00"/>
      <stop offset="1" stop-color="#798c00"/>
    </linearGradient>
    <linearGradient id="linear-gradient-10" x1="256.866" y1="-388.342" x2="258.25" y2="-386.422" gradientUnits="objectBoundingBox">
      <stop offset="0" stop-color="#798c00" stop-opacity="0"/>
      <stop offset="0.654" stop-color="#556100" stop-opacity="0.655"/>
      <stop offset="1" stop-color="#464f00"/>
    </linearGradient>
    <linearGradient id="linear-gradient-11" x1="327.674" y1="-495.304" x2="329.059" y2="-493.384" xlink:href="#linear-gradient-10"/>
    <linearGradient id="linear-gradient-12" x1="536.196" y1="-822.649" x2="537.58" y2="-820.729" xlink:href="#linear-gradient-10"/>
    <linearGradient id="linear-gradient-14" x1="282.146" y1="-411.487" x2="283.53" y2="-409.568" xlink:href="#linear-gradient-10"/>
    <linearGradient id="linear-gradient-15" x1="359.701" y1="-524.63" x2="361.086" y2="-522.71" xlink:href="#linear-gradient-10"/>
    <linearGradient id="linear-gradient-16" x1="589.319" y1="-871.288" x2="590.704" y2="-869.369" xlink:href="#linear-gradient-10"/>
    <linearGradient id="linear-gradient-18" x1="249.728" y1="-417.049" x2="251.113" y2="-415.13" xlink:href="#linear-gradient-10"/>
    <linearGradient id="linear-gradient-19" x1="318.632" y1="-531.676" x2="320.016" y2="-529.757" xlink:href="#linear-gradient-10"/>
    <linearGradient id="linear-gradient-20" x1="521.198" y1="-882.976" x2="522.582" y2="-881.057" xlink:href="#linear-gradient-10"/>
    <linearGradient id="linear-gradient-22" x1="204.013" y1="-401.194" x2="205.398" y2="-399.275" xlink:href="#linear-gradient-10"/>
    <linearGradient id="linear-gradient-23" x1="260.714" y1="-511.587" x2="262.099" y2="-509.667" xlink:href="#linear-gradient-10"/>
    <linearGradient id="linear-gradient-24" x1="425.133" y1="-849.656" x2="426.518" y2="-847.737" xlink:href="#linear-gradient-10"/>
    <linearGradient id="linear-gradient-26" x1="257.253" y1="-362.13" x2="258.637" y2="-360.211" xlink:href="#linear-gradient-10"/>
    <linearGradient id="linear-gradient-27" x1="328.164" y1="-462.097" x2="329.548" y2="-460.177" xlink:href="#linear-gradient-10"/>
    <linearGradient id="linear-gradient-28" x1="537.009" y1="-767.571" x2="538.393" y2="-765.651" xlink:href="#linear-gradient-10"/>
    <linearGradient id="linear-gradient-29" x1="7.69" y1="1.614" x2="7.902" y2="2.188" gradientUnits="objectBoundingBox">
      <stop offset="0" stop-color="#ffdecf"/>
      <stop offset="0.379" stop-color="#fdc4b0"/>
      <stop offset="0.766" stop-color="#fbae97"/>
      <stop offset="1" stop-color="#faa68e"/>
    </linearGradient>
    <linearGradient id="linear-gradient-30" x1="3.563" y1="-35.47" x2="3.769" y2="-34.893" xlink:href="#linear-gradient-29"/>
    <linearGradient id="linear-gradient-31" x1="0.415" y1="0.279" x2="0.884" y2="1.274" gradientUnits="objectBoundingBox">
      <stop offset="0" stop-color="#a57c52"/>
      <stop offset="0.134" stop-color="#a26c4a"/>
      <stop offset="0.516" stop-color="#994336"/>
      <stop offset="0.817" stop-color="#942a2a"/>
      <stop offset="1" stop-color="#922125"/>
    </linearGradient>
    <linearGradient id="linear-gradient-32" x1="10.738" y1="2.411" x2="10.95" y2="2.984" xlink:href="#linear-gradient-29"/>
    <linearGradient id="linear-gradient-33" x1="5.276" y1="-48.72" x2="5.481" y2="-48.143" xlink:href="#linear-gradient-29"/>
    <linearGradient id="linear-gradient-34" x1="0.343" y1="0.204" x2="0.965" y2="1.545" xlink:href="#linear-gradient-31"/>
    <linearGradient id="linear-gradient-35" x1="0.393" y1="0.133" x2="0.607" y2="0.869" gradientUnits="objectBoundingBox">
      <stop offset="0" stop-color="#ff6359"/>
      <stop offset="0.224" stop-color="#fe5b50"/>
      <stop offset="0.595" stop-color="#fc4637"/>
      <stop offset="1" stop-color="#f82814"/>
    </linearGradient>
    <linearGradient id="linear-gradient-36" x1="120.151" y1="-208.275" x2="121.536" y2="-206.355" xlink:href="#linear-gradient-2"/>
    <linearGradient id="linear-gradient-37" x1="154.428" y1="-267.106" x2="155.813" y2="-265.187" xlink:href="#linear-gradient-2"/>
    <linearGradient id="linear-gradient-38" x1="248.869" y1="-444.196" x2="250.254" y2="-442.277" xlink:href="#linear-gradient-2"/>
    <linearGradient id="linear-gradient-40" x1="146.217" y1="-220.633" x2="147.601" y2="-218.714" xlink:href="#linear-gradient-2"/>
    <linearGradient id="linear-gradient-41" x1="187.442" y1="-282.76" x2="188.827" y2="-280.84" xlink:href="#linear-gradient-2"/>
    <linearGradient id="linear-gradient-42" x1="303.634" y1="-470.162" x2="305.018" y2="-468.242" xlink:href="#linear-gradient-2"/>
    <linearGradient id="linear-gradient-44" x1="0.869" y1="1.246" x2="-0.143" y2="-1.284" xlink:href="#linear-gradient-10"/>
    <linearGradient id="linear-gradient-45" x1="9.684" y1="1.018" x2="9.895" y2="1.592" xlink:href="#linear-gradient-29"/>
    <linearGradient id="linear-gradient-46" x1="2.229" y1="-44.51" x2="2.434" y2="-43.933" xlink:href="#linear-gradient-29"/>
    <linearGradient id="linear-gradient-47" x1="0.297" y1="-0.07" x2="0.529" y2="0.58" gradientUnits="objectBoundingBox">
      <stop offset="0" stop-color="#8a7889"/>
      <stop offset="0.334" stop-color="#867385"/>
      <stop offset="0.704" stop-color="#7b667b"/>
      <stop offset="1" stop-color="#6e566e"/>
    </linearGradient>
    <linearGradient id="linear-gradient-49" x1="0.297" y1="-0.07" x2="0.529" y2="0.58" xlink:href="#linear-gradient-47"/>
    <linearGradient id="linear-gradient-52" x1="145.974" y1="-205.322" x2="147.359" y2="-203.402" xlink:href="#linear-gradient-2"/>
    <linearGradient id="linear-gradient-53" x1="187.135" y1="-263.366" x2="188.52" y2="-261.446" xlink:href="#linear-gradient-2"/>
    <linearGradient id="linear-gradient-54" x1="303.125" y1="-437.991" x2="304.509" y2="-436.071" xlink:href="#linear-gradient-2"/>
    <linearGradient id="linear-gradient-56" x1="0.566" y1="0.371" x2="0.448" y2="0.6" xlink:href="#linear-gradient"/>
  </defs>
  <path id="Path_48686" data-name="Path 48686" d="M26.33,97.9s-10.985,6.721-15.046,24.984a1.5,1.5,0,0,0,2.364,1.526,68.467,68.467,0,0,1,29.545-12.555,2.3,2.3,0,0,0,1.569-3.506C42.6,104.951,37.531,99.715,26.33,97.9Z" transform="translate(-10.448 -93.362)" fill="url(#linear-gradient)"/>
  <path id="Path_48687" data-name="Path 48687" d="M44.728,244.7a68.362,68.362,0,0,0-32.274,12.943,1.477,1.477,0,0,1-.863.305c-.108.437-.214.879-.314,1.33a1.5,1.5,0,0,0,2.365,1.524,68.466,68.466,0,0,1,29.552-12.556,2.3,2.3,0,0,0,1.569-3.492Z" transform="translate(-10.442 -229.753)" fill="url(#linear-gradient-2)"/>
  <path id="Path_48688" data-name="Path 48688" d="M34.89,98.113s-2.861-10.27-19.981-12.644c0,0-10.934,6.627-14.874,24.21A1.479,1.479,0,0,0,2.409,111.1c.423-.314.887-.649,1.392-1a.954.954,0,0,1,1.5.782v.055a1.476,1.476,0,0,0,2.951,0v-1.546a3.666,3.666,0,0,1,1.911-3.22,71.671,71.671,0,0,1,10.2-4.565.954.954,0,0,1,1.275.9,1.476,1.476,0,0,0,2.951,0v-1.9a.477.477,0,0,1,.348-.459l.01,0a.479.479,0,0,1,.609.462v4.808a1.476,1.476,0,1,0,2.951,0v-4.1a2.544,2.544,0,0,1,2.054-2.5Q32.663,98.4,34.89,98.113Z" transform="translate(0 -81.811)" fill="url(#linear-gradient-3)"/>
  <path id="Path_48689" data-name="Path 48689" d="M147.819,85.47a25.111,25.111,0,0,0-4.767,4.157l13.964,13.964a1.47,1.47,0,0,0,.477-1.084v-1.9a.477.477,0,0,1,.348-.459l.01,0a.48.48,0,0,1,.609.462v4.428l1.815,1.815a1.475,1.475,0,0,0,1.136-1.435v-4.1a2.544,2.544,0,0,1,2.054-2.5q2.108-.409,4.335-.7S164.939,87.843,147.819,85.47Z" transform="translate(-132.91 -81.812)" fill="url(#linear-gradient-4)"/>
  <path id="Path_48690" data-name="Path 48690" d="M164.4,116.414a3.411,3.411,0,0,0-.5-.465,4.977,4.977,0,0,0-5.666,0,2.509,2.509,0,0,0-.23,4.082l11.4,11.4A1.475,1.475,0,0,0,170.5,130v-1.9a.477.477,0,0,1,.348-.459l.01,0a.479.479,0,0,1,.609.462v4.808a1.469,1.469,0,0,0,.331.931,3.437,3.437,0,0,0,.332.3,1.475,1.475,0,0,0,2.288-1.231v-4.1a2.55,2.55,0,0,1,.659-1.712Z" transform="translate(-145.919 -109.309)" fill="url(#linear-gradient-5)"/>
  <path id="Path_48691" data-name="Path 48691" d="M107.646,187.265A3.511,3.511,0,0,0,105,186.219c-1.707,0-3.091.975-3.091,2.178a1.819,1.819,0,0,0,.675,1.357l7.444,7.467c1.569-.7,3.242-1.374,5.014-2.007a.944.944,0,0,1,.483-.041Z" transform="translate(-94.688 -175.418)" fill="url(#linear-gradient-6)"/>
  <path id="Path_48692" data-name="Path 48692" d="M216.508,212.753a3.541,3.541,0,0,0-2.6-1c-1.707,0-3.091.975-3.091,2.178,0,.049,0,.1.008.146a4.287,4.287,0,0,0-4.378.289,2.139,2.139,0,0,0-.227,3.457l2.192,2.192q1.368-.555,2.827-1.077a.954.954,0,0,1,1.275.9,1.475,1.475,0,1,0,2.951,0v-1.9a.477.477,0,0,1,.348-.459l.01,0a.479.479,0,0,1,.609.462v4.808a1.475,1.475,0,1,0,2.951,0v-4.1a2.551,2.551,0,0,1,.994-2.021Z" transform="translate(-190.876 -199.137)" fill="url(#linear-gradient-7)"/>
  <path id="Path_48693" data-name="Path 48693" d="M45.2,296.36l-2.536-2.536a3.541,3.541,0,0,0-2.6-1.005,3.226,3.226,0,0,0-2.908,1.439,4.274,4.274,0,0,0-3.784.54,2.139,2.139,0,0,0-.227,3.457l5.183,5.183v-1.4a3.666,3.666,0,0,1,1.911-3.22C41.743,298,43.4,297.165,45.2,296.36Z" transform="translate(-30.069 -274.46)" fill="url(#linear-gradient-8)"/>
  <g id="Group_18118" data-name="Group 18118" transform="translate(0.68 7.332)">
    <g id="Group_18114" data-name="Group 18114" transform="translate(5.085 7.246)">
      <path id="Path_48694" data-name="Path 48694" d="M91.295,250.81a.263.263,0,1,0-.355.109A.263.263,0,0,0,91.295,250.81Z" transform="translate(-90.128 -249.648)" fill="#ffeaa2"/>
      <path id="Path_48695" data-name="Path 48695" d="M81.621,257.044a.207.207,0,1,0,.086.28A.207.207,0,0,0,81.621,257.044Z" transform="translate(-81.316 -255.776)" fill="#ffeaa2"/>
      <path id="Path_48696" data-name="Path 48696" d="M86.422,272.421a.125.125,0,1,0,.052.169A.125.125,0,0,0,86.422,272.421Z" transform="translate(-85.889 -270.072)" fill="#ffeaa2"/>
      <path id="Path_48697" data-name="Path 48697" d="M110.577,277.482a.263.263,0,1,0,.255.27A.263.263,0,0,0,110.577,277.482Z" transform="translate(-108.251 -274.787)" fill="#ffeaa2"/>
      <path id="Path_48698" data-name="Path 48698" d="M130.6,251.271a.207.207,0,1,0,.2.213A.207.207,0,0,0,130.6,251.271Z" transform="translate(-126.909 -250.435)" fill="#ffeaa2"/>
      <path id="Path_48699" data-name="Path 48699" d="M104.534,252.382a.125.125,0,1,0,.121.129A.125.125,0,0,0,104.534,252.382Z" transform="translate(-102.768 -251.467)" fill="#ffeaa2"/>
      <path id="Path_48700" data-name="Path 48700" d="M98.421,267.511a.194.194,0,1,0,.232.146A.194.194,0,0,0,98.421,267.511Z" transform="translate(-97.068 -265.519)" fill="#ffeaa2"/>
      <path id="Path_48701" data-name="Path 48701" d="M101.9,259.88a.153.153,0,1,0,.183.115A.153.153,0,0,0,101.9,259.88Z" transform="translate(-100.333 -258.43)" fill="#ffeaa2"/>
      <path id="Path_48702" data-name="Path 48702" d="M93.2,261.769a.092.092,0,1,0-.111-.07A.092.092,0,0,0,93.2,261.769Z" transform="translate(-92.251 -260.019)" fill="#ffeaa2"/>
      <path id="Path_48703" data-name="Path 48703" d="M159.988,239.865a.263.263,0,1,0-.355.109A.263.263,0,0,0,159.988,239.865Z" transform="translate(-153.95 -239.479)" fill="#ffeaa2"/>
      <path id="Path_48704" data-name="Path 48704" d="M144.542,276.471a.207.207,0,1,0,.086.28A.207.207,0,0,0,144.542,276.471Z" transform="translate(-139.776 -273.825)" fill="#ffeaa2"/>
      <path id="Path_48705" data-name="Path 48705" d="M141.5,260.5a.125.125,0,1,0,.052.169A.125.125,0,0,0,141.5,260.5Z" transform="translate(-137.063 -258.998)" fill="#ffeaa2"/>
      <path id="Path_48706" data-name="Path 48706" d="M183.114,249.92a.263.263,0,1,0,.255.27A.263.263,0,0,0,183.114,249.92Z" transform="translate(-175.645 -249.179)" fill="#ffeaa2"/>
      <path id="Path_48707" data-name="Path 48707" d="M180.809,242.181a.207.207,0,1,0-.213.2A.207.207,0,0,0,180.809,242.181Z" transform="translate(-173.369 -241.791)" fill="#ffeaa2"/>
      <path id="Path_48708" data-name="Path 48708" d="M173.228,241.436a.125.125,0,1,0,.121.129A.125.125,0,0,0,173.228,241.436Z" transform="translate(-166.592 -241.298)" fill="#ffeaa2"/>
      <path id="Path_48709" data-name="Path 48709" d="M156.955,266.969a.194.194,0,1,0,.232.146A.194.194,0,0,0,156.955,266.969Z" transform="translate(-151.452 -265.015)" fill="#ffeaa2"/>
      <path id="Path_48710" data-name="Path 48710" d="M170.6,248.934a.153.153,0,1,0,.183.115A.153.153,0,0,0,170.6,248.934Z" transform="translate(-164.155 -248.261)" fill="#ffeaa2"/>
      <path id="Path_48711" data-name="Path 48711" d="M161.892,250.824a.092.092,0,1,0-.111-.07A.092.092,0,0,0,161.892,250.824Z" transform="translate(-156.074 -249.85)" fill="#ffeaa2"/>
    </g>
    <g id="Group_18115" data-name="Group 18115" transform="translate(12.68 0)">
      <path id="Path_48712" data-name="Path 48712" d="M198.407,299.313a.263.263,0,1,0-.355.109A.263.263,0,0,0,198.407,299.313Z" transform="translate(-197.24 -287.466)" fill="#ffeaa2"/>
      <path id="Path_48713" data-name="Path 48713" d="M188.733,305.547a.207.207,0,1,0,.086.28A.207.207,0,0,0,188.733,305.547Z" transform="translate(-188.428 -293.594)" fill="#ffeaa2"/>
      <path id="Path_48714" data-name="Path 48714" d="M193.535,320.924a.125.125,0,1,0,.052.169A.125.125,0,0,0,193.535,320.924Z" transform="translate(-193.002 -307.89)" fill="#ffeaa2"/>
      <path id="Path_48715" data-name="Path 48715" d="M217.69,325.985a.263.263,0,1,0,.255.27A.263.263,0,0,0,217.69,325.985Z" transform="translate(-215.364 -312.605)" fill="#ffeaa2"/>
      <path id="Path_48716" data-name="Path 48716" d="M381.739,240.91a.207.207,0,1,0-.1.276A.208.208,0,0,0,381.739,240.91Z" transform="translate(-367.666 -233.452)" fill="#ffeaa2"/>
      <path id="Path_48717" data-name="Path 48717" d="M211.647,300.885a.125.125,0,1,0,.121.129A.125.125,0,0,0,211.647,300.885Z" transform="translate(-209.881 -289.286)" fill="#ffeaa2"/>
      <path id="Path_48718" data-name="Path 48718" d="M205.533,316.014a.194.194,0,1,0,.232.146A.194.194,0,0,0,205.533,316.014Z" transform="translate(-204.18 -303.337)" fill="#ffeaa2"/>
      <path id="Path_48719" data-name="Path 48719" d="M209.015,308.383a.153.153,0,1,0,.183.115A.153.153,0,0,0,209.015,308.383Z" transform="translate(-207.445 -296.249)" fill="#ffeaa2"/>
      <path id="Path_48720" data-name="Path 48720" d="M200.31,310.272a.092.092,0,1,0-.111-.069A.092.092,0,0,0,200.31,310.272Z" transform="translate(-199.363 -297.837)" fill="#ffeaa2"/>
      <path id="Path_48721" data-name="Path 48721" d="M198.666,137.668a.263.263,0,1,0-.355.109A.263.263,0,0,0,198.666,137.668Z" transform="translate(-197.48 -137.282)" fill="#ffeaa2"/>
      <path id="Path_48722" data-name="Path 48722" d="M365.6,264.761a.207.207,0,1,0-.211.2A.207.207,0,0,0,365.6,264.761Z" transform="translate(-352.652 -255.527)" fill="#ffeaa2"/>
      <path id="Path_48723" data-name="Path 48723" d="M380,254.439a.125.125,0,1,0-.127.123A.125.125,0,0,0,380,254.439Z" transform="translate(-366.188 -246.014)" fill="#ffeaa2"/>
      <path id="Path_48724" data-name="Path 48724" d="M221.792,147.723a.263.263,0,1,0,.255.27A.263.263,0,0,0,221.792,147.723Z" transform="translate(-219.175 -146.982)" fill="#ffeaa2"/>
      <path id="Path_48725" data-name="Path 48725" d="M219.487,139.984a.207.207,0,1,0-.213.2A.207.207,0,0,0,219.487,139.984Z" transform="translate(-216.899 -139.594)" fill="#ffeaa2"/>
      <path id="Path_48726" data-name="Path 48726" d="M211.9,139.24a.125.125,0,1,0,.121.129A.125.125,0,0,0,211.9,139.24Z" transform="translate(-210.121 -139.101)" fill="#ffeaa2"/>
      <path id="Path_48727" data-name="Path 48727" d="M379.945,271.46a.194.194,0,1,0-.025.273A.194.194,0,0,0,379.945,271.46Z" transform="translate(-366.047 -261.882)" fill="#ffeaa2"/>
      <path id="Path_48728" data-name="Path 48728" d="M209.274,146.738a.153.153,0,1,0,.184.115A.153.153,0,0,0,209.274,146.738Z" transform="translate(-207.685 -146.064)" fill="#ffeaa2"/>
      <path id="Path_48729" data-name="Path 48729" d="M200.569,148.627a.092.092,0,1,0-.111-.07A.092.092,0,0,0,200.569,148.627Z" transform="translate(-199.603 -147.653)" fill="#ffeaa2"/>
    </g>
    <g id="Group_18116" data-name="Group 18116" transform="translate(14.481 3.694)">
      <path id="Path_48730" data-name="Path 48730" d="M305.716,217.893a.263.263,0,1,0,.362-.083A.263.263,0,0,0,305.716,217.893Z" transform="translate(-299.164 -215.757)" fill="#ffeaa2"/>
      <path id="Path_48731" data-name="Path 48731" d="M317.209,213.874a.207.207,0,1,0-.066-.286A.207.207,0,0,0,317.209,213.874Z" transform="translate(-309.79 -211.781)" fill="#ffeaa2"/>
      <path id="Path_48732" data-name="Path 48732" d="M315.609,200.424a.125.125,0,1,0-.039-.172A.125.125,0,0,0,315.609,200.424Z" transform="translate(-308.339 -199.426)" fill="#ffeaa2"/>
      <path id="Path_48733" data-name="Path 48733" d="M288.408,189.9a.263.263,0,1,0-.235-.288A.263.263,0,0,0,288.408,189.9Z" transform="translate(-282.902 -189.378)" fill="#ffeaa2"/>
      <path id="Path_48734" data-name="Path 48734" d="M267.942,216.1a.207.207,0,1,0-.186-.227A.207.207,0,0,0,267.942,216.1Z" transform="translate(-263.932 -213.822)" fill="#ffeaa2"/>
      <path id="Path_48735" data-name="Path 48735" d="M296.1,219.105a.125.125,0,1,0-.112-.137A.125.125,0,0,0,296.1,219.105Z" transform="translate(-290.162 -216.766)" fill="#ffeaa2"/>
      <path id="Path_48736" data-name="Path 48736" d="M301.543,202.581a.194.194,0,1,0-.221-.163A.194.194,0,0,0,301.543,202.581Z" transform="translate(-295.117 -201.287)" fill="#ffeaa2"/>
      <path id="Path_48737" data-name="Path 48737" d="M298.551,211.051a.153.153,0,1,0-.175-.128A.153.153,0,0,0,298.551,211.051Z" transform="translate(-292.381 -209.231)" fill="#ffeaa2"/>
      <path id="Path_48738" data-name="Path 48738" d="M308.905,211.445a.092.092,0,1,0,.105.077A.092.092,0,0,0,308.905,211.445Z" transform="translate(-302.092 -209.879)" fill="#ffeaa2"/>
      <path id="Path_48739" data-name="Path 48739" d="M236.413,223.857a.263.263,0,1,0,.362-.083A.263.263,0,0,0,236.413,223.857Z" transform="translate(-234.775 -221.298)" fill="#ffeaa2"/>
      <path id="Path_48740" data-name="Path 48740" d="M255.853,189.961a.207.207,0,1,0-.066-.286A.207.207,0,0,0,255.853,189.961Z" transform="translate(-252.784 -189.564)" fill="#ffeaa2"/>
      <path id="Path_48741" data-name="Path 48741" d="M259.814,208.34a.125.125,0,1,0-.04-.172A.125.125,0,0,0,259.814,208.34Z" transform="translate(-256.5 -206.781)" fill="#ffeaa2"/>
      <path id="Path_48742" data-name="Path 48742" d="M214.073,212.163a.263.263,0,1,0-.235-.288A.263.263,0,0,0,214.073,212.163Z" transform="translate(-213.837 -210.061)" fill="#ffeaa2"/>
      <path id="Path_48743" data-name="Path 48743" d="M217.209,221.547a.207.207,0,1,0,.227-.186A.207.207,0,0,0,217.209,221.547Z" transform="translate(-216.969 -219.093)" fill="#ffeaa2"/>
      <path id="Path_48744" data-name="Path 48744" d="M226.795,225.069a.125.125,0,1,0-.112-.137A.125.125,0,0,0,226.795,225.069Z" transform="translate(-225.771 -222.307)" fill="#ffeaa2"/>
      <path id="Path_48745" data-name="Path 48745" d="M243.122,198.9a.194.194,0,1,0-.221-.163A.194.194,0,0,0,243.122,198.9Z" transform="translate(-240.838 -197.868)" fill="#ffeaa2"/>
      <path id="Path_48746" data-name="Path 48746" d="M229.247,217.016a.153.153,0,1,0-.175-.128A.153.153,0,0,0,229.247,217.016Z" transform="translate(-227.991 -214.773)" fill="#ffeaa2"/>
      <path id="Path_48747" data-name="Path 48747" d="M239.6,217.41a.092.092,0,1,0,.105.077A.092.092,0,0,0,239.6,217.41Z" transform="translate(-237.702 -215.421)" fill="#ffeaa2"/>
    </g>
    <g id="Group_18117" data-name="Group 18117" transform="translate(0 16.705)">
      <path id="Path_48748" data-name="Path 48748" d="M96.024,392.24a.263.263,0,1,0,.3-.223A.263.263,0,0,0,96.024,392.24Z" transform="translate(-89.893 -390.659)" fill="#ffeaa2"/>
      <path id="Path_48749" data-name="Path 48749" d="M104.666,384.262a.207.207,0,1,0-.176-.235A.207.207,0,0,0,104.666,384.262Z" transform="translate(-97.76 -383.073)" fill="#ffeaa2"/>
      <path id="Path_48750" data-name="Path 48750" d="M97.4,373.148a.125.125,0,1,0-.106-.141A.125.125,0,0,0,97.4,373.148Z" transform="translate(-91.075 -372.899)" fill="#ffeaa2"/>
      <path id="Path_48751" data-name="Path 48751" d="M68.847,373.678a.263.263,0,1,0-.332-.168A.263.263,0,0,0,68.847,373.678Z" transform="translate(-64.325 -373.147)" fill="#ffeaa2"/>
      <path id="Path_48752" data-name="Path 48752" d="M60.538,406.285a.207.207,0,1,0-.262-.132A.207.207,0,0,0,60.538,406.285Z" transform="translate(-56.673 -403.542)" fill="#ffeaa2"/>
      <path id="Path_48753" data-name="Path 48753" d="M87.147,398.137a.125.125,0,1,0-.158-.08A.125.125,0,0,0,87.147,398.137Z" transform="translate(-81.495 -396.121)" fill="#ffeaa2"/>
      <path id="Path_48754" data-name="Path 48754" d="M85.709,380.382a.194.194,0,1,0-.268-.059A.194.194,0,0,0,85.709,380.382Z" transform="translate(-80.035 -379.519)" fill="#ffeaa2"/>
      <path id="Path_48755" data-name="Path 48755" d="M86.24,389.6a.153.153,0,1,0-.212-.046A.153.153,0,0,0,86.24,389.6Z" transform="translate(-80.586 -388.153)" fill="#ffeaa2"/>
      <path id="Path_48756" data-name="Path 48756" d="M95.608,386.151a.092.092,0,1,0,.128.028A.092.092,0,0,0,95.608,386.151Z" transform="translate(-89.47 -385.198)" fill="#ffeaa2"/>
      <path id="Path_48757" data-name="Path 48757" d="M35.1,425.809a.263.263,0,1,0,.3-.223A.263.263,0,0,0,35.1,425.809Z" transform="translate(-33.288 -421.848)" fill="#ffeaa2"/>
      <path id="Path_48758" data-name="Path 48758" d="M38.884,387.3a.207.207,0,1,0-.176-.235A.207.207,0,0,0,38.884,387.3Z" transform="translate(-36.642 -385.893)" fill="#ffeaa2"/>
      <path id="Path_48759" data-name="Path 48759" d="M49.616,403.019a.125.125,0,1,0-.106-.141A.125.125,0,0,0,49.616,403.019Z" transform="translate(-46.679 -400.652)" fill="#ffeaa2"/>
      <path id="Path_48760" data-name="Path 48760" d="M9.935,424.182a.263.263,0,1,0-.332-.168A.263.263,0,0,0,9.935,424.182Z" transform="translate(-9.59 -420.07)" fill="#ffeaa2"/>
      <path id="Path_48761" data-name="Path 48761" d="M16.378,431.845a.207.207,0,1,0,.132-.262A.207.207,0,0,0,16.378,431.845Z" transform="translate(-15.887 -427.413)" fill="#ffeaa2"/>
      <path id="Path_48762" data-name="Path 48762" d="M26.223,431.706a.125.125,0,1,0-.158-.08A.125.125,0,0,0,26.223,431.706Z" transform="translate(-24.891 -427.31)" fill="#ffeaa2"/>
      <path id="Path_48763" data-name="Path 48763" d="M30.819,400.721a.194.194,0,1,0-.268-.059A.194.194,0,0,0,30.819,400.721Z" transform="translate(-29.036 -398.416)" fill="#ffeaa2"/>
      <path id="Path_48764" data-name="Path 48764" d="M25.316,423.167a.153.153,0,1,0-.212-.046A.153.153,0,0,0,25.316,423.167Z" transform="translate(-23.981 -419.341)" fill="#ffeaa2"/>
      <path id="Path_48765" data-name="Path 48765" d="M34.684,419.72a.092.092,0,1,0,.128.028A.092.092,0,0,0,34.684,419.72Z" transform="translate(-32.865 -416.387)" fill="#ffeaa2"/>
    </g>
  </g>
  <g id="Group_18120" data-name="Group 18120" transform="translate(13.796 11.01)">
    <ellipse id="Ellipse_30" data-name="Ellipse 30" cx="1.628" cy="1.147" rx="1.628" ry="1.147" fill="url(#linear-gradient-9)"/>
    <g id="Group_18119" data-name="Group 18119" transform="translate(0.767 0.194)">
      <ellipse id="Ellipse_31" data-name="Ellipse 31" cx="0.26" cy="0.26" rx="0.26" ry="0.26" transform="translate(0.428)" fill="url(#linear-gradient-10)"/>
      <ellipse id="Ellipse_32" data-name="Ellipse 32" cx="0.205" cy="0.205" rx="0.205" ry="0.205" transform="translate(0 0.727)" fill="url(#linear-gradient-11)"/>
      <ellipse id="Ellipse_33" data-name="Ellipse 33" cx="0.124" cy="0.124" rx="0.124" ry="0.124" transform="translate(0.977 0.981)" fill="url(#linear-gradient-12)"/>
    </g>
  </g>
  <g id="Group_18122" data-name="Group 18122" transform="translate(7.054 16.85)">
    <ellipse id="Ellipse_34" data-name="Ellipse 34" cx="1.628" cy="1.147" rx="1.628" ry="1.147" fill="url(#linear-gradient-9)"/>
    <g id="Group_18121" data-name="Group 18121" transform="translate(0.767 0.194)">
      <ellipse id="Ellipse_35" data-name="Ellipse 35" cx="0.26" cy="0.26" rx="0.26" ry="0.26" transform="translate(0.428)" fill="url(#linear-gradient-14)"/>
      <ellipse id="Ellipse_36" data-name="Ellipse 36" cx="0.205" cy="0.205" rx="0.205" ry="0.205" transform="translate(0 0.727)" fill="url(#linear-gradient-15)"/>
      <ellipse id="Ellipse_37" data-name="Ellipse 37" cx="0.124" cy="0.124" rx="0.124" ry="0.124" transform="translate(0.977 0.981)" fill="url(#linear-gradient-16)"/>
    </g>
  </g>
  <g id="Group_18124" data-name="Group 18124" transform="translate(15.447 18.529)">
    <ellipse id="Ellipse_38" data-name="Ellipse 38" cx="1.628" cy="1.147" rx="1.628" ry="1.147" fill="url(#linear-gradient-9)"/>
    <g id="Group_18123" data-name="Group 18123" transform="translate(0.767 0.194)">
      <ellipse id="Ellipse_39" data-name="Ellipse 39" cx="0.26" cy="0.26" rx="0.26" ry="0.26" transform="translate(0.428)" fill="url(#linear-gradient-18)"/>
      <ellipse id="Ellipse_40" data-name="Ellipse 40" cx="0.205" cy="0.205" rx="0.205" ry="0.205" transform="translate(0 0.727)" fill="url(#linear-gradient-19)"/>
      <ellipse id="Ellipse_41" data-name="Ellipse 41" cx="0.124" cy="0.124" rx="0.124" ry="0.124" transform="translate(0.977 0.981)" fill="url(#linear-gradient-20)"/>
    </g>
  </g>
  <g id="Group_18126" data-name="Group 18126" transform="translate(27.452 14.732)">
    <ellipse id="Ellipse_42" data-name="Ellipse 42" cx="1.628" cy="1.147" rx="1.628" ry="1.147" fill="url(#linear-gradient-9)"/>
    <g id="Group_18125" data-name="Group 18125" transform="translate(0.767 0.194)">
      <ellipse id="Ellipse_43" data-name="Ellipse 43" cx="0.26" cy="0.26" rx="0.26" ry="0.26" transform="translate(0.428)" fill="url(#linear-gradient-22)"/>
      <ellipse id="Ellipse_44" data-name="Ellipse 44" cx="0.205" cy="0.205" rx="0.205" ry="0.205" transform="translate(0 0.727)" fill="url(#linear-gradient-23)"/>
      <ellipse id="Ellipse_45" data-name="Ellipse 45" cx="0.124" cy="0.124" rx="0.124" ry="0.124" transform="translate(0.977 0.981)" fill="url(#linear-gradient-24)"/>
    </g>
  </g>
  <g id="Group_18128" data-name="Group 18128" transform="translate(13.883 4.189)">
    <ellipse id="Ellipse_46" data-name="Ellipse 46" cx="1.628" cy="1.147" rx="1.628" ry="1.147" transform="translate(0 0)" fill="url(#linear-gradient-9)"/>
    <g id="Group_18127" data-name="Group 18127" transform="translate(0.767 0.194)">
      <ellipse id="Ellipse_47" data-name="Ellipse 47" cx="0.26" cy="0.26" rx="0.26" ry="0.26" transform="translate(0.428)" fill="url(#linear-gradient-26)"/>
      <ellipse id="Ellipse_48" data-name="Ellipse 48" cx="0.205" cy="0.205" rx="0.205" ry="0.205" transform="translate(0 0.727)" fill="url(#linear-gradient-27)"/>
      <ellipse id="Ellipse_49" data-name="Ellipse 49" cx="0.124" cy="0.124" rx="0.124" ry="0.124" transform="translate(0.977 0.981)" fill="url(#linear-gradient-28)"/>
    </g>
  </g>
  <g id="Group_18129" data-name="Group 18129" transform="translate(11.135 5.756)">
    <path id="Path_48766" data-name="Path 48766" d="M163.887,115.95a4.977,4.977,0,0,0-5.666,0,2.531,2.531,0,0,0,0,4.272,4.977,4.977,0,0,0,5.666,0A2.531,2.531,0,0,0,163.887,115.95Zm-4.632,2.9a1.315,1.315,0,0,1,0-2.37,3.542,3.542,0,0,1,3.6,0,1.315,1.315,0,0,1,0,2.369A3.543,3.543,0,0,1,159.255,118.854Z" transform="translate(-157.048 -115.065)" fill="url(#linear-gradient-29)"/>
    <path id="Path_48767" data-name="Path 48767" d="M167.525,124.213a4.268,4.268,0,0,0,4.713,0,1.991,1.991,0,0,0,0-3.426,4.267,4.267,0,0,0-4.713,0A1.991,1.991,0,0,0,167.525,124.213Zm4.155-3.071a1.315,1.315,0,0,1,0,2.37,3.542,3.542,0,0,1-3.6,0,1.315,1.315,0,0,1,0-2.369A3.543,3.543,0,0,1,171.68,121.141Z" transform="translate(-165.875 -119.722)" fill="url(#linear-gradient-30)"/>
  </g>
  <path id="Path_48768" data-name="Path 48768" d="M23.877,361.429a1.526,1.526,0,0,0,1.669-.375c.066-.085.037-.185-.055-.288a.226.226,0,0,1,.074-.354l.024-.015c.18-.118.139-.326-.08-.4l-.874-.313c-.22-.079-.484.02-.513.192a.362.362,0,0,1-.367.243.431.431,0,0,0-.331.121C23.088,360.668,23.291,361.2,23.877,361.429Z" transform="translate(-21.613 -336.553)" fill="url(#linear-gradient-31)"/>
  <g id="Group_18130" data-name="Group 18130" transform="translate(2.294 19.584)">
    <path id="Path_48769" data-name="Path 48769" d="M38.2,310.845a4.248,4.248,0,0,0-4.836,0,2.16,2.16,0,0,0,0,3.647,4.248,4.248,0,0,0,4.836,0A2.161,2.161,0,0,0,38.2,310.845Zm-3.953,2.479a1.122,1.122,0,0,1,0-2.023,3.023,3.023,0,0,1,3.071,0,1.122,1.122,0,0,1,0,2.023A3.024,3.024,0,0,1,34.246,313.324Z" transform="translate(-32.362 -310.09)" fill="url(#linear-gradient-32)"/>
    <path id="Path_48770" data-name="Path 48770" d="M41.305,317.9a3.643,3.643,0,0,0,4.023,0,1.7,1.7,0,0,0,0-2.924,3.642,3.642,0,0,0-4.023,0A1.7,1.7,0,0,0,41.305,317.9Zm3.547-2.621a1.122,1.122,0,0,1,0,2.023,3.023,3.023,0,0,1-3.071,0,1.122,1.122,0,0,1,0-2.022A3.023,3.023,0,0,1,44.852,315.275Z" transform="translate(-39.897 -314.063)" fill="url(#linear-gradient-33)"/>
  </g>
  <path id="Path_48771" data-name="Path 48771" d="M315.823,268.453a1.526,1.526,0,0,0-1.669.375c-.066.085-.037.185.055.288a.226.226,0,0,1-.074.354l-.024.015c-.18.118-.139.326.08.4l.874.313c.22.079.484-.02.513-.192a.362.362,0,0,1,.367-.243.431.431,0,0,0,.331-.121c.336-.433.133-.968-.453-1.194Z" transform="translate(-291.735 -251.728)" fill="url(#linear-gradient-34)"/>
  <g id="Group_18132" data-name="Group 18132" transform="translate(19.938 12.611)">
    <ellipse id="Ellipse_50" data-name="Ellipse 50" cx="3.091" cy="2.178" rx="3.091" ry="2.178" fill="url(#linear-gradient-35)"/>
    <g id="Group_18131" data-name="Group 18131" transform="translate(1.456 0.368)">
      <ellipse id="Ellipse_51" data-name="Ellipse 51" cx="0.494" cy="0.494" rx="0.494" ry="0.494" transform="translate(0.813)" fill="url(#linear-gradient-36)"/>
      <ellipse id="Ellipse_52" data-name="Ellipse 52" cx="0.39" cy="0.39" rx="0.39" ry="0.39" transform="translate(0 1.381)" fill="url(#linear-gradient-37)"/>
      <ellipse id="Ellipse_53" data-name="Ellipse 53" cx="0.235" cy="0.235" rx="0.235" ry="0.235" transform="translate(1.854 1.863)" fill="url(#linear-gradient-38)"/>
    </g>
  </g>
  <g id="Group_18134" data-name="Group 18134" transform="translate(6.898 18.359)">
    <ellipse id="Ellipse_54" data-name="Ellipse 54" cx="3.091" cy="2.178" rx="3.091" ry="2.178" fill="url(#linear-gradient-35)"/>
    <g id="Group_18133" data-name="Group 18133" transform="translate(1.456 0.368)">
      <ellipse id="Ellipse_55" data-name="Ellipse 55" cx="0.494" cy="0.494" rx="0.494" ry="0.494" transform="translate(0.813)" fill="url(#linear-gradient-40)"/>
      <ellipse id="Ellipse_56" data-name="Ellipse 56" cx="0.39" cy="0.39" rx="0.39" ry="0.39" transform="translate(0 1.381)" fill="url(#linear-gradient-41)"/>
      <ellipse id="Ellipse_57" data-name="Ellipse 57" cx="0.235" cy="0.235" rx="0.235" ry="0.235" transform="translate(1.854 1.863)" fill="url(#linear-gradient-42)"/>
    </g>
  </g>
  <path id="Path_48772" data-name="Path 48772" d="M209.84,229.317a1.526,1.526,0,0,0-1.669.374c-.066.085-.037.185.055.288a.226.226,0,0,1-.074.354l-.024.015c-.18.118-.139.326.081.4l.874.313c.22.079.484-.02.513-.192a.362.362,0,0,1,.367-.243.431.431,0,0,0,.331-.121C210.629,230.078,210.426,229.543,209.84,229.317Z" transform="translate(-193.267 -215.367)" fill="url(#linear-gradient-34)"/>
  <path id="Path_48773" data-name="Path 48773" d="M223.321,297.476c.718-.12,1.253-.573,1.253-1.115,0-.633-.729-1.147-1.628-1.147a1.869,1.869,0,0,0-1.365.523Z" transform="translate(-205.871 -276.685)" fill="url(#linear-gradient-44)"/>
  <g id="Group_18135" data-name="Group 18135" transform="translate(14.566 14.469)">
    <path id="Path_48774" data-name="Path 48774" d="M211.277,238.705a4.248,4.248,0,0,0-4.836,0,2.16,2.16,0,0,0,0,3.647,4.248,4.248,0,0,0,4.836,0A2.16,2.16,0,0,0,211.277,238.705Zm-3.953,2.479a1.122,1.122,0,0,1,0-2.023,3.023,3.023,0,0,1,3.071,0,1.122,1.122,0,0,1,0,2.023A3.024,3.024,0,0,1,207.324,241.184Z" transform="translate(-205.44 -237.95)" fill="url(#linear-gradient-45)"/>
    <path id="Path_48775" data-name="Path 48775" d="M214.385,245.756a3.643,3.643,0,0,0,4.023,0,1.7,1.7,0,0,0,0-2.924,3.642,3.642,0,0,0-4.023,0A1.7,1.7,0,0,0,214.385,245.756Zm3.547-2.622a1.122,1.122,0,0,1,0,2.023,3.023,3.023,0,0,1-3.071,0,1.122,1.122,0,0,1,0-2.023A3.024,3.024,0,0,1,217.931,243.135Z" transform="translate(-212.976 -241.923)" fill="url(#linear-gradient-46)"/>
  </g>
  <path id="Path_48776" data-name="Path 48776" d="M57.6,278.646c-.779,0-1.411.45-1.411,1s.632,1,1.411,1,1.411-.45,1.411-1S58.384,278.646,57.6,278.646Zm0,1.431c-.331,0-.6-.191-.6-.427s.268-.427.6-.427.6.191.6.427S57.936,280.077,57.6,280.077Z" transform="translate(-52.21 -261.292)" fill="url(#linear-gradient-47)"/>
  <path id="Path_48777" data-name="Path 48777" d="M158.458,251.023c-.779,0-1.411.45-1.411,1s.632,1,1.411,1,1.411-.45,1.411-1S159.237,251.023,158.458,251.023Zm0,1.431c-.331,0-.6-.191-.6-.427s.268-.427.6-.427.6.191.6.427S158.789,252.454,158.458,252.454Z" transform="translate(-145.912 -235.627)" fill="url(#linear-gradient-47)"/>
  <path id="Path_48778" data-name="Path 48778" d="M286.9,179.706c-.779,0-1.411.45-1.411,1s.632,1,1.411,1,1.411-.45,1.411-1S287.675,179.706,286.9,179.706Zm0,1.431c-.331,0-.6-.191-.6-.427s.268-.427.6-.427.6.191.6.427S287.227,181.137,286.9,181.137Z" transform="translate(-265.244 -169.367)" fill="url(#linear-gradient-49)"/>
  <path id="Path_48779" data-name="Path 48779" d="M18.239,388.757c-.779,0-1.411.45-1.411,1s.632,1,1.411,1,1.411-.45,1.411-1S19.018,388.757,18.239,388.757Zm0,1.431c-.331,0-.6-.191-.6-.427s.268-.427.6-.427.6.191.6.427S18.57,390.188,18.239,390.188Z" transform="translate(-15.635 -363.596)" fill="url(#linear-gradient-47)"/>
  <g id="Group_18137" data-name="Group 18137" transform="translate(7.226 10.801)">
    <ellipse id="Ellipse_58" data-name="Ellipse 58" cx="3.091" cy="2.178" rx="3.091" ry="2.178" transform="translate(0 0)" fill="url(#linear-gradient-35)"/>
    <g id="Group_18136" data-name="Group 18136" transform="translate(1.456 0.368)">
      <ellipse id="Ellipse_59" data-name="Ellipse 59" cx="0.494" cy="0.494" rx="0.494" ry="0.494" transform="translate(0.813)" fill="url(#linear-gradient-52)"/>
      <ellipse id="Ellipse_60" data-name="Ellipse 60" cx="0.39" cy="0.39" rx="0.39" ry="0.39" transform="translate(0 1.381)" fill="url(#linear-gradient-53)"/>
      <ellipse id="Ellipse_61" data-name="Ellipse 61" cx="0.235" cy="0.235" rx="0.235" ry="0.235" transform="translate(1.854 1.863)" fill="url(#linear-gradient-54)"/>
    </g>
  </g>
  <path id="Path_48780" data-name="Path 48780" d="M276.491,136.6a1.526,1.526,0,0,0-1.669.374c-.066.085-.037.185.055.288a.226.226,0,0,1-.074.354l-.024.015c-.18.118-.139.326.08.405l.874.313c.22.079.484-.02.513-.192a.362.362,0,0,1,.367-.243.431.431,0,0,0,.331-.121C277.28,137.362,277.077,136.827,276.491,136.6Z" transform="translate(-255.192 -129.224)" fill="url(#linear-gradient-34)"/>
  <path id="Path_48781" data-name="Path 48781" d="M195.341,38.87a35.118,35.118,0,0,1,8.372,4.864c3.212,2.36,5.684,5.892,7.518,8.179.985,1.228,3.7,1.005,4.593-.394a3.978,3.978,0,0,0-.01-3.687,39.056,39.056,0,0,0-8.567-8.294,37.012,37.012,0,0,0-10.309-5.571,2.345,2.345,0,0,0-2.636,1.074A2.589,2.589,0,0,0,195.341,38.87Z" transform="translate(-180.112 -33.875)" fill="url(#linear-gradient-56)"/>
</svg>
