<svg xmlns="http://www.w3.org/2000/svg" width="54.619" height="55.08" viewBox="0 0 54.619 55.08">
  <g id="massage" transform="translate(3.965 3.89)">
    <g id="XMLID_5301_" transform="translate(20.936 25.24)">
      <g id="XMLID_5303_">
        <path id="Path_49302" data-name="Path 49302" d="M231.856,294.9a2.6,2.6,0,0,1-2.6-2.6V271.55a2.6,2.6,0,1,1,5.194,0v20.756A2.6,2.6,0,0,1,231.856,294.9Z" transform="translate(-229.259 -268.953)" fill="#ffb69e"/>
      </g>
      <g id="XMLID_5302_" transform="translate(6.314)">
        <path id="Path_49303" data-name="Path 49303" d="M291,294.9a2.6,2.6,0,0,1-2.6-2.6V271.55a2.6,2.6,0,1,1,5.194,0v20.756A2.6,2.6,0,0,1,291,294.9Z" transform="translate(-288.402 -268.953)" fill="#ffb69e"/>
      </g>
    </g>
    <g id="Group_23889" data-name="Group 23889" transform="translate(16.369 30.519)">
      <path id="Path_49304" data-name="Path 49304" d="M216.465,322.99H188.791a2.3,2.3,0,1,1,0-4.6h27.674a2.3,2.3,0,1,1,0,4.6Z" transform="translate(-186.492 -318.392)" fill="#f2a88f"/>
    </g>
    <path id="Path_49305" data-name="Path 49305" d="M149.952,109.435l.457-6.459a5.209,5.209,0,0,0-5.2-5.577h-7.3c-2.316,0-4,1.481-5,4.4-.459,1.336-1.132,3.241-2,5.667l-5.56,5.465a2.164,2.164,0,1,0,3.034,3.087l5.913-5.812a2.163,2.163,0,0,0,.52-.812c.509-1.418,1.336-3.747,1.336-3.747l-3.073,16.114a1.2,1.2,0,0,0,1.18,1.432h14.81a1.2,1.2,0,0,0,1.18-1.432l-2-10.328.376-.157A2.164,2.164,0,0,0,149.952,109.435Z" transform="translate(-114.933 -90.476)" fill="#ffb69e"/>
    <path id="Path_49306" data-name="Path 49306" d="M207.13,106.241l.231-3.263a5.209,5.209,0,0,0-5.2-5.577h-1.272a2.25,2.25,0,0,1-4.5,0h-1.526c-2.316,0-4,1.481-5,4.4-.347,1.01-1.4,3.988-1.4,3.988l4.036,1.385a.267.267,0,0,1,.061.007c.3-.85.545-1.532.545-1.532l-3.073,16.114a1.2,1.2,0,0,0,1.18,1.432h14.81a1.2,1.2,0,0,0,1.18-1.432l-2-10.328.086-3.157Z" transform="translate(-171.884 -90.477)" fill="#ff6473"/>
    <path id="Path_49307" data-name="Path 49307" d="M139.09,283.713s-34.8-.006-36.644,0a2.622,2.622,0,0,0-2.578,2.631l0,3.089a2.579,2.579,0,0,0,2.581,2.578L115.687,292l2.419-3.691H139.09a2.3,2.3,0,1,0,0-4.6Z" transform="translate(-92.748 -256.894)" fill="#ffb69e"/>
    <g id="Group_23892" data-name="Group 23892" transform="translate(0.17 35.917)">
      <g id="Group_23890" data-name="Group 23890">
        <path id="Path_49308" data-name="Path 49308" d="M36.111,384.228a1.348,1.348,0,0,1-1.348-1.348V370.3a1.348,1.348,0,1,1,2.7,0v12.577A1.348,1.348,0,0,1,36.111,384.228Z" transform="translate(-34.763 -368.956)" fill="#5a2d19"/>
      </g>
      <g id="Group_23891" data-name="Group 23891" transform="translate(44.616)">
        <path id="Path_49309" data-name="Path 49309" d="M454,384.228a1.348,1.348,0,0,1-1.348-1.348V370.3a1.348,1.348,0,1,1,2.7,0v12.577A1.348,1.348,0,0,1,454,384.228Z" transform="translate(-452.648 -368.956)" fill="#5a2d19"/>
      </g>
    </g>
    <ellipse id="Ellipse_135" data-name="Ellipse 135" cx="4.485" cy="4.485" rx="4.485" ry="4.485" transform="translate(21.841 5.034) rotate(-84.318)" fill="#ffb69e"/>
    <g id="Group_23893" data-name="Group 23893" transform="translate(-3.003 35.109)">
      <path id="Path_49310" data-name="Path 49310" d="M57.086,364.617H6.663a1.617,1.617,0,0,1,0-3.235H57.086a1.617,1.617,0,0,1,0,3.235Z" transform="translate(-5.046 -361.382)" fill="#965028"/>
    </g>
    <g id="XMLID_5294_" transform="translate(22.609 15.598)">
      <g id="XMLID_5295_">
        <path id="Path_49311" data-name="Path 49311" d="M245.1,186.061a2.164,2.164,0,0,1,1.163-2.831l6.858-2.864.122-1.726,4.327.166-.226,3.2a2.164,2.164,0,0,1-1.325,1.844l-8.088,3.378A2.164,2.164,0,0,1,245.1,186.061Z" transform="translate(-244.93 -178.641)" fill="#ffb69e"/>
      </g>
    </g>
    <path id="Path_49312" data-name="Path 49312" d="M16.271,329.461H10.023a.877.877,0,0,0-.877.877V332a.877.877,0,0,0,.877.877h6.248a.877.877,0,0,0,.877-.877v-1.665A.877.877,0,0,0,16.271,329.461Z" transform="translate(-11.711 -297.76)" fill="#64afff"/>
    <path id="Path_49313" data-name="Path 49313" d="M267.458,279.416h-13.92a.551.551,0,0,0-.551.551v12.585a.551.551,0,0,0,.551.551h13.92a.551.551,0,0,0,.551-.551V279.967A.551.551,0,0,0,267.458,279.416Z" transform="translate(-229.518 -253.059)" fill="#64afff"/>
    <g id="XMLID_5289_" transform="translate(9.272 31.016)">
      <path id="Path_49314" data-name="Path 49314" d="M140.633,327.148H122.052a2.142,2.142,0,0,1-2.039-2.166,1.974,1.974,0,0,1,2.062-1.935h18.569a2.05,2.05,0,0,1-.011,4.1Z" transform="translate(-120.014 -323.048)" fill="#f2a88f"/>
    </g>
    <circle id="Ellipse_136" data-name="Ellipse 136" cx="4.524" cy="4.524" r="4.524" transform="translate(-3.965 25.146) rotate(-13.008)" fill="#ffb69e"/>
  </g>
</svg>
