<svg xmlns="http://www.w3.org/2000/svg" width="16.027" height="16.027" viewBox="0 0 16.027 16.027">
  <g id="user" transform="translate(-17.44)">
    <g id="Group_23003" data-name="Group 23003" transform="translate(17.44 8.848)">
      <g id="Group_23002" data-name="Group 23002" transform="translate(0)">
        <path id="Path_48700" data-name="Path 48700" d="M25.453,288.389c-5.167,0-8.013,2.336-8.013,6.579a.614.614,0,0,0,.628.6H32.839a.614.614,0,0,0,.628-.6C33.467,290.725,30.621,288.389,25.453,288.389Zm-6.735,5.979c.247-3.172,2.51-4.779,6.735-4.779s6.488,1.607,6.735,4.779Z" transform="translate(-17.44 -288.389)"/>
      </g>
    </g>
    <g id="Group_23005" data-name="Group 23005" transform="translate(21.474)">
      <g id="Group_23004" data-name="Group 23004">
        <path id="Path_48701" data-name="Path 48701" d="M136.028,0a3.931,3.931,0,0,0-3.979,4.059,3.992,3.992,0,1,0,7.958,0A3.931,3.931,0,0,0,136.028,0Zm0,7.178a2.967,2.967,0,0,1-2.779-3.119A2.728,2.728,0,0,1,136.028,1.2a2.758,2.758,0,0,1,2.779,2.859A2.967,2.967,0,0,1,136.028,7.178Z" transform="translate(-132.049)"/>
      </g>
    </g>
  </g>
</svg>
