<svg xmlns="http://www.w3.org/2000/svg" width="14.791" height="14.791" viewBox="0 0 14.791 14.791">
  <g id="noun_edit_1926062" transform="translate(-1 -2)">
    <g id="Group_24166" data-name="Group 24166" transform="translate(1 2)">
      <path id="Path_49541" data-name="Path 49541" d="M13.551,15.551H2.141V4.141H8.987V3H2.141A1.141,1.141,0,0,0,1,4.141v11.41a1.141,1.141,0,0,0,1.141,1.141h11.41a1.141,1.141,0,0,0,1.141-1.141V8.705H13.551Z" transform="translate(-1 -1.902)" fill="#242424"/>
      <path id="Path_49542" data-name="Path 49542" d="M5,11.723H7.311l5.6-5.6L10.584,3.793,5,9.377Z" transform="translate(-0.091 -1.824)" fill="#242424"/>
      <path id="Path_49543" data-name="Path 49543" d="M13.992,3.1l-.776-.776a1.1,1.1,0,0,0-1.552,0l-.871.871,2.329,2.329.871-.871A1.1,1.1,0,0,0,13.992,3.1Z" transform="translate(0.476 -2)" fill="#242424"/>
    </g>
  </g>
</svg>
