<svg xmlns="http://www.w3.org/2000/svg" width="22.62" height="15.549" viewBox="0 0 22.62 15.549">
  <path id="Path_49621" data-name="Path 49621" d="M13.64,26.907,17.3,31.183a.324.324,0,0,0,.57-.211V27.62A1.62,1.62,0,0,1,19.494,26H34.071a1.62,1.62,0,0,1,1.62,1.62v12.31a1.62,1.62,0,0,1-1.62,1.62H19.494a1.62,1.62,0,0,1-1.62-1.62V36.593a.324.324,0,0,0-.57-.227L13.64,40.642a.324.324,0,0,1-.57-.211V27.118a.324.324,0,0,1,.57-.211Zm9.255,7.515h3.239v3.239a.648.648,0,0,0,1.3,0V34.422h3.239a.648.648,0,1,0,0-1.3H27.43V29.887a.648.648,0,1,0-1.3,0v3.239H22.895a.648.648,0,1,0,0,1.3Z" transform="translate(-13.07 -26)" fill="#f9f9f9"/>
</svg>
