<svg xmlns="http://www.w3.org/2000/svg" width="16.016" height="9.547" viewBox="0 0 16.016 9.547">
  <g id="eye" transform="translate(0 -98.725)">
    <path id="Path_49607" data-name="Path 49607" d="M8.008,98.725a9.991,9.991,0,0,0-7.882,4.393.634.634,0,0,0,0,.757,9.986,9.986,0,0,0,7.882,4.4,9.991,9.991,0,0,0,7.882-4.393.634.634,0,0,0,0-.757A9.986,9.986,0,0,0,8.008,98.725Zm.22,8.135a3.369,3.369,0,1,1,3.142-3.142A3.371,3.371,0,0,1,8.227,106.86Zm-.1-1.553a1.814,1.814,0,1,1,1.694-1.694A1.811,1.811,0,0,1,8.126,105.307Z" transform="translate(0 0)" fill="#afafaf"/>
  </g>
</svg>
