<svg xmlns="http://www.w3.org/2000/svg" width="20" height="20" viewBox="0 0 20 20">
  <g id="Group_24445" data-name="Group 24445" transform="translate(-16.058 -16)">
    <path id="XMLID_22_" d="M10,0A10,10,0,1,0,20,10,10.011,10.011,0,0,0,10,0ZM5.152,11.515A1.515,1.515,0,1,1,6.667,10,1.517,1.517,0,0,1,5.152,11.515Zm4.848,0A1.515,1.515,0,1,1,11.515,10,1.517,1.517,0,0,1,10,11.515Zm4.848,0A1.515,1.515,0,1,1,16.364,10,1.517,1.517,0,0,1,14.848,11.515Z" transform="translate(36.058 16) rotate(90)" fill="#fff"/>
  </g>
</svg>
