<svg id="noun_comment_3007871" xmlns="http://www.w3.org/2000/svg" width="15.261" height="13.814" viewBox="0 0 15.261 13.814">
  <g id="Group_24439" data-name="Group 24439">
    <path id="Path_49634" data-name="Path 49634" d="M2.272,0H12.946a2.3,2.3,0,0,1,2.315,2.272V9.131a2.305,2.305,0,0,1-2.315,2.315H11.231a2.108,2.108,0,0,0-1.629.686L8.188,13.589a.8.8,0,0,1-1.115,0L5.659,12.132a2.108,2.108,0,0,0-1.629-.686H2.272A2.3,2.3,0,0,1,0,9.131V2.272A2.287,2.287,0,0,1,2.272,0ZM11.7,4.887a.9.9,0,0,1,.857.9.857.857,0,1,1-1.715,0A.9.9,0,0,1,11.7,4.887Zm-4.072,0a.9.9,0,0,1,.857.9.857.857,0,1,1-1.715,0A.9.9,0,0,1,7.63,4.887Zm-4.115,0a.905.905,0,0,1,.9.9.87.87,0,0,1-.9.857.86.86,0,0,1-.857-.857A.9.9,0,0,1,3.515,4.887Z" fill="#afafaf" fill-rule="evenodd"/>
  </g>
</svg>
