<svg xmlns="http://www.w3.org/2000/svg" width="23" height="23" viewBox="0 0 23 23">
  <path id="world-wide-web" d="M22.362,15.283a11.5,11.5,0,0,0,0-7.567.828.828,0,0,0-.037-.1,11.5,11.5,0,0,0-21.647,0,.817.817,0,0,0-.037.1,11.5,11.5,0,0,0,0,7.567.828.828,0,0,0,.037.1,11.5,11.5,0,0,0,21.647,0A.822.822,0,0,0,22.362,15.283ZM11.5,21.352c-.438,0-1.144-.793-1.734-2.563a18.054,18.054,0,0,1-.679-2.905h4.827a18.069,18.069,0,0,1-.679,2.905C12.646,20.559,11.94,21.352,11.5,21.352ZM8.889,14.235c-.079-.879-.121-1.8-.121-2.734s.042-1.855.121-2.734h5.227c.079.879.121,1.8.121,2.734s-.042,1.855-.121,2.734ZM1.65,11.5a9.823,9.823,0,0,1,.386-2.734h5.2c-.077.9-.116,1.817-.116,2.734s.039,1.837.116,2.734h-5.2A9.824,9.824,0,0,1,1.65,11.5ZM11.5,1.649c.438,0,1.144.793,1.734,2.563a18.056,18.056,0,0,1,.679,2.905H9.089a18.052,18.052,0,0,1,.679-2.905C10.358,2.441,11.064,1.649,11.5,1.649Zm4.267,7.117h5.2a9.868,9.868,0,0,1,0,5.469h-5.2c.077-.9.116-1.817.116-2.734S15.846,9.663,15.769,8.766Zm4.554-1.649H15.58a15.821,15.821,0,0,0-1.5-5.126A9.894,9.894,0,0,1,20.323,7.117ZM8.926,1.991a15.821,15.821,0,0,0-1.5,5.126H2.681A9.9,9.9,0,0,1,8.926,1.991ZM2.681,15.883H7.424a15.823,15.823,0,0,0,1.5,5.126A9.9,9.9,0,0,1,2.681,15.883Zm11.4,5.126a15.821,15.821,0,0,0,1.5-5.126h4.743A9.894,9.894,0,0,1,14.078,21.009Z" transform="translate(-0.002)" fill="#16135a"/>
</svg>
